<?xml version="1.0" encoding="UTF-8"?>
<svg id="Layer_1" data-name="Layer 1" xmlns="http://www.w3.org/2000/svg" xmlns:xlink="http://www.w3.org/1999/xlink" viewBox="0 0 544.59 454.03">
  <defs>
    <style>
      .cls-1, .cls-2, .cls-3, .cls-4, .cls-5, .cls-6, .cls-7, .cls-8, .cls-9, .cls-10, .cls-11, .cls-12, .cls-13, .cls-14, .cls-15, .cls-16 {
        stroke: #1a2e35;
      }

      .cls-1, .cls-2, .cls-5, .cls-9 {
        stroke-miterlimit: 10;
      }

      .cls-1, .cls-3, .cls-17, .cls-4, .cls-6, .cls-7, .cls-8, .cls-18, .cls-10, .cls-11, .cls-12, .cls-13, .cls-14, .cls-15, .cls-16 {
        stroke-linecap: round;
      }

      .cls-1, .cls-4, .cls-12, .cls-14, .cls-19, .cls-16 {
        fill: #1a2e35;
      }

      .cls-1, .cls-6, .cls-13, .cls-16 {
        stroke-width: 1.4px;
      }

      .cls-20, .cls-7, .cls-13, .cls-15 {
        fill: #fff;
      }

      .cls-21, .cls-22 {
        fill: #dfe7eb;
      }

      .cls-23 {
        opacity: .6;
      }

      .cls-2, .cls-5, .cls-9 {
        fill: #9aabb2;
      }

      .cls-3, .cls-17 {
        stroke-width: 1.02px;
      }

      .cls-3, .cls-17, .cls-4, .cls-6, .cls-7, .cls-8, .cls-18, .cls-10, .cls-11, .cls-12, .cls-13, .cls-14, .cls-15, .cls-16 {
        stroke-linejoin: round;
      }

      .cls-3, .cls-17, .cls-6, .cls-8, .cls-18, .cls-10, .cls-11 {
        fill: none;
      }

      .cls-22, .cls-24 {
        opacity: .8;
      }

      .cls-25 {
        clip-path: url(#clippath-1);
      }

      .cls-26 {
        fill: #aeccd4;
      }

      .cls-27 {
        fill: #e1e1e1;
      }

      .cls-17, .cls-18 {
        stroke: #fff;
      }

      .cls-5 {
        stroke-width: 1.02px;
      }

      .cls-28 {
        opacity: .78;
      }

      .cls-7, .cls-8, .cls-14 {
        stroke-width: 1.37px;
      }

      .cls-29 {
        fill: #ffc19d;
      }

      .cls-9 {
        stroke-width: 1.03px;
      }

      .cls-18, .cls-11 {
        stroke-width: 1.05px;
      }

      .cls-10 {
        stroke-width: .68px;
      }

      .cls-12 {
        stroke-width: 1.16px;
      }

      .cls-30 {
        clip-path: url(#clippath);
      }

      .cls-31 {
        fill: #ff9c6a;
      }

      .cls-32 {
        fill: #375a64;
      }

      .cls-33 {
        fill: #afcdd5;
      }

      .cls-15 {
        stroke-width: 1.4px;
      }

      .cls-34 {
        fill: #d9e6ea;
        opacity: .5;
      }
    </style>
    <clipPath id="clippath">
      <rect class="cls-14" x="36.47" y="312.24" width="239.77" height="104.52"/>
    </clipPath>
    <clipPath id="clippath-1">
      <rect class="cls-14" x="308.09" y="308.38" width="221.67" height="125.01"/>
    </clipPath>
  </defs>
  <g>
    <path class="cls-21" d="m517.34,72.93S484.1,10.48,410.7,1.23c-73.4-9.25-124.65,35.85-178.66,58.98-28.29,12.11-60.59,7.41-90.62,13.27C45.4,92.23,9.23,209.68,49.22,276.47c34.62,57.82,95.56,87.89,188.35,94.83,92.79,6.94,157.89,15.03,240.98-41.63,83.1-56.67,77.56-174.63,38.78-256.74Z"/>
    <path class="cls-22" d="m517.34,72.93S484.1,10.48,410.7,1.23c-73.4-9.25-124.65,35.85-178.66,58.98-28.29,12.11-60.59,7.41-90.62,13.27C45.4,92.23,9.23,209.68,49.22,276.47c34.62,57.82,95.56,87.89,188.35,94.83,92.79,6.94,157.89,15.03,240.98-41.63,83.1-56.67,77.56-174.63,38.78-256.74Z"/>
  </g>
  <g class="cls-24">
    <ellipse class="cls-34" cx="272.29" cy="427.02" rx="272.29" ry="27"/>
  </g>
  <g>
    <g>
      <rect class="cls-19" x="33.84" y="286.55" width="508.24" height="4.63"/>
      <g>
        <path class="cls-19" d="m391.17,229.97c.88.39,3.05.34,3.05.34.02,0-.47-1.42-.51-1.5-.47-.99-1.98-2.63-3.2-2.47-.88.12-1.37,1-1.17,1.83.2.85,1.07,1.47,1.82,1.8Z"/>
        <path class="cls-19" d="m419.51,222.61c-1.23-.13-2.68,1.55-3.13,2.55-.04.09-.49,1.52-.47,1.52,0,0,.02,0,.03,0-.23.26-.48.55-.74.87-.48.59-1.02,1.26-1.55,2.03-.54.77-1.1,1.61-1.61,2.56-.51.95-1,1.97-1.37,3.09,0,.01,0,.03-.01.04,0-.36,0-1.37-.02-1.45-.14-1.09-1.06-3.12-2.27-3.34-.87-.16-1.61.52-1.68,1.37-.07.87.56,1.74,1.17,2.28.69.62,2.61,1.22,2.76,1.26-.34,1.07-.61,2.19-.81,3.35-.12.66-.22,1.33-.31,2,0-.31-.01-.59-.02-.63-.14-1.09-1.06-3.12-2.27-3.34-.87-.16-1.61.52-1.68,1.37-.07.87.56,1.74,1.17,2.28.62.56,2.25,1.1,2.68,1.24-.03.26-.07.51-.1.77-.15,1.24-.29,2.47-.47,3.68-.06.43-.14.84-.21,1.26,0-.28-.01-.51-.01-.55-.14-1.09-1.06-3.12-2.27-3.34-.87-.16-1.61.52-1.68,1.37-.07.87.56,1.74,1.17,2.28.59.53,2.09,1.04,2.6,1.21-.09.42-.18.85-.29,1.26-.08.28-.14.55-.23.82-.09.27-.18.54-.26.81-.19.51-.37,1.04-.57,1.53-.13.34-.26.67-.4,1,.07-.42.18-1.25.18-1.32.02-.73-.24-1.92-.76-2.76,0-.11,0-.22-.02-.32-.14-.84-.93-1.47-1.78-1.24-1.19.32-1.95,2.41-2,3.51,0,.06.04.77.07,1.22-.06-.26-.12-.51-.18-.78-.13-.53-.27-1.05-.41-1.61-.08-.27-.16-.54-.25-.81-.08-.27-.19-.55-.29-.83-.24-.64-.51-1.29-.79-1.93.46-.11,2.09-.53,2.75-1.03.65-.5,1.34-1.32,1.34-2.19,0-.85-.69-1.59-1.58-1.49-1.23.13-2.29,2.09-2.51,3.16-.01.07-.09.86-.12,1.29-.18-.38-.35-.77-.54-1.15-.55-1.1-1.14-2.2-1.72-3.3-.18-.34-.35-.67-.53-1.01.16-.04,2.11-.49,2.85-1.05.65-.5,1.34-1.32,1.34-2.19,0-.85-.69-1.59-1.58-1.49-1.23.13-2.29,2.09-2.51,3.16-.02.08-.12,1.22-.13,1.51-.39-.74-.76-1.49-1.11-2.24-.47-1.03-.88-2.07-1.2-3.11.08-.02,2.11-.48,2.87-1.06.65-.5,1.34-1.32,1.34-2.19,0-.85-.69-1.59-1.58-1.49-1.23.13-2.29,2.09-2.51,3.16-.02.08-.13,1.31-.13,1.53-.02-.06-.05-.12-.06-.18-.33-1.11-.51-2.23-.62-3.28-.07-.61-.1-1.2-.12-1.77.39-.05,2.16-.28,2.89-.73.7-.43,1.48-1.16,1.57-2.03.09-.85-.51-1.66-1.4-1.66-1.23,0-2.5,1.82-2.84,2.87-.02.06-.14.66-.23,1.09,0-.26-.01-.53-.01-.77,0-.93.06-1.79.12-2.54.04-.43.08-.82.12-1.18.36-.25,1.78-1.25,2.22-1.97.43-.7.78-1.72.46-2.52-.31-.79-1.22-1.23-2.01-.83-1.1.57-1.38,2.77-1.2,3.86.02.09.43,1.53.45,1.52,0,0,.02-.01.02-.01-.05.35-.1.72-.14,1.13-.08.76-.15,1.61-.17,2.55-.02.93-.02,1.95.07,3.02.1,1.07.25,2.2.56,3.34,0,.01,0,.03.01.04-.19-.3-.76-1.14-.82-1.2-.72-.83-2.6-2.02-3.74-1.54-.82.35-1.06,1.33-.65,2.07.42.76,1.42,1.14,2.24,1.26.92.13,2.85-.43,3-.47.3,1.08.71,2.17,1.17,3.24.27.61.55,1.23.85,1.84-.18-.26-.34-.49-.36-.52-.72-.83-2.6-2.02-3.74-1.54-.82.35-1.06,1.33-.65,2.07.42.76,1.42,1.14,2.24,1.26.83.12,2.48-.32,2.92-.45.12.23.23.47.35.7.56,1.11,1.12,2.22,1.64,3.33.18.39.35.78.52,1.17-.16-.23-.29-.42-.31-.45-.72-.83-2.6-2.02-3.74-1.54-.82.35-1.06,1.33-.65,2.07.42.76,1.42,1.14,2.24,1.26.79.11,2.32-.28,2.84-.43.16.4.32.81.46,1.21.09.27.19.53.26.81.08.28.15.55.23.82.13.53.26,1.07.37,1.59.08.36.15.7.22,1.05-.18-.39-.54-1.14-.58-1.2-.59-.93-2.27-2.39-3.46-2.08-.86.22-1.25,1.15-.95,1.95.3.82,1.23,1.34,2.02,1.58.87.26,2.78.02,3.02,0,.11.57.22,1.13.31,1.66.32,1.83.52,3.37.65,4.44.02.19.04.36.06.52h-3.71l1.35,26.43h6.32l1.35-26.43h-3.46c.03-.05.05-.1.08-.16.47-.99,1.13-2.41,1.84-4.15.23-.55.46-1.14.69-1.75.23.05,2.13.43,3.01.23.8-.18,1.77-.63,2.13-1.43.35-.78.04-1.73-.8-2.02-1.17-.39-2.95.93-3.61,1.82-.04.05-.39.67-.61,1.06.09-.25.19-.49.28-.75.19-.51.36-1.02.54-1.57.08-.27.16-.54.24-.82.09-.27.15-.57.22-.85.16-.67.29-1.35.4-2.04.45.16,2.04.72,2.86.66.82-.06,1.85-.36,2.32-1.09.46-.71.3-1.71-.49-2.11-1.1-.56-3.06.48-3.84,1.25-.05.05-.55.67-.81,1.01.07-.42.13-.83.19-1.26.15-1.22.27-2.46.39-3.7.04-.38.08-.76.12-1.13.16.06,2.03.76,2.96.69.82-.06,1.85-.36,2.32-1.09.46-.71.3-1.71-.49-2.11-1.1-.56-3.06.48-3.84,1.25-.06.06-.77.95-.94,1.19.09-.83.18-1.66.31-2.47.17-1.12.41-2.21.71-3.26.07.03,2.03.77,2.97.7.82-.06,1.85-.36,2.32-1.09.46-.71.3-1.71-.49-2.11-1.1-.57-3.06.48-3.84,1.25-.06.06-.83,1.02-.96,1.21.02-.06.03-.13.05-.19.34-1.11.81-2.14,1.29-3.08.28-.55.58-1.06.88-1.55.35.17,1.96.96,2.82.99.82.03,1.88-.15,2.43-.83.54-.66.48-1.66-.25-2.16-1.03-.68-3.09.14-3.95.82-.05.04-.48.47-.79.79.14-.22.28-.45.42-.65.52-.78,1.04-1.46,1.5-2.05.27-.34.52-.64.75-.92.43,0,2.18-.06,2.94-.42.74-.35,1.59-1,1.78-1.85.18-.83-.34-1.7-1.22-1.8Zm-13.57,32.93c-.74,1.7-1.42,3.1-1.91,4.06-.1.19-.19.37-.27.53h-.08c-.02-.19-.05-.39-.08-.63-.15-1.09-.38-2.63-.75-4.47-.11-.58-.25-1.2-.39-1.84.14-.06.96-.39,1.69-.79.63.68,2.25,1.48,2.46,1.58-.22.54-.44,1.07-.65,1.56Z"/>
        <path class="cls-19" d="m413.06,230.45s.39-1.44.41-1.53c.15-1.09-.2-3.29-1.31-3.82-.8-.39-1.69.08-1.98.88-.3.82.08,1.82.53,2.51.52.81,2.36,1.96,2.36,1.96Z"/>
      </g>
      <g>
        <path class="cls-19" d="m97.94,232.76c.84.37,2.9.32,2.9.32.02,0-.44-1.35-.48-1.43-.45-.94-1.88-2.5-3.04-2.35-.84.11-1.3.95-1.11,1.74.19.8,1.02,1.4,1.73,1.72Z"/>
        <path class="cls-19" d="m124.89,225.75c-1.17-.13-2.55,1.47-2.98,2.43-.04.08-.46,1.44-.44,1.44,0,0,.02,0,.03,0-.22.25-.45.52-.7.82-.46.56-.97,1.2-1.47,1.93-.51.73-1.04,1.53-1.53,2.43-.49.9-.95,1.87-1.31,2.94,0,.01,0,.03-.01.04,0-.34,0-1.3-.02-1.38-.13-1.04-1-2.96-2.16-3.18-.83-.15-1.53.5-1.6,1.3-.07.82.53,1.65,1.11,2.17.66.59,2.48,1.16,2.63,1.2-.33,1.02-.58,2.09-.77,3.18-.11.63-.21,1.26-.29,1.9,0-.3-.01-.56-.02-.6-.13-1.04-1-2.96-2.16-3.18-.83-.15-1.53.5-1.6,1.3-.07.82.53,1.65,1.11,2.17.59.53,2.14,1.04,2.55,1.18-.03.24-.06.49-.09.73-.14,1.18-.28,2.35-.44,3.5-.06.4-.13.8-.2,1.2,0-.26,0-.49-.01-.52-.13-1.04-1-2.96-2.16-3.18-.83-.15-1.53.5-1.6,1.3-.07.82.53,1.65,1.11,2.17.56.5,1.99.99,2.47,1.15-.09.4-.17.81-.27,1.2-.08.26-.13.52-.22.78-.08.26-.17.52-.25.77-.18.48-.35.98-.54,1.45-.13.33-.25.63-.38.95.06-.4.17-1.19.17-1.26.02-.7-.23-1.83-.72-2.62,0-.1,0-.21-.02-.31-.13-.8-.88-1.39-1.7-1.18-1.13.3-1.85,2.29-1.9,3.33,0,.06.04.73.07,1.16-.06-.25-.11-.49-.17-.74-.12-.5-.25-1-.39-1.53-.08-.26-.16-.51-.23-.77-.07-.26-.18-.53-.27-.79-.22-.61-.48-1.22-.75-1.83.44-.11,1.99-.5,2.61-.98.62-.48,1.28-1.25,1.27-2.08,0-.81-.66-1.51-1.5-1.42-1.17.13-2.18,1.98-2.39,3.01-.01.06-.08.82-.11,1.23-.17-.36-.33-.73-.51-1.09-.52-1.05-1.08-2.09-1.63-3.14-.17-.32-.34-.64-.5-.96.16-.04,2.01-.47,2.71-1,.62-.48,1.28-1.25,1.27-2.08,0-.81-.66-1.51-1.5-1.42-1.17.13-2.18,1.98-2.39,3.01-.02.08-.11,1.16-.13,1.44-.37-.71-.73-1.41-1.05-2.13-.45-.98-.84-1.97-1.14-2.95.07-.02,2.01-.46,2.72-1.01.62-.48,1.28-1.25,1.27-2.08,0-.81-.66-1.51-1.5-1.42-1.17.13-2.18,1.98-2.39,3.01-.02.08-.12,1.25-.13,1.46-.02-.06-.04-.12-.06-.18-.31-1.06-.48-2.12-.59-3.12-.07-.58-.1-1.14-.11-1.69.37-.05,2.05-.27,2.75-.69.67-.4,1.41-1.11,1.49-1.93.08-.81-.49-1.57-1.33-1.58-1.17,0-2.38,1.73-2.7,2.73-.02.05-.14.62-.21,1.04,0-.25-.01-.5-.01-.74,0-.89.06-1.7.11-2.42.03-.41.07-.78.12-1.12.34-.23,1.69-1.19,2.11-1.87.41-.67.74-1.63.44-2.4-.3-.75-1.16-1.17-1.91-.78-1.04.54-1.32,2.63-1.14,3.67.02.09.41,1.46.43,1.45,0,0,.02-.01.02-.01-.05.33-.09.69-.13,1.07-.07.72-.15,1.53-.17,2.42-.02.89-.02,1.86.07,2.87.09,1.02.24,2.09.53,3.17,0,.01,0,.02.01.04-.18-.29-.73-1.08-.78-1.14-.68-.79-2.47-1.92-3.55-1.46-.78.33-1,1.26-.61,1.97.4.73,1.35,1.08,2.13,1.2.87.13,2.71-.41,2.85-.45.29,1.03.67,2.06,1.11,3.08.25.58.53,1.17.81,1.74-.17-.25-.32-.46-.34-.49-.68-.79-2.47-1.92-3.55-1.46-.78.33-1,1.26-.61,1.97.4.72,1.35,1.08,2.13,1.2.79.11,2.36-.31,2.77-.43.11.22.22.44.33.66.53,1.06,1.07,2.11,1.56,3.16.17.37.33.74.49,1.11-.15-.22-.28-.4-.3-.43-.68-.79-2.47-1.92-3.55-1.46-.78.33-1,1.26-.61,1.97.4.73,1.35,1.08,2.13,1.2.75.11,2.21-.27,2.7-.4.15.38.3.77.43,1.15.08.26.18.51.25.77.07.26.15.52.22.78.12.5.25,1.02.35,1.51.08.34.14.67.21,1-.17-.37-.51-1.09-.55-1.14-.56-.89-2.15-2.27-3.29-1.98-.82.21-1.18,1.09-.91,1.85.28.78,1.17,1.28,1.92,1.5.82.25,2.65.02,2.87,0,.11.54.21,1.08.3,1.58.31,1.74.5,3.2.61,4.22.02.18.04.34.06.5h-3.53l1.29,25.13h6.01l1.29-25.13h-3.29c.02-.05.05-.1.07-.15.45-.94,1.08-2.29,1.75-3.94.21-.52.43-1.08.65-1.66.22.05,2.02.41,2.86.22.76-.17,1.69-.6,2.03-1.36.33-.74.04-1.65-.77-1.92-1.11-.37-2.81.89-3.43,1.73-.04.05-.37.63-.58,1,.09-.24.18-.47.26-.71.18-.48.34-.97.52-1.49.08-.26.15-.51.23-.78.08-.26.14-.54.21-.81.15-.63.27-1.28.38-1.94.42.15,1.94.68,2.72.63.78-.05,1.76-.34,2.21-1.03.44-.68.28-1.62-.47-2.01-1.04-.54-2.91.45-3.65,1.19-.05.05-.52.64-.77.96.06-.4.13-.79.18-1.19.14-1.16.25-2.34.37-3.52.03-.36.07-.72.11-1.08.15.06,1.93.72,2.81.66.78-.05,1.76-.34,2.21-1.03.44-.68.28-1.62-.47-2.01-1.04-.54-2.91.45-3.65,1.19-.06.06-.73.9-.9,1.13.08-.79.17-1.58.3-2.35.17-1.07.39-2.11.68-3.1.07.03,1.93.73,2.83.66.78-.05,1.76-.34,2.21-1.03.44-.68.28-1.62-.47-2.01-1.04-.54-2.91.45-3.65,1.19-.06.06-.79.97-.91,1.15.02-.06.03-.12.05-.18.32-1.05.77-2.03,1.23-2.93.27-.52.55-1.01.84-1.47.33.17,1.86.91,2.68.94.78.03,1.78-.15,2.31-.79.51-.63.46-1.58-.24-2.05-.98-.65-2.94.13-3.76.78-.04.04-.46.45-.75.75.13-.21.27-.42.4-.62.49-.74.98-1.38,1.43-1.95.25-.32.49-.61.71-.87.41,0,2.07-.06,2.8-.4.71-.33,1.52-.95,1.69-1.76.17-.79-.32-1.62-1.16-1.71Zm-12.9,31.31c-.7,1.62-1.35,2.94-1.82,3.86-.09.19-.18.35-.26.5h-.08c-.02-.18-.05-.38-.08-.6-.14-1.03-.37-2.5-.71-4.25-.11-.55-.24-1.14-.37-1.75.14-.05.91-.37,1.6-.75.6.65,2.14,1.41,2.34,1.51-.21.51-.42,1.01-.62,1.48Z"/>
        <path class="cls-19" d="m118.75,233.21s.37-1.37.39-1.46c.14-1.04-.19-3.12-1.24-3.63-.76-.37-1.61.07-1.89.84-.28.78.08,1.73.5,2.39.5.77,2.24,1.87,2.24,1.87Z"/>
      </g>
      <line class="cls-8" x1="423.67" y1="289.29" x2="423.67" y2="32.66"/>
      <line class="cls-8" x1="194.14" y1="289.29" x2="194.14" y2="34.25"/>
      <line class="cls-8" x1="47.61" y1="163.31" x2="523.73" y2="163.31"/>
      <g>
        <path class="cls-19" d="m118.27,49.13h11.78c1.83,0,3.32,1.49,3.32,3.32v11.59h-18.41v-11.59c0-1.83,1.49-3.32,3.32-3.32Z"/>
        <path class="cls-20" d="m132.51,77.78c0,4.74-3.84,8.58-8.58,8.58s-8.58-3.84-8.58-8.58,3.84-8.58,8.58-8.58,8.58,3.84,8.58,8.58Z"/>
        <polygon class="cls-19" points="160.65 78.18 87.68 78.18 115.05 63.27 133.22 63.27 160.65 78.18"/>
        <rect class="cls-19" x="122.62" y="21.35" width="3.09" height="29.83"/>
      </g>
      <g>
        <path class="cls-19" d="m468.66,49.13h11.78c1.83,0,3.32,1.49,3.32,3.32v11.59h-18.41v-11.59c0-1.83,1.49-3.32,3.32-3.32Z"/>
        <circle class="cls-20" cx="474.31" cy="77.78" r="8.58"/>
        <polygon class="cls-19" points="511.04 78.18 438.06 78.18 465.43 63.27 483.61 63.27 511.04 78.18"/>
        <rect class="cls-19" x="473.01" y="21.35" width="3.09" height="29.83"/>
      </g>
    </g>
    <g>
      <line class="cls-10" x1="261.15" y1="116.17" x2="255.21" y2="119.82"/>
      <line class="cls-10" x1="361.23" y1="54.48" x2="269.12" y2="111.25"/>
      <line class="cls-10" x1="373.39" y1="58.32" x2="299.59" y2="103.8"/>
      <line class="cls-10" x1="405.62" y1="38.46" x2="383.33" y2="52.19"/>
    </g>
  </g>
  <g>
    <g>
      <path class="cls-19" d="m335.48,156.77c3.04,2.4,4.78,6.36,4.48,10.23-.15,1.88-.66,4.02.56,5.45,1.21,1.42,3.58,1.38,4.74,2.84,1.36,1.72.22,4.28.71,6.41.46,2.01,2.58,3.49,4.62,3.23-2.4,1.96-5.34,3.23-8.4,3.65-.78-1.01-1.57-2.01-2.35-3.02.89,1.06.65,2.74-.21,3.82-.86,1.08-2.2,1.67-3.51,2.09-6.3,2-13.51.82-18.85-3.06"/>
      <path class="cls-19" d="m300.19,173.35c.47-1.44,1.26-2.77,1.58-4.25.68-3.18-.87-6.76.67-9.63,1.1-2.04,3.44-3.04,5.65-3.72,2.21-.68,4.59-1.26,6.24-2.88,1.21-1.19,1.9-2.83,3.11-4.03,1.72-1.7,4.26-2.28,6.67-2.43,2.48-.15,5.05.09,7.28,1.18,2.23,1.1,4.08,3.15,4.48,5.6.19,1.2.05,2.45.42,3.6.41,1.27,1.41,2.25,2.02,3.44,1.3,2.5.59,5.87-1.59,7.64l-17.03,22c-3.58,1.35-12.25-.28-15.01-2.93-2.77-2.64-5.67-9.96-4.49-13.6Z"/>
      <path class="cls-20" d="m336.27,165.08c-.7-5-4.5-10.9-9.46-9.98l-15.31,5.15c-1.51.28-2.55,1.66-2.4,3.19l4.51,36.15s-1.13.93-1.87.65c-.19-.07-.36.14-.25.31,1.84,2.67,10.52,14.34,19.47,10.78,2-.8-.21-7.09.03-9.43l-.27-5.96c-.2-3.04-.29-4.29-.29-4.26,0,0,6.33-1.56,7.02-10.03.34-4.21-.39-11.02-1.17-16.57Z"/>
      <path class="cls-19" d="m335.2,172.77c.06.57-.36,1.08-.95,1.16-.59.08-1.12-.32-1.18-.88-.06-.57.36-1.09.95-1.16.59-.08,1.12.32,1.18.88Z"/>
      <path class="cls-19" d="m324.78,173.42c.06.57-.36,1.09-.95,1.16-.59.08-1.12-.32-1.18-.88-.06-.56.36-1.09.95-1.16.59-.08,1.12.32,1.18.88Z"/>
      <path class="cls-19" d="m335.59,169.23c-.12.2-1.12-.43-2.36-.25-1.25.16-2.05,1.04-2.22.88-.08-.07.02-.41.36-.8.34-.39.96-.82,1.74-.92.78-.11,1.49.13,1.92.42.44.29.62.59.56.68Z"/>
      <path class="cls-19" d="m324.36,170.16c-.15.18-1.13-.53-2.47-.47-1.34.04-2.3.82-2.45.65-.07-.08.07-.4.48-.75.41-.35,1.11-.7,1.95-.73.84-.03,1.56.27,1.98.6.43.32.58.63.51.71Z"/>
      <path class="cls-19" d="m328.58,178.07c-.01-.07.7-.24,1.85-.48.29-.05.57-.13.6-.34.05-.22-.09-.53-.26-.86-.33-.69-.68-1.42-1.04-2.18-1.46-3.1-2.53-5.66-2.41-5.72.13-.06,1.41,2.41,2.86,5.51.35.77.69,1.5,1.01,2.19.14.33.36.69.24,1.15-.06.23-.27.4-.45.47-.18.07-.35.09-.5.11-1.17.15-1.89.21-1.9.15Z"/>
      <g class="cls-28">
        <path class="cls-19" d="m330.43,191.67s-5.6.8-11.43-2.13c0,0,3.27,5.66,11.58,4.23l-.15-2.1Z"/>
      </g>
      <path class="cls-19" d="m325.29,179.82c.19-.03.29,1.23,1.43,2.03,1.14.81,2.46.57,2.49.74.02.08-.28.27-.84.33-.55.06-1.37-.05-2.07-.55-.7-.5-1.03-1.2-1.12-1.71-.09-.52.03-.84.11-.84Z"/>
      <path class="cls-19" d="m324.26,165.64c-.09.32-1.25.26-2.6.53-1.35.24-2.41.72-2.61.45-.09-.13.08-.44.5-.78.41-.34,1.09-.68,1.9-.83.81-.15,1.56-.08,2.07.08.51.16.78.39.74.54Z"/>
      <path class="cls-19" d="m334.88,165.01c-.21.28-1.14.08-2.24.15-1.1.04-2.01.33-2.24.07-.1-.13.02-.4.41-.68.38-.28,1.03-.53,1.78-.57.75-.04,1.42.15,1.82.39.41.24.55.5.46.64Z"/>
      <path class="cls-19" d="m308.11,161.45c.77-1.19,2.16-1.8,3.48-2.31,5.7-2.2,11.67-3.72,17.74-4.52.76,1.24.06,2.94-1.08,3.84-1.14.91-2.6,1.26-3.97,1.77-1.36.51-2.76,1.3-3.32,2.64-.6,1.43-.09,3.12-.62,4.58-.9,2.51-4.4,3.31-5.29,5.83-.67,1.9.43,3.92.7,5.92.31,2.26-.53,4.65-2.18,6.23-1.31,1.24-3.09,1.94-4.89,1.97-.41-7.19-.83-14.38-1.25-21.58-.09-1.5-.14-3.11.67-4.37Z"/>
      <path class="cls-19" d="m293.62,179.62c1.14-1.02,2.56-1.9,3.01-3.35.66-2.12-1.04-4.61.05-6.55,1-1.76,3.95-1.67,4.88-3.47.73-1.41-.11-2.65.17-3.88.28-1.23,2.03-2.32,3.28-2.17l9.82,14.23c.91,4.78,1.83,7.32.8,10.11-.56,1.53-1.3,3.03-1.52,4.64-.22,1.62.19,3.45,1.52,4.41-5.87.46-11.38-2.61-16.46-5.58-1.79-1.05-3.59-2.1-5.38-3.14-.56-.33-1.14-.68-1.48-1.23-.79-1.31.16-2.99,1.3-4Z"/>
      <path class="cls-32" d="m299.04,186.56s.21.08.63.12c.42.04,1.05.06,1.83-.13.77-.19,1.71-.58,2.55-1.37.84-.78,1.52-1.99,1.68-3.43.08-.72.03-1.49-.19-2.25-.23-.77-.65-1.48-1.09-2.18-.43-.71-.91-1.43-1.13-2.26-.22-.82-.22-1.79.31-2.49.53-.72,1.53-.89,2.45-1.26.46-.19.94-.47,1.25-.93.31-.45.41-1.01.4-1.54-.01-1.08-.47-2.06-.67-3.06-.1-.5-.14-1.02,0-1.5.12-.48.43-.9.85-1.19.85-.61,1.93-.7,2.97-.79,1.05-.08,2.14-.31,3.03-.89.89-.55,1.61-1.34,2.07-2.25.46-.91.62-1.89.76-2.81.14-.93.27-1.83.58-2.64.31-.81.8-1.51,1.38-2.08,1.18-1.13,2.68-1.73,4.06-1.84,1.39-.12,2.66.25,3.64.76.99.51,1.73,1.15,2.26,1.72,1.06,1.17,1.35,2.03,1.4,2,0,0-.01-.05-.06-.15-.05-.1-.1-.25-.2-.43-.19-.37-.52-.9-1.04-1.51-.52-.6-1.26-1.27-2.27-1.8-1-.53-2.29-.94-3.74-.83-1.44.1-2.99.71-4.24,1.88-.61.59-1.14,1.33-1.47,2.18-.33.85-.46,1.78-.61,2.7-.15.92-.31,1.86-.74,2.72-.43.84-1.11,1.59-1.96,2.11-.84.54-1.84.76-2.88.84-1.03.09-2.19.18-3.14.85-.47.32-.84.83-.98,1.38-.15.56-.1,1.13,0,1.65.22,1.06.66,2.01.67,3,.01.49-.08.97-.34,1.35-.26.38-.66.63-1.1.81-.44.19-.91.31-1.36.51-.45.19-.91.46-1.21.87-.61.83-.59,1.89-.35,2.76.24.89.74,1.63,1.18,2.34.44.7.86,1.39,1.08,2.11.22.72.27,1.46.2,2.15-.14,1.39-.78,2.56-1.57,3.32-.8.77-1.7,1.18-2.45,1.38-1.53.39-2.43.08-2.42.14Z"/>
      <path class="cls-19" d="m291.2,176.44s-.12.14-.19.48c-.08.33-.07.88.25,1.46.16.28.4.58.75.79.34.21.78.34,1.25.33.93.01,2.04-.55,2.57-1.63.27-.53.42-1.15.42-1.79,0-.65-.17-1.31-.41-1.94-.47-1.27-1.31-2.51-1.33-3.99-.02-.72.15-1.5.68-2.02.52-.53,1.33-.66,2.13-.67.8-.03,1.68.08,2.54-.26.42-.17.8-.48,1.05-.88.25-.39.37-.85.43-1.3.11-.92-.11-1.78-.21-2.61-.13-.83-.08-1.65.14-2.42.43-1.54,1.47-2.84,2.73-3.59,1.27-.77,2.75-.85,4.07-.93,1.34-.07,2.63-.15,3.72-.59,1.09-.41,1.97-1.02,2.63-1.66.67-.63,1.13-1.29,1.44-1.85.62-1.14.7-1.86.7-1.86-.04-.02-.17.7-.81,1.8-.33.54-.79,1.18-1.46,1.78-.66.61-1.52,1.19-2.58,1.57-1.06.4-2.31.47-3.65.53-1.33.07-2.85.13-4.22.94-1.34.78-2.44,2.14-2.9,3.77-.23.81-.28,1.7-.15,2.55.11.85.31,1.69.21,2.53-.08.83-.51,1.62-1.27,1.9-.74.3-1.59.22-2.42.24-.81,0-1.74.14-2.36.77-.62.62-.79,1.49-.77,2.26.02.78.25,1.53.54,2.19.28.67.6,1.28.84,1.9.24.61.41,1.24.41,1.84,0,.6-.12,1.18-.37,1.68-.48,1.01-1.49,1.54-2.36,1.55-.44.02-.85-.1-1.17-.28-.32-.19-.56-.46-.72-.72-.32-.54-.35-1.06-.3-1.38.05-.33.14-.48.13-.49Z"/>
      <path class="cls-19" d="m353.09,179.95c-.05,0,.32.56-.02,1.54-.17.46-.55,1.01-1.22,1.24-.65.22-1.56.05-2.16-.59-.3-.31-.47-.75-.51-1.23-.03-.48.06-.98.22-1.49.31-.99.95-2.08.85-3.37-.07-1.26-.71-2.54-1.79-3.39-.53-.43-1.16-.76-1.83-.96-.67-.22-1.39-.27-2.09-.3-.7-.04-1.39-.05-2.03-.21-.64-.15-1.21-.48-1.58-.98-.37-.5-.53-1.13-.57-1.74-.04-.62.03-1.22.15-1.81.24-1.17.59-2.31.53-3.44-.06-1.12-.48-2.11-1.05-2.85-.57-.76-1.3-1.23-1.91-1.62-.62-.39-1.15-.72-1.53-1.06-.78-.66-.92-1.26-.96-1.24,0,0,0,.04.03.1.03.06.05.17.12.29.12.25.35.59.73.94.38.36.91.72,1.51,1.12.6.4,1.3.87,1.82,1.6.53.72.92,1.67.96,2.72.05,1.06-.3,2.16-.55,3.36-.13.6-.21,1.24-.17,1.9.04.65.21,1.34.63,1.91.42.58,1.08.95,1.77,1.11.69.17,1.4.19,2.1.22.7.04,1.38.08,2.01.28.63.19,1.22.5,1.72.9,1.01.79,1.61,1.98,1.68,3.15.1,1.19-.49,2.22-.81,3.27-.16.53-.26,1.07-.22,1.59.04.52.25,1.03.59,1.38.68.7,1.68.87,2.39.6.74-.27,1.12-.89,1.28-1.37.17-.51.12-.93.06-1.2-.07-.27-.16-.38-.16-.38Z"/>
    </g>
    <g>
      <g>
        <polygon class="cls-29" points="313.89 382.81 316.52 405.5 326.47 403.99 327.14 381.63 313.89 382.81"/>
        <g>
          <path class="cls-32" d="m326.5,399.49s-6.67,5.66-10.39,1.5l-.74,2.21-2.92,15.59c-.19,1.01.34,2.06,1.3,2.36.74.23,1.52,0,2.02-.56,2.69-3.04,12.55-14.29,12.35-15.69l-.31-3.75c-.06-.78-.58-1.44-1.31-1.66h0Z"/>
          <g class="cls-23">
            <path class="cls-20" d="m314.1,421.23l13.93-17.64.05.82c.14.88-.22,1.26-.59,1.86-1.1,1.78-4.22,5.81-11.67,14.31-.43.49-1.08.74-1.72.64h0Z"/>
          </g>
          <g class="cls-23">
            <path class="cls-20" d="m325.65,401.33c-.45.37-.56,1.11-.22,1.59.34.48,1.08.59,1.54.23.46-.36.61-1.25.22-1.68-.39-.43-1.26-.52-1.62-.05"/>
          </g>
          <path class="cls-19" d="m317.85,412.46c-.1.06-.6-.92-1.76-1.38-1.15-.5-2.17-.15-2.2-.27-.02-.05.21-.21.65-.31.43-.1,1.08-.08,1.71.18.64.27,1.11.71,1.35,1.09.25.38.3.66.25.68Z"/>
          <path class="cls-19" d="m316.68,415.15c-.08.09-.73-.49-1.73-.71-.99-.24-1.82.01-1.86-.11-.06-.09.82-.57,1.95-.31,1.13.25,1.73,1.06,1.64,1.12Z"/>
          <path class="cls-19" d="m320.14,408.96c-.08.1-1.08-.8-2.6-1.28-1.51-.5-2.83-.33-2.85-.46-.04-.1,1.35-.47,2.97.06,1.63.51,2.56,1.62,2.47,1.68Z"/>
          <path class="cls-19" d="m320.14,404.28c-.04.12-1.12-.25-2.48-.2-1.36.03-2.42.46-2.46.35-.06-.09.99-.74,2.45-.77,1.46-.05,2.54.53,2.49.63Z"/>
          <path class="cls-19" d="m316.89,404.1s-.04-.27.05-.73c.09-.46.3-1.13.78-1.85.24-.34.51-.77,1.06-.97.28-.1.66,0,.85.27.19.27.23.6.2.9-.16,1.22-1.31,2.29-2.67,2.31-1.37,0-2.5-.93-2.92-2.04-.09-.29-.13-.63.05-.94.18-.31.58-.4.84-.32.55.15.87.52,1.17.8.59.61.93,1.21,1.12,1.64.19.43.24.69.22.7-.07.04-.37-1-1.54-2.12-.3-.26-.64-.59-1.03-.67-.19-.04-.37.02-.46.17-.09.15-.08.39,0,.62.36.92,1.39,1.76,2.55,1.74,1.15,0,2.16-.95,2.3-1.93.03-.24,0-.48-.11-.64-.11-.15-.29-.21-.47-.16-.38.11-.67.49-.91.8-.95,1.33-.99,2.43-1.07,2.4Z"/>
        </g>
      </g>
      <g>
        <path class="cls-29" d="m353.29,400.69c-.23-.35-2.31-7.94-2.31-7.94l12.87-3.5,1.82,10.94-12.38.5Z"/>
        <g>
          <path class="cls-32" d="m365.56,398.03v.87s14.18,5.77,14.36,8.58l-28,.2.32-9.79c4.18,2,8.53,2.19,13.32.13Z"/>
          <g class="cls-23">
            <path class="cls-20" d="m355.1,401.01c-.54.16-.91.8-.78,1.38.13.57.75.98,1.29.83.54-.15,1.01-.91.82-1.46-.19-.56-.94-.98-1.43-.7"/>
          </g>
          <g class="cls-23">
            <path class="cls-20" d="m351.93,407.69l.08-2.36,26.81.67s1.25.56,1.12,1.48l-28,.2Z"/>
          </g>
          <path class="cls-19" d="m365.67,398.99c0,.14-.69.21-1.36.68-.68.45-1.02,1.07-1.15,1.02-.13-.03.07-.89.89-1.44.82-.56,1.64-.39,1.61-.26Z"/>
          <path class="cls-19" d="m368.62,400.24c.03.14-.56.39-1.02,1-.48.6-.59,1.25-.73,1.25-.13.02-.23-.82.36-1.57.58-.75,1.38-.82,1.39-.68Z"/>
          <path class="cls-19" d="m370.31,403.93c-.12.03-.32-.68.03-1.47.34-.79.98-1.11,1.04-.99.08.12-.33.54-.61,1.2-.29.65-.32,1.25-.46,1.27Z"/>
        </g>
      </g>
      <g>
        <path class="cls-19" d="m342.35,258.33s9.32,36.99,15.33,73.72c4.94,30.21,7.13,62.91,7.13,62.91l-14.55.85s-8.86-37.46-15.76-64.39c-6.37-24.84-11.54-37.87-11.54-37.87l-4.9-36.42,24.3,1.2Z"/>
        <path class="cls-19" d="m304.43,257.14s-12.76,17.25-11.69,35.25c.64,10.77,21.14,102.58,21.14,102.58h15.07l-4.98-98.21,4.37-33.28-23.93-6.34Z"/>
      </g>
    </g>
    <g>
      <g>
        <path class="cls-15" d="m361.21,190.08l-2.3,8.48-.9,1.46s-.57,4.67-.56,5.66c0,.99,1.61,6.07,1.61,6.07l-2.58,4.77,8.13,2.55s1.89-4.33,2.45-4.84c.57-.51.91-1.9,1-2.83.08-.93.93-6.45.93-6.45,0,0,3.14-6.23,1.65-6.45-.34-.05-1.1.09-1.1.09,0,0-1.87,4.09-2.43,4.21l-.83-.42s1.27-6.15,1.29-7.29c.01-1.14-.27-1.92-1.15-2,0,0-.64.31-.68.6-.04.29-1.27,7.15-1.65,7.04-.38-.1-.24-.73-.24-.73,0,0,1.68-8.32,1.55-8.79-.13-.46-.58-1.17-1.39-1.04l-1.4,4.6s.55-3.83-.1-4.47c-.65-.64-1.3-.24-1.3-.24Z"/>
        <path class="cls-15" d="m364.05,208.35c-.07,0-.07-.71-.4-1.82-.34-1.09-1.16-2.62-2.71-3.67l-.11-.08.02-.13c.1-.61.21-1.25.31-1.91v-.04s.03-.04.03-.04c.13-.2.25-.44.37-.68.4-.81.68-1.65.76-2.45.04-.4.03-.79-.09-1.12-.1-.33-.38-.55-.64-.58l.13-.06c-.89.97-1.64,1.76-2.17,2.31-.53.55-.85.85-.88.82-.03-.02.24-.37.72-.96.49-.59,1.2-1.42,2.06-2.41l.05-.06h.08c.47.02.85.38,1,.8.16.41.16.86.13,1.29-.08.87-.37,1.76-.79,2.6-.13.25-.25.49-.4.72l.03-.08c-.11.66-.22,1.3-.33,1.91l-.09-.2c1.66,1.17,2.44,2.79,2.74,3.94.14.58.19,1.06.2,1.39,0,.33,0,.5-.03.5Z"/>
        <path class="cls-31" d="m363.62,201.63c.03-.11,1.26.17,2.59.94,1.34.76,2.2,1.69,2.12,1.76-.08.09-1.04-.66-2.33-1.4-1.29-.74-2.42-1.19-2.38-1.3Z"/>
      </g>
      <path class="cls-19" d="m343.59,210.72s.04.18.07.53c.03.39.07.9.11,1.54.1,1.34.17,3.27.22,5.67.09,4.79-.13,11.41-.61,18.69-.48,7.29-.89,13.88-.98,18.66-.05,2.39-.07,4.33-.05,5.66,0,.63,0,1.15,0,1.54,0,.35-.01.54-.03.54-.01,0-.03-.18-.06-.54-.02-.39-.05-.91-.08-1.54-.07-1.34-.09-3.28-.08-5.67.02-4.79.38-11.4.86-18.69.48-7.28.75-13.88.73-18.67,0-2.39-.03-4.33-.09-5.66-.01-.63-.03-1.15-.04-1.54,0-.35,0-.54.02-.54Z"/>
      <g>
        <path class="cls-5" d="m355.51,213.97l-3.07,11.32-5.91-20.3c-.71-2.29-2.46-4.07-4.67-4.76,0,0-4.77-1.08-4.77-1.08l5.27,40.61,1.18,3.05c.9,2,2.39,3.35,4.14,4.14,4.94,2.23,11.17-.24,12.47-5.5l6.82-24.32-11.47-3.16Z"/>
        <g>
          <path class="cls-5" d="m305.37,212.12l3.69,46.21,30.27.25,2.85,2.9-.81-37.16-10.49-26.46h0c-1.25,2.37-3.64,3.17-6.52,2.95-1.96-.15-5.54-.52-7.14-1.67l-4.12-3.87-7.73,16.84Z"/>
          <g>
            <path class="cls-5" d="m312.94,193.08l-3.19,3.77-15.92,6.29,9.78,47.3-7.45,18.31c-.78,1.93-1.44,3.9-1.95,5.92l-4.59,17.96s18.5,7.39,22.57,5.05c4.07-2.35,8.45-27.24,9.95-32.66,1.51-5.42,1.65-22.57.6-31.15-1.05-8.58-2.86-21.23-3.76-25.6-.9-4.37-6.04-15.17-6.04-15.17Z"/>
            <path class="cls-5" d="m330.9,194.46l2.3,3.57,9.6,2.43s2.52,12.64,2.52,16.1-1.43,41.86-1.43,43.67,6.93,26.35,6.33,27.86c-.6,1.51-7.83,2.56-7.83,2.56,0,0-2.71-21.23-2.71-28.46s-.3-25-1.81-33.73c-1.51-8.73-6.93-30.42-6.93-30.42l-.04-3.57Z"/>
            <path class="cls-5" d="m339.84,266.21s-.01-.06-.01-.18c0-.14,0-.32,0-.53,0-.5.02-1.17.03-2.03.04-1.79.1-4.33.17-7.46.15-6.3.4-14.99.56-24.6.01-1.2.03-2.39.02-3.55,0-1.16-.12-2.3-.21-3.43-.18-2.26-.36-4.44-.57-6.5-.21-2.07-.45-4.03-.76-5.85-.31-1.82-.84-3.45-1.4-4.91-1.15-2.92-2.33-5.18-3.16-6.74-.41-.75-.73-1.34-.97-1.78-.1-.19-.19-.34-.25-.46-.06-.11-.08-.16-.08-.16,0,0,.04.04.11.14.08.12.17.27.29.44.25.39.6.98,1.03,1.75.86,1.54,2.09,3.78,3.28,6.71.59,1.46,1.14,3.12,1.47,4.96.33,1.83.58,3.8.8,5.87.22,2.07.41,4.25.6,6.51.09,1.13.22,2.28.22,3.46.01,1.17,0,2.36-.02,3.56-.16,9.61-.45,18.31-.67,24.6-.12,3.12-.22,5.66-.29,7.45-.04.85-.08,1.53-.1,2.03-.01.21-.03.39-.04.53-.01.12-.02.18-.03.18Z"/>
            <path class="cls-5" d="m321.99,251.76s-.04-.19-.08-.56c-.04-.37-.09-.92-.13-1.63-.09-1.42-.17-3.47-.13-6.01.02-1.27.07-2.66.17-4.15.06-1.47-.21-3.04-.56-4.66-.79-3.24-2.04-6.71-3.46-10.3-1.45-3.58-2.95-6.95-4.34-10-.68-1.53-1.41-2.95-1.85-4.4-.45-1.43-.74-2.8-.98-4.04-.48-2.49-.75-4.53-.92-5.94-.08-.7-.14-1.25-.17-1.62-.03-.37-.04-.57-.03-.57.01,0,.05.19.1.56.06.41.14.94.24,1.61.22,1.4.52,3.43,1.04,5.91.26,1.24.57,2.59,1.02,4,.44,1.4,1.19,2.82,1.87,4.35,1.41,3.04,2.92,6.41,4.38,10,1.43,3.6,2.68,7.08,3.45,10.36.35,1.65.61,3.24.54,4.76-.11,1.48-.18,2.87-.22,4.13-.08,2.53-.03,4.58,0,6,.03.68.05,1.22.06,1.63.02.37.02.57,0,.57Z"/>
            <path class="cls-5" d="m345.08,211.28s.03.17.06.49c.03.36.06.84.11,1.42.09,1.23.16,3.02.2,5.24.08,4.43-.12,10.54-.57,17.27-.44,6.73-.82,12.83-.91,17.25-.05,2.21-.07,4-.05,5.23,0,.59,0,1.06,0,1.42,0,.33-.01.5-.03.5-.01,0-.03-.17-.05-.49-.02-.36-.04-.84-.07-1.42-.06-1.24-.09-3.03-.07-5.24.02-4.43.35-10.53.79-17.27.44-6.73.69-12.83.68-17.25,0-2.21-.03-4-.08-5.23-.01-.59-.02-1.06-.03-1.42,0-.33,0-.5.01-.5Z"/>
            <path class="cls-5" d="m301.68,228.55s-.05-.35-.06-.99c0-.64-.05-1.56-.13-2.69-.15-2.27-.56-5.39-1.45-8.74-.9-3.35-2.1-6.26-3.1-8.3-.5-1.02-.92-1.84-1.23-2.4-.3-.56-.46-.88-.44-.89.02-.01.22.28.57.81.35.53.81,1.34,1.35,2.35,1.07,2.02,2.32,4.94,3.23,8.32.9,3.38,1.27,6.54,1.35,8.83.04,1.14.04,2.07,0,2.71-.03.64-.06.99-.09.99Z"/>
          </g>
        </g>
      </g>
      <rect class="cls-27" x="276.13" y="270.53" width="47.9" height="33.99" rx="2.71" ry="2.71" transform="translate(-42.97 52.93) rotate(-9.41)"/>
      <path class="cls-15" d="m298.94,287.34s3.49,2.63,4.25,3.67c.76,1.04,2.65,4.75,4.07,5.83,0,0-.29,1.45-1.69.72-1.39-.72-3.08-2.29-3.68-3.2-.6-.9-1.22-.37-1.25.42-.04.79.64,6.13.64,6.13,0,0,1.67,5.94,1.22,6.6-.45.67-1.38.51-1.7.08-.23-.31-2.11-5.27-2.11-5.27l-.48-2.7s.97,8.55.43,9.22c-.54.67-1.13.41-1.5.07-.37-.34-.76-4.12-.76-4.12l-.88-5.04.16,9.61s-.1.91-.82.94c-.71.03-1.19-1.02-1.19-1.02l-1.03-9.91s.33,5.51-.04,5.8c-.49.39-.95.26-1.11-.16-.33-.86-.81-5.81-.81-5.81l-.45-9.43-.48-4.54,8.82-.58.39,2.69Z"/>
      <g>
        <path class="cls-5" d="m293.83,203.15s-4.11,5.11-5.27,10.03c-1.97,8.3-6.37,35.04-5.92,40.35.45,5.31,4.18,35.77,4.18,35.77l13.58-3.08-2.45-34.76,3.85-22.49"/>
        <path class="cls-5" d="m301.79,228.96s-.01.14-.05.4c-.04.27-.1.66-.18,1.16-.17,1.03-.41,2.53-.73,4.46-.65,3.89-1.59,9.51-2.76,16.49v-.03c.67,9.37,1.53,21.33,2.5,34.76v.15s-.13.03-.13.03c-4.36.99-8.91,2.03-13.57,3.09l-.2.04-.02-.2c-.31-2.64-.64-5.44-.97-8.27-.64-5.48-1.26-10.83-1.87-16-.3-2.58-.6-5.12-.89-7.61-.14-1.24-.29-2.47-.43-3.69-.09-1.24-.02-2.46.06-3.65.38-4.78,1.04-9.27,1.66-13.48.63-4.21,1.28-8.11,1.91-11.67.63-3.56,1.24-6.77,1.84-9.59.31-1.4.57-2.72,1.01-3.88.42-1.16.91-2.18,1.38-3.08.95-1.79,1.85-3.09,2.46-3.95.31-.43.56-.76.73-.97.17-.21.27-.32.27-.32,0,0-.08.12-.24.34-.17.23-.4.56-.7.99-.6.88-1.47,2.19-2.4,3.98-.46.9-.94,1.91-1.35,3.07-.42,1.15-.67,2.46-.97,3.87-.58,2.81-1.18,6.03-1.79,9.59-.61,3.56-1.25,7.47-1.87,11.67-.6,4.2-1.26,8.71-1.63,13.46-.08,1.19-.15,2.39-.06,3.6.14,1.22.29,2.44.43,3.69.29,2.49.59,5.02.89,7.61.61,5.17,1.23,10.52,1.88,16,.33,2.83.66,5.63.97,8.27l-.22-.15c4.67-1.06,9.21-2.09,13.58-3.08l-.13.18c-.93-13.43-1.76-25.4-2.4-34.76v-.02s0-.01,0-.01c1.22-6.97,2.2-12.59,2.88-16.47.34-1.92.61-3.42.8-4.45.09-.5.16-.88.22-1.15.05-.26.09-.39.09-.39Z"/>
      </g>
      <path class="cls-19" d="m327.98,239.22s.57-.51,1.02-1.62c.45-1.1.94-2.7,1.3-4.49.37-1.79.51-3.45.57-4.65.05-1.2.04-1.95.09-1.95.04,0,.15.74.16,1.96,0,1.21-.09,2.9-.47,4.72-.37,1.82-.9,3.41-1.42,4.53-.53,1.13-1.24,1.56-1.25,1.51Z"/>
    </g>
  </g>
  <g>
    <g>
      <path class="cls-14" d="m136.16,239.29s4.23,10.67,4.43,14.49c.2,3.82-.81,3.22.81,8.25,1.61,5.03,6.24,16.91,8.86,26.57,2.62,9.66,3.02,18.12,3.02,24.15h-29.79s2.21-6.04-3.82-22.95c-6.04-16.91-8.45-26.97-8.45-31.8s-2.62-9.66-3.62-15.1c-1.01-5.43,2.21-4.83,2.21-4.83l24.36.2s1.61-.2,2.01,1.01Z"/>
      <path class="cls-7" d="m107.41,240.5c.24-2.81,2.39-2.41,2.39-2.41l24.36.2s1.61-.2,2.01,1.01c0,0,4.23,10.67,4.43,14.49.08,1.48-.02,2.29-.09,3.03l-.52.79s-.81,7.05-10.47,7.45-15.1-4.03-17.11-8.25c-2.01-4.23-2.82-11.07-4.43-15.1-.16-.4-.36-.81-.57-1.21Z"/>
      <path class="cls-7" d="m111.2,258.01c0-4.83-2.62-9.66-3.62-15.1-.7-3.76.63-4.63,1.51-4.81.35.12,1.59.85,3.12,5.61,1.81,5.64.81,13.08,1.81,19.12,1.01,6.04,6.04,19.32,9.66,29.19,2.98,8.12,3.64,15.97,2.43,20.73h-2.63s2.21-6.04-3.82-22.95c-6.04-16.91-8.45-26.97-8.45-31.8Z"/>
    </g>
    <g>
      <path class="cls-7" d="m260.31,312.4h-24.24c-.97,0-1.75-.79-1.75-1.75s.78-1.75,1.75-1.75h24.24c1.16,0,2.28-.49,3.07-1.36.96-1.06,1.31-2.52.92-3.9l-8.6-30.82c-.26-.93.28-1.9,1.22-2.16.93-.26,1.9.28,2.16,1.22l8.6,30.82c.71,2.55.07,5.24-1.71,7.2-1.45,1.59-3.51,2.5-5.66,2.5Z"/>
      <g>
        <rect class="cls-7" x="247.55" y="231.71" width="5.53" height="71.46" transform="translate(33.61 -27.89) rotate(6.84)"/>
        <path class="cls-7" d="m257.31,232.29s9.75,34.79-8.51,70.96l8.51-70.96Z"/>
      </g>
    </g>
    <g>
      <g>
        <rect class="cls-19" x="36.47" y="312.24" width="239.77" height="104.52"/>
        <g class="cls-30">
          <rect class="cls-26" x="36.47" y="312.24" width="239.77" height="104.52"/>
        </g>
        <rect class="cls-8" x="36.47" y="312.24" width="239.77" height="104.52"/>
      </g>
      <rect class="cls-19" x="36.5" y="315.21" width="239.81" height="3.47"/>
      <rect class="cls-7" x="30.32" y="310.19" width="247.97" height="5.46"/>
    </g>
  </g>
  <g>
    <g>
      <rect class="cls-7" x="339.76" y="261.08" width="37.52" height="43.34" transform="translate(717.04 565.5) rotate(180)"/>
      <polygon class="cls-7" points="380.19 306.36 337.82 306.36 337.82 267.22 357.87 267.22 380.19 306.36"/>
    </g>
    <g>
      <path class="cls-7" d="m328.73,308.54h24.24c.97,0,1.75-.79,1.75-1.75s-.78-1.75-1.75-1.75h-24.24c-1.16,0-2.28-.49-3.07-1.36-.96-1.06-1.31-2.52-.92-3.9l8.6-30.82c.26-.93-.28-1.9-1.22-2.16-.93-.26-1.9.28-2.16,1.22l-8.6,30.82c-.71,2.55-.07,5.24,1.71,7.2,1.45,1.59,3.51,2.5,5.66,2.5Z"/>
      <g>
        <rect class="cls-7" x="335.97" y="227.85" width="5.53" height="71.46" transform="translate(706.43 484.97) rotate(173.16)"/>
        <path class="cls-7" d="m331.74,228.43s-9.75,34.79,8.51,70.96l-8.51-70.96Z"/>
      </g>
    </g>
    <g>
      <g>
        <rect class="cls-19" x="308.09" y="308.38" width="221.67" height="125.01"/>
        <g class="cls-25">
          <rect class="cls-33" x="308.09" y="308.38" width="221.67" height="125.01"/>
        </g>
        <rect class="cls-8" x="308.09" y="308.38" width="221.67" height="125.01"/>
      </g>
      <rect class="cls-19" x="308.2" y="311.38" width="221.39" height="3.46"/>
      <rect class="cls-7" x="303.25" y="306.33" width="228.13" height="5.46"/>
    </g>
  </g>
  <g>
    <g>
      <g>
        <path class="cls-14" d="m516.08,230.14l-26.94.22s-1.78-.22-2.23,1.11c0,0-4.68,11.8-4.9,16.03-.22,4.23.89,3.56-.89,9.13-1.78,5.57-6.9,18.71-9.8,29.4-3.89,14.37-4.9,29.61-5.15,44.44-.04,2.38-1.46,22.85,2.24,22.85,3.07,0,31.42,3.76,31.77-1.71,1.36-21.78-2.57-43.07,4.99-64.25,2.94-8.23,6.31-16.92,8.8-25.52,2.5-8.64,2.93-17.55,4.56-26.36,1.11-6.01-2.45-5.34-2.45-5.34Z"/>
        <path class="cls-7" d="m518.72,232.81c-.27-3.11-2.64-2.67-2.64-2.67l-26.94.22s-1.78-.22-2.23,1.11c0,0-4.68,11.8-4.9,16.03-.09,1.64.03,2.54.1,3.35l.57.88s.89,7.79,11.58,8.24c10.69.45,16.7-4.45,18.93-9.13,2.23-4.68,3.12-12.25,4.9-16.7.18-.45.4-.89.63-1.34Z"/>
      </g>
      <path class="cls-7" d="m512.48,241.51c-1.81,6.51-.72,8.31-2.53,19.52-1.81,11.2-8.31,23.85-10.84,35.42-2.53,11.57-1.45,52.4-1.08,54.21.14.69.17,1.8.16,2.9,1.21-.45,1.95-1.08,2-1.93,1.36-21.78-2.57-43.07,4.99-64.25,2.94-8.23,6.31-16.92,8.8-25.52,2.5-8.64,2.93-17.55,4.56-26.36.68-3.69-.4-4.86-1.33-5.22l-.03.04s-2.89,4.7-4.7,11.2Z"/>
    </g>
    <g>
      <path class="cls-7" d="m439.09,242.17s-8.24,3.79-11.58,6.24c-3.34,2.45-2.67,8.46-2.67,10.02s-8.91,16.03-7.35,21.16c1.56,5.12,5.34,18.71,5.57,21.82s-.45,12.02-.45,12.02h42.09s-.22-13.58,1.11-23.6c1.34-10.02,4.23-13.58,4.23-28.95s-16.7-18.26-20.93-18.71c-4.23-.45-10.02,0-10.02,0Z"/>
      <g>
        <g>
          <path class="cls-2" d="m417.49,279.58c1.41,4.64,4.64,16.19,5.4,20.65,0-1.92,0-3.76-.06-5.28-.22-6.46,0-15.59,6.46-30.51,4.96-11.47,7.81-18.97,8.87-21.83-2.24,1.06-7.99,3.85-10.65,5.8-3.34,2.45-2.67,8.46-2.67,10.02s-8.91,16.03-7.35,21.15Z"/>
          <path class="cls-7" d="m383.87,311.65s-2.91,4.4-4.95,7.21c-2.04,2.81-5.36,8.17-3.06,8.43,2.3.26,4.85-2.04,7.41-3.32,2.55-1.28,3.83-4.6,3.83-4.6,0,0-.77,4.85,1.02,3.83,1.79-1.02,1.79-4.6,1.79-6.89s.51-5.87.51-5.87c0,0-3.37-2.93-6.54,1.22Z"/>
          <path class="cls-7" d="m385.24,317.34s-12.41,0-14.44,1.15c-2.02,1.15-8.95,33.78-14.72,47.06,0,0-4.62,11.55-8.37,17.03-1.31,1.92-7.51,4.33-11.84,5.49-4.33,1.15-6.06,2.02-5.49,3.18.58,1.15,9.53,3.18,13.57,3.75,4.04.58,6.64-.58,7.79-.58s2.6,1.44,4.91.58c2.31-.87.87-6.93.87-10.39s4.33-15.88,9.24-21.08c4.91-5.2,14.44-25.12,16.46-31.18,2.02-6.06,2.6-7.51,2.6-7.51"/>
          <path class="cls-7" d="m382.24,324.27s-7.35,2.63-7.35,11.55,13.13,65.64,13.13,68.79,0,8.93-6.3,14.7c-.95.87-6.43,4.72-5.8,6.5,1.04,2.92,8.38.08,10.17-.69,3.23-1.39,6.82-7.07,10.33-6.86,3.74.23,4.2-1.58,4.2-5.25s-4.06-8.3-4.59-13.55c-.53-5.25-2.2-23.8-.63-32.67,1.44-8.18-5.81-28.87-5.81-28.87,0,0,22.3,13.65,41.96,8.89,19.66-4.76-18.33-13.09-24.11-17.29s-20.48-8.4-25.21-5.25Z"/>
          <path class="cls-7" d="m375.42,323.69s9.82,10.68,22.23,15.59l4.33-21.08s-18.48-3.18-31.18.29"/>
          <path class="cls-2" d="m464.7,313.43s-.22-13.58,1.11-23.6c1.34-10.02,4.23-13.58,4.23-28.95,0-14.3-14.46-17.8-19.88-18.57-1.01,1.77-2.75,4.98-3.06,6.55-.45,2.23-10.02,21.6-12.25,36.07-1.78,11.57-.29,23.98.38,28.5h-12.63l.59,4.54-23.63-1.05-5.96,23.52s12.74,5.43,21.94,9.24c9.2,3.81,27.74,7.29,38.85,3.8,9.15-2.88,15.97-7.81,14.73-18.14-.88-7.39-2.45-14.73-4.42-21.91Z"/>
        </g>
        <polyline class="cls-8" points="438.17 242.6 426.62 259.32 427.96 263.1 424.17 267.33 423.51 279.58"/>
        <polyline class="cls-8" points="448.89 248.85 448.22 262.21 443.55 265.11 445.33 268.67 436.2 285.82"/>
      </g>
      <g>
        <path class="cls-7" d="m429.73,202.65s-2.63,5.93-2.42,7.7c.22,1.77-.2,3.84-1.91,4.5-1.71.66-3.57,2.01-2.71,3.48.85,1.47,2.29,2.19,2.29,2.19,0,0-1.12,7.32-.43,9.25.69,1.93,2.03,5.58,4.24,5.31,2.21-.27,7.76-.73,7.76-.73,0,0,1.87,4.71.54,11.17-1.34,6.46-6.24,12.47-.89,13.81,5.34,1.34,8.46-5.57,10.91-10.47s3.75-11.33,4.86-15.06c1.11-3.73,2.66-7.51,2.66-7.51,0,0-7.15-1.59-10.23-10.18-3.08-8.6-2.9-14.45-7.54-15.67-4.64-1.22-7.13,2.22-7.13,2.22Z"/>
        <path class="cls-8" d="m433.78,228.18s.46,3.76,4.69,1.67"/>
        <g>
          <g>
            <path class="cls-14" d="m438.83,196.37s-4.75-.31-7.93-.59-4.43,4.14-3.69,6.51c.74,2.38,1.46,2.74,1.46,2.74,0,0,4.4-2.56,4.84-.82.44,1.74-3.63,5.16-1.48,8.03,2.15,2.88,5.57,5.15,3.8,7.16-1.77,2.01-.86,3.92.68,3.73,1.55-.19,3.65-3.14,4.5.12.85,3.26-3.1,5.77-2.25,7.23s8.94,3.39,11.21,1.76c2.27-1.63,7.91-3.22,10.57-12.52,2.67-9.3.06-15.94-5.6-21.75-5.65-5.81-15.19-1.27-15.19-1.27l-.94-.33Z"/>
            <path class="cls-17" d="m447.5,203.84c.87.43,1.7.96,2.47,1.6"/>
            <path class="cls-17" d="m433.57,202.37s6.13-1.23,11.75.59"/>
          </g>
          <path class="cls-7" d="m383.87,311.65l.67-1.56c.67-1.56,7.81-2.88,14.88-3.89,11.44-1.63,17.02-3.46,23.64-4.8,8.26-1.67,16.92-3.79,16.92-3.79,0,0,14.7,3.34,12.25,8.24-2.45,4.9-9.13,5.79-9.13,5.79h-55.79s.5,1.94-1.88,3.06"/>
          <path class="cls-2" d="m449.12,271.12s-2.89,12.92-4.68,16.26c-1.78,3.34-5.57,2.23-5.34,4.23s1.11,4.01,1.11,4.01c0,0-2.67,0-2.67,1.11s3.12,5.12,7.13,7.13c4.01,2,6.9,4.23,8.68,2,1.78-2.23,3.56-6.46,3.34-7.35-.22-.89,1.56.67,3.12-1.34,1.56-2,1.34-3.34,1.34-5.12s5.79-16.26,6.46-17.59"/>
          <path class="cls-3" d="m444.87,294.04s7.11,1.12,11.22,2.99"/>
          <path class="cls-3" d="m441.5,293.29s4.11,6.73,10.47,7.85"/>
          <g>
            <path class="cls-14" d="m457.66,211.83s.45,6.68-5.34,17.15c-5.79,10.47-13.81,30.51-8.02,41.42,5.79,10.91,21.6,8.68,26.05-1.11,4.45-9.8,1.56-34.74-3.12-45.21-4.68-10.47-6.68-14.25-6.68-14.25,0,0-2.67-1.34-2.89,2Z"/>
            <path class="cls-17" d="m459.79,271.82c1.87.05,3.92-.64,5.89-2.17"/>
            <path class="cls-17" d="m458.85,216.03s2.39,19.13-4.1,38.94c-2.5,7.63-2.13,12.84.97,15.36"/>
            <path class="cls-17" d="m458.17,224.22s-6.83,17.42-12.3,29.37c-5.46,11.95-.68,19.47,7.51,21.18"/>
          </g>
        </g>
      </g>
    </g>
    <path class="cls-8" d="m435.25,313.43s-1.02,11.37,1.08,12.94c2.1,1.58,17.33,6.3,27.31,3.15"/>
    <line class="cls-8" x1="423.2" y1="317.97" x2="432.65" y2="319.55"/>
    <path class="cls-7" d="m386.09,425.13c3.23-1.39,6.82-7.07,10.33-6.86,3.74.23,4.2-1.58,4.2-5.25,0-1.34-.54-2.8-1.25-4.37-.09.16-.19.32-.28.5-2.89,5.49-7.22,8.08-10.39,9.24-3.18,1.15-5.77,0-5.77,0l-.43.18c-.25.25-.5.5-.77.76-.95.87-6.43,4.72-5.8,6.5,1.04,2.92,8.38.08,10.17-.69Z"/>
    <path class="cls-7" d="m339.8,386.84c-1.36.48-2.72.91-3.94,1.23-4.33,1.15-6.06,2.02-5.49,3.18s9.53,3.18,13.57,3.75c4.04.58,6.64-.58,7.8-.58s2.6,1.44,4.91.58c1.94-.73,1.24-5.1.96-8.54-2.47.78-5.8,1.62-9.33,1.9-5.86.47-7.91-.96-8.48-1.52Z"/>
    <path class="cls-14" d="m460.43,405.95l-.18-.14v-25.15h3.61v-15.9h-13.37v15.9h3.61v25.59l-31.98,10.19v2.53c0,1.6,1.29,2.89,2.89,2.89s2.89-1.29,2.89-2.89v-.36l26.74-3.11v3.83c0,1.4,1.13,2.53,2.53,2.53s2.53-1.13,2.53-2.53v-3.96l27.83,3.24v.36c0,1.6,1.29,2.89,2.89,2.89s2.89-1.29,2.89-2.89v-2.53l-32.89-10.48Z"/>
    <rect class="cls-14" x="415.47" y="349.24" width="86.76" height="18.44" rx="4" ry="4"/>
    <path class="cls-7" d="m115.58,411.75s14.54,3.92,18,6.92c3.46,3-6.92,3.92-13.38,3.69-6.46-.23-7.15-2.08-11.77-2.08s-8.77,2.08-9.46-2.08c-.69-4.15,5.08-5.77,9-6.69,3.92-.92,7.61.23,7.61.23Z"/>
    <path class="cls-3" d="m111.38,418.43s7.11,4.65,19.69,1.91"/>
    <path class="cls-7" d="m101.04,414.06s6,3.92,11.08,6c5.08,2.08,8.77,2.77,6.46,4.61-2.31,1.85-3,2.08-8.77,3.23-5.77,1.15-17.31-1.85-18.46-1.85s-2.31,1.38-5.54.23c-3.23-1.15-3.69-2.77-2.54-6.46,1.15-3.69,15.92-6.92,17.77-5.77Z"/>
    <path class="cls-3" d="m89.23,423.62s12.85,5.2,27.07.82"/>
    <g>
      <path class="cls-14" d="m133.11,254.16l2.77,29.07s-3.92,41.76-8.77,55.38c-4.85,13.61-9.23,28.61-10.84,34.15-1.62,5.54-3.23,27.23-1.85,31.61,1.38,4.38,1.15,6.46,1.15,6.46v.92s.92.69-2.31,2.54c-3.23,1.85-7.38,2.54-7.38,2.54l-4.85-2.77s-6.92,5.08-9.46,6.46c-2.54,1.38-8.31,2.31-8.31,2.31,0,0-1.85-2.77-1.85-5.54v-9c0-3.23-2.31-19.15-2.08-28.84.23-9.69,2.08-20.3,3.92-25.15,1.85-4.85,8.08-19.61,8.08-19.61,0,0,0-6.69-3-18.46-3-11.77-3.69-17.77-7.61-30.46-3.92-12.69,3.92-31.38,3.92-31.38,0,0,18.23,3.23,28.15,2.77,9.92-.46,20.3-3,20.3-3Z"/>
      <g>
        <path class="cls-17" d="m98.5,279.08s1.38,2.54,3.46,5.08"/>
        <polyline class="cls-17" points="110.96 261.31 118.58 261.54 118.35 259.69"/>
        <path class="cls-17" d="m121.34,260.16v1.85s6.46,1.62,11.54-1.15"/>
        <path class="cls-17" d="m128.73,264.31l-1.85,7.15,3,4.15s-4.38,7.61-4.38,8.31"/>
      </g>
      <path class="cls-17" d="m130.11,285.31l-7.61,6.23s-4.61,39.23-7.15,49.38c-2.54,10.15-12,43.15-13.15,50.53s-1.38,10.15-1.38,10.84,1.38,3.23,1.38,4.61v5.31"/>
    </g>
    <path class="cls-7" d="m107.5,258.31s13.84,1.85,20.07,1.38c6.23-.46,7.15-3,7.85-5.31.69-2.31-8.31-57.22-8.77-60.45-.46-3.23.23-8.54-4.15-10.38-4.38-1.85-13.61,1.38-15.23,7.61-1.62,6.23,3.46,42.46,2.08,50.3-1.38,7.85-1.85,16.84-1.85,16.84Z"/>
    <polygon class="cls-14" points="119.5 194.4 122.96 200.63 124.11 252.31 128.27 262.23 131.73 250 125.04 200.16 125.96 192.78 123.19 186.78 119.5 194.4"/>
    <polygon class="cls-7" points="124.11 191.86 128.27 199.01 126.19 185.86 122.04 188.4 124.11 191.86"/>
    <path class="cls-7" d="m113.96,171.55l-1.15,5.31,9.46,16.84s2.83-6.29,3.92-7.85c1.24-1.76,5.39-8.4,5.39-8.4,0,0-7.01.56-8.16-3.6-1.15-4.15,0-9.92-4.38-10.38-4.38-.46-5.08,8.08-5.08,8.08Z"/>
    <g>
      <path class="cls-7" d="m118.55,168.29l.45,1.55s-.9,2.67.63,4.62c1.53,1.96,10.12,6.66,13.88,5.56s4.91-12.01,4.91-12.01c0,0,3.58-.08,3.22-2.14-.36-2.06-2.47-4.33-2.67-6.67-.2-2.34,1.06-2.95.51-5.68-.55-2.72-1.42-4.87-3.91-6.79-2.48-1.92-16.08,4.21-20.11,8.51-4.03,4.3-4.86,8.87-3.86,11.46,1,2.59,6.95,1.58,6.95,1.58Z"/>
      <path class="cls-19" d="m135.93,160.25c-.05.84-.37,1.5-.71,1.48-.34-.02-.57-.72-.51-1.56.05-.84.37-1.5.71-1.48.34.02.57.72.51,1.56Z"/>
      <path class="cls-8" d="m133.73,171.37s-1.51-.4-2.1-1.48"/>
    </g>
    <g>
      <path class="cls-14" d="m120.24,158.42l-.45,4.22,2.66-.78s-1.44,3.3.52,1.77,4.56-6.62,5.38-7.1c.82-.48,5.52-4.98,8.7-8.07,3.18-3.09,4.59-7.35,3.5-9.43s-14.33-11.2-26.4-4.79c-12.07,6.41-15.34,15.78-14.08,20.94,1.27,5.16,10.98,18.67,12.72,18.88,1.74.21,5.77-5.77,5.77-5.77,0,0-5.21-1.36-4.17-3.59,1.03-2.22,5.86-6.28,5.86-6.28Z"/>
      <path class="cls-17" d="m112.35,159.57c-1.64,1.15-3.31,2.17-4.97,3"/>
      <path class="cls-17" d="m133.9,137.29s-7.32,10.32-16.53,18.33"/>
      <path class="cls-17" d="m108.7,156.12c-.52.49-1.06.97-1.61,1.46"/>
      <path class="cls-17" d="m123.93,137.86s-4.25,7.34-12.58,15.71"/>
    </g>
    <polygon class="cls-7" points="112.35 175.01 124.11 191.86 115.58 200.39 109.58 177.32 112.35 175.01"/>
    <g>
      <path class="cls-2" d="m106.35,178.71l-16.15,5.31s-12.69,60.45-13.61,62.07-17.54,31.38-15.46,34.61c2.08,3.23,21.92,13.84,23.54,13.15,1.62-.69,13.38-23.07,20.54-29.53,7.15-6.46,14.31-14.54,15.23-23.54l-6.23-26.53-.69-16.61-7.15-18.92Z"/>
      <polygon class="cls-2" points="110.96 177.32 106.35 178.71 105.19 201.32 113.04 205.7 108.42 212.62 120.42 240.77 115.58 197.16 110.96 177.32"/>
      <path class="cls-2" d="m96.03,274.89l-18.43,16.03s1.82,2.19,7.06,2.92c0,0,8.19-11.21,11.38-18.95Z"/>
    </g>
    <path class="cls-7" d="m98.96,261.54s7.61.23,9.23.69c1.62.46,7.85,6.92,7.85,6.92,0,0,0,.69-2.31,1.38-2.31.69-6.46-2.31-6.46-2.31l-9,8.54-5.54-6.92,6.23-8.31Z"/>
    <polygon class="cls-7" points="98.27 259 100.35 261.77 92.73 269.85 91.81 266.85 98.27 259"/>
    <path class="cls-2" d="m104.04,180.55s-21.69,0-23.3,1.85c-1.62,1.85-18.69,53.53-18.69,56.53s29.3,30.46,29.3,30.46l8.31-10.15-16.61-26.07,13.15-28.38"/>
    <path class="cls-1" d="m186.78,269.33s-2.45,16.18-.74,24.76c1.72,8.58,8.09,50.5,9.81,67.67,1.72,17.16,10.05,43.15,10.54,44.38.49,1.23-.74,4.66-.74,6.13s.49,4.9.49,4.9c0,0-7.11,4.66-10.79,6.86-3.68,2.21-1.96,3.19,1.47,3.68,3.43.49,51.98,0,51.98,0,0,0,1.23-.25-.25-2.45-1.47-2.21-11.52-9.07-11.52-9.07,0,0-.25-1.47-.25-4.9s-2.94-9.56-2.94-9.56c0,0,5.39-39.23,4.17-49.52-1.23-10.3-1.72-20.84.25-30.16,1.96-9.32-.98-50.75-.49-52.71.49-1.96-.49-4.17-.49-4.17,0,0-15.45,6.13-28.44,7.11-12.99.98-22.06-2.94-22.06-2.94Z"/>
    <g>
      <path class="cls-13" d="m248.56,425.26c-1.47-2.21-11.52-9.07-11.52-9.07,0,0-.03-.17-.06-.49-8.99,2.7-16.59,9.02-16.59,9.02,0,0,.8-1.06-3.72-4.79-4.52-3.72-10.52-2.76-10.52-2.76,0,0-7.11,4.66-10.79,6.86-3.68,2.21-1.96,3.19,1.47,3.68,3.43.49,51.98,0,51.98,0,0,0,1.23-.25-.25-2.45Z"/>
      <path class="cls-11" d="m195.7,425.56s9.02.66,12.76-.44"/>
    </g>
    <path class="cls-9" d="m184.13,201.64s-7.07,37.88-8.84,43.61c-1.76,5.73-1.1,18.94,4.19,17.4,5.29-1.54,7.05-9.47,7.49-11.67.44-2.2.88-40.75.88-47.36s-3.72-1.98-3.72-1.98Z"/>
    <path class="cls-9" d="m209.69,187.04s-18.11,5.33-21,5.93c-2.89.61-4.41,5.02-4.56,8.67-.15,3.65.46,40.93.3,52.04-.15,11.11-1.67,14.91,3.35,19.02,5.02,4.11,19.17,4.87,32.11,3.96,12.93-.91,18.72-4.87,18.72-10.65s-.91-33.17-.91-33.17c0,0,1.37-15.98,4.56-22.82,3.2-6.85,5.02-8.98,2.59-11.41-2.43-2.43-17.5-11.11-23.43-12.78-5.93-1.67-11.72,1.22-11.72,1.22Z"/>
    <path class="cls-16" d="m206.19,197.69l1.67,10.65,12.17-7.15-5.33-8.67s-7.46,2.28-8.52,5.17Z"/>
    <path class="cls-9" d="m210.65,181.52s-3.92,3.27-5.62,7.59c-1.7,4.32-5.23,11.12-3.79,11.51s5.76-3.27,6.67-3.27,2.75,4.45,3.27,4.58c.52.13,5.49-1.96,5.49-1.96,0,0,.78,5.62,2.49,5.76,1.7.13,7.46-8.63,8.5-15.17,1.05-6.54-2.35-7.59-3.01-7.72-.65-.13-8.37-3.53-14-1.31Z"/>
    <g>
      <path class="cls-16" d="m209.73,160.2s-.26-6.02-.26-9.68.52-5.62,2.75-6.41c2.22-.78,2.88,2.62,2.75,4.45-.13,1.83-5.23,11.64-5.23,11.64Z"/>
      <path class="cls-13" d="m209.73,158.76s-.13-4.45-1.7-2.09c-1.57,2.35-1.05,7.85,0,7.32,1.05-.52,1.7-5.23,1.7-5.23Z"/>
      <path class="cls-13" d="m209.99,181.26s-.39,10.59-.65,14.78c-.26,4.19,1.18,6.54,3.66,5.62s8.5-8.89,10.33-12.03c1.83-3.14,3.01-6.8,3.01-6.8,0,0-9.02,2.75-16.35-1.57Z"/>
      <path class="cls-13" d="m213,147.25s-4.71,15.56-6.02,21.19c-1.31,5.62-.65,10.33,1.7,14,2.35,3.66,6.15,5.23,10.33,5.1,4.19-.13,9.42-1.18,12.56-7.72,3.14-6.54,3.66-9.81,4.32-11.12s3.01-8.11,4.32-12.43-1.28-9.51-6.28-12.43c-1.54-.9-11.77-7.36-20.93,3.4Z"/>
      <path class="cls-13" d="m236.81,167.26s3.27-2.62,4.19-.65c.92,1.96-.78,5.49-3.01,6.67-2.22,1.18-3.66.39-3.66.39,0,0,1.05-4.97,2.49-6.41Z"/>
      <g>
        <g>
          <path class="cls-16" d="m241.12,141.76l-1.44-1.57s-.13-1.05-4.32-2.62c-4.19-1.57-9.02-1.31-10.73-3.4-1.7-2.09-3.66-2.62-8.63-1.83-4.97.78-7.06,5.89-7.06,10.07s9.02,10.07,15.3,10.99c6.28.92,12.43-1.05,11.12.13-1.31,1.18-5.1,5.36-3.79,6.8,1.31,1.44,2.09,2.35,2.09,4.05,0,1.17-.25,3.86-.19,5.49-.5,1.03-1.85,3.76-2.16,4.19-.39.52-4.05-2.62-6.28-3.79-2.22-1.18-3.4-1.18-3.4-1.18,0,0-.13,1.96-1.05,2.22-.92.26-4.05.26-4.97-.65-.92-.92-.65-2.75-.65-2.75,0,0-5.12.01-8.5,3.7-.45,4.24.33,7.87,2.22,10.82,2.35,3.66,6.15,5.23,10.33,5.1,4.19-.13,9.42-1.18,12.56-7.72,2.45-5.1,3.3-8.19,3.87-9.94.37-.54.72-1.21.97-1.97.65-1.96,3.01-5.49,4.71-7.59,1.7-2.09,4.05-7.06,3.92-12.03-.13-4.97-3.92-6.54-3.92-6.54Z"/>
          <path class="cls-18" d="m229.12,142.5s-8.42-3.16-9.83,2.81c-1.4,5.97,12.63,7.72,24.22,5.62"/>
          <path class="cls-18" d="m233.33,157.95s2.46.7,8.07-1.05"/>
        </g>
        <g>
          <path class="cls-6" d="m217.97,158.76l-.52,3.01s-3.4,7.59-2.49,8.5c.92.92,5.76,1.96,6.15.39s.39-2.22.39-2.22l-1.57-.39"/>
          <path class="cls-6" d="m223.47,159.94s4.84-1.18,6.02,2.88"/>
          <path class="cls-6" d="m216.93,157.45s-1.7-1.83-4.32-.52"/>
          <path class="cls-19" d="m225.42,164.5c-.11.79-.57,1.37-1.04,1.31s-.75-.75-.65-1.54c.11-.79.57-1.37,1.04-1.31.47.06.75.75.65,1.54Z"/>
          <path class="cls-19" d="m214.5,161.23c-.11.79-.57,1.37-1.04,1.31s-.75-.75-.65-1.54c.11-.79.57-1.37,1.04-1.31s.75.75.65,1.54Z"/>
          <path class="cls-20" d="m224.12,174.2c-5.48,6.49-9.84,1.13-10.2-.26l10.2.26Z"/>
        </g>
      </g>
    </g>
    <path class="cls-16" d="m207.86,208.34s-6.39,25.41-7.61,37.58c-1.22,12.17-1.07,20.69-1.07,20.69l3.2,5.63,4.72-5.63s-.15-27.08-.15-35.76.91-22.52.91-22.52Z"/>
    <path class="cls-9" d="m238.02,213.19s-3.92,8.83-2.45,13.24c1.47,4.41,13.97,22.8,15.2,23.54,1.23.74,10.79,2.94,12.01-2.7,1.23-5.64-9.07-38.98-12.26-43.88-3.19-4.9-5.64-4.41-6.86-3.43"/>
    <polygon class="cls-13" points="204.19 231.58 205.66 270.8 235.57 269.33 234.83 230.84 204.19 231.58"/>
    <path class="cls-9" d="m256.9,240.4s-7.6.74-12.01,3.19c-4.41,2.45-21.57,6.13-21.57,6.13l.98,9.56s12.26,1.72,23.29,0c11.03-1.72,17.41-1.23,17.9-4.41.49-3.19-3.68-15.2-3.68-15.2"/>
    <line class="cls-13" x1="229.68" y1="248.74" x2="230.18" y2="259.77"/>
    <path class="cls-13" d="m224.05,250.7l-8.34-6.62s-5.64-2.94-6.86-2.94-6.62.98-7.6,1.23c-.98.25-.49,1.47,1.23,2.21,1.72.74,3.43.74,3.43.74,0,0-7.85,1.72-7.85,3.68s3.43,2.94,3.43,2.94c0,0-.98,4.66,1.23,6.37,2.21,1.72,4.41,2.45,8.34,1.47,3.92-.98,13.24-.49,13.24-.49l-.25-8.58Z"/>
    <path class="cls-9" d="m182.78,246.58s-5.73-6.83-7.49-12.12c-1.76-5.29-5.73-15.42-5.73-15.42l-6.39-.22s.66,19.83,4.19,31.06c3.52,11.23,8.15,16.96,10.57,15.86,2.42-1.1,5.95-6.39,5.95-6.39"/>
    <g>
      <path class="cls-13" d="m176.17,194.15c-1.98,1.32-2.64,3.3-3.08,5.07-.44,1.76-1.32,2.42-4.19,2.2-1.21-.09-2.1.12-2.88.72-.11-.5-.19-1.02-.19-1.48,0-1.56,2.67-5.01,3.9-6.02s3.01-2.45,2.79-3.79c-.22-1.34-5.24,1.56-6.69,2.56-1.45,1-2.23,5.13-2.23,5.13-.85,2.87-.73,6.16-.21,7.79-.15.34-.29.66-.44,1.04-1.98,4.85.22,11.45.22,11.45l6.39.22s-.66-3.3.44-4.63c1.1-1.32,1.98-3.3,3.74-4.85,1.76-1.54,2.64-6.17,2.64-7.27s.66-3.97,1.54-5.95c.88-1.98.22-3.52-1.76-2.2Z"/>
      <path class="cls-13" d="m161.94,202.78s.78-4.12,2.23-5.13c1.45-1,6.46-3.9,6.69-2.56.22,1.34-1.56,2.79-2.79,3.79-1.23,1-3.9,4.46-3.9,6.02s.89,3.79.89,3.79c0,0-1.34,2.56-2.45,2.9s-1.89-4.68-.67-8.8Z"/>
      <path class="cls-13" d="m162.16,205.23s.78-4.12,2.23-5.13c1.45-1,6.46-3.9,6.69-2.56.22,1.34-1.56,2.79-2.79,3.79-1.23,1-3.9,4.46-3.9,6.02s.89,3.79.89,3.79c0,0-1.34,2.56-2.45,2.9-1.11.33-1.89-4.68-.67-8.8Z"/>
      <path class="cls-13" d="m162.49,216.26s-1.78-6.13-1.56-8.58c.22-2.45,1.11-4.57,2.34-4.68,1.23-.11,6.46-2.01,6.46-.56s-4.79,3.01-4.79,3.01c0,0,3.01,3.9,2.9,5.91-.11,2.01-.78,4.23-.78,4.23"/>
    </g>
    <polyline class="cls-18" points="201.98 292.38 207.5 296.42 220.37 422.93"/>
  </g>
  <g>
    <ellipse class="cls-12" cx="136.61" cy="160.21" rx="4.27" ry="2.67" transform="translate(-41.22 272.93) rotate(-81.92)"/>
    <line class="cls-4" x1="133.73" y1="159.7" x2="120.78" y2="159.06"/>
  </g>
</svg>