<?xml version="1.0" encoding="UTF-8"?>
<svg id="Character_1" data-name="Character 1" xmlns="http://www.w3.org/2000/svg" xmlns:xlink="http://www.w3.org/1999/xlink" viewBox="0 0 538.9 449.28">
  <defs>
    <style>
      .cls-1 {
        stroke-miterlimit: 10;
      }

      .cls-1, .cls-2, .cls-3, .cls-4, .cls-5, .cls-6, .cls-7, .cls-8, .cls-9, .cls-10 {
        stroke-linecap: round;
      }

      .cls-1, .cls-2, .cls-3, .cls-4, .cls-5, .cls-6, .cls-8, .cls-9, .cls-10 {
        stroke: #263238;
      }

      .cls-1, .cls-3, .cls-4, .cls-6, .cls-9, .cls-10 {
        stroke-width: 1.35px;
      }

      .cls-1, .cls-8, .cls-10, .cls-11 {
        fill: #263238;
      }

      .cls-2, .cls-3, .cls-4, .cls-5, .cls-6, .cls-7, .cls-8, .cls-9, .cls-10 {
        stroke-linejoin: round;
      }

      .cls-2, .cls-4, .cls-5, .cls-7 {
        fill: none;
      }

      .cls-2, .cls-8 {
        stroke-width: .68px;
      }

      .cls-12, .cls-13, .cls-9 {
        fill: #fff;
      }

      .cls-14, .cls-3, .cls-15 {
        fill: #b9ced6;
      }

      .cls-16, .cls-17 {
        fill: #dfe7eb;
      }

      .cls-18, .cls-6 {
        fill: #9aabb2;
      }

      .cls-17 {
        opacity: .8;
      }

      .cls-13 {
        opacity: .5;
      }

      .cls-5, .cls-7 {
        stroke-width: 1.01px;
      }

      .cls-7 {
        stroke: #fff;
      }

      .cls-19 {
        clip-path: url(#clippath-1);
      }

      .cls-20 {
        clip-path: url(#clippath);
      }

      .cls-15 {
        opacity: .72;
      }
    </style>
    <clipPath id="clippath">
      <rect class="cls-3" x="36.09" y="308.98" width="237.27" height="103.43"/>
    </clipPath>
    <clipPath id="clippath-1">
      <rect class="cls-3" x="309.16" y="308.98" width="219.35" height="123.71"/>
    </clipPath>
  </defs>
  <g>
    <path class="cls-16" d="m511.94,72.17S479.05,10.38,406.41,1.22c-72.64-9.16-123.34,35.48-176.8,58.36-27.99,11.99-59.96,7.33-89.68,13.13C44.92,91.27,9.13,207.49,48.71,273.59c34.26,57.22,94.56,86.97,186.39,93.84,91.82,6.87,156.24,14.88,238.47-41.2,82.23-56.08,76.75-172.8,38.37-254.06Z"/>
    <path class="cls-17" d="m511.94,72.17S479.05,10.38,406.41,1.22c-72.64-9.16-123.34,35.48-176.8,58.36-27.99,11.99-59.96,7.33-89.68,13.13C44.92,91.27,9.13,207.49,48.71,273.59c34.26,57.22,94.56,86.97,186.39,93.84,91.82,6.87,156.24,14.88,238.47-41.2,82.23-56.08,76.75-172.8,38.37-254.06Z"/>
  </g>
  <g>
    <ellipse class="cls-18" cx="269.45" cy="422.56" rx="269.45" ry="26.72"/>
    <ellipse class="cls-13" cx="269.45" cy="422.56" rx="269.45" ry="26.72"/>
  </g>
  <g>
    <g>
      <rect class="cls-11" x="33.48" y="283.56" width="502.93" height="4.58"/>
      <g>
        <path class="cls-11" d="m387.09,227.57c.88.38,3.02.33,3.02.33.02,0-.46-1.4-.5-1.49-.47-.98-1.96-2.61-3.16-2.44-.87.12-1.36.99-1.16,1.81.2.84,1.06,1.46,1.81,1.79Z"/>
        <path class="cls-11" d="m415.13,220.28c-1.21-.13-2.65,1.53-3.1,2.53-.04.09-.48,1.5-.46,1.5,0,0,.02,0,.03,0-.23.26-.47.54-.73.86-.47.58-1.01,1.25-1.53,2.01-.53.76-1.09,1.6-1.59,2.53-.51.94-.99,1.95-1.36,3.06,0,.01,0,.03-.01.04,0-.36,0-1.36-.02-1.43-.14-1.08-1.05-3.09-2.24-3.31-.86-.16-1.6.52-1.66,1.36-.07.86.55,1.72,1.16,2.26.68.61,2.58,1.2,2.73,1.25-.34,1.06-.6,2.17-.8,3.31-.12.65-.21,1.31-.3,1.98,0-.31-.01-.59-.02-.62-.14-1.08-1.05-3.08-2.24-3.31-.86-.16-1.6.52-1.66,1.36-.07.86.55,1.72,1.16,2.26.62.55,2.22,1.09,2.65,1.22-.03.25-.07.51-.1.76-.15,1.22-.29,2.45-.46,3.64-.06.42-.14.83-.21,1.25,0-.27-.01-.51-.01-.54-.14-1.08-1.05-3.09-2.24-3.31-.86-.16-1.6.52-1.66,1.36-.07.86.55,1.72,1.16,2.26.59.52,2.07,1.03,2.58,1.2-.09.42-.18.84-.28,1.25-.08.27-.13.54-.23.81-.09.27-.17.54-.26.8-.18.5-.37,1.02-.56,1.51-.13.34-.26.66-.39.98.07-.42.18-1.24.18-1.31.02-.72-.24-1.9-.75-2.73,0-.11,0-.21-.02-.32-.13-.83-.92-1.45-1.77-1.22-1.18.31-1.93,2.38-1.98,3.47,0,.06.04.76.07,1.21-.06-.26-.11-.51-.18-.77-.12-.52-.26-1.04-.41-1.59-.08-.27-.16-.53-.24-.81-.08-.27-.19-.55-.28-.82-.23-.64-.5-1.27-.78-1.91.46-.11,2.07-.52,2.72-1.02.65-.5,1.33-1.31,1.32-2.17,0-.84-.69-1.57-1.56-1.48-1.21.13-2.27,2.06-2.49,3.13-.01.07-.09.85-.12,1.28-.17-.38-.34-.76-.53-1.14-.54-1.09-1.12-2.18-1.7-3.27-.18-.33-.35-.67-.52-1,.16-.04,2.09-.48,2.82-1.04.65-.5,1.33-1.31,1.32-2.17,0-.84-.69-1.57-1.56-1.48-1.21.13-2.27,2.06-2.49,3.13-.02.08-.12,1.21-.13,1.5-.38-.74-.76-1.47-1.09-2.21-.47-1.02-.87-2.05-1.19-3.07.08-.02,2.09-.48,2.84-1.05.65-.5,1.33-1.31,1.32-2.17,0-.84-.69-1.57-1.56-1.48-1.21.13-2.26,2.06-2.49,3.13-.02.08-.13,1.3-.13,1.52-.02-.06-.05-.12-.06-.18-.33-1.1-.5-2.2-.62-3.25-.07-.61-.1-1.19-.12-1.76.38-.05,2.14-.28,2.86-.72.7-.42,1.47-1.15,1.55-2.01.09-.84-.51-1.64-1.39-1.64-1.22,0-2.48,1.8-2.81,2.84-.02.06-.14.65-.22,1.08,0-.26-.01-.52-.01-.77,0-.92.06-1.77.12-2.51.04-.42.08-.81.12-1.17.35-.24,1.76-1.24,2.2-1.95.42-.69.77-1.7.45-2.5-.31-.78-1.21-1.22-1.99-.82-1.08.56-1.37,2.74-1.19,3.82.02.09.42,1.52.44,1.5,0,0,.02-.01.02-.01-.05.34-.09.71-.14,1.12-.07.75-.15,1.59-.17,2.52-.02.93-.02,1.93.07,2.99.09,1.06.25,2.17.55,3.3,0,.01,0,.03.01.04-.19-.3-.76-1.13-.81-1.18-.71-.82-2.57-2-3.7-1.52-.81.34-1.05,1.31-.64,2.05.41.75,1.41,1.13,2.21,1.24.91.13,2.82-.42,2.97-.47.3,1.07.7,2.14,1.16,3.21.26.61.55,1.21.84,1.82-.17-.26-.33-.48-.36-.51-.71-.82-2.57-2-3.7-1.52-.81.34-1.05,1.31-.64,2.05.41.75,1.41,1.13,2.21,1.25.82.12,2.46-.32,2.89-.44.11.23.23.46.34.69.55,1.1,1.11,2.2,1.62,3.29.18.39.35.77.51,1.16-.16-.23-.29-.42-.31-.44-.71-.82-2.57-2-3.7-1.52-.81.34-1.05,1.31-.64,2.05.41.75,1.41,1.13,2.21,1.25.78.11,2.3-.28,2.81-.42.16.4.32.8.45,1.19.09.27.19.53.26.8.08.27.15.54.23.81.13.52.26,1.06.37,1.57.08.36.15.7.22,1.04-.18-.39-.54-1.13-.57-1.19-.58-.92-2.24-2.36-3.42-2.06-.85.22-1.23,1.14-.94,1.93.3.81,1.22,1.33,2,1.57.86.26,2.75.02,2.99,0,.11.57.22,1.12.31,1.64.32,1.81.52,3.33.64,4.4.02.19.04.36.06.52h-3.67l1.34,26.15h6.26l1.34-26.15h-3.42c.03-.05.05-.1.08-.16.47-.98,1.12-2.38,1.82-4.1.22-.54.45-1.13.68-1.73.23.05,2.11.43,2.98.23.79-.18,1.75-.63,2.11-1.41.35-.77.04-1.72-.8-1.99-1.16-.39-2.92.92-3.57,1.8-.04.05-.39.66-.6,1.05.09-.25.18-.48.28-.74.18-.5.35-1.01.54-1.56.08-.27.16-.54.24-.81.09-.27.14-.56.22-.84.16-.66.28-1.34.4-2.02.44.16,2.01.71,2.83.65.81-.06,1.83-.36,2.3-1.08.46-.71.3-1.69-.48-2.09-1.08-.56-3.03.47-3.8,1.24-.05.05-.54.66-.8,1,.06-.41.13-.82.18-1.24.15-1.21.26-2.44.38-3.66.04-.38.08-.75.12-1.12.16.06,2.01.75,2.93.69.81-.06,1.83-.36,2.3-1.08.46-.71.3-1.69-.49-2.09-1.08-.56-3.03.47-3.8,1.24-.06.06-.76.94-.93,1.18.09-.82.18-1.64.31-2.45.17-1.11.4-2.19.7-3.22.07.03,2.01.76,2.94.69.81-.06,1.83-.36,2.3-1.08.46-.71.3-1.69-.49-2.09-1.08-.56-3.03.47-3.8,1.24-.06.06-.82,1.01-.95,1.19.02-.06.03-.13.05-.19.33-1.1.8-2.12,1.28-3.05.28-.54.57-1.05.87-1.53.35.17,1.94.95,2.79.98.81.03,1.86-.15,2.4-.82.53-.65.48-1.65-.25-2.13-1.02-.67-3.06.14-3.91.82-.05.04-.48.46-.78.78.14-.22.28-.44.41-.65.51-.77,1.02-1.44,1.49-2.03.26-.33.51-.63.74-.91.43,0,2.15-.06,2.91-.41.74-.35,1.58-.99,1.76-1.83.17-.82-.33-1.68-1.21-1.78Zm-13.43,32.58c-.73,1.69-1.41,3.06-1.89,4.02-.1.19-.19.36-.27.52h-.08c-.02-.19-.05-.39-.08-.62-.15-1.07-.38-2.61-.74-4.43-.11-.58-.25-1.19-.39-1.82.14-.06.95-.38,1.67-.78.62.68,2.22,1.47,2.43,1.57-.22.54-.43,1.05-.65,1.54Z"/>
        <path class="cls-11" d="m408.74,228.04s.39-1.42.4-1.52c.15-1.08-.19-3.25-1.29-3.78-.79-.38-1.68.08-1.96.87-.29.81.08,1.8.52,2.48.52.8,2.33,1.94,2.33,1.94Z"/>
      </g>
      <g>
        <path class="cls-11" d="m96.92,230.33c.83.36,2.87.32,2.87.32.02,0-.44-1.33-.48-1.41-.45-.93-1.86-2.48-3.01-2.32-.83.11-1.29.94-1.1,1.72.19.8,1.01,1.39,1.72,1.7Z"/>
        <path class="cls-11" d="m123.58,223.4c-1.15-.12-2.52,1.46-2.94,2.4-.04.08-.46,1.43-.44,1.43,0,0,.02,0,.02,0-.22.25-.45.52-.7.81-.45.55-.96,1.18-1.46,1.91-.5.72-1.03,1.52-1.51,2.41-.48.89-.94,1.85-1.29,2.91,0,.01,0,.02-.01.04,0-.34,0-1.29-.02-1.36-.13-1.03-.99-2.93-2.13-3.14-.82-.15-1.52.49-1.58,1.29-.07.82.52,1.63,1.1,2.15.65.58,2.46,1.14,2.6,1.19-.32,1.01-.57,2.07-.76,3.15-.11.62-.2,1.25-.29,1.88,0-.29-.01-.56-.02-.59-.13-1.03-.99-2.93-2.13-3.14-.82-.15-1.52.49-1.58,1.29-.07.82.52,1.63,1.1,2.15.59.52,2.12,1.03,2.52,1.16-.03.24-.06.48-.09.73-.14,1.16-.27,2.33-.44,3.46-.06.4-.13.79-.2,1.18,0-.26,0-.48-.01-.51-.13-1.03-.99-2.93-2.13-3.14-.82-.15-1.52.49-1.58,1.29-.07.82.52,1.63,1.1,2.15.56.5,1.97.98,2.45,1.14-.08.4-.17.8-.27,1.18-.07.26-.13.52-.22.77-.08.26-.16.51-.25.76-.17.48-.35.97-.53,1.44-.12.32-.25.63-.37.94.06-.4.17-1.18.17-1.25.02-.69-.23-1.81-.71-2.59,0-.1,0-.2-.02-.3-.13-.79-.87-1.38-1.68-1.16-1.12.3-1.83,2.27-1.88,3.3,0,.06.04.73.07,1.15-.06-.24-.11-.48-.17-.73-.12-.5-.25-.99-.39-1.52-.08-.25-.15-.51-.23-.77-.07-.26-.18-.52-.27-.78-.22-.61-.48-1.21-.75-1.81.43-.1,1.97-.5,2.59-.97.61-.47,1.26-1.24,1.26-2.06,0-.8-.65-1.5-1.48-1.41-1.15.13-2.15,1.96-2.36,2.98-.01.06-.08.81-.11,1.22-.16-.36-.33-.72-.51-1.08-.52-1.04-1.07-2.07-1.62-3.11-.17-.32-.33-.63-.5-.95.15-.04,1.99-.46,2.68-.99.61-.47,1.26-1.24,1.26-2.06,0-.8-.65-1.5-1.48-1.41-1.15.13-2.15,1.96-2.36,2.98-.02.08-.11,1.15-.12,1.42-.36-.7-.72-1.4-1.04-2.1-.45-.97-.83-1.95-1.13-2.92.07-.02,1.99-.45,2.7-.99.61-.47,1.26-1.24,1.26-2.06,0-.8-.65-1.5-1.48-1.41-1.15.13-2.15,1.96-2.36,2.98-.02.08-.12,1.23-.12,1.44-.02-.06-.04-.12-.06-.17-.31-1.04-.48-2.1-.59-3.09-.06-.58-.09-1.13-.11-1.67.37-.04,2.03-.27,2.72-.68.66-.4,1.39-1.09,1.48-1.91.08-.8-.48-1.56-1.32-1.56-1.16,0-2.36,1.71-2.68,2.7-.02.05-.13.62-.21,1.03,0-.24-.01-.5-.01-.73,0-.88.06-1.68.11-2.39.03-.4.07-.77.11-1.11.34-.23,1.68-1.18,2.09-1.85.4-.66.73-1.61.43-2.38-.29-.75-1.15-1.16-1.89-.78-1.03.53-1.3,2.61-1.13,3.63.01.09.4,1.44.42,1.43,0,0,.02-.01.02-.01-.05.33-.09.68-.13,1.06-.07.71-.14,1.52-.16,2.4-.02.88-.02,1.84.07,2.84.09,1.01.24,2.07.53,3.14,0,.01,0,.02.01.04-.18-.29-.72-1.07-.77-1.13-.68-.78-2.45-1.9-3.51-1.44-.77.33-.99,1.25-.61,1.95.39.72,1.34,1.07,2.1,1.18.86.13,2.68-.4,2.82-.44.29,1.02.66,2.04,1.1,3.05.25.58.52,1.15.8,1.73-.17-.24-.32-.46-.34-.49-.68-.78-2.45-1.9-3.51-1.44-.77.33-.99,1.25-.61,1.95.39.72,1.34,1.07,2.1,1.18.78.11,2.33-.3,2.75-.42.11.22.22.44.32.66.53,1.05,1.06,2.09,1.54,3.13.17.37.33.73.49,1.1-.15-.22-.27-.4-.3-.42-.68-.78-2.45-1.9-3.51-1.44-.77.33-.99,1.25-.61,1.95.39.72,1.34,1.07,2.1,1.18.74.11,2.18-.26,2.67-.4.15.38.3.76.43,1.14.08.26.18.5.25.76.07.26.14.52.22.77.12.5.24,1.01.35,1.49.07.34.14.66.21.99-.17-.37-.51-1.08-.54-1.13-.55-.88-2.13-2.25-3.26-1.96-.81.21-1.17,1.08-.9,1.84.28.77,1.16,1.26,1.9,1.49.81.25,2.62.02,2.84,0,.11.54.21,1.06.29,1.56.3,1.72.49,3.17.61,4.18.02.18.04.34.05.49h-3.49l1.27,24.87h5.95l1.27-24.87h-3.25c.02-.05.05-.1.07-.15.45-.93,1.06-2.27,1.73-3.9.21-.52.43-1.07.65-1.64.22.05,2,.41,2.84.22.75-.17,1.67-.6,2.01-1.34.33-.73.03-1.63-.76-1.9-1.1-.37-2.78.88-3.39,1.71-.04.05-.37.63-.58.99.09-.23.18-.46.26-.7.18-.48.34-.96.51-1.48.08-.25.15-.51.23-.77.08-.25.14-.53.21-.8.15-.63.27-1.27.38-1.92.42.15,1.92.67,2.69.62.77-.05,1.74-.34,2.19-1.02.44-.67.28-1.61-.46-1.99-1.03-.53-2.88.45-3.61,1.18-.05.05-.51.63-.76.95.06-.39.13-.78.17-1.18.14-1.15.25-2.32.37-3.48.03-.36.07-.71.11-1.07.15.06,1.91.71,2.78.65.77-.05,1.74-.34,2.19-1.02.44-.67.28-1.61-.46-1.99-1.03-.53-2.88.45-3.61,1.18-.06.06-.73.9-.89,1.12.08-.78.17-1.56.29-2.33.16-1.06.38-2.08.67-3.06.07.03,1.91.72,2.8.66.77-.05,1.74-.34,2.19-1.02.44-.67.28-1.61-.46-1.99-1.03-.53-2.88.45-3.61,1.18-.06.06-.78.96-.9,1.14.02-.06.03-.12.05-.18.32-1.04.76-2.01,1.21-2.9.26-.52.54-.99.83-1.45.33.16,1.84.9,2.65.93.77.03,1.77-.14,2.29-.78.51-.62.46-1.57-.24-2.03-.97-.64-2.91.13-3.72.77-.04.04-.45.44-.75.74.13-.21.26-.42.39-.61.49-.73.97-1.37,1.41-1.93.25-.32.49-.6.71-.86.41,0,2.05-.06,2.77-.39.7-.33,1.5-.94,1.67-1.74.17-.78-.32-1.6-1.15-1.69Zm-12.77,30.98c-.7,1.6-1.34,2.91-1.8,3.82-.09.18-.18.35-.25.49h-.08c-.02-.18-.05-.37-.08-.59-.14-1.02-.36-2.48-.71-4.21-.11-.55-.23-1.13-.37-1.73.14-.05.9-.37,1.59-.75.59.64,2.11,1.4,2.31,1.49-.21.51-.41,1-.62,1.46Z"/>
        <path class="cls-11" d="m117.51,230.77s.37-1.35.38-1.44c.14-1.03-.18-3.09-1.23-3.6-.75-.36-1.59.07-1.87.83-.28.77.08,1.71.5,2.36.49.76,2.22,1.85,2.22,1.85Z"/>
      </g>
      <line class="cls-4" x1="419.25" y1="286.27" x2="419.25" y2="32.32"/>
      <line class="cls-4" x1="192.11" y1="286.27" x2="192.11" y2="33.9"/>
      <line class="cls-4" x1="47.12" y1="161.6" x2="518.26" y2="161.6"/>
      <g>
        <path class="cls-11" d="m117.07,48.62h11.59c1.83,0,3.32,1.49,3.32,3.32v11.43h-18.22v-11.43c0-1.83,1.49-3.32,3.32-3.32Z"/>
        <path class="cls-12" d="m131.12,76.97c0,4.69-3.8,8.49-8.49,8.49s-8.49-3.8-8.49-8.49,3.8-8.49,8.49-8.49,8.49,3.8,8.49,8.49Z"/>
        <polygon class="cls-11" points="158.97 77.37 86.76 77.37 113.85 62.61 131.83 62.61 158.97 77.37"/>
        <rect class="cls-11" x="121.34" y="21.13" width="3.05" height="29.52"/>
      </g>
      <g>
        <path class="cls-11" d="m463.8,48.62h11.59c1.83,0,3.32,1.49,3.32,3.32v11.43h-18.22v-11.43c0-1.83,1.49-3.32,3.32-3.32Z"/>
        <circle class="cls-12" cx="469.36" cy="76.97" r="8.49"/>
        <polygon class="cls-11" points="505.7 77.37 433.49 77.37 460.57 62.61 478.56 62.61 505.7 77.37"/>
        <rect class="cls-11" x="468.07" y="21.13" width="3.05" height="29.52"/>
      </g>
    </g>
    <g>
      <line class="cls-2" x1="258.42" y1="114.95" x2="252.54" y2="118.57"/>
      <line class="cls-2" x1="357.46" y1="53.91" x2="266.31" y2="110.09"/>
      <line class="cls-2" x1="369.49" y1="57.71" x2="296.46" y2="102.71"/>
      <line class="cls-2" x1="401.38" y1="38.05" x2="379.33" y2="51.65"/>
    </g>
  </g>
  <path class="cls-1" d="m287.22,274.06s-2.36,15.58-.71,23.85c1.65,8.26,7.79,48.64,9.44,65.17,1.65,16.53,9.68,41.56,10.15,42.74.47,1.18-.71,4.49-.71,5.9s.47,4.72.47,4.72c0,0-6.85,4.49-10.39,6.61s-1.89,3.07,1.42,3.54c3.31.47,50.06,0,50.06,0,0,0,1.18-.24-.24-2.36s-11.1-8.74-11.1-8.74c0,0-.24-1.42-.24-4.72s-2.83-9.21-2.83-9.21c0,0,5.19-37.78,4.01-47.7-1.18-9.92-1.65-20.07.24-29.04,1.89-8.97-.94-48.88-.47-50.76.47-1.89-.47-4.01-.47-4.01,0,0-14.88,5.9-27.39,6.85-12.51.94-21.25-2.83-21.25-2.83Z"/>
  <g>
    <path class="cls-9" d="m346.72,424.23c-1.42-2.13-11.1-8.74-11.1-8.74,0,0-.03-.16-.06-.47-8.66,2.6-15.98,8.68-15.98,8.68,0,0,.77-1.02-3.58-4.61-4.35-3.58-10.13-2.66-10.13-2.66,0,0-6.85,4.49-10.39,6.61-3.54,2.12-1.89,3.07,1.42,3.54,3.31.47,50.06,0,50.06,0,0,0,1.18-.24-.24-2.36Z"/>
    <path class="cls-5" d="m295.8,424.52s8.69.64,12.29-.42"/>
  </g>
  <path class="cls-6" d="m284.66,208.87s-6.81,36.48-8.51,42c-1.7,5.52-1.06,18.24,4.03,16.76,5.09-1.49,6.79-9.12,7.21-11.24.42-2.12.85-39.25.85-45.61s-3.58-1.9-3.58-1.9Z"/>
  <path class="cls-6" d="m309.28,194.81s-17.44,5.13-20.22,5.72c-2.78.59-4.25,4.84-4.4,8.35-.15,3.52.44,39.42.29,50.12-.15,10.7-1.61,14.36,3.22,18.32,4.84,3.96,18.46,4.69,30.92,3.81,12.46-.88,18.02-4.69,18.02-10.26s-.88-31.95-.88-31.95c0,0,1.32-15.39,4.4-21.98s4.84-8.65,2.49-10.99c-2.34-2.34-16.85-10.7-22.57-12.31-5.71-1.61-11.28,1.17-11.28,1.17Z"/>
  <path class="cls-10" d="m305.91,205.06l1.61,10.26,11.72-6.89-5.13-8.35s-7.18,2.2-8.21,4.98Z"/>
  <path class="cls-6" d="m310.2,189.49s-3.78,3.15-5.42,7.31c-1.64,4.16-5.04,10.71-3.65,11.09s5.54-3.15,6.42-3.15,2.65,4.28,3.15,4.41c.5.13,5.29-1.89,5.29-1.89,0,0,.76,5.42,2.39,5.54,1.64.13,7.18-8.31,8.19-14.61,1.01-6.3-2.27-7.31-2.9-7.43-.63-.13-8.06-3.4-13.48-1.26Z"/>
  <g>
    <path class="cls-10" d="m309.32,168.96s-.25-5.79-.25-9.32.5-5.42,2.65-6.17c2.14-.76,2.77,2.52,2.65,4.28-.13,1.76-5.04,11.21-5.04,11.21Z"/>
    <path class="cls-9" d="m309.32,167.58s-.13-4.28-1.64-2.02c-1.51,2.27-1.01,7.56,0,7.05,1.01-.5,1.64-5.04,1.64-5.04Z"/>
    <path class="cls-9" d="m309.57,189.24s-.38,10.2-.63,14.23c-.25,4.03,1.13,6.3,3.53,5.42s8.19-8.57,9.95-11.59c1.76-3.02,2.9-6.55,2.9-6.55,0,0-8.69,2.65-15.75-1.51Z"/>
    <path class="cls-9" d="m312.47,156.49s-4.53,14.99-5.79,20.41c-1.26,5.42-.63,9.95,1.64,13.48,2.27,3.53,5.92,5.04,9.95,4.91,4.03-.13,9.07-1.13,12.09-7.43,3.02-6.3,3.53-9.45,4.16-10.71s2.9-7.81,4.16-11.97-1.23-9.15-6.05-11.97c-1.49-.87-11.33-7.09-20.15,3.28Z"/>
    <path class="cls-9" d="m335.39,175.76s3.15-2.52,4.03-.63c.88,1.89-.76,5.29-2.9,6.42-2.14,1.13-3.53.38-3.53.38,0,0,1.01-4.79,2.39-6.17Z"/>
    <g>
      <g>
        <path class="cls-10" d="m339.55,151.2l-1.39-1.51s-.13-1.01-4.16-2.52c-4.03-1.51-8.69-1.26-10.33-3.28-1.64-2.02-3.53-2.52-8.31-1.76-4.79.76-6.8,5.67-6.8,9.7s8.69,9.7,14.74,10.58c6.05.88,11.97-1.01,10.71.13-1.26,1.13-4.91,5.16-3.65,6.55,1.26,1.39,2.02,2.27,2.02,3.91,0,1.12-.24,3.72-.18,5.29-.48.99-1.78,3.63-2.08,4.03-.38.5-3.9-2.52-6.05-3.65-2.14-1.13-3.28-1.13-3.28-1.13,0,0-.13,1.89-1.01,2.14-.88.25-3.9.25-4.79-.63-.88-.88-.63-2.65-.63-2.65,0,0-4.93.01-8.19,3.56-.43,4.08.31,7.58,2.14,10.42,2.27,3.53,5.92,5.04,9.95,4.91,4.03-.13,9.07-1.13,12.09-7.43,2.36-4.91,3.18-7.89,3.73-9.57.36-.52.69-1.17.93-1.89.63-1.89,2.9-5.29,4.53-7.31,1.64-2.02,3.91-6.8,3.78-11.59-.13-4.79-3.78-6.3-3.78-6.3Z"/>
        <path class="cls-7" d="m327.99,151.92s-8.11-3.04-9.46,2.7c-1.35,5.75,12.17,7.44,23.32,5.41"/>
        <path class="cls-7" d="m332.04,166.79s2.37.68,7.77-1.01"/>
      </g>
      <g>
        <path class="cls-4" d="m317.26,167.58l-.5,2.9s-3.28,7.31-2.39,8.19c.88.88,5.54,1.89,5.92.38s.38-2.14.38-2.14l-1.51-.38"/>
        <path class="cls-4" d="m322.55,168.71s4.66-1.13,5.79,2.77"/>
        <path class="cls-4" d="m316.25,166.32s-1.64-1.76-4.16-.5"/>
        <path class="cls-11" d="m324.43,173.1c-.1.76-.55,1.32-1,1.26s-.73-.73-.62-1.48c.1-.76.55-1.32,1-1.26.45.06.73.73.62,1.48Z"/>
        <path class="cls-11" d="m313.91,169.95c-.1.76-.55,1.32-1,1.26s-.73-.73-.62-1.48c.1-.76.55-1.32,1-1.26s.73.73.62,1.48Z"/>
        <path class="cls-12" d="m323.18,182.44c-5.27,6.25-9.48,1.09-9.83-.25l9.83.25Z"/>
      </g>
    </g>
  </g>
  <path class="cls-10" d="m307.52,215.32s-6.15,24.47-7.33,36.2c-1.17,11.72-1.03,19.93-1.03,19.93l3.08,5.42,4.54-5.42s-.15-26.08-.15-34.44.88-21.69.88-21.69Z"/>
  <path class="cls-6" d="m336.56,219.99s-3.78,8.5-2.36,12.75c1.42,4.25,13.46,21.96,14.64,22.67,1.18.71,10.39,2.83,11.57-2.6,1.18-5.43-8.74-37.54-11.81-42.26-3.07-4.72-5.43-4.25-6.61-3.31"/>
  <polygon class="cls-9" points="303.98 237.7 305.4 275.48 334.2 274.06 333.49 236.99 303.98 237.7"/>
  <path class="cls-6" d="m354.74,246.2s-7.32.71-11.57,3.07c-4.25,2.36-20.78,5.9-20.78,5.9l.94,9.21s11.81,1.65,22.43,0c10.63-1.65,16.76-1.18,17.24-4.25.47-3.07-3.54-14.64-3.54-14.64"/>
  <line class="cls-9" x1="328.53" y1="254.23" x2="329.01" y2="264.86"/>
  <path class="cls-9" d="m323.1,256.12l-8.03-6.38s-5.43-2.83-6.61-2.83-6.38.94-7.32,1.18c-.94.24-.47,1.42,1.18,2.13,1.65.71,3.31.71,3.31.71,0,0-7.56,1.65-7.56,3.54s3.31,2.83,3.31,2.83c0,0-.94,4.49,1.18,6.14s4.25,2.36,8.03,1.42c3.78-.94,12.75-.47,12.75-.47l-.24-8.26Z"/>
  <path class="cls-6" d="m283.36,252.15s-5.52-6.58-7.21-11.67c-1.7-5.09-5.52-14.85-5.52-14.85l-6.15-.21s.64,19.09,4.03,29.91c3.39,10.82,7.85,16.34,10.18,15.27,2.33-1.06,5.73-6.15,5.73-6.15"/>
  <g>
    <path class="cls-9" d="m277,201.66c-1.91,1.27-2.55,3.18-2.97,4.88-.42,1.7-1.27,2.33-4.03,2.12-1.16-.09-2.02.11-2.77.69-.11-.48-.18-.98-.18-1.43,0-1.5,2.58-4.83,3.76-5.79s2.9-2.36,2.68-3.65c-.21-1.29-5.04,1.5-6.44,2.47-1.39.97-2.15,4.94-2.15,4.94-.82,2.76-.71,5.93-.2,7.5-.14.32-.28.63-.43,1-1.91,4.67.21,11.03.21,11.03l6.15.21s-.64-3.18.42-4.46c1.06-1.27,1.91-3.18,3.61-4.67,1.7-1.49,2.55-5.94,2.55-7s.64-3.82,1.49-5.73c.85-1.91.21-3.39-1.7-2.12Z"/>
    <path class="cls-9" d="m263.29,209.96s.75-3.97,2.15-4.94c1.4-.97,6.22-3.76,6.44-2.47.21,1.29-1.5,2.68-2.68,3.65-1.18.97-3.76,4.29-3.76,5.79s.86,3.65.86,3.65c0,0-1.29,2.47-2.36,2.79s-1.82-4.51-.64-8.48Z"/>
    <path class="cls-9" d="m263.5,212.33s.75-3.97,2.15-4.94c1.39-.97,6.22-3.76,6.44-2.47.21,1.29-1.5,2.68-2.68,3.65-1.18.97-3.76,4.29-3.76,5.79s.86,3.65.86,3.65c0,0-1.29,2.47-2.36,2.79-1.07.32-1.82-4.51-.64-8.48Z"/>
    <path class="cls-9" d="m263.82,222.95s-1.72-5.9-1.5-8.26c.21-2.36,1.07-4.4,2.25-4.51,1.18-.11,6.22-1.93,6.22-.54s-4.61,2.9-4.61,2.9c0,0,2.9,3.76,2.79,5.69-.11,1.93-.75,4.08-.75,4.08"/>
  </g>
  <polyline class="cls-7" points="301.85 296.26 307.17 300.15 319.56 421.99"/>
  <path class="cls-10" d="m134.74,236.79s4.18,10.56,4.38,14.34-.8,3.19.8,8.17c1.59,4.98,6.17,16.73,8.76,26.29s2.99,17.93,2.99,23.9h-29.48s2.19-5.98-3.78-22.71c-5.98-16.73-8.37-26.69-8.37-31.47s-2.59-9.56-3.59-14.94c-1-5.38,2.19-4.78,2.19-4.78l24.1.2s1.59-.2,1.99,1Z"/>
  <path class="cls-9" d="m106.29,237.99c.24-2.78,2.36-2.39,2.36-2.39l24.1.2s1.59-.2,1.99,1c0,0,4.18,10.56,4.38,14.34.08,1.46-.02,2.27-.09,3l-.51.78s-.8,6.97-10.36,7.37-14.94-3.98-16.93-8.17c-1.99-4.18-2.79-10.96-4.38-14.94-.16-.4-.36-.8-.57-1.2Z"/>
  <path class="cls-9" d="m110.04,255.32c0-4.78-2.59-9.56-3.59-14.94-.69-3.72.62-4.58,1.5-4.76.35.11,1.57.84,3.09,5.55,1.79,5.58.8,12.95,1.79,18.92,1,5.98,5.98,19.12,9.56,28.88,2.95,8.04,3.6,15.8,2.41,20.52h-2.61s2.19-5.98-3.78-22.71c-5.98-16.73-8.37-26.69-8.37-31.47Z"/>
  <path class="cls-9" d="m257.59,309.14h-23.99c-.96,0-1.74-.78-1.74-1.74s.78-1.74,1.74-1.74h23.99c1.15,0,2.26-.49,3.04-1.34.95-1.05,1.3-2.49.92-3.86l-8.51-30.49c-.26-.92.28-1.88,1.21-2.14.92-.26,1.88.28,2.14,1.21l8.51,30.49c.7,2.52.07,5.19-1.69,7.13-1.43,1.58-3.47,2.48-5.6,2.48Z"/>
  <g>
    <rect class="cls-9" x="244.96" y="229.29" width="5.47" height="70.72" transform="translate(33.26 -27.6) rotate(6.84)"/>
    <path class="cls-9" d="m254.62,229.87s9.64,34.43-8.42,70.21l8.42-70.21Z"/>
  </g>
  <g>
    <rect class="cls-14" x="36.09" y="308.98" width="237.27" height="103.43"/>
    <g class="cls-20">
      <rect class="cls-15" x="36.09" y="308.98" width="237.27" height="103.43"/>
    </g>
    <rect class="cls-4" x="36.09" y="308.98" width="237.27" height="103.43"/>
  </g>
  <rect class="cls-11" x="36.11" y="311.92" width="237.3" height="3.43"/>
  <rect class="cls-9" x="30.01" y="306.95" width="245.38" height="5.41"/>
  <g>
    <g>
      <path class="cls-10" d="m510.69,227.74l-26.66.22s-1.76-.22-2.2,1.1c0,0-4.63,11.68-4.85,15.87-.22,4.19.88,3.53-.88,9.03-1.76,5.51-6.83,18.51-9.7,29.09-3.85,14.22-4.85,29.3-5.1,43.98-.04,2.35-1.45,22.62,2.22,22.62,3.04,0,31.1,3.72,31.43-1.69,1.35-21.56-2.55-42.62,4.94-63.58,2.91-8.14,6.24-16.74,8.71-25.26,2.48-8.55,2.9-17.37,4.51-26.08,1.1-5.95-2.42-5.29-2.42-5.29Z"/>
      <path class="cls-9" d="m513.31,230.38c-.26-3.08-2.61-2.64-2.61-2.64l-26.66.22s-1.76-.22-2.2,1.1c0,0-4.63,11.68-4.85,15.87-.09,1.62.03,2.51.09,3.32l.57.87s.88,7.71,11.46,8.15c10.58.44,16.53-4.41,18.73-9.03,2.2-4.63,3.08-12.12,4.85-16.53.18-.44.4-.88.63-1.33Z"/>
    </g>
    <path class="cls-9" d="m507.12,238.99c-1.79,6.44-.72,8.23-2.5,19.31-1.79,11.09-8.23,23.6-10.73,35.05-2.5,11.44-1.43,51.86-1.07,53.65.14.68.17,1.78.16,2.87,1.2-.45,1.93-1.07,1.98-1.91,1.35-21.56-2.55-42.62,4.94-63.58,2.91-8.14,6.24-16.74,8.71-25.26,2.48-8.55,2.9-17.37,4.51-26.08.68-3.66-.39-4.81-1.32-5.16l-.03.03s-2.86,4.65-4.65,11.09Z"/>
  </g>
  <g>
    <path class="cls-9" d="m434.51,239.64s-8.15,3.75-11.46,6.17c-3.31,2.42-2.64,8.37-2.64,9.92s-8.81,15.87-7.27,20.93c1.54,5.07,5.29,18.51,5.51,21.6s-.44,11.9-.44,11.9h41.65s-.22-13.44,1.1-23.36c1.32-9.92,4.19-13.44,4.19-28.65s-16.53-18.07-20.71-18.51c-4.19-.44-9.92,0-9.92,0Z"/>
    <g>
      <g>
        <path class="cls-6" d="m413.14,276.66c1.4,4.59,4.59,16.02,5.35,20.43,0-1.9,0-3.72-.06-5.23-.22-6.39,0-15.43,6.39-30.19,4.91-11.35,7.73-18.77,8.78-21.61-2.22,1.05-7.91,3.81-10.54,5.74-3.31,2.42-2.64,8.37-2.64,9.92s-8.81,15.87-7.27,20.93Z"/>
        <path class="cls-9" d="m379.86,308.39s-2.88,4.35-4.9,7.13c-2.02,2.78-5.31,8.09-3.03,8.34,2.27.25,4.8-2.02,7.33-3.29,2.53-1.26,3.79-4.55,3.79-4.55,0,0-.76,4.8,1.01,3.79,1.77-1.01,1.77-4.55,1.77-6.82s.51-5.81.51-5.81c0,0-3.34-2.9-6.47,1.21Z"/>
        <path class="cls-9" d="m381.21,314.03s-12.28,0-14.28,1.14c-2,1.14-8.86,33.43-14.57,46.57,0,0-4.57,11.43-8.29,16.86-1.3,1.9-7.43,4.29-11.71,5.43-4.29,1.14-6,2-5.43,3.14.57,1.14,9.43,3.14,13.43,3.71,4,.57,6.57-.57,7.71-.57s2.57,1.43,4.86.57c2.29-.86.86-6.86.86-10.28s4.29-15.71,9.14-20.86c4.86-5.14,14.28-24.86,16.28-30.85s2.57-7.43,2.57-7.43"/>
        <path class="cls-9" d="m378.25,320.89s-7.28,2.6-7.28,11.43,12.99,64.96,12.99,68.07,0,8.83-6.23,14.55c-.94.86-6.36,4.67-5.74,6.43,1.03,2.89,8.29.08,10.06-.68,3.2-1.37,6.75-6.99,10.22-6.78,3.7.22,4.16-1.56,4.16-5.2s-4.02-8.22-4.54-13.41c-.52-5.2-2.18-23.55-.63-32.33,1.43-8.09-5.75-28.57-5.75-28.57,0,0,22.07,13.5,41.53,8.8,19.46-4.71-18.14-12.95-23.86-17.11s-20.27-8.31-24.94-5.2Z"/>
        <path class="cls-9" d="m371.5,320.31s9.71,10.57,22,15.43l4.29-20.86s-18.28-3.14-30.85.29"/>
        <path class="cls-6" d="m459.85,310.16s-.22-13.44,1.1-23.36c1.32-9.92,4.19-13.44,4.19-28.65,0-14.15-14.31-17.61-19.67-18.38-1,1.75-2.72,4.93-3.03,6.48-.44,2.2-9.92,21.37-12.12,35.7-1.76,11.45-.29,23.73.38,28.21h-12.5l.58,4.49-23.38-1.04-5.9,23.27s12.61,5.38,21.71,9.14c9.1,3.77,27.45,7.21,38.44,3.76,9.06-2.85,15.8-7.73,14.58-17.95-.88-7.31-2.43-14.58-4.38-21.68Z"/>
      </g>
      <polyline class="cls-4" points="433.59 240.07 422.17 256.61 423.49 260.35 419.75 264.54 419.08 276.66"/>
      <polyline class="cls-4" points="444.21 246.25 443.54 259.47 438.92 262.34 440.68 265.86 431.65 282.83"/>
    </g>
    <g>
      <path class="cls-9" d="m425.25,200.53s-2.61,5.87-2.39,7.62c.22,1.75-.2,3.8-1.89,4.45-1.7.65-3.53,1.99-2.68,3.44.84,1.45,2.26,2.16,2.26,2.16,0,0-1.11,7.24-.43,9.16.68,1.91,2.01,5.52,4.2,5.26,2.19-.27,7.68-.72,7.68-.72,0,0,1.85,4.66.53,11.05-1.32,6.39-6.17,12.34-.88,13.66,5.29,1.32,8.37-5.51,10.8-10.36,2.42-4.85,3.71-11.22,4.81-14.9,1.1-3.69,2.64-7.43,2.64-7.43,0,0-7.08-1.57-10.12-10.08-3.05-8.51-2.87-14.3-7.46-15.51-4.59-1.21-7.06,2.2-7.06,2.2Z"/>
      <path class="cls-4" d="m429.25,225.8s.46,3.72,4.64,1.65"/>
      <g>
        <g>
          <path class="cls-10" d="m434.25,194.32s-4.7-.31-7.84-.59-4.38,4.09-3.65,6.44c.73,2.35,1.44,2.71,1.44,2.71,0,0,4.35-2.53,4.78-.81.43,1.72-3.59,5.1-1.46,7.95,2.13,2.85,5.51,5.09,3.76,7.09-1.75,1.99-.85,3.88.68,3.69,1.53-.19,3.61-3.11,4.45.12.84,3.23-3.07,5.71-2.23,7.16s8.85,3.35,11.09,1.74c2.24-1.61,7.82-3.18,10.46-12.39,2.64-9.21.06-15.77-5.54-21.52-5.59-5.75-15.03-1.26-15.03-1.26l-.93-.33Z"/>
          <path class="cls-7" d="m442.83,201.71c.86.43,1.68.95,2.44,1.59"/>
          <path class="cls-7" d="m429.05,200.25s6.07-1.21,11.63.58"/>
        </g>
        <path class="cls-9" d="m379.86,308.39l.66-1.54c.66-1.54,7.73-2.85,14.73-3.85,11.32-1.62,16.85-3.42,23.4-4.75,8.18-1.65,16.75-3.75,16.75-3.75,0,0,14.54,3.31,12.12,8.15-2.42,4.85-9.03,5.73-9.03,5.73h-55.21s.5,1.92-1.86,3.03"/>
        <path class="cls-6" d="m444.43,268.29s-2.86,12.78-4.63,16.09c-1.76,3.31-5.51,2.2-5.29,4.19s1.1,3.97,1.1,3.97c0,0-2.64,0-2.64,1.1s3.08,5.07,7.05,7.05c3.97,1.98,6.83,4.19,8.59,1.98,1.76-2.2,3.53-6.39,3.31-7.27-.22-.88,1.54.66,3.09-1.32,1.54-1.98,1.32-3.31,1.32-5.07s5.73-16.09,6.39-17.41"/>
        <path class="cls-5" d="m440.22,290.97s7.03,1.11,11.1,2.96"/>
        <path class="cls-5" d="m436.89,290.23s4.07,6.66,10.36,7.77"/>
        <g>
          <path class="cls-10" d="m452.88,209.62s.44,6.61-5.29,16.97c-5.73,10.36-13.66,30.19-7.93,40.99,5.73,10.8,21.37,8.59,25.78-1.1,4.41-9.7,1.54-34.38-3.09-44.73-4.63-10.36-6.61-14.1-6.61-14.1,0,0-2.64-1.32-2.86,1.98Z"/>
          <path class="cls-7" d="m454.99,268.99c1.85.05,3.88-.63,5.83-2.15"/>
          <path class="cls-7" d="m454.06,213.77s2.37,18.93-4.06,38.53c-2.47,7.55-2.1,12.7.96,15.2"/>
          <path class="cls-7" d="m453.38,221.88s-6.76,17.24-12.17,29.07-.68,19.27,7.44,20.96"/>
        </g>
      </g>
    </g>
  </g>
  <path class="cls-4" d="m430.7,310.16s-1.01,11.25,1.07,12.81c2.08,1.56,17.15,6.24,27.02,3.12"/>
  <line class="cls-4" x1="418.78" y1="314.65" x2="428.14" y2="316.21"/>
  <path class="cls-6" d="m382.06,420.69c3.19-1.37,6.75-6.99,10.22-6.78,3.7.22,4.16-1.56,4.16-5.2,0-1.32-.53-2.77-1.23-4.32-.09.16-.18.31-.28.49-2.86,5.43-7.14,8-10.28,9.14-3.14,1.14-5.71,0-5.71,0l-.43.18c-.25.25-.49.5-.77.75-.94.86-6.36,4.67-5.74,6.43,1.03,2.89,8.29.08,10.06-.68Z"/>
  <path class="cls-6" d="m336.25,382.8c-1.35.48-2.69.9-3.9,1.22-4.29,1.14-6,2-5.43,3.14s9.43,3.14,13.43,3.71c4,.57,6.57-.57,7.71-.57s2.57,1.43,4.86.57c1.92-.72,1.22-5.05.95-8.45-2.45.77-5.74,1.6-9.23,1.88-5.8.46-7.83-.95-8.39-1.51Z"/>
  <path class="cls-10" d="m455.63,401.71l-.18-.14v-24.89h3.58v-15.74h-13.23v15.74h3.58v25.32l-31.65,10.09v2.5c0,1.58,1.28,2.86,2.86,2.86s2.86-1.28,2.86-2.86v-.36l26.47-3.08v3.79c0,1.38,1.12,2.5,2.5,2.5s2.5-1.12,2.5-2.5v-3.92l27.54,3.2v.36c0,1.58,1.28,2.86,2.86,2.86s2.86-1.28,2.86-2.86v-2.5l-32.54-10.37Z"/>
  <rect class="cls-10" x="411.13" y="345.59" width="85.85" height="18.25" rx="4" ry="4"/>
  <g>
    <rect class="cls-9" x="340.49" y="262.17" width="37.13" height="42.89" transform="translate(718.11 567.23) rotate(180)"/>
    <polygon class="cls-9" points="380.5 306.98 338.57 306.98 338.57 268.25 358.42 268.25 380.5 306.98"/>
  </g>
  <g>
    <path class="cls-9" d="m329.58,309.14h23.99c.96,0,1.74-.78,1.74-1.74s-.78-1.74-1.74-1.74h-23.99c-1.15,0-2.26-.49-3.04-1.34-.95-1.05-1.3-2.49-.92-3.86l8.51-30.49c.26-.92-.28-1.88-1.21-2.14-.92-.26-1.88.28-2.14,1.21l-8.51,30.49c-.7,2.52-.07,5.19,1.69,7.13,1.43,1.58,3.47,2.48,5.6,2.48Z"/>
    <g>
      <rect class="cls-9" x="336.74" y="229.29" width="5.47" height="70.72" transform="translate(708.04 487.01) rotate(173.16)"/>
      <path class="cls-9" d="m332.55,229.87s-9.64,34.43,8.42,70.21l-8.42-70.21Z"/>
    </g>
  </g>
  <g>
    <g>
      <rect class="cls-14" x="309.16" y="308.98" width="219.35" height="123.71"/>
      <g class="cls-19">
        <rect class="cls-15" x="309.16" y="308.98" width="219.35" height="123.71"/>
      </g>
      <rect class="cls-4" x="309.16" y="308.98" width="219.35" height="123.71"/>
    </g>
    <rect class="cls-14" x="309.26" y="311.95" width="219.08" height="3.42"/>
    <rect class="cls-3" x="304.36" y="306.95" width="225.74" height="5.41"/>
  </g>
  <g>
    <path class="cls-9" d="m169.53,296.64l-3.38,2.7s-9.63,5.07-11.49,6.59-.51,3.04.51,4.9,5.91,3.89,7.6,3.89,9.46-3.72,10.65-5.91,2.37-9.97,2.37-9.97l-6.25-2.2Z"/>
    <path class="cls-4" d="m167.84,304.25l-.51,4.06s-6.93,4.06-6.25,5.24,1.35.84,5.41-.34,6.76-3.38,6.93-4.39"/>
    <line class="cls-4" x1="160.4" y1="303.4" x2="162.09" y2="311.35"/>
    <line class="cls-4" x1="156.68" y1="305.26" x2="160.23" y2="313.88"/>
    <path class="cls-4" d="m155.16,306.62s.84,4.73,2.87,6.25"/>
  </g>
  <polygon class="cls-6" points="170.71 291.24 169.36 297.32 175.78 298.84 178.65 292.08 170.71 291.24"/>
  <path class="cls-6" d="m161.05,222.71s-.99,6.68.53,11.92,7.94,31.26,8.79,33.12.68,4.73.17,7.77,1.52,10.31,1.52,10.82-2.87,2.53-3.04,4.56,3.21,3.38,6.25,3.72,5.07,0,6.93-8.45-3.55-19.77-6.93-33.12c-3.38-13.35-7.94-23.15-8.62-25.86s-4.61-7.61-5.6-4.48Z"/>
  <path class="cls-9" d="m196.4,407.22s3.38,4.51,2.7,5.86-7.66,3.38-9.01,4.51c-1.35,1.13-2.93,2.93-7.21,4.06-4.28,1.13-14.65,2.93-13.52,1.13,1.13-1.8,13.97-11.04,13.97-11.04,0,0,9.69-3.83,13.07-4.51Z"/>
  <path class="cls-5" d="m198.25,412.07s-7.58,2.71-10.01,4.6c-2.44,1.89-4.6,2.98-4.6,2.98"/>
  <path class="cls-10" d="m189.86,393.03l6.53,14.2s-.23.9-4.28,2.7c-4.06,1.8-8.79,1.8-8.79,1.8l-2.93-10.59,9.46-8.11Z"/>
  <g>
    <path class="cls-10" d="m178.82,287.8s-5.18,3.15-5.41,4.51c-.23,1.35.9,5.86.9,5.86,0,0-10.59,22.08-13.75,27.72-3.15,5.63-7.66,16.67-3.15,23.66,4.51,6.99,18.03,39.88,18.03,39.88l-4.51,25.24,11.49,2.93s6.99-18.93,9.46-25.91c2.48-6.99,8.34-25.01,9.24-31.32.9-6.31,1.58-15.32,1.8-16,.23-.68,19.83-29.29,22.53-35.83s2.48-20.28,1.13-23.21c-1.35-2.93-47.77,2.48-47.77,2.48Z"/>
    <g>
      <polyline class="cls-7" points="192.34 295.46 186.26 298.39 192.79 302.67 182.65 301.32 193.24 305.38"/>
      <path class="cls-4" d="m209.01,298.39l-12.39,4.96s15.55-2.93,22.53-2.7"/>
    </g>
    <path class="cls-7" d="m194.82,306.5s-15.55,34.02-15.55,40.33-2.25,41.01-2.25,41.01"/>
  </g>
  <path class="cls-6" d="m182.3,210.33s-20.79,10.24-21.25,12.38,1.99,8.25,1.99,8.25c0,0,12.84,41.73,13.91,45.09s1.53,4.13.46,5.81c-1.07,1.68-2.45,4.74-.92,6.42,1.53,1.68,11.77,4.74,18.34,4.74s18.34-1.99,25.99-3.82,7.34-5.2,7.03-8.71c-.31-3.52-4.74-63.74-4.74-66.03s-16.2-5.66-21.71-5.96c-5.5-.31-17.27,0-19.11,1.83Z"/>
  <path class="cls-10" d="m184.55,220.74l5.25,14.84,8.45-15.07s-2.28-7.31-8.45-6.85c-6.16.46-5.25,7.08-5.25,7.08Z"/>
  <path class="cls-10" d="m189.8,235.58s-2.74,41.33-2.74,43.38-2.05,8.68-2.05,8.68l4.57,5.25s7.31-5.25,8.45-9.13c1.14-3.88-8.22-48.18-8.22-48.18Z"/>
  <path class="cls-6" d="m182.3,208.95s-1.07,6.42-.46,9.17c.61,2.75-1.99,9.02-.76,9.78s5.35-7.49,5.35-7.49l4.59,7.8,3.06-8.25s4.28,8.41,5.5,7.64-.76-5.96,1.07-8.56c1.83-2.6,2.45-6.73,1.38-10.85-1.07-4.13-5.5-4.13-9.17-3.67s-7.95.46-10.55,4.43Z"/>
  <path class="cls-9" d="m182.3,210.33s4.89,6.73,5.81,9.94c.92,3.21,2.29,9.94,2.9,7.95.61-1.99.31-9.63,3.97-13.91,3.67-4.28,2.75-7.34,2.75-7.34,0,0-4.74,5.81-15.44,3.36Z"/>
  <path class="cls-9" d="m172.52,198.1s5.96,11.77,12.08,14.83,12.53-.15,14.22-4.89c1.68-4.74.15-10.85.15-10.85,0,0,3.36-1.99,3.82-4.59.46-2.6.92-3.52-2.6-5.5-3.52-1.99-4.28-2.14-4.28-2.14,0,0-.15-5.2-3.21-6.88-3.06-1.68-9.48-.76-13.3,3.36-3.82,4.13-6.88,16.66-6.88,16.66Z"/>
  <g>
    <path class="cls-4" d="m182.61,196.88s2.29,3.36,2.6,4.89c.31,1.53-.92,3.36.92,3.36s2.9-1.22,2.9-1.22"/>
    <path class="cls-4" d="m186.11,192.23s.77-2.69,4.35-2.17"/>
    <path class="cls-4" d="m180.22,194.66s-2.69-.77-5.24,2.43"/>
    <path class="cls-4" d="m187.39,205.15l1.03,3.04s4.89-.76,6.11-5.81"/>
    <path class="cls-8" d="m183.37,200.01c0,2.32-1.88,4.2-4.2,4.2s-4.2-1.88-4.2-4.2,1.88-4.2,4.2-4.2,4.2,1.88,4.2,4.2Z"/>
    <line class="cls-2" x1="193.92" y1="194.28" x2="198.5" y2="190.15"/>
    <path class="cls-8" d="m194.07,195.58c0,2.32-1.88,4.2-4.2,4.2s-4.2-1.88-4.2-4.2,1.88-4.2,4.2-4.2,4.2,1.88,4.2,4.2Z"/>
    <path class="cls-11" d="m191.11,195.1c.22.48.13.99-.19,1.14-.32.14-.76-.13-.98-.61-.22-.48-.13-.99.19-1.14s.76.13.98.61Z"/>
    <path class="cls-11" d="m181.7,198.88c.22.48.13.99-.19,1.14-.32.14-.76-.13-.98-.61s-.13-.99.19-1.14.76.13.98.61Z"/>
    <path class="cls-2" d="m182.61,198.4s1.68-2.14,3.21-1.22"/>
  </g>
  <g>
    <path class="cls-10" d="m185.2,184.34s-5.2,5.66-9.17,10.85c-3.97,5.2-4.74,5.81-4.74,5.81,0,0-1.68-3.06-2.45-5.35-.76-2.29-1.68-4.28-1.68-4.28l-1.38,3.06s-3.97-14.83.31-21.71c4.28-6.88,13.97-8.62,21.31-6.02,7.34,2.6,8.35,9.39,9.72,12.9,1.38,3.52,2.6,7.95,2.6,7.95l-1.99,4.28s-3.67-3.21-5.5-4.89c-1.83-1.68-2.45-3.97-2.45-3.97,0,0-3.06,3.67-3.97,4.74-.92,1.07-1.83,1.38-1.83,1.38l1.22-4.74Z"/>
    <path class="cls-7" d="m186.63,169.94s-2.21,10.56-9.99,18.14"/>
    <path class="cls-7" d="m188.48,171.05s.79,4.92-1.85,11.47"/>
  </g>
  <path class="cls-6" d="m221.91,212.97s5.9,1.54,7.95,4.36c2.05,2.82,15.9,41.8,16.41,48.47.51,6.67-1.54,20.52-1.03,22.05.51,1.54,2.05,3.59.51,4.36-1.54.77-3.85,3.08-3.85,3.08,0,0-8.46-.51-10-1.03-1.54-.51-3.59-3.85-2.05-5.9,1.54-2.05,1.8-3.85,1.8-4.87s-3.21-13.64-3.21-16.21-.11-4.72-.37-7.03c-.26-2.31-3.33-11.1-3.33-11.1,0,0-6.18-9.81-5.92-24.43"/>
  <polygon class="cls-6" points="231.91 294.26 231.4 299.13 239.86 300.41 241.91 295.29 231.91 294.26"/>
  <g>
    <path class="cls-9" d="m231.4,299.13s-9.75,4.36-10.51,5.64-2.31,7.44-3.33,8.21c-1.03.77-2.05,1.8.77,1.54,2.82-.26,3.59-1.8,3.59-1.8,0,0-.22,2.62.06,2.85.28.23,4.73.34,6.37.39,1.63.06,1.92-.06,1.92-.06,0,0-.51,1.24.45,1.63.96.39.9-.51,1.52-1.3.62-.79,1.46-3.32,1.92-4.34.45-1.01.68-2.37.68-2.37,0,0,2.82-1.52,4.17-3.15,1.35-1.63.62-6.37.62-6.37l-8.2-.89Z"/>
    <line class="cls-4" x1="221.91" y1="312.72" x2="222.42" y2="306.28"/>
    <line class="cls-4" x1="224.45" y1="315.91" x2="225.29" y2="306.78"/>
    <line class="cls-4" x1="227.66" y1="315.74" x2="229.01" y2="307.29"/>
    <path class="cls-4" d="m230.25,315.91s1.13-7.27,1.3-8.11"/>
  </g>
  <path class="cls-9" d="m170.93,414.66s-3.83,3.38-4.51,3.83c-.68.45-13.07,7.21-12.84,9.01.23,1.8,13.07.9,20.28-.9,7.21-1.8,7.66-2.48,7.89-3.61.23-1.13.68-5.41.68-5.41l-11.49-2.93Z"/>
  <path class="cls-5" d="m156.03,426.68s17.05-.27,23.81-4.6"/>
  <path class="cls-9" d="m79.18,416.82s14.38,3.88,17.81,6.85c3.42,2.97-6.85,3.88-13.24,3.65-6.39-.23-7.08-2.05-11.64-2.05s-8.68,2.05-9.36-2.05c-.68-4.11,5.02-5.71,8.9-6.62,3.88-.91,7.53.23,7.53.23Z"/>
  <path class="cls-5" d="m75.03,423.43s7.04,4.6,19.48,1.89"/>
  <path class="cls-9" d="m64.79,419.11s5.94,3.88,10.96,5.94c5.02,2.05,8.68,2.74,6.39,4.57-2.28,1.83-2.97,2.05-8.68,3.2-5.71,1.14-17.12-1.83-18.27-1.83s-2.28,1.37-5.48.23c-3.2-1.14-3.65-2.74-2.51-6.39,1.14-3.65,15.75-6.85,17.58-5.71Z"/>
  <path class="cls-5" d="m53.11,428.58s12.72,5.14,26.79.81"/>
  <g>
    <path class="cls-10" d="m96.53,260.88l2.74,28.77s-3.88,41.33-8.68,54.8c-4.79,13.47-9.13,28.31-10.73,33.79-1.6,5.48-3.2,26.94-1.83,31.28s1.14,6.39,1.14,6.39v.91s.91.69-2.28,2.51c-3.2,1.83-7.31,2.51-7.31,2.51l-4.79-2.74s-6.85,5.02-9.36,6.39c-2.51,1.37-8.22,2.28-8.22,2.28,0,0-1.83-2.74-1.83-5.48v-8.9c0-3.2-2.28-18.95-2.05-28.54.23-9.59,2.05-20.09,3.88-24.89,1.83-4.79,7.99-19.41,7.99-19.41,0,0,0-6.62-2.97-18.27-2.97-11.64-3.65-17.58-7.53-30.14-3.88-12.56,3.88-31.05,3.88-31.05,0,0,18.04,3.2,27.86,2.74,9.82-.46,20.09-2.97,20.09-2.97Z"/>
    <g>
      <path class="cls-7" d="m62.28,285.54s1.37,2.51,3.42,5.02"/>
      <polyline class="cls-7" points="74.61 267.95 82.14 268.18 81.91 266.36"/>
      <path class="cls-7" d="m84.88,266.81v1.83s6.39,1.6,11.42-1.14"/>
      <path class="cls-7" d="m92.19,270.92l-1.83,7.08,2.97,4.11s-4.34,7.53-4.34,8.22"/>
    </g>
    <path class="cls-7" d="m93.56,291.7l-7.53,6.16s-4.57,38.82-7.08,48.86c-2.51,10.05-11.87,42.7-13.01,50s-1.37,10.05-1.37,10.73,1.37,3.2,1.37,4.57v5.25"/>
  </g>
  <path class="cls-9" d="m71.18,264.99s13.7,1.83,19.86,1.37c6.16-.46,7.08-2.97,7.76-5.25.69-2.28-8.22-56.63-8.68-59.82-.46-3.2.23-8.45-4.11-10.27-4.34-1.83-13.47,1.37-15.07,7.53s3.42,42.01,2.05,49.78c-1.37,7.76-1.83,16.67-1.83,16.67Z"/>
  <polygon class="cls-10" points="83.06 201.74 86.48 207.9 87.62 259.05 91.73 268.87 95.16 256.77 88.54 207.45 89.45 200.14 86.71 194.21 83.06 201.74"/>
  <polygon class="cls-9" points="87.62 199.23 91.73 206.31 89.68 193.29 85.57 195.8 87.62 199.23"/>
  <path class="cls-9" d="m77.58,179.14l-1.14,5.25,9.36,16.67s2.8-6.22,3.88-7.76c1.23-1.75,5.34-8.32,5.34-8.32,0,0-6.94.55-8.08-3.56-1.14-4.11,0-9.82-4.34-10.27-4.34-.46-5.02,7.99-5.02,7.99Z"/>
  <g>
    <path class="cls-9" d="m82.12,175.91l.45,1.53s-.89,2.64.62,4.58c1.52,1.94,10.01,6.59,13.74,5.5s4.86-11.88,4.86-11.88c0,0,3.54-.08,3.19-2.12-.36-2.04-2.44-4.28-2.64-6.6-.2-2.32,1.05-2.92.5-5.62-.55-2.69-1.41-4.82-3.87-6.72-2.46-1.9-15.91,4.17-19.9,8.43-3.99,4.26-4.81,8.78-3.82,11.34.99,2.57,6.88,1.56,6.88,1.56Z"/>
    <path class="cls-11" d="m99.32,167.95c-.05.83-.37,1.48-.7,1.46-.33-.02-.56-.71-.51-1.54.05-.83.37-1.48.7-1.46.33.02.56.71.51,1.54Z"/>
    <path class="cls-4" d="m100.25,164.13s-1.7-1.57-3.43,1"/>
    <path class="cls-4" d="m97.14,178.96s-1.49-.39-2.08-1.46"/>
  </g>
  <g>
    <path class="cls-10" d="m83.79,166.14l-.45,4.17,2.63-.77s-1.42,3.27.51,1.75,4.51-6.55,5.32-7.02c.81-.48,5.46-4.92,8.61-7.98,3.15-3.06,4.54-7.27,3.46-9.33s-14.18-11.08-26.12-4.74c-11.94,6.34-15.18,15.61-13.93,20.72,1.25,5.11,10.86,18.47,12.59,18.68,1.73.21,5.71-5.71,5.71-5.71,0,0-5.15-1.35-4.13-3.55,1.02-2.2,5.8-6.21,5.8-6.21Z"/>
    <path class="cls-7" d="m75.98,167.28c-1.62,1.14-3.27,2.15-4.92,2.97"/>
    <path class="cls-7" d="m97.3,145.23s-7.25,10.21-16.36,18.14"/>
    <path class="cls-7" d="m72.37,163.87c-.52.48-1.05.96-1.59,1.45"/>
    <path class="cls-7" d="m87.44,145.8s-4.2,7.27-12.45,15.54"/>
  </g>
  <polygon class="cls-9" points="75.98 182.56 87.62 199.23 79.18 207.68 73.24 184.84 75.98 182.56"/>
  <g>
    <path class="cls-6" d="m70.04,186.21l-15.98,5.25s-12.56,59.82-13.47,61.42-17.35,31.05-15.3,34.25c2.05,3.2,21.69,13.7,23.29,13.01,1.6-.69,13.24-22.83,20.32-29.23,7.08-6.39,14.16-14.38,15.07-23.29l-6.16-26.26-.68-16.44-7.08-18.72Z"/>
    <polygon class="cls-6" points="74.61 184.84 70.04 186.21 68.9 208.59 76.66 212.93 72.1 219.78 83.97 247.63 79.18 204.48 74.61 184.84"/>
    <path class="cls-6" d="m59.84,281.4l-18.24,15.87s1.8,2.16,6.98,2.88c0,0,8.1-11.09,11.26-18.75Z"/>
  </g>
  <path class="cls-9" d="m62.74,268.18s7.53.23,9.13.69c1.6.46,7.76,6.85,7.76,6.85,0,0,0,.69-2.28,1.37-2.28.69-6.39-2.28-6.39-2.28l-8.9,8.45-5.48-6.85,6.16-8.22Z"/>
  <polygon class="cls-9" points="62.05 265.67 64.11 268.41 56.57 276.4 55.66 273.43 62.05 265.67"/>
  <path class="cls-6" d="m67.76,188.04s-21.46,0-23.06,1.83c-1.6,1.83-18.49,52.97-18.49,55.94s29,30.14,29,30.14l8.22-10.05-16.44-25.8,13.01-28.08"/>
</svg>