<svg width="319" height="71" viewBox="0 0 319 71" fill="none" xmlns="http://www.w3.org/2000/svg" role="img" aria-hidden="true" focusable="false">
    <title>EngenderHealth Logo</title>
    <path d="M108.68 22.0796c.254-.2545.386-.568.386-.9271 0-.359-.132-.6725-.386-.927-.255-.2545-.568-.3863-.945-.3863l-14.9969-.0182c-.359 0-.6725.1318-.927.3863-.2545.2545-.3863.5681-.3863.9271l.05 19.7498c0 .359.1318.6726.3863.9271.2545.2544.568.3862.927.3862l14.9599-.0136c.359 0 .673-.1318.927-.3863.255-.2545.387-.568.387-.927 0-.359-.132-.6726-.387-.9271-.254-.2545-.568-.3863-.945-.3863l-13.6331.0182-.0182-7.2164 12.3383.0818c.336 0 .64-.1227.909-.3681.268-.2454.404-.5363.404-.868 0-.4226-.127-.768-.377-1.0179-.25-.25-.564-.3772-.936-.3772l-12.3065-.0818c-.0136 0-.0318 0-.0454.0045l-.0136-7.2801 13.6965.0137c.364-.0046.677-.1318.932-.3863ZM123.153 26.6648c-.877-.7407-2.049-1.1133-3.49-1.1133-.822 0-1.581.1635-2.249.4817-.664.3181-1.259.7225-1.772 1.1951-.428.3954-.814.7953-1.159 1.1952l-.068-1.6087c0-.359-.114-.668-.341-.9225-.227-.259-.532-.3908-.895-.3908-.373 0-.687.1318-.937.3862-.25.2545-.377.5726-.377.9453l.014 14.3693c0 .359.132.6725.386.9361.255.2636.568.3954.932.3954.359 0 .672-.1318.927-.3863.254-.2545.386-.5681.386-.9271v-7.8435c0-1.6451.436-2.9403 1.295-3.84.859-.8998 2.154-1.3588 3.854-1.3588.891 0 1.586.2408 2.063.718.482.4863.823 1.127 1.009 1.9132.191.7998.286 1.6769.286 2.613l-.018 7.7481c0 .3591.132.6726.386.9362.255.2636.568.3953.932.3953.359 0 .672-.1317.927-.3862.254-.2545.386-.5681.386-.9271l.014-7.7618c0-1.3724-.2-2.6675-.591-3.8536-.386-1.1952-1.027-2.1722-1.9-2.9084ZM143.063 25.5967c-.364 0-.664.1318-.9.3908-.232.2545-.35.568-.35.918l-.068 1.3678c-.659-.6726-1.427-1.2724-2.281-1.7814-.945-.5635-2-.8498-3.122-.8498-1.123 0-2.172.2318-3.131.6908-.95.459-1.795 1.0906-2.509 1.8813-.709.7908-1.268 1.6996-1.663 2.6994-.391.9998-.591 2.0631-.591 3.1629 0 1.0997.2 2.1676.6 3.1719.395 1.0044.959 1.9132 1.668 2.6994.709.7862 1.554 1.4178 2.508 1.8723.955.459 2.004.6907 3.113.6907 1.05 0 2.063-.2954 3.013-.8725.85-.5181 1.618-1.1088 2.281-1.7496l-.013 2.1222c-.023 1.0634-.309 2.0541-.855 2.9448-.545.8907-1.281 1.6178-2.185 2.154-.9.5363-1.909.8089-2.991.8089-.886 0-1.767-.2045-2.617-.6135-.85-.4044-1.559-.9679-2.109-1.6632-.254-.3499-.609-.5272-1.049-.5272-.359 0-.673.1318-.928.3863-.254.2545-.386.5681-.386.9271 0 .3135.1.5953.296.8407.818 1.0225 1.836 1.8314 3.031 2.4085 1.195.5771 2.463.868 3.762.868 1.164 0 2.273-.2227 3.309-.6635 1.036-.4408 1.963-1.0588 2.754-1.8405.795-.7771 1.431-1.6905 1.886-2.713.459-1.0224.695-2.1267.704-3.2765l.114-15.0827.013-.0591c0-.359-.132-.6726-.386-.927-.245-.2591-.555-.3863-.918-.3863Zm-1.472 8.4798c0 .9997-.232 1.9541-.691 2.8357-.459.8816-1.091 1.6041-1.877 2.154-.782.5453-1.686.818-2.681.818-.995 0-1.895-.2772-2.681-.818-.787-.5499-1.418-1.2724-1.877-2.154-.459-.8816-.691-1.836-.691-2.8357 0-1.0134.232-1.9677.682-2.8448.454-.8771 1.081-1.5951 1.867-2.1449.782-.5454 1.691-.8226 2.695-.8226.995 0 1.9.2772 2.691.8226.79.5453 1.422 1.2678 1.876 2.1404.459.8816.687 1.8404.687 2.8493ZM158.977 26.6192c-1.15-.6817-2.427-1.0225-3.795-1.0225-1.486 0-2.854.3863-4.062 1.1542-1.205.7635-2.177 1.7905-2.877 3.0402-.704 1.2543-1.063 2.6358-1.063 4.1127 0 1.5496.377 2.9902 1.118 4.2899.74 1.2951 1.758 2.3449 3.022 3.122 1.267.777 2.699 1.1679 4.258 1.1679 1.218 0 2.404-.2682 3.531-.7953 1.122-.5272 2.09-1.277 2.863-2.2222.209-.2545.313-.5408.313-.8543 0-.3591-.132-.6726-.386-.9271-.255-.2545-.568-.3863-.927-.3863-.432 0-.777.1727-1.032.5045-.509.6316-1.168 1.1406-1.958 1.5041-.791.3636-1.609.5499-2.432.5499-.968 0-1.858-.2272-2.64-.6726-.786-.4453-1.45-1.0452-1.963-1.7813-.491-.6953-.827-1.4633-1.004-2.2768h11.511c.513 0 .872-.1999 1.067-.5907.182-.3681.278-.8089.278-1.3134 0-1.4042-.355-2.6948-1.05-3.8445-.691-1.1543-1.622-2.0813-2.772-2.7584Zm.322 3.8036c.432.6362.705 1.3406.814 2.104h-10.129c.186-.7498.509-1.4496.963-2.0767.486-.6681 1.1-1.2088 1.827-1.6178.727-.4045 1.54-.609 2.426-.609.85 0 1.641.2 2.345.5908.709.3999 1.296.9407 1.754 1.6087ZM176.891 26.6648c-.877-.7407-2.05-1.1133-3.49-1.1133-.823 0-1.582.1635-2.25.4817-.663.3181-1.259.7225-1.772 1.1951-.427.3954-.814.7953-1.159 1.1952l-.068-1.6087c0-.359-.114-.668-.341-.9225-.227-.259-.532-.3908-.895-.3908-.373 0-.686.1318-.936.3862-.25.2545-.377.5726-.377.9453l.013 14.3693c0 .359.127.6725.386.9361.255.2636.568.3954.932.3954.359 0 .673-.1318.927-.3863.255-.2545.386-.5681.386-.9271v-7.8435c0-1.6496.437-2.9403 1.296-3.84.858-.8998 2.154-1.3588 3.853-1.3588.891 0 1.586.2408 2.063.718.482.4863.823 1.127 1.009 1.9132.191.7998.286 1.6769.286 2.613l-.018 7.7481c0 .3591.132.6726.387.9362.254.2636.568.3953.927.3953.359 0 .672-.1317.927-.3862.254-.2545.386-.5681.386-.9271l.014-7.7618c0-1.3724-.2-2.6675-.591-3.8536-.382-1.1952-1.027-2.1722-1.895-2.9084ZM196.241 19.739c-.359 0-.673.1273-.927.3863-.255.2545-.386.568-.386.927v6.9575c-.614-.609-1.318-1.1543-2.1-1.6269-.877-.5317-1.863-.7998-2.922-.7998-1.109 0-2.149.2408-3.09.718-.936.4726-1.763 1.1224-2.449 1.9223-.691.8043-1.232 1.7268-1.605 2.7493-.377 1.0179-.568 2.095-.568 3.1901 0 1.4497.328 2.8266.973 4.09.645 1.2679 1.545 2.2994 2.676 3.0765 1.137.7771 2.454 1.1725 3.922 1.1725 1.136 0 2.177-.3091 3.086-.9135.813-.5407 1.513-1.0997 2.095-1.6587l.068 1.277c0 .359.114.668.341.9225.227.2591.532.3908.895.3908.359 0 .673-.1317.927-.3862.255-.2545.386-.5681.386-.9271V21.0523c0-.359-.127-.6725-.377-.927-.259-.2545-.577-.3863-.945-.3863Zm-1.332 14.1966c0 .9816-.204 1.9405-.613 2.8493-.404.9044-1 1.6542-1.759 2.2268-.754.568-1.672.8589-2.731.8589-.986 0-1.858-.2636-2.599-.7862-.746-.5226-1.327-1.227-1.741-2.0859-.413-.8589-.622-1.7995-.622-2.7902 0-1.0043.213-1.9768.631-2.8902.414-.9089 1.009-1.6678 1.759-2.2449.745-.5726 1.631-.8635 2.636-.8635 1.05 0 1.958.2772 2.699.818.75.5453 1.332 1.2588 1.732 2.1222.404.868.608 1.8041.608 2.7857ZM212.155 26.6192c-1.15-.6817-2.427-1.0225-3.795-1.0225-1.486 0-2.854.3863-4.063 1.1542-1.204.7635-2.176 1.7905-2.876 3.0402-.705 1.2543-1.064 2.6358-1.064 4.1127 0 1.5496.378 2.9902 1.118 4.2899.741 1.2951 1.759 2.3449 3.022 3.122 1.268.777 2.7 1.1679 4.263 1.1679 1.218 0 2.404-.2682 3.531-.7953 1.122-.5272 2.09-1.277 2.863-2.2222.209-.2545.313-.5408.313-.8543 0-.3591-.131-.6726-.386-.9271-.254-.2545-.568-.3863-.927-.3863-.432 0-.777.1727-1.031.5045-.509.6316-1.168 1.1406-1.959 1.5041-.791.3636-1.609.5499-2.431.5499-.968 0-1.859-.2272-2.641-.6726-.786-.4453-1.449-1.0452-1.963-1.7813-.491-.6953-.827-1.4633-1.004-2.2768h11.511c.513 0 .872-.1999 1.068-.5907.182-.3681.277-.8089.277-1.3134 0-1.4042-.354-2.6948-1.05-3.8445-.695-1.1543-1.631-2.0813-2.776-2.7584Zm-8.998 5.9076c.186-.7498.509-1.4496.963-2.0767.486-.6681 1.1-1.2088 1.827-1.6178.727-.4045 1.541-.609 2.427-.609.849 0 1.64.2 2.345.5908.709.3954 1.299.9361 1.754 1.6042.431.6362.704 1.3405.813 2.104h-10.129v.0045ZM227.478 25.8512c-.595-.2227-1.317-.3363-2.154-.3363-.595 0-1.186.1681-1.763.5044-.568.3318-1.068.7453-1.486 1.2315-.291.3363-.518.6817-.681 1.0316l-.105-1.2588c0-.4317-.109-.7816-.323-1.0406-.218-.2682-.504-.3999-.849-.3999-.328 0-.637.1363-.918.3999-.282.2635-.428.618-.428 1.0406v14.1966c0 .359.11.6681.332.9271.223.2636.555.3999.982.3999.441 0 .772-.1363.99-.3999.214-.259.323-.5726.323-.9271v-8.7206c0-.7589.123-1.4951.368-2.1768.241-.6725.659-1.236 1.232-1.6677.577-.4318 1.381-.6499 2.395-.6499.395 0 .736.0727 1.008.2181.309.1636.641.2454.991.2454.259 0 .5-.1363.714-.4135.209-.2636.313-.559.313-.8725.014-.6453-.309-1.0952-.941-1.3315ZM246.297 19.7891c-.359 0-.673.1317-.923.3862-.25.2545-.377.5681-.377.9271v8.3843h-12.543v-8.3843c0-.3863-.141-.7044-.422-.9407-.277-.2363-.618-.359-1.018-.3726-.25 0-.518.1136-.791.3362-.282.2273-.427.5045-.427.818v20.177c0 .359.136.6771.409.9362.273.259.591.3908.95.3908s.672-.1318.922-.3863c.25-.2545.377-.568.377-.927v-9.0251h12.543v8.9751c0 .359.127.6725.377.927.25.2545.564.3863.923.3863.359 0 .672-.1318.936-.3863.259-.2545.395-.568.395-.927V21.116c0-.3726-.132-.6907-.386-.9452-.259-.2545-.577-.3817-.945-.3817ZM262.225 26.6192c-1.15-.6817-2.427-1.0225-3.795-1.0225-1.486 0-2.854.3863-4.062 1.1542-1.205.7635-2.177 1.7905-2.877 3.0402-.704 1.2543-1.063 2.6358-1.063 4.1127 0 1.5496.377 2.9902 1.118 4.2899.74 1.2951 1.758 2.3449 3.022 3.122 1.268.777 2.699 1.1679 4.262 1.1679 1.218 0 2.404-.2682 3.531-.7953 1.123-.5272 2.086-1.277 2.863-2.2222.209-.2545.314-.5408.314-.8543 0-.3591-.132-.6726-.387-.9271-.254-.2545-.568-.3863-.927-.3863-.431 0-.777.1727-1.031.5045-.509.6316-1.168 1.1406-1.959 1.5041-.79.3636-1.608.5499-2.431.5499-.968 0-1.859-.2272-2.64-.6726-.786-.4453-1.45-1.0452-1.963-1.7813-.491-.6999-.828-1.4633-1.005-2.2768h11.511c.514 0 .873-.1999 1.068-.5907.182-.3681.277-.8089.277-1.3134 0-1.4042-.354-2.6948-1.049-3.8445-.696-1.1543-1.632-2.0813-2.777-2.7584Zm.318 3.8036c.432.6362.704 1.3406.813 2.104h-10.129c.186-.7498.509-1.4496.963-2.0767.487-.6681 1.1-1.2088 1.827-1.6178.727-.4045 1.541-.609 2.427-.609.854 0 1.641.2 2.345.5908.709.3999 1.3.9407 1.754 1.6087ZM283.061 25.4832c-.346 0-.618.1227-.809.3726-.187.2363-.282.5271-.278.8543l-.127 1.7587c-.645-.6726-1.395-1.3179-2.231-1.9223-.927-.6725-1.986-1.0134-3.149-1.0134-1.132 0-2.191.2364-3.154.6999-.959.4635-1.809 1.0997-2.522 1.8904-.714.7908-1.277 1.7087-1.668 2.7221-.391 1.018-.591 2.0859-.591 3.1856 0 1.1088.2 2.1813.591 3.1856.391 1.0043.95 1.9132 1.663 2.6994.714.7862 1.55 1.4178 2.5 1.8723.949.4589 1.995.6907 3.103.6907 1.087 0 2.132-.3181 3.109-.9452.881-.5635 1.663-1.1997 2.331-1.8905v1.536c0 .3408.123.6317.359.8725.241.2409.532.359.873.359.34 0 .631-.1227.872-.359.241-.2408.364-.5317.364-.8725V26.7101c0-.3408-.123-.6316-.364-.8725-.236-.2317-.532-.3544-.872-.3544Zm-1.155 8.4525c0 1.0134-.254 1.9813-.754 2.8811-.5.8998-1.177 1.6405-2.013 2.1995-.832.5544-1.759.8362-2.754.8362-.986 0-1.881-.2772-2.663-.818-.786-.5454-1.418-1.2725-1.877-2.1586-.459-.8862-.691-1.8405-.691-2.8448 0-1.0134.237-1.9768.7-2.8675.464-.8907 1.104-1.6223 1.909-2.1767.8-.5499 1.713-.8271 2.722-.8271.995 0 1.913.2727 2.731.8134.818.5408 1.477 1.2588 1.963 2.1268.482.8725.727 1.8223.727 2.8357ZM288.65 19.7891c-.331 0-.622.1454-.867.4317-.241.2817-.364.5953-.364.9316v20.1179c0 .3863.141.7044.413.9498.273.2408.605.3635.996.3635.259 0 .527-.109.8-.3272.277-.2272.418-.4953.418-.8089V21.116c0-.3135-.128-.618-.373-.8998-.25-.2863-.595-.4271-1.023-.4271ZM301.634 39.3572c-.414 0-.786.0954-1.104.2818-.287.1636-.659.2499-1.105.2499-.481 0-.786-.15-.936-.4544-.163-.3318-.245-.7726-.245-1.3179l.013-9.8704 3.009.0137c.341 0 .631-.1227.872-.3636.241-.2408.359-.5317.359-.8725 0-.3408-.122-.6317-.359-.8725-.241-.2409-.536-.359-.872-.359l-3.009-.0137.014-3.4719c0-.359-.132-.6725-.386-.927-.255-.2545-.568-.3863-.927-.3863-.359 0-.673.1318-.927.3863-.255.2545-.387.568-.387.927l-.013 3.4856h-2.35c-.34 0-.631.1227-.872.359-.241.2408-.359.5317-.359.8725 0 .3408.123.6317.359.8725.241.2409.532.3636.872.3636h2.35l-.018 9.8249c0 1.2997.327 2.3767.977 3.1992.654.8317 1.64 1.2497 2.931 1.2497.409 0 .881-.05 1.404-.1545.532-.1045 1-.2908 1.395-.5544.414-.2772.627-.6635.627-1.1497 0-.359-.132-.6726-.386-.9271-.255-.259-.568-.3908-.927-.3908ZM317.293 27.7008c-1.013-1.4496-2.749-2.1858-5.158-2.1858-.867 0-1.754.259-2.635.7771-.768.4499-1.414 1.0543-1.927 1.7996v-6.9756c0-.359-.132-.6726-.386-.9271-.255-.2545-.568-.3863-.927-.3863-.359 0-.673.1318-.927.3863-.255.2545-.387.5681-.387.9271V41.234c0 .3363.128.6453.382.9089.255.2681.582.4044.963.4044.359 0 .673-.1318.927-.3863.255-.2544.387-.568.387-.927v-9.0569c0-.6363.191-1.2725.568-1.895.377-.6226.927-1.1407 1.631-1.5451.705-.4045 1.554-.609 2.522-.609 1.518 0 2.545.4817 3.059 1.427.527.9724.795 2.3358.795 4.0581l-.014 7.6027c0 .359.132.6726.387.9271.254.2544.568.3862.927.3862.359 0 .672-.1318.927-.3862.254-.2545.386-.5681.386-.9453l.018-7.5527v-.1454c0-2.4085-.509-4.3626-1.518-5.7987Z" fill="#981A51"></path>
    <path d="M67.6851 16.0309s-3.0266-4.7488-9.8568-3.0311c-1.4087.3545-3.4537 1.9768-5.6395 4.1218 1.5269-3.4856 3.1401-10.0658-3.2538-14.98735 0 0-4.7352-4.29898-22.072-.26812 0 0-5.4487 1.4133-5.9259 8.43887-.0772 1.2088.5317 3.0993 1.5315 5.2806-3.022-2.4358-8.4116-5.1761-14.57834-.9634 0 0-5.54868 3.1765-7.07558 20.9086 0 0-.34538 5.6169 6.19397 8.2435.9316.3772 2.47668.4317 4.33535.2863-2.89933 2.3676-5.75319 6.3803-3.95817 12.5016 0 0 1.30878 6.2621 17.70037 13.1877 0 0 5.2396 2.0632 9.7613-3.3446.6134-.7408 1.127-2.095 1.5541-3.7946 1.3861 3.4447 4.3308 7.2665 10.593 7.4437 0 0 6.353.6953 18.0093-12.7515 0 0 3.5855-4.349-.1636-10.3112-.4044-.6453-1.1952-1.3497-2.2495-2.0768 3.8673.0409 9.3024-1.1906 11.6609-7.8117-.0045 0 2.6221-5.8305-6.5666-21.0723ZM18.8376 31.0501c.2636-.8635.7544-1.3633.7544-1.3633 2.8493-1.8042 4.1854 2.6902 4.2354 2.8811l.0091.0045-.0091.0091c-.1545.1273-3.7764 3.0993-5.117.0137.0045 0-.1318-.6862.1272-1.5451Zm.3227 10.811s-.459-.5271-.6635-1.3996h-.0091c-.1999-.8771-.0136-1.5497-.0136-1.5497 1.5451-2.9811 4.9534.2318 5.0942.3727l.0046-.0046s0 .0046-.0046.0091c-.0636.1954-1.7132 4.5671-4.408 2.5721Zm5.2124 7.8663s-.6635-.2272-1.2815-.8907l-.0046.0046c-.6225-.668-.8089-1.3588-.8089-1.3588-.1408-3.4083 4.4808-2.304 4.6671-2.2585l.0091-.0046v.0046c.0409.2045.818 4.8943-2.5812 4.5034Zm3.2265-22.89h-.0091c-.1954.0364-4.8307.7953-4.4535-2.5539 0 0 .2272-.6589.8907-1.2724h-.0045c.6589-.6181 1.3406-.7953 1.3406-.7953 3.3673-.1454 2.2767 4.4217 2.2267 4.6216h.0091Zm5.0079 27.0799s-.6271.1273-1.4179-.1136v.0046c-.7952-.2454-1.2451-.6953-1.2451-.6953-1.6542-2.6085 2.463-3.8264 2.6357-3.8809l.0046-.0091s0 .0046.0091.0046h-.0046c.1227.1363 2.8493 3.4582.0182 4.6897Zm.8816-30.6699.0045.0136s-.0045 0-.0091-.0045c-.1635-.0636-4.1717-1.5633-2.3448-4.0354 0 0 .4771-.4181 1.2815-.5999l-.0046-.0045c.8044-.1863 1.4179-.0182 1.4179-.0182 2.7266 1.4178-.2136 4.5216-.3454 4.6489Zm15.0691-.2272s.6726.2272 1.2906.8952v-.0045c.6226.668.8044 1.3496.8044 1.3496.1409 3.4083-4.4762 2.304-4.6716 2.2586l-.0046.0091s-.0045-.0046 0-.0091c-.0272-.2045-.7998-4.8807 2.5812-4.4989Zm-6.7665 30.5063s-.4727.4181-1.2679.6044v.0046c-.7998.1863-1.4179.0136-1.4179.0136-2.722-1.4178.2182-4.5216.3409-4.6489v-.0091h.0045c.1681.0682 4.1626 1.5724 2.3404 4.0354Zm-1.4406-30.0019-.0046.0091-.0045-.0091c-.1182-.1409-2.8448-3.4583-.0182-4.6898 0 0 .6272-.1272 1.4179.1136l.0045-.0045c.7862.2408 1.2406.6953 1.2406.6953 1.6587 2.613-2.4539 3.8354-2.6357 3.8854Zm9.4477 24.9395s-.2226.6589-.8861 1.277l.0045.0045c-.6634.618-1.3406.7953-1.3406.7953-3.3719.1409-2.2767-4.4217-2.2312-4.6171l-.0091-.0045s.0091 0 .0091-.0091c.2045-.0318 4.8306-.7953 4.4534 2.5539Zm4.3081-6.7575c-.2636.8634-.7635 1.3542-.7635 1.3542-2.8493 1.8087-4.1853-2.6902-4.2399-2.8811h-.009s0-.0045.0045-.0091c.1591-.1318 3.7855-3.1038 5.1306-.0136 0 0 .1318.6816-.1227 1.5496Zm.3545-7.8663c-1.5497 2.972-4.9443-.2408-5.0943-.3772h-.0091v-.0091l.0046-.0045c.0727-.1863 1.7223-4.558 4.4171-2.563 0 0 .4635.5271.6635 1.3951h.0045c.1954.8862.0137 1.5587.0137 1.5587Z" fill="#F57E20"></path>
</svg>