<svg xmlns="http://www.w3.org/2000/svg" viewBox="0 0 180 118.09"><defs><style>.cls-1{fill:#006681;}</style></defs><title>jhpiego-logo-white</title><g id="Layer_2" data-name="Layer 2"><g id="Layer_1-2" data-name="Layer 1"><g id="MONO_Logo_Tag_White" data-name="MONO Logo Tag White"><path class="cls-1" d="M152.32,93.21c-.07,7.06,6.15,12.9,13.78,12.93s13.78-5.55,13.9-12.78c.11-7.07-6.08-12.91-13.75-12.93s-13.87,5.65-13.93,12.78m10.07-3.61a5.83,5.83,0,0,1,7.53,0,4.73,4.73,0,0,1,1.54,3.71A4.64,4.64,0,0,1,169.92,97a5.93,5.93,0,0,1-7.53,0,4.67,4.67,0,0,1-1.54-3.68,4.76,4.76,0,0,1,1.54-3.71"/><path class="cls-1" d="M80.71,77.37a5.43,5.43,0,0,0,6.91,0A4.29,4.29,0,0,0,89,74a4.37,4.37,0,0,0-1.42-3.41,5.33,5.33,0,0,0-6.91,0A4.34,4.34,0,0,0,79.29,74a4.26,4.26,0,0,0,1.42,3.38"/><path class="cls-1" d="M74.2,100.64a13.56,13.56,0,0,0,.57-13.74,11.25,11.25,0,0,0-8.7-6.33,11,11,0,0,0-9.22,2.52V81.54a.57.57,0,0,0-.58-.54H48.82a.57.57,0,0,0-.58.54v35.58a.6.6,0,0,0,.33.53,8.43,8.43,0,0,0,5.68-.06c2.87-.89,2.6-4.32,2.6-4.32v-9.71c7.15,5.17,14.71,1.57,17.35-2.92M62.4,98.49c-3.28,0-5.54-2.1-5.52-5.19A5,5,0,0,1,62.29,88a5.09,5.09,0,0,1,5.34,5.19,5,5,0,0,1-5.23,5.29"/><path class="cls-1" d="M149.07,104.88h0V81.54a.58.58,0,0,0-.58-.54h-7.45a.58.58,0,0,0-.58.54v1.55a10.89,10.89,0,0,0-9.21-2.51,11.23,11.23,0,0,0-8.71,6.32,13.61,13.61,0,0,0,.56,13.74,11.88,11.88,0,0,0,17.36,2.92v1.63c0,3.8-2.33,5.39-5.66,5.39a5.11,5.11,0,0,1-3.43-1.21,4.3,4.3,0,0,1-1.24-1.83.58.58,0,0,0-.63-.41h0l-6.58,2a.56.56,0,0,0-.4.65l0,.1v0a5.16,5.16,0,0,0,.16.52h0c1.16,3.39,4.68,6.8,10.55,7.4.23,0,.46,0,.7.06s.77,0,1.18,0c8.15,0,13.83-4.83,13.92-13.06m-14.14-6.39a5,5,0,0,1-5.23-5.29A5.09,5.09,0,0,1,135,88a5,5,0,0,1,5.41,5.29c0,3.09-2.24,5.22-5.52,5.19"/><path class="cls-1" d="M101.91,105.65a14.58,14.58,0,0,0,3,.46h.59c4.09,0,7.79-1.27,10.2-4.31a11.16,11.16,0,0,0,1.18-1.82l0-.08a.56.56,0,0,0-.3-.76h0L110.52,97h0a.59.59,0,0,0-.6.13l0,.05-.21.23a0,0,0,0,1,0,0,5.22,5.22,0,0,1-.6.64,4.91,4.91,0,0,1-.91.66,5.13,5.13,0,0,1-7.39-3.21h16.58a.57.57,0,0,0,.52-.47v-.07h0c.06-.67.08-1.35.08-2a13.22,13.22,0,0,0-.08-1.42A12.18,12.18,0,0,0,109.24,81a13.08,13.08,0,0,0-3.89-.58A12.94,12.94,0,0,0,92.21,93.23a12.76,12.76,0,0,0,9.7,12.42m3.42-18.77a4.25,4.25,0,0,1,4.34,3,4.44,4.44,0,0,1,.17.76h-9.16a4.88,4.88,0,0,1,4.65-3.76"/><path class="cls-1" d="M88.46,105.22V85.8s.27-3.43-2.61-4.33a8.44,8.44,0,0,0-5.68-.06.6.6,0,0,0-.32.54h0v23.24a.58.58,0,0,0,.57.58h7.46a.57.57,0,0,0,.57-.55"/><path class="cls-1" d="M18.2,105.83h7.52a.57.57,0,0,0,.54-.54V92.77s0,0,0,0a4.73,4.73,0,0,1,1.17-3.13A3.92,3.92,0,0,1,30,88.31c.2,0,.41,0,.62,0a4.13,4.13,0,0,1,3.22,1.34A4.67,4.67,0,0,1,35,92.18s0,.11,0,.18a4.7,4.7,0,0,1,0,.54v12.34a.57.57,0,0,0,.58.57H43.1a.57.57,0,0,0,.58-.54V91.64c0-6.17-3.28-11.22-10.64-11.22A9.57,9.57,0,0,0,26.26,83V74.64s.27-3.29-2.61-4.18A8.4,8.4,0,0,0,18,70.4a.59.59,0,0,0-.33.53v34.36a.56.56,0,0,0,.54.54"/><path class="cls-1" d="M5.12,77.37a5,5,0,0,0,3.45,1.24A5.07,5.07,0,0,0,12,77.37,4.29,4.29,0,0,0,13.45,74,4.37,4.37,0,0,0,12,70.58a5,5,0,0,0-3.46-1.27,5,5,0,0,0-3.45,1.27A4.34,4.34,0,0,0,3.7,74a4.26,4.26,0,0,0,1.42,3.38"/><path class="cls-1" d="M2,117.61a4.13,4.13,0,0,0,1.77.39c3.89-.09,7-2,8.37-5.22a11,11,0,0,0,.93-4.36c0-1,0-22.62,0-22.62s.27-3.43-2.61-4.33l-.21-.06L10,81.34a8.27,8.27,0,0,0-5.21.07.59.59,0,0,0-.33.54v24.59c0,3-.45,3.44-3.58,3.91H.76c-.49,0-.66.9-.71,1.52,0,.12,0,.27,0,.44v.07H0c0,.3,0,.63,0,.83A9.07,9.07,0,0,0,.15,115s0,.06,0,.1c0,.22.11.43.18.64a3.77,3.77,0,0,0,.35.73l.08.12a3.2,3.2,0,0,0,1.22,1"/><path class="cls-1" d="M169.17,27.59a7.07,7.07,0,0,0,9,0,5.55,5.55,0,0,0,1.85-4.4,5.66,5.66,0,0,0-1.85-4.43,6.93,6.93,0,0,0-9,0,5.65,5.65,0,0,0-1.84,4.43,5.54,5.54,0,0,0,1.84,4.4"/><path class="cls-1" d="M170,42.29a8.85,8.85,0,0,0-1.65,5.28,15.87,15.87,0,0,0,.35,3.44.5.5,0,0,0,.63.35c6.52-2.84,10.38-7.18,10.38-12.64,0-4.8-2.83-7.46-6.3-7.46a6,6,0,0,0-6.28,5.86A5.71,5.71,0,0,0,170,42.29"/><path class="cls-1" d="M151.61,12a8.07,8.07,0,0,0,10.28,0A6.34,6.34,0,0,0,164,7a6.43,6.43,0,0,0-2.12-5.06,7.93,7.93,0,0,0-10.28,0A6.45,6.45,0,0,0,149.51,7a6.36,6.36,0,0,0,2.1,5"/><path class="cls-1" d="M149.58,70a15.7,15.7,0,0,0,3.68-.52,15.9,15.9,0,0,0,4.23-1.74,14.19,14.19,0,0,0,3.79-3.22,12.72,12.72,0,0,0,2.51-5,23.2,23.2,0,0,0,.66-4.33c.1-1.6.14-2.94.14-4,0,0,0-21.55,0-25.33v-.55c0-.15,0-1.27,0-1.42a6.35,6.35,0,0,0-4.42-6c-5.92-1.84-9.69-.11-9.69-.11a1,1,0,0,0-.56.92V52.26a14,14,0,0,1-.3,3,6,6,0,0,1-1.11,2.41,6.05,6.05,0,0,1-2.29,1.7,14.11,14.11,0,0,1-4.27.92.77.77,0,0,0-.71.75,46.61,46.61,0,0,0,0,6.19c.16,2.9,8.4,2.79,8.4,2.79"/></g></g></g></svg>