<?xml version="1.0" encoding="UTF-8"?>
<svg id="Layer_1" data-name="Layer 1" xmlns="http://www.w3.org/2000/svg" xmlns:xlink="http://www.w3.org/1999/xlink" viewBox="0 0 574.72 955.83">
  <defs>
    <style>
      .cls-1, .cls-2, .cls-3 {
        fill: #fff;
      }

      .cls-1, .cls-4, .cls-5, .cls-3, .cls-6 {
        stroke: #3f3737;
      }

      .cls-1, .cls-5, .cls-3, .cls-6 {
        stroke-miterlimit: 10;
      }

      .cls-7 {
        fill: #3f87ca;
      }

      .cls-8 {
        stroke-width: 3px;
      }

      .cls-8, .cls-4, .cls-3, .cls-6, .cls-9, .cls-10 {
        stroke-linecap: round;
      }

      .cls-8, .cls-4, .cls-6, .cls-11, .cls-9, .cls-10 {
        fill: none;
      }

      .cls-8, .cls-4, .cls-9, .cls-10 {
        stroke-linejoin: round;
      }

      .cls-8, .cls-9, .cls-10 {
        stroke: #e4e4e4;
      }

      .cls-12 {
        fill: #514646;
      }

      .cls-5 {
        stroke-width: .5px;
      }

      .cls-5, .cls-13 {
        fill: #c6dff3;
      }

      .cls-14 {
        clip-path: url(#clippath);
      }

      .cls-15 {
        fill: #8da6bc;
      }

      .cls-16 {
        fill: #3f3737;
      }

      .cls-9 {
        stroke-width: 3px;
      }

      .cls-10 {
        stroke-width: 3px;
      }

      .cls-17 {
        fill: #caecff;
      }
    </style>
    <clipPath id="clippath">
      <rect class="cls-11" x="9.73" y="56.86" width="349.31" height="705.36"/>
    </clipPath>
  </defs>
  <rect class="cls-11" x="9.73" width="564.99" height="762.22"/>
  <g class="cls-14">
    <g>
      <g>
        <polygon class="cls-3" points="150.44 478.5 131.48 707.81 48.91 692.23 96.08 474.49 150.44 478.5"/>
        <g>
          <path class="cls-12" d="m77.22,538.67C56.58,577.49,4.22,788.46,0,825.01c30.67,11.08,102.29-1.23,133.71.72,3.88-44.98,24.28-233.97,16.09-282.34"/>
          <polygon class="cls-5" points="82.01 517.87 150.01 524.41 149.31 543.97 78 538.64 82.01 517.87"/>
        </g>
        <path class="cls-3" d="m163.29,432.96c.34,16.12,7.04,66.88-18.4,68.89-9.83,1.55-20.15-.46-28.8-5.22-13-2.08-21.85-6.96-21.16-17.06.41-6.88,2-73.55,17.68-61.61,5.48-5.54,16.11-6.92,21.38.91,13.73-9.08,30.4-.22,29.3,14.08Z"/>
        <g>
          <g>
            <path class="cls-15" d="m55.35,265.95c-26.56,46.79-45.04,136.71-15.1,184.87l57.49.39,59.91-167.48-102.3-17.78Z"/>
            <path class="cls-4" d="m86.99,271.55c-6.57,11.18-15.15,28.59-19.61,51.24-3.71,18.9-2.25,29.97-3.35,45.62-1.23,17.5-5.75,42.15-20.75,71.9-.87,1.73-3.34,1.53-3.92-.32-.63-1.98-1.22-3.99-1.78-6.02-17.22-62.05,1.28-122.94,22.44-167.19"/>
            <path class="cls-4" d="m66.65,267.92c-13.76,24.54-35.05,71.57-30.03,130.02.9,10.48,2.55,20.23,4.65,29.19.5,2.14,3.41,2.29,4.08.19,6.55-20.48,9.8-37.55,11.57-49.55,4.29-29.12,2.22-44.5,10.01-69.97,5.11-16.71,11.9-29.42,16.65-37.29"/>
            <path class="cls-4" d="m77.93,269.88c-11.35,18.9-16.48,35.24-19.07,46.41-4.19,18.11-3.03,28.37-6.52,54.6-1.99,14.97-4.49,27.54-6.58,36.82-.31,1.39-2.27,1.28-2.44-.14-1.39-11.95-2.04-25.62-1.12-40.62,2.72-44.06,17.67-78.06,28.85-98.39"/>
          </g>
          <g>
            <path class="cls-13" d="m254.19,298.33c-48.04,56.51-5.48,126.27-55.73,169.85-53.04-2-105.94-7.8-158.21-17.35,48.1-43.82,6.46-122.23,55.6-186.72"/>
            <path class="cls-16" d="m100.44,271.35c-4.03,4.46-9.99,12.15-14.26,23.25-4.41,11.47-5.1,21.61-5.06,27.78,47.08,9.47,94.16,18.95,141.24,28.42,1.33-6.62,3.36-14.31,6.54-22.61,4.34-11.33,9.55-20.48,14.19-27.42-47.55-9.81-95.1-19.61-142.65-29.42Z"/>
            <g>
              <g>
                <path class="cls-16" d="m79.32,330.11c-.89,13.19-1.5,23.94-1.9,31.35-.78,14.61-1.07,22.65-2.46,34.91-.78,6.92-1.62,12.6-2.23,16.41,27.34,5.93,54.68,11.85,82.01,17.78,2.04-4.36,4.86-11.39,6.38-20.4,2.15-12.76.08-19.92.38-35.12.13-6.4.71-15.9,2.97-27.55-28.38-5.79-56.77-11.58-85.15-17.38Z"/>
                <g>
                  <ellipse class="cls-10" cx="119.38" cy="379.53" rx="29.44" ry="30.38"/>
                  <line class="cls-9" x1="90.49" y1="373.74" x2="148.29" y2="385.3"/>
                  <path class="cls-9" d="m99.89,356.76c4.39,2.98,12.24,7.49,22.99,9.44,9.65,1.75,17.7.73,22.66-.31"/>
                  <path class="cls-9" d="m93.06,393.11c5.31-1.03,14.29-2.05,24.99.33,9.34,2.08,16.34,5.95,20.66,8.8"/>
                  <path class="cls-9" d="m113.79,409.35c-.99-1.05-13.37-14.71-9.39-33.66,3.77-17.96,19.01-25.27,20.59-26-3.73,19.89-7.47,39.77-11.2,59.66Z"/>
                  <path class="cls-9" d="m124.99,349.69c1.23,1.39,12.3,14.44,8.87,32.72-3.43,18.28-18.43,26.11-20.07,26.94"/>
                </g>
              </g>
              <g>
                <line class="cls-4" x1="173.02" y1="363.13" x2="220.99" y2="372.38"/>
                <line class="cls-4" x1="174.51" y1="352.14" x2="222.48" y2="361.39"/>
                <line class="cls-4" x1="171.32" y1="375.61" x2="219.29" y2="384.85"/>
                <line class="cls-4" x1="171.27" y1="383.6" x2="219.24" y2="392.85"/>
                <line class="cls-4" x1="172.38" y1="393.18" x2="220.35" y2="402.42"/>
                <line class="cls-4" x1="168.01" y1="414.4" x2="215.98" y2="423.64"/>
                <line class="cls-4" x1="166.91" y1="422.52" x2="214.88" y2="431.77"/>
                <line class="cls-4" x1="162.94" y1="430.23" x2="210.91" y2="439.48"/>
              </g>
            </g>
            <g>
              <path class="cls-15" d="m48.94,452.38c3.64-2.54,9.11-7.02,13.99-14.14,4.87-7.11,7.14-13.92,8.25-18.31,17.4,3.67,34.81,7.34,52.21,11.01-1.7,5.3-5.05,13.3-11.79,20.95-3.22,3.65-6.49,6.41-9.37,8.47-8.8-1.1-17.77-2.33-26.91-3.7-8.98-1.35-17.78-2.78-26.38-4.28Z"/>
              <path class="cls-16" d="m108.2,461.09c3.51-2.79,8.34-7.28,12.65-13.95,3.63-5.61,5.71-10.92,6.93-14.9,16.28,3.48,32.56,6.96,48.84,10.44-1.01,3.53-2.57,7.89-5.07,12.59-2.46,4.64-5.14,8.32-7.46,11.08-7.24-.5-14.59-1.07-22.04-1.73-11.56-1.03-22.85-2.21-33.87-3.53Z"/>
              <path class="cls-16" d="m181.08,443.67c8.8,1.43,17.6,2.85,26.4,4.28-1.78,3.17-4.27,6.97-7.67,10.88-3.4,3.9-6.78,6.85-9.64,9.01-6.84-.37-13.68-.74-20.52-1.12,2.39-2.89,5.24-6.94,7.68-12.21,1.86-4.02,3.02-7.75,3.75-10.84Z"/>
            </g>
          </g>
        </g>
        <g>
          <path class="cls-2" d="m114.56,496.72c.73-20.91,9.84-27.41,20.73-41.01,1.32-13.21,1.39-29.7,12.92-37.61,13.49-7.79,6.02,17.19,7.63,26.52,2.8,16.27,5.87,25.61-5.38,49.5"/>
          <path class="cls-6" d="m159.04,463.61c.18,6.44-.82,12.86-2.31,19.12"/>
          <path class="cls-6" d="m156.31,421.8c-2.22-1.18-3.82-.74-4.36-.54-3.14,1.12-5.48,6.02-4.85,11.94,2.66.24,5.32.48,7.97.72"/>
          <path class="cls-6" d="m130.29,461.12c-1.13,1.21-2.07,2.38-3.21,3.58-6.24,6.53-9.46,16.01-10.8,25.4"/>
        </g>
      </g>
      <g>
        <g>
          <g>
            <path class="cls-1" d="m158.59,810.48c15.23-34.5,47.98-126.9,56.89-159.86,19.5.43,37.55,6.38,56.89,9.16-4.15,40.91-31.32,138.81-37.67,179.41"/>
            <g>
              <path class="cls-1" d="m211.5,619.94c-2.95-18.26.28-27.73,8.89-43.2,3.73-9.35.28-20.13,2.86-29.34,2.76-3.8,8.23-2.24,11.06.74,13.72,13.75,3.28,35.13,3.93,52.05.85,18.87,14.41,35.23,15.3,54.1,2.66,24.93-35.42,11.77-41.71-1.44-4.16-10.21,1.06-22.09-.33-32.92Z"/>
              <path class="cls-1" d="m222.24,549.97c2.08.13,4.05,1.47,4.98,3.4.49,1.01.7,2.14.9,3.25.24,1.31.48,2.62.71,3.93-1.99.04-3.99.09-5.98.13-.14,0-.3-.23-.16-.22"/>
            </g>
            <path class="cls-1" d="m321.02,666.2c-13.76-17.28-46-16.88-61.31-1.95-.17,0-.33,0-.5.02-1.83.1-2.94.52-3.57,1.16l-.69-.19c-1.02,2.74,1.27,11.61,3.63,11.21.31.14.86.25,1.62.31,13.31,7.93,50.9-2.73,60.82-10.57Z"/>
          </g>
          <g>
            <polygon class="cls-13" points="199.43 697.39 206.73 674.47 269.08 695.29 265.97 716.31 199.43 697.39"/>
            <polygon class="cls-16" points="200.98 684.26 269.52 705.68 222.38 955.83 116.53 933.27 200.98 684.26"/>
          </g>
        </g>
        <g>
          <path class="cls-16" d="m225.39,648.84l23.42-137.85c1.01-5.93,6.67-9.75,12.34-8.33l66.4,16.71c5.31,1.34,8.63,6.79,7.48,12.3l-27.55,133.23c-1.14,5.53-6.36,9.11-11.74,8.07l-62.27-12.09c-5.43-1.06-9.04-6.42-8.08-12.04Z"/>
          <g>
            <path class="cls-2" d="m279.54,513.13l33.14,7.62c1.07.25,1.73,1.35,1.47,2.45l-.14.56c-.26,1.07-1.31,1.72-2.34,1.47l-33.01-8.18c-1.05-.26-1.7-1.35-1.44-2.44h0c.25-1.06,1.28-1.72,2.31-1.48Z"/>
            <path class="cls-16" d="m312.7,522.82c0,.76-.6,1.37-1.33,1.37s-1.33-.61-1.33-1.37.6-1.37,1.33-1.37,1.33.62,1.33,1.37Z"/>
          </g>
          <g>
            <polygon class="cls-7" points="255.69 519.18 232.61 646.46 301.92 659.45 325.87 535.27 255.69 519.18"/>
            <polygon class="cls-2" points="232.61 646.46 243.71 585.25 313.52 599.3 301.92 659.45 232.61 646.46"/>
            <g>
              <ellipse class="cls-8" cx="286.95" cy="559.41" rx="23.08" ry="23.83"/>
              <line class="cls-9" x1="264.27" y1="554.87" x2="309.59" y2="563.93"/>
              <path class="cls-9" d="m271.64,541.55c3.44,2.34,9.6,5.87,18.02,7.4,7.57,1.37,13.88.57,17.77-.24"/>
              <path class="cls-9" d="m266.29,570.05c4.16-.81,11.2-1.61,19.59.26,7.32,1.63,12.81,4.66,16.2,6.9"/>
              <path class="cls-9" d="m282.54,582.79c-.78-.83-10.49-11.53-7.37-26.39,2.96-14.09,14.91-19.82,16.15-20.38-2.93,15.59-5.85,31.19-8.78,46.78Z"/>
              <path class="cls-9" d="m291.32,536.01c.96,1.09,9.65,11.32,6.96,25.66-2.69,14.34-14.45,20.48-15.74,21.12"/>
            </g>
            <g>
              <line class="cls-6" x1="251.95" y1="593.39" x2="304.23" y2="603.72"/>
              <line class="cls-6" x1="248.71" y1="608.59" x2="300.98" y2="618.91"/>
              <line class="cls-6" x1="250.37" y1="600.81" x2="289.75" y2="608.59"/>
              <line class="cls-6" x1="246.84" y1="623.11" x2="299.11" y2="633.43"/>
              <line class="cls-6" x1="244.93" y1="630.16" x2="297.21" y2="640.49"/>
              <line class="cls-6" x1="248.5" y1="615.33" x2="287.88" y2="623.11"/>
              <line class="cls-6" x1="244.16" y1="638.66" x2="283.53" y2="646.44"/>
            </g>
          </g>
        </g>
        <g>
          <path class="cls-1" d="m340.23,579.66c2.75,6.62-2.62,15.44-8.27,18.76,9.42,5.9,3.19,21.29-5.91,24.95,10.4,3.71,1.87,18.8-4.89,21.6,11.12,5.06,5.91,23.13-5.44,22.39-5.41-.05-12.44.53-16.74-3.46-4.55-6.8,1.19-15.75,7.97-18.35-9.89-1.98-2.84-18.4,3.83-20.76-3.84.84-5.26-6.87-4.49-10.23.99-6.91,6.57-10.25,12.03-14.37-18.35-10.28,13.22-32.42,21.91-20.52Z"/>
          <g>
            <path class="cls-6" d="m316.13,600.43c4.14-1.15,9.94-1.98,15.82-2.26"/>
            <path class="cls-6" d="m310.48,625.62c4.91-1.22,11.08-2.47,16.07-2.48"/>
            <path class="cls-6" d="m306.43,646.01c5.27.41,10.54-.49,15.8-1.18"/>
            <path class="cls-6" d="m321.84,583.26c-7.28,2.6-6.74,14.29,1.91,13.31,2.56-2.93,4.43-15.59-1.91-13.31Z"/>
            <path class="cls-6" d="m317.9,607.12c-7.48,4.3-5.28,16.63,3.93,13.64,2.55-3.82,3.72-18.48-3.93-13.64Z"/>
            <path class="cls-6" d="m316.55,641.9c-12.71,4.45-9.43-15.28,1.3-13.71,1.28,4.7-.08,9.23-1.3,13.71Z"/>
            <path class="cls-6" d="m314,664.47c-13.65,4.56-12.26-15.61-.08-13.73,1.39,4.48,1.38,9.22.08,13.73Z"/>
          </g>
        </g>
      </g>
    </g>
  </g>
  <g>
    <path class="cls-7" d="m106.04,45.18h69.4c18.31,0,33.18,14.87,33.18,33.18v69.4c0,18.31-14.87,33.18-33.18,33.18h-69.4c-18.31,0-33.18-14.87-33.18-33.18v-69.4c0-18.31,14.87-33.18,33.18-33.18Z"/>
    <path class="cls-17" d="m160.07,72.77h-41.2c-10.83,0-19.69,8.86-19.69,19.69v41.2c0,10.83,8.86,19.69,19.69,19.69h41.2c10.83,0,19.69-8.86,19.69-19.69v-41.2c0-10.83-8.86-19.69-19.69-19.69Zm-5.39,43.68l-24.55,14.82c-2.61,1.58-5.94-.3-5.94-3.35v-29.64c0-3.05,3.33-4.93,5.94-3.35l24.55,14.82c2.52,1.52,2.52,5.18,0,6.7Z"/>
  </g>
  <g>
    <path class="cls-7" d="m405.79,96.77v38.29c0,10.05-8.23,18.29-18.3,18.29h-38.29c-10.05,0-18.29-8.23-18.29-18.29v-38.29c0-10.07,8.23-18.3,18.29-18.3h38.29c10.07,0,18.3,8.23,18.3,18.3Z"/>
    <path class="cls-17" d="m367.88,94.34c-10.94.37-19.86,9.26-20.24,20.21-.18,5.01,1.4,9.64,4.18,13.34,1.13,1.51,1.55,3.43,1.12,5.27l-1.34,5.76,7.06-3.11c1.35-.6,2.87-.7,4.3-.3,2.23.63,4.61.89,7.07.73,10.49-.7,18.93-9.21,19.53-19.7.71-12.39-9.34-22.61-21.67-22.2Zm-8.58,22.16c-.7,0-1.26-.56-1.26-1.26s.56-1.26,1.26-1.26,1.26.56,1.26,1.26-.56,1.26-1.26,1.26Zm8.97,0c-.7,0-1.26-.56-1.26-1.26s.56-1.26,1.26-1.26,1.26.56,1.26,1.26-.56,1.26-1.26,1.26Zm9.46,0c-.7,0-1.26-.56-1.26-1.26s.56-1.26,1.26-1.26,1.26.56,1.26,1.26-.56,1.26-1.26,1.26Z"/>
  </g>
  <g>
    <rect class="cls-7" x="332.4" y="209.47" width="178.98" height="178.98" rx="43.73" ry="43.73"/>
    <g>
      <path class="cls-17" d="m363.8,307.22c-2.26.78-3.45,3.25-2.63,5.51l2.63,7.48c.82,2.22,3.29,3.41,5.51,2.63l3.78-1.36-5.55-15.57-3.74,1.31Z"/>
      <path class="cls-17" d="m409.95,327.22l-16.19,5.75c-.08,0-.12.04-.21.08l7.6,21.49c.21.62.74,1.03,1.36,1.11l15.62,1.68c1.19.12,2.14-1.07,1.73-2.22l-9.9-27.9Z"/>
      <path class="cls-17" d="m480.23,313.05l-7.77-21.94c3.14-2.47,5.21-6.21,5.21-10.52,0-7.48-6.06-13.51-13.51-13.51-.07,0-.14.01-.21.01l-7.72-21.79c-1.05-2.97-4.32-4.53-7.29-3.48-2.97,1.05-4.53,4.32-3.48,7.29l24,67.74c1.05,2.97,4.32,4.53,7.29,3.48,2.97-1.05,4.53-4.32,3.48-7.29Z"/>
      <path class="cls-17" d="m397.56,283.02l-19.23,6.81c-5.43,1.92-8.27,7.88-6.35,13.31l6.4,18.06c1.89,5.34,7.7,8.16,13.05,6.41v.02c.09,0,.17-.04.24-.08,0,0,0,0,.01,0l19.21-6.81.04.04s40.77-10.05,52.75-2.44l-23.61-66.64c-4.51,13.45-42.51,31.32-42.51,31.32Z"/>
    </g>
  </g>
</svg>