<?xml version="1.0" encoding="UTF-8"?>
<svg id="Layer_1" data-name="Layer 1" xmlns="http://www.w3.org/2000/svg" viewBox="0 0 103.41 157.26">
  <defs>
    <style>
      .cls-1 {
        opacity: .93;
      }

      .cls-2 {
        fill: #1c295f;
        stroke: #1c295f;
        stroke-miterlimit: 10;
        stroke-width: 5px;
      }
    </style>
  </defs>
  <g class="cls-1">
    <g>
      <path class="cls-2" d="m6.35,4.02c0,.83-.68,1.51-1.52,1.5-.83,0-1.51-.68-1.5-1.52,0-.83.68-1.51,1.52-1.5.83,0,1.51.68,1.5,1.52Z"/>
      <path class="cls-2" d="m29.99,4.15c0,.83-.68,1.51-1.52,1.5-.83,0-1.51-.68-1.5-1.52,0-.83.68-1.51,1.52-1.5s1.51.68,1.5,1.52Z"/>
      <path class="cls-2" d="m53.63,4.28c0,.83-.68,1.51-1.52,1.5-.83,0-1.51-.68-1.5-1.52,0-.83.68-1.51,1.52-1.5.83,0,1.51.68,1.5,1.52Z"/>
      <circle class="cls-2" cx="75.76" cy="4.41" r="1.51"/>
      <path class="cls-2" d="m100.91,4.55c0,.83-.68,1.51-1.52,1.5s-1.51-.68-1.5-1.52c0-.83.68-1.51,1.52-1.5.83,0,1.51.68,1.5,1.52Z"/>
    </g>
    <g>
      <path class="cls-2" d="m6.23,25.14c0,.83-.68,1.51-1.52,1.5s-1.51-.68-1.5-1.52c0-.83.68-1.51,1.52-1.5.83,0,1.51.68,1.5,1.52Z"/>
      <path class="cls-2" d="m29.87,25.28c0,.83-.68,1.51-1.52,1.5s-1.51-.68-1.5-1.52c0-.83.68-1.51,1.52-1.5.83,0,1.51.68,1.5,1.52Z"/>
      <path class="cls-2" d="m53.51,25.41c0,.83-.68,1.51-1.52,1.5-.83,0-1.51-.68-1.5-1.52s.68-1.51,1.52-1.5c.83,0,1.51.68,1.5,1.52Z"/>
      <circle class="cls-2" cx="75.65" cy="25.53" r="1.51"/>
      <circle class="cls-2" cx="99.29" cy="25.66" r="1.51"/>
    </g>
    <g>
      <circle class="cls-2" cx="4.6" cy="46.26" r="1.51"/>
      <circle class="cls-2" cx="28.25" cy="46.39" r="1.51"/>
      <path class="cls-2" d="m53.4,46.53c0,.83-.68,1.51-1.52,1.5-.83,0-1.51-.68-1.5-1.52s.68-1.51,1.52-1.5c.83,0,1.51.68,1.5,1.52Z"/>
      <path class="cls-2" d="m77.04,46.67c0,.83-.68,1.51-1.52,1.5-.83,0-1.51-.68-1.5-1.52,0-.83.68-1.51,1.52-1.5.83,0,1.51.68,1.5,1.52Z"/>
      <path class="cls-2" d="m100.68,46.8c0,.83-.68,1.51-1.52,1.5-.83,0-1.51-.68-1.5-1.52,0-.83.68-1.51,1.52-1.5.83,0,1.51.68,1.5,1.52Z"/>
    </g>
    <g>
      <path class="cls-2" d="m6,67.4c0,.83-.68,1.51-1.52,1.5-.83,0-1.51-.68-1.5-1.52s.68-1.51,1.52-1.5c.83,0,1.5.68,1.5,1.52Z"/>
      <path class="cls-2" d="m29.64,67.53c0,.83-.68,1.51-1.52,1.5-.83,0-1.51-.68-1.5-1.52s.68-1.51,1.52-1.5,1.5.68,1.5,1.52Z"/>
      <path class="cls-2" d="m53.28,67.66c0,.83-.68,1.51-1.52,1.5-.83,0-1.51-.68-1.5-1.52,0-.83.68-1.51,1.52-1.5.83,0,1.51.68,1.5,1.52Z"/>
      <circle class="cls-2" cx="75.41" cy="67.78" r="1.51"/>
      <path class="cls-2" d="m100.56,67.92c0,.83-.68,1.51-1.52,1.5s-1.51-.68-1.5-1.52c0-.83.68-1.51,1.52-1.5.83,0,1.51.68,1.5,1.52Z"/>
    </g>
    <g>
      <path class="cls-2" d="m5.88,88.52c0,.83-.68,1.51-1.52,1.5-.83,0-1.51-.68-1.5-1.52,0-.83.68-1.51,1.52-1.5.83,0,1.5.68,1.5,1.52Z"/>
      <path class="cls-2" d="m29.52,88.65c0,.83-.68,1.51-1.52,1.5-.83,0-1.51-.68-1.5-1.52s.68-1.51,1.52-1.5c.83,0,1.5.68,1.5,1.52Z"/>
      <path class="cls-2" d="m53.16,88.79c0,.83-.68,1.51-1.52,1.5-.83,0-1.51-.68-1.5-1.52s.68-1.51,1.52-1.5c.83,0,1.51.68,1.5,1.52Z"/>
      <circle class="cls-2" cx="75.29" cy="88.91" r="1.51"/>
      <circle class="cls-2" cx="98.93" cy="89.04" r="1.51"/>
    </g>
    <g>
      <circle class="cls-2" cx="4.25" cy="109.64" r="1.51"/>
      <circle class="cls-2" cx="27.89" cy="109.77" r="1.51"/>
      <path class="cls-2" d="m53.04,109.91c0,.83-.68,1.51-1.52,1.5-.83,0-1.51-.68-1.5-1.52,0-.83.68-1.51,1.52-1.5.83,0,1.51.68,1.5,1.52Z"/>
      <path class="cls-2" d="m76.68,110.04c0,.83-.68,1.51-1.52,1.5-.83,0-1.51-.68-1.5-1.52,0-.83.68-1.51,1.52-1.5.83,0,1.51.68,1.5,1.52Z"/>
      <path class="cls-2" d="m100.32,110.18c0,.83-.68,1.51-1.52,1.5-.83,0-1.51-.68-1.5-1.52s.68-1.51,1.52-1.5c.83,0,1.51.68,1.5,1.52Z"/>
    </g>
    <g>
      <path class="cls-2" d="m5.64,131.6c0,.83-.68,1.51-1.52,1.5-.83,0-1.51-.68-1.5-1.52,0-.83.68-1.51,1.52-1.5.83,0,1.5.68,1.5,1.52Z"/>
      <path class="cls-2" d="m29.28,131.74c0,.83-.68,1.51-1.52,1.5-.83,0-1.51-.68-1.5-1.52s.68-1.51,1.52-1.5c.83,0,1.5.68,1.5,1.52Z"/>
      <path class="cls-2" d="m52.92,131.87c0,.83-.68,1.51-1.52,1.5-.83,0-1.51-.68-1.5-1.52s.68-1.51,1.52-1.5c.83,0,1.51.68,1.5,1.52Z"/>
      <circle class="cls-2" cx="75.05" cy="131.99" r="1.51"/>
      <circle class="cls-2" cx="98.69" cy="132.12" r="1.51"/>
    </g>
    <g>
      <circle class="cls-2" cx="4.01" cy="152.72" r="1.51"/>
      <circle class="cls-2" cx="27.65" cy="152.85" r="1.51"/>
      <path class="cls-2" d="m52.8,152.99c0,.83-.68,1.51-1.52,1.5-.83,0-1.51-.68-1.5-1.52,0-.83.68-1.51,1.52-1.5.83,0,1.51.68,1.5,1.52Z"/>
      <path class="cls-2" d="m76.44,153.13c0,.83-.68,1.51-1.52,1.5-.83,0-1.51-.68-1.5-1.52,0-.83.68-1.51,1.52-1.5.83,0,1.51.68,1.5,1.52Z"/>
      <path class="cls-2" d="m100.08,153.26c0,.83-.68,1.51-1.52,1.5-.83,0-1.51-.68-1.5-1.52s.68-1.51,1.52-1.5c.83,0,1.51.68,1.5,1.52Z"/>
    </g>
  </g>
</svg>