<?xml version="1.0" encoding="UTF-8"?>
<svg id="Layer_1" data-name="Layer 1" xmlns="http://www.w3.org/2000/svg" viewBox="0 0 1107.03 252.16">
  <defs>
    <style>
      .cls-1 {
        fill: none;
      }

      .cls-2 {
        fill: #acc3e7;
      }
    </style>
  </defs>
  <g>
    <g>
      <path class="cls-2" d="m553.52,128.91c2.65-1.11,5.3-1.69,7.96-2.11,2.65-.4,5.3-.58,7.96-.58s5.3.18,7.96.57c2.65.41,5.3.99,7.96,2.12-2.65,1.12-5.3,1.7-7.96,2.12-2.65.4-5.3.58-7.96.57-2.65,0-5.3-.18-7.96-.58-2.65-.41-5.3-.99-7.96-2.11h0Z"/>
      <path class="cls-2" d="m569.42,113c1.11,2.65,1.69,5.3,2.11,7.96.4,2.65.58,5.3.58,7.96s-.18,5.3-.57,7.96c-.41,2.65-.99,5.3-2.12,7.96-1.12-2.65-1.7-5.3-2.12-7.96-.4-2.65-.58-5.3-.57-7.96,0-2.65.18-5.3.58-7.96.41-2.65.99-5.3,2.11-7.96Z"/>
    </g>
    <g>
      <path class="cls-2" d="m1005.44,236.25c2.65-1.11,5.3-1.69,7.96-2.11,2.65-.4,5.3-.58,7.96-.58s5.3.18,7.96.57c2.65.41,5.3.99,7.96,2.12-2.65,1.12-5.3,1.7-7.96,2.12-2.65.4-5.3.58-7.96.57-2.65,0-5.3-.18-7.96-.58-2.65-.41-5.3-.99-7.96-2.11h0Z"/>
      <path class="cls-2" d="m1021.34,220.33c1.11,2.65,1.69,5.3,2.11,7.96.4,2.65.58,5.3.58,7.96s-.18,5.3-.57,7.96c-.41,2.65-.99,5.3-2.12,7.96-1.12-2.65-1.7-5.3-2.12-7.96-.4-2.65-.58-5.3-.57-7.96,0-2.65.18-5.3.58-7.96.41-2.65.99-5.3,2.11-7.96Z"/>
    </g>
    <g>
      <path class="cls-2" d="m806.76,36.11c2.65-1.11,5.3-1.69,7.96-2.11,2.65-.4,5.3-.58,7.96-.58s5.3.18,7.96.57c2.65.41,5.3.99,7.96,2.12-2.65,1.12-5.3,1.7-7.96,2.12-2.65.4-5.3.58-7.96.57-2.65,0-5.3-.18-7.96-.58-2.65-.41-5.3-.99-7.96-2.11Z"/>
      <path class="cls-2" d="m822.66,20.21c1.11,2.65,1.69,5.3,2.11,7.96.4,2.65.58,5.3.58,7.96s-.18,5.3-.57,7.96c-.41,2.65-.99,5.3-2.12,7.96-1.12-2.65-1.7-5.3-2.12-7.96-.4-2.65-.58-5.3-.57-7.96,0-2.65.18-5.3.58-7.96.41-2.65.99-5.3,2.11-7.96Z"/>
    </g>
  </g>
  <rect class="cls-1" width="1107.03" height="252.16"/>
</svg>