<?xml version="1.0" encoding="UTF-8"?>
<svg id="OBJECTS" xmlns="http://www.w3.org/2000/svg" viewBox="0 0 1224.81 352.34">
  <defs>
    <style>
      .cls-1 {
        stroke-width: 2.59px;
      }

      .cls-1, .cls-2, .cls-3, .cls-4 {
        stroke-miterlimit: 10;
      }

      .cls-1, .cls-3, .cls-5, .cls-6 {
        fill: #f7f7f7;
      }

      .cls-1, .cls-4 {
        stroke: #263238;
      }

      .cls-7 {
        fill: #e6e7eb;
      }

      .cls-2, .cls-3, .cls-4 {
        stroke-width: 1.95px;
      }

      .cls-2, .cls-3, .cls-6 {
        stroke: #38474f;
      }

      .cls-2, .cls-4 {
        fill: none;
      }

      .cls-8 {
        fill: #38474f;
      }

      .cls-9 {
        fill: #8dabd9;
      }

      .cls-10 {
        fill: #acc3e7;
      }

      .cls-11 {
        fill: #263238;
      }

      .cls-6 {
        stroke-miterlimit: 10;
        stroke-width: 1.95px;
      }
    </style>
  </defs>
  <g>
    <g>
      <rect class="cls-9" x="160.92" y="227.5" width="3.9" height="105.2" transform="translate(-37.71 25.64) rotate(-8.07)"/>
      <path class="cls-9" d="m154.84,236l3.81-32.02,66.29-100.95c27.11,107.66-34.7,94.82-70.11,132.98h0Z"/>
      <path class="cls-10" d="m154.84,236c-19.8-46.88,38.57-87.25,70.11-132.98,20.7,82.25-62.21,73.01-70.11,132.98Z"/>
      <g>
        <path class="cls-9" d="m194.01,334.91h-3.9c0-88.98,21-108.55,21.89-109.34l2.58,2.92c-.19.18-20.58,19.77-20.58,106.42h0Z"/>
        <path class="cls-9" d="m199.06,252.82c14.06-20.87,105.38,14.76,112.39-94.53-49.53,29.73-94.52,23.73-112.39,94.53h0Z"/>
        <path class="cls-10" d="m199.06,252.82c19.7-41.99,80.96-35.35,112.39-94.53-49.53,29.73-94.52,23.73-112.39,94.53h0Z"/>
      </g>
    </g>
    <g>
      <path class="cls-5" d="m147.24,348.6c-9.74,0-17.66-7.92-17.66-17.65v-61.19h93.12v61.19c0,9.73-7.92,17.65-17.66,17.65h-57.8Z"/>
      <path class="cls-7" d="m221.73,270.74v60.21c0,9.19-7.49,16.67-16.69,16.67h-57.8c-9.2,0-16.69-7.48-16.69-16.67v-60.21h91.17m1.95-1.95h-95.08v62.16c0,10.29,8.35,18.62,18.64,18.62h57.8c10.29,0,18.64-8.33,18.64-18.62v-62.16h0Z"/>
    </g>
    <path class="cls-7" d="m128.6,268.79v62.16c0,10.29,8.35,18.62,18.64,18.62h55.67c-21.65-11.6-37.57-41.5-52.37-80.79h-21.94Z"/>
  </g>
  <g>
    <rect class="cls-3" x="689.08" y="325.96" width="138.9" height="17.85"/>
    <rect class="cls-3" x="701.79" y="343.81" width="113.48" height="7.25"/>
  </g>
  <g>
    <g>
      <path class="cls-11" d="m1209.59,315.36l.02,17.74.02,17.74-46.98.06-.02-11.61c0-3.38-3.42-6.12-7.62-6.12l-46.87.06c-4.21,0-7.61,2.75-7.61,6.14l.02,11.61-46.98.06-.02-17.74-.02-17.74,156.06-.21h0Z"/>
      <path class="cls-3" d="m1161.51,262.64l-.02-15.79c0-2.91-.31-5.82-.92-8.66l-9.47-44.35c-1.39-6.53-7.17-11.19-13.84-11.18l-17.35.02-.03-23.19,23.89-.03,16.76-.02c7,0,13.32,4.18,16.04,10.63l27.1,64.31c2.23,5.3,3.39,11,3.4,16.75l.05,37.44.02,17.27-45.56.06-105.5.15v-9.92c-.02-4.06,3.27-7.36,7.33-7.36l72.17-.1c14.35-.02,25.96-11.67,25.94-26.02h-.01Z"/>
      <rect class="cls-8" x="1038.37" y="303.66" width="186.43" height="17.74" transform="translate(-.44 1.58) rotate(-.08)"/>
      <g>
        <rect class="cls-10" x="1102.14" y="69.36" width="17.84" height="30.37" transform="translate(-.12 1.55) rotate(-.08)"/>
        <rect class="cls-8" x="1098.36" y="79.55" width="25.57" height="161.14" transform="translate(-.22 1.55) rotate(-.08)"/>
        <rect class="cls-6" x="1087.52" y="99.72" width="47.3" height="132.1" transform="translate(-.23 1.55) rotate(-.08)"/>
        <rect class="cls-11" x="1104.48" y="265.32" width="13.63" height="23.39" transform="translate(-.39 1.55) rotate(-.08)"/>
        <g>
          <path class="cls-10" d="m1114.41,156.75c.02,11.23,9.13,20.33,20.37,20.31s20.33-9.13,20.31-20.37c-.02-11.23-9.13-20.33-20.37-20.31-11.23.02-20.33,9.13-20.31,20.37Z"/>
          <path class="cls-4" d="m1122.21,156.74c0,6.92,5.63,12.52,12.55,12.51,6.92,0,12.52-5.63,12.51-12.55,0-6.92-5.63-12.52-12.55-12.51-6.92,0-12.52,5.63-12.51,12.55Z"/>
        </g>
        <rect class="cls-8" x="1075.07" y="262.47" width="72.43" height="10.66" rx="2.54" ry="2.54" transform="translate(-.37 1.55) rotate(-.08)"/>
      </g>
    </g>
    <g>
      <g>
        <g>
          <path class="cls-3" d="m881.57,206.04h-107.2l16.48,24.07v108.61c0,6.95,5.63,12.59,12.59,12.59h65.55c6.95,0,12.59-5.63,12.59-12.59v-132.67h-.01Z"/>
          <path class="cls-10" d="m801.21,270.02h70.02v67.09c0,2.24-1.82,4.05-4.05,4.05h-61.91c-2.24,0-4.05-1.82-4.05-4.05v-67.09h-.01Z"/>
          <g>
            <path class="cls-9" d="m818.4,282.23c-6.24,0-6.24,9.68,0,9.68s6.24-9.68,0-9.68Z"/>
            <path class="cls-9" d="m845.57,288.55c-12.47,0-12.48,19.36,0,19.36s12.48-19.36,0-19.36Z"/>
            <path class="cls-9" d="m827.78,315.97c-9.98,0-9.98,15.49,0,15.49s9.98-15.49,0-15.49Z"/>
          </g>
        </g>
        <g>
          <g>
            <line class="cls-4" x1="871.22" y1="220.35" x2="850.59" y2="220.35"/>
            <line class="cls-4" x1="871.22" y1="257.69" x2="850.59" y2="257.69"/>
            <line class="cls-4" x1="871.22" y1="295.02" x2="850.59" y2="295.02"/>
            <line class="cls-4" x1="871.22" y1="332.35" x2="850.59" y2="332.35"/>
          </g>
          <g>
            <line class="cls-4" x1="871.22" y1="229.39" x2="860.91" y2="229.39"/>
            <line class="cls-4" x1="871.22" y1="238.79" x2="860.91" y2="238.79"/>
            <line class="cls-4" x1="871.22" y1="248.19" x2="860.91" y2="248.19"/>
          </g>
          <g>
            <line class="cls-4" x1="871.22" y1="266.93" x2="860.91" y2="266.93"/>
            <line class="cls-4" x1="871.22" y1="276.33" x2="860.91" y2="276.33"/>
            <line class="cls-4" x1="871.22" y1="285.73" x2="860.91" y2="285.73"/>
          </g>
          <g>
            <line class="cls-4" x1="871.22" y1="304.48" x2="860.91" y2="304.48"/>
            <line class="cls-4" x1="871.22" y1="313.88" x2="860.91" y2="313.88"/>
            <line class="cls-4" x1="871.22" y1="323.28" x2="860.91" y2="323.28"/>
          </g>
        </g>
      </g>
      <g>
        <g>
          <path class="cls-3" d="m942.35,253.32v-30.55h-23.84v30.55l-44.39,85.52c-2.89,5.56,1.15,12.21,7.42,12.21h97.78c6.27,0,10.31-6.64,7.42-12.21l-44.39-85.52h0Z"/>
          <path class="cls-10" d="m968.92,343.43h-76.99c-4.93,0-8.12-5.22-5.84-9.6l27.01-52.03h34.66l27.01,52.03c2.27,4.38-.91,9.6-5.86,9.6h.01Z"/>
          <g>
            <path class="cls-9" d="m917.65,301.6c-9.98,0-9.98,15.49,0,15.49s9.98-15.49,0-15.49Z"/>
            <path class="cls-9" d="m938.53,288.55c-6.24,0-6.24,9.68,0,9.68s6.24-9.68,0-9.68Z"/>
            <path class="cls-9" d="m940.66,312.52c-14.97,0-14.97,23.23,0,23.23s14.97-23.23,0-23.23Z"/>
          </g>
        </g>
        <g>
          <path class="cls-3" d="m1041.64,267.32v-56.62h-27.07v56.62c-20.46,5.88-35.46,24.72-35.46,47.08,0,14.59,6.38,27.68,16.5,36.66h64.99c10.11-8.97,16.49-22.07,16.49-36.66,0-22.36-14.98-41.21-35.46-47.08h.01Z"/>
          <path class="cls-10" d="m1066.83,314.26c0,11.63-5.08,22.06-13.14,29.21h-51.79c-8.07-7.15-13.15-17.58-13.15-29.21,0-21.56,17.49-39.04,39.04-39.04s39.04,17.48,39.04,39.04Z"/>
          <g>
            <path class="cls-9" d="m1016.57,310.18c-13.73,0-13.74,21.31,0,21.31s13.74-21.31,0-21.31Z"/>
            <path class="cls-9" d="m1041.21,293.39c-9.98,0-9.98,15.49,0,15.49s9.98-15.49,0-15.49Z"/>
            <path class="cls-9" d="m1022.46,284.48c-4.99,0-4.99,7.74,0,7.74s4.99-7.74,0-7.74Z"/>
          </g>
        </g>
        <g>
          <path class="cls-3" d="m983.15,293.88v-53.75h-19.31v53.75c-15.77,4.25-27.38,18.61-27.38,35.71,0,8,2.54,15.41,6.87,21.46h60.32c4.33-6.05,6.87-13.46,6.87-21.46,0-17.1-11.62-31.46-27.38-35.71h.01Z"/>
          <path class="cls-10" d="m998.75,328.79c0,5.46-1.73,10.51-4.68,14.64h-41.14c-2.95-4.12-4.68-9.18-4.68-14.64,0-13.94,11.3-25.25,25.25-25.25s25.25,11.31,25.25,25.25Z"/>
          <path class="cls-9" d="m965.98,312.55c-6.24,0-6.24,9.68,0,9.68s6.24-9.68,0-9.68Z"/>
          <path class="cls-9" d="m979.61,323.82c-8.73,0-8.73,13.55,0,13.55s8.73-13.55,0-13.55Z"/>
        </g>
      </g>
    </g>
  </g>
  <g>
    <rect class="cls-8" y="333.21" width="152.9" height="17.85"/>
    <path class="cls-3" d="m123.23,175.85h0c-8.53,0-15.44-6.91-15.44-15.44V46.34h30.88v114.07c0,8.53-6.91,15.44-15.44,15.44Z"/>
    <path class="cls-10" d="m123.23,168.79h0c-5.57,0-10.08-4.52-10.08-10.08v-45.61h20.17v45.61c0,5.57-4.52,10.08-10.08,10.08h-.01Z"/>
    <line class="cls-4" y1="74.41" x2="152.9" y2="74.41"/>
    <line class="cls-4" x1="40.89" y1="333.21" x2="40.89"/>
    <circle class="cls-10" cx="40.9" cy="74.4" r="22.14"/>
    <circle class="cls-4" cx="40.89" cy="74.4" r="14.62"/>
    <rect class="cls-8" x="93.55" y="63.77" width="59.35" height="21.29"/>
    <line class="cls-2" x1="98.72" y1="46.34" x2="147.74" y2="46.34"/>
  </g>
  <line class="cls-1" x1="1060.6" y1="351.04" x2="1209.63" y2="351.04"/>
</svg>