<?xml version="1.0" encoding="UTF-8"?>
<svg id="OBJECTS" xmlns="http://www.w3.org/2000/svg" viewBox="0 0 1312.53 647.4">
  <defs>
    <style>
      .cls-1 {
        stroke: #263238;
      }

      .cls-1, .cls-2, .cls-3 {
        stroke-miterlimit: 10;
        stroke-width: 1.95px;
      }

      .cls-1, .cls-3 {
        fill: none;
      }

      .cls-4 {
        fill: #e6e7eb;
      }

      .cls-5 {
        fill: #38474f;
      }

      .cls-6, .cls-2 {
        fill: #f7f7f7;
      }

      .cls-7 {
        fill: #8dabd9;
      }

      .cls-2, .cls-3 {
        stroke: #38474f;
      }

      .cls-8 {
        fill: #acc3e7;
      }

      .cls-9 {
        fill: #263238;
      }
    </style>
  </defs>
  <g>
    <g>
      <g>
        <rect class="cls-7" x="189.3" y="522.59" width="3.9" height="105.2" transform="translate(-78.9 32.57) rotate(-8.07)"/>
        <path class="cls-7" d="m183.17,531.12l3.81-32.02,66.29-100.95c27.11,107.66-34.7,94.82-70.11,132.98Z"/>
        <path class="cls-8" d="m183.17,531.12c-19.8-46.88,38.57-87.25,70.11-132.98,20.7,82.25-62.21,73.01-70.11,132.98Z"/>
        <g>
          <path class="cls-7" d="m222.34,630.03h-3.9c0-88.98,21-108.55,21.89-109.34l2.58,2.92c-.19.18-20.58,19.77-20.58,106.42Z"/>
          <path class="cls-7" d="m227.39,547.94c14.06-20.87,105.38,14.76,112.39-94.53-49.53,29.73-94.52,23.73-112.39,94.53Z"/>
          <path class="cls-8" d="m227.39,547.94c19.7-41.99,80.96-35.35,112.39-94.53-49.53,29.73-94.52,23.73-112.39,94.53Z"/>
        </g>
      </g>
      <g>
        <path class="cls-6" d="m175.57,643.72c-9.74,0-17.66-7.92-17.66-17.65v-61.19h93.12v61.19c0,9.73-7.92,17.65-17.66,17.65h-57.8Z"/>
        <path class="cls-4" d="m250.06,565.86v60.21c0,9.19-7.49,16.67-16.69,16.67h-57.8c-9.2,0-16.69-7.48-16.69-16.67v-60.21h91.17m1.95-1.95h-95.08v62.16c0,10.29,8.35,18.62,18.64,18.62h57.8c10.29,0,18.64-8.33,18.64-18.62v-62.16h0Z"/>
      </g>
      <path class="cls-4" d="m156.93,563.91v62.16c0,10.29,8.35,18.62,18.64,18.62h55.67c-21.65-11.6-37.57-41.5-52.37-80.79h-21.94Z"/>
    </g>
    <g>
      <g>
        <rect class="cls-4" x="185.51" y="158.54" width="79.57" height="66.85" transform="translate(450.59 383.92) rotate(180)"/>
        <polygon class="cls-8" points="199.22 217.56 278.8 217.56 265.08 158.54 185.51 158.54 199.22 217.56"/>
        <rect class="cls-7" x="185.51" y="138.8" width="79.57" height="19.73" transform="translate(450.59 297.34) rotate(180)"/>
        <path class="cls-5" d="m202.62,176.7c9.57,3.09,19.1-2.52,28.77-1.32,2.44.3,4.86.95,7.32.94,2.69-.01,4.75-1.34,7.21-2.26,4.69-1.75,9.47.54,13.69,2.72.73.38.11,1.55-.61,1.19-2.42-1.21-4.91-2.42-7.56-2.87-2.78-.47-4.97.36-7.44,1.64-2.16,1.12-4.3,1.55-6.68,1.38-2.45-.17-4.85-.79-7.3-.92-9.31-.51-18.67,4.86-27.9,1.68-1.25-.43-.75-2.58.52-2.17Z"/>
        <path class="cls-5" d="m207.94,195.82c1.85-.91,4.3-.71,6.29-.83,2.28-.14,4.56-.19,6.84-.19,4.4,0,8.8.19,13.2.37,4.42.18,8.84.36,13.27.55,4.57.2,9.13.62,13.7.82.68.03.69,1.18,0,1.17-4.4-.1-8.79.03-13.19-.07-4.51-.1-9.01-.21-13.52-.33-4.4-.12-8.8-.26-13.21-.21-2.2.02-4.4.1-6.59.24-1.1.07-2.19.17-3.28.3-1.1.13-2.18.39-3.28.18-.82-.16-1.02-1.62-.24-2Z"/>
      </g>
      <g>
        <rect class="cls-4" x="73.33" y="119.77" width="79.57" height="66.85" transform="translate(226.24 306.4) rotate(180)"/>
        <polygon class="cls-8" points="86.65 178.8 166.22 178.8 152.91 119.78 73.33 119.78 86.65 178.8"/>
        <rect class="cls-7" x="73.33" y="100.04" width="79.57" height="19.73" transform="translate(226.24 219.82) rotate(180)"/>
        <path class="cls-5" d="m90.73,132.06c3.15-2.61,7.36-.95,10.76,1.54-.03.07-.08.13-.06.24.62,3.36,1.08,6.78,1.93,10.11.06.22.22.32.4.37-1.18,1.52-2.52,2.95-4.16,3.97-.21.13-.43.22-.64.34-.5-2.55-1.15-5.09-1.73-7.63-.65-2.88-1.29-5.76-1.93-8.64-.13-.6-1.07-.62-.94,0,.59,2.87,1.18,5.75,1.75,8.62.54,2.72,1.01,5.47,1.65,8.18-.32.11-.63.23-.97.3-.96.2-1.93.04-2.71.64-.47.36-.6,1.06-.06,1.56,1.7,1.55,4.47.51,6.1-.26,2.04-.97,3.74-2.56,5.17-4.26,1.48-1.75,2.69-3.73,3.98-5.63,1.97,2.19,4.04,4.26,6.62,5.8,3.94,2.35,8.5,2.7,12.01.29,2.1-1.44,3.58-3.47,4.87-5.64,4.61,4.05,8.98,8.44,15.08,9.81.87.2,1.09-1.1.22-1.32-.97-.25-1.88-.61-2.78-1.03.03-.04.07-.08.08-.14.17-1.47-.25-3.2-.41-4.7l-.54-4.97c-.36-3.31-.72-6.63-1.08-9.94-.01-.1-.07-.16-.12-.23.47-.13.95-.24,1.47-.29.37-.03.32-.6-.06-.59-4.84.18-8.09,3.8-10.41,7.54-.59.95-1.16,1.96-1.74,2.96-2.79-2.44-5.79-4.64-9.24-5.88-4.16-1.5-8.41-1-11.64,1.5-1.06.82-1.95,1.79-2.79,2.8-2.24-2.66-4.53-5.28-7.51-7.09-3.87-2.34-9.02-3.2-12.39-.48-1.48,1.19.41,3.35,1.84,2.17Zm53.7,16.93c-1.34-.71-2.59-1.62-3.8-2.58-.06-.87-.27-1.78-.39-2.61-.17-1.24-.34-2.48-.5-3.72-.34-2.48-.67-4.96-1.01-7.44-.01-.09-.06-.15-.11-.2,1.06-1.16,2.28-2.14,3.74-2.72.34,3.29.69,6.57,1.03,9.86.17,1.66.35,3.31.52,4.97.15,1.42.13,3.03.53,4.45Zm-10.67-8.79c.41-.75.81-1.5,1.2-2.25.88-1.65,1.88-3.4,3.11-4.91.25,2.34.5,4.68.75,7.02.13,1.24.26,2.48.4,3.72.05.51.08,1.05.12,1.59-1.55-1.34-3.03-2.78-4.49-4.17-.36-.34-.72-.67-1.08-1.01Zm-16.08,5.48s.03-.03.04-.06c.24-1.85-.12-3.83-.29-5.72-.15-1.64-.27-3.28-.39-4.92,2.55-.55,5.35-.02,8.12,1.42,2.26,1.18,4.29,2.72,6.26,4.38-1,1.58-2.12,3.07-3.52,4.24-.01-.16-.03-.33-.04-.49-.05-.53-.09-1.06-.14-1.58-.09-1.05-.18-2.11-.28-3.17-.04-.45-.73-.46-.7,0l.2,3.16c.03.53.07,1.05.1,1.58.02.35.05.7.1,1.05-.35.24-.69.5-1.08.7-.75.39-1.52.59-2.3.71.05-.09.11-.17.1-.3-.35-3.32-.9-6.64-1.25-9.96-.04-.39-.64-.4-.6,0,.3,3.32.4,6.64.7,9.96.02.17.1.3.2.39-1.77.07-3.55-.49-5.24-1.39Zm-7.07-6.08c.6-.77,1.23-1.52,1.94-2.2,1.06-1.02,2.25-1.7,3.5-2.12.09,1.54.17,3.08.22,4.62.06,1.7.01,3.46.34,5.17-1.53-.96-2.95-2.16-4.17-3.43-.63-.65-1.23-1.34-1.83-2.03Zm-8.07-5.18c.93.76,1.78,1.57,2.49,2.33.79.84,1.54,1.7,2.3,2.57-.99,1.37-1.92,2.79-2.93,4.15-.45-3.02-1.21-6.04-1.87-9.05Z"/>
        <path class="cls-5" d="m95.47,160.39c17.46-.35,34.97-.41,52.43-.25.53,0,.58.81.04.83-17.45.54-34.94.86-52.4.89-.95,0-1.03-1.46-.07-1.47Z"/>
        <path class="cls-5" d="m106.98,167.02c10.6-.19,21.25,0,31.85.12.44,0,.48.67.03.68-10.59.31-21.22.69-31.81.69-.96,0-1.04-1.48-.07-1.49Z"/>
      </g>
    </g>
  </g>
  <line class="cls-1" y1="646.17" x2="1312.53" y2="646.17"/>
  <g>
    <g>
      <rect class="cls-2" x="717.41" y="621.08" width="138.9" height="17.85"/>
      <rect class="cls-2" x="730.12" y="638.93" width="113.48" height="7.25"/>
    </g>
    <g>
      <g>
        <path class="cls-9" d="m1237.92,610.48l.02,17.74.02,17.74-46.98.06-.02-11.61c0-3.38-3.42-6.12-7.62-6.12l-46.87.06c-4.21,0-7.61,2.75-7.61,6.14l.02,11.61-46.98.06-.02-17.74-.02-17.74,156.06-.21Z"/>
        <path class="cls-2" d="m1189.84,557.76l-.02-15.79c0-2.91-.31-5.82-.92-8.66l-9.47-44.35c-1.39-6.53-7.17-11.19-13.84-11.18l-17.35.02-.03-23.19,23.89-.03,16.76-.02c7,0,13.32,4.18,16.04,10.63l27.1,64.31c2.23,5.3,3.39,11,3.4,16.75l.05,37.44.02,17.27-45.56.06-105.5.15v-9.92c-.02-4.06,3.27-7.36,7.33-7.36l72.17-.1c14.35-.02,25.96-11.67,25.94-26.02Z"/>
        <rect class="cls-5" x="1066.72" y="598.76" width="186.43" height="17.74" transform="translate(2320.7 1213.66) rotate(179.92)"/>
        <g>
          <rect class="cls-8" x="1130.48" y="364.44" width="17.84" height="30.37" transform="translate(2279.32 757.7) rotate(179.92)"/>
          <rect class="cls-5" x="1126.71" y="374.66" width="25.57" height="161.14" transform="translate(2279.61 908.88) rotate(179.92)"/>
          <rect class="cls-2" x="1115.85" y="394.81" width="47.3" height="132.1" transform="translate(2279.64 920.16) rotate(179.92)"/>
          <rect class="cls-9" x="1132.83" y="560.41" width="13.63" height="23.39" transform="translate(2280.07 1142.65) rotate(179.92)"/>
          <g>
            <path class="cls-8" d="m1142.74,451.87c.02,11.23,9.13,20.33,20.37,20.31s20.33-9.13,20.31-20.37c-.02-11.23-9.13-20.33-20.37-20.31-11.23.02-20.33,9.13-20.31,20.37Z"/>
            <path class="cls-1" d="m1150.54,451.86c0,6.92,5.63,12.52,12.55,12.51,6.92,0,12.52-5.63,12.51-12.55,0-6.92-5.63-12.52-12.55-12.51-6.92,0-12.52,5.63-12.51,12.55Z"/>
          </g>
          <rect class="cls-5" x="1103.41" y="557.57" width="72.43" height="10.66" rx="2.54" ry="2.54" transform="translate(2280.03 1124.23) rotate(179.92)"/>
        </g>
      </g>
      <g>
        <g>
          <g>
            <path class="cls-2" d="m909.9,501.16h-107.2l16.48,24.07v108.61c0,6.95,5.63,12.59,12.59,12.59h65.55c6.95,0,12.59-5.63,12.59-12.59v-132.67Z"/>
            <path class="cls-8" d="m829.54,565.14h70.02v67.09c0,2.24-1.82,4.05-4.05,4.05h-61.91c-2.24,0-4.05-1.82-4.05-4.05v-67.09h0Z"/>
            <g>
              <path class="cls-7" d="m846.73,577.35c-6.24,0-6.24,9.68,0,9.68s6.24-9.68,0-9.68Z"/>
              <path class="cls-7" d="m873.9,583.67c-12.47,0-12.48,19.36,0,19.36s12.48-19.36,0-19.36Z"/>
              <path class="cls-7" d="m856.11,611.09c-9.98,0-9.98,15.49,0,15.49s9.98-15.49,0-15.49Z"/>
            </g>
          </g>
          <g>
            <g>
              <line class="cls-1" x1="899.55" y1="515.47" x2="878.92" y2="515.47"/>
              <line class="cls-1" x1="899.55" y1="552.81" x2="878.92" y2="552.81"/>
              <line class="cls-1" x1="899.55" y1="590.14" x2="878.92" y2="590.14"/>
              <line class="cls-1" x1="899.55" y1="627.47" x2="878.92" y2="627.47"/>
            </g>
            <g>
              <line class="cls-1" x1="899.55" y1="524.51" x2="889.24" y2="524.51"/>
              <line class="cls-1" x1="899.55" y1="533.91" x2="889.24" y2="533.91"/>
              <line class="cls-1" x1="899.55" y1="543.31" x2="889.24" y2="543.31"/>
            </g>
            <g>
              <line class="cls-1" x1="899.55" y1="562.05" x2="889.24" y2="562.05"/>
              <line class="cls-1" x1="899.55" y1="571.45" x2="889.24" y2="571.45"/>
              <line class="cls-1" x1="899.55" y1="580.85" x2="889.24" y2="580.85"/>
            </g>
            <g>
              <line class="cls-1" x1="899.55" y1="599.6" x2="889.24" y2="599.6"/>
              <line class="cls-1" x1="899.55" y1="609" x2="889.24" y2="609"/>
              <line class="cls-1" x1="899.55" y1="618.4" x2="889.24" y2="618.4"/>
            </g>
          </g>
        </g>
        <g>
          <g>
            <path class="cls-2" d="m970.68,548.44v-30.55h-23.84v30.55l-44.39,85.52c-2.89,5.56,1.15,12.21,7.42,12.21h97.78c6.27,0,10.31-6.64,7.42-12.21l-44.39-85.52Z"/>
            <path class="cls-8" d="m997.25,638.55h-76.99c-4.93,0-8.12-5.22-5.84-9.6l27.01-52.03h34.66l27.01,52.03c2.27,4.38-.91,9.6-5.86,9.6Z"/>
            <g>
              <path class="cls-7" d="m945.98,596.72c-9.98,0-9.98,15.49,0,15.49s9.98-15.49,0-15.49Z"/>
              <path class="cls-7" d="m966.86,583.67c-6.24,0-6.24,9.68,0,9.68s6.24-9.68,0-9.68Z"/>
              <path class="cls-7" d="m968.99,607.64c-14.97,0-14.97,23.23,0,23.23s14.97-23.23,0-23.23Z"/>
            </g>
          </g>
          <g>
            <path class="cls-2" d="m1069.97,562.44v-56.62h-27.07v56.62c-20.46,5.88-35.46,24.72-35.46,47.08,0,14.59,6.38,27.68,16.5,36.66h64.99c10.11-8.97,16.49-22.07,16.49-36.66,0-22.36-14.98-41.21-35.46-47.08Z"/>
            <path class="cls-8" d="m1095.16,609.38c0,11.63-5.08,22.06-13.14,29.21h-51.79c-8.07-7.15-13.15-17.58-13.15-29.21,0-21.56,17.49-39.04,39.04-39.04s39.04,17.48,39.04,39.04Z"/>
            <g>
              <path class="cls-7" d="m1044.9,605.3c-13.73,0-13.74,21.31,0,21.31s13.74-21.31,0-21.31Z"/>
              <path class="cls-7" d="m1069.54,588.51c-9.98,0-9.98,15.49,0,15.49s9.98-15.49,0-15.49Z"/>
              <path class="cls-7" d="m1050.79,579.6c-4.99,0-4.99,7.74,0,7.74s4.99-7.74,0-7.74Z"/>
            </g>
          </g>
          <g>
            <path class="cls-2" d="m1011.48,589v-53.75h-19.31v53.75c-15.77,4.25-27.38,18.61-27.38,35.71,0,8,2.54,15.41,6.87,21.46h60.32c4.33-6.05,6.87-13.46,6.87-21.46,0-17.1-11.62-31.46-27.38-35.71Z"/>
            <path class="cls-8" d="m1027.08,623.91c0,5.46-1.73,10.51-4.68,14.64h-41.14c-2.95-4.12-4.68-9.18-4.68-14.64,0-13.94,11.3-25.25,25.25-25.25s25.25,11.31,25.25,25.25Z"/>
            <path class="cls-7" d="m994.31,607.67c-6.24,0-6.24,9.68,0,9.68s6.24-9.68,0-9.68Z"/>
            <path class="cls-7" d="m1007.94,618.94c-8.73,0-8.73,13.55,0,13.55s8.73-13.55,0-13.55Z"/>
          </g>
        </g>
      </g>
      <g>
        <rect class="cls-2" x="524.9" y="558.8" width="11.7" height="87.38"/>
        <rect class="cls-2" x="671.76" y="558.8" width="11.7" height="87.38"/>
        <g>
          <g>
            <g>
              <path class="cls-2" d="m559.53,626.01h0c-6.82,0-12.35-5.53-12.35-12.35v-80.18h24.71v80.18c0,6.82-5.53,12.35-12.35,12.35Z"/>
              <path class="cls-7" d="m559.53,620.5h0c-3.89,0-7.05-3.16-7.05-7.05v-69.12h14.1v69.12c0,3.89-3.16,7.05-7.05,7.05Z"/>
              <line class="cls-3" x1="542.48" y1="533.48" x2="576.58" y2="533.48"/>
            </g>
            <g>
              <path class="cls-2" d="m603.69,626.01h0c-6.82,0-12.35-5.53-12.35-12.35v-80.18h24.71v80.18c0,6.82-5.53,12.35-12.35,12.35Z"/>
              <path class="cls-7" d="m603.69,620.5h0c-3.89,0-7.05-3.16-7.05-7.05v-17.82h14.1v17.82c0,3.89-3.16,7.05-7.05,7.05Z"/>
              <line class="cls-3" x1="586.64" y1="533.48" x2="620.75" y2="533.48"/>
            </g>
            <g>
              <path class="cls-2" d="m647.86,626.01h0c-6.82,0-12.35-5.53-12.35-12.35v-80.18h24.71v80.18c0,6.82-5.53,12.35-12.35,12.35Z"/>
              <path class="cls-7" d="m647.86,620.5h0c-3.89,0-7.05-3.16-7.05-7.05v-36.1h14.1v36.1c0,3.89-3.16,7.05-7.05,7.05Z"/>
              <line class="cls-3" x1="630.81" y1="533.48" x2="664.91" y2="533.48"/>
            </g>
          </g>
          <g>
            <rect class="cls-2" x="516.91" y="558.8" width="172.45" height="11.54"/>
            <rect class="cls-2" x="516.91" y="622.11" width="172.45" height="24.06"/>
          </g>
        </g>
      </g>
    </g>
    <g>
      <rect class="cls-5" x="28.33" y="628.33" width="152.9" height="17.85"/>
      <path class="cls-2" d="m151.56,470.97h0c-8.53,0-15.44-6.91-15.44-15.44v-114.07h30.88v114.07c0,8.53-6.91,15.44-15.44,15.44Z"/>
      <path class="cls-8" d="m151.56,463.91h0c-5.57,0-10.08-4.52-10.08-10.08v-45.61h20.17v45.61c0,5.57-4.52,10.08-10.08,10.08Z"/>
      <line class="cls-1" x1="28.33" y1="369.53" x2="181.23" y2="369.53"/>
      <line class="cls-1" x1="69.22" y1="628.33" x2="69.22" y2="295.12"/>
      <circle class="cls-8" cx="69.22" cy="369.53" r="22.14" transform="translate(-173.08 82.07) rotate(-29.52)"/>
      <circle class="cls-1" cx="69.22" cy="369.53" r="14.62" transform="translate(-306.73 372.47) rotate(-79.84)"/>
      <rect class="cls-5" x="121.88" y="358.89" width="59.35" height="21.29"/>
      <line class="cls-3" x1="127.05" y1="341.46" x2="176.07" y2="341.46"/>
    </g>
  </g>
  <g>
    <g>
      <path class="cls-8" d="m654.47,118.17c2.88-1.21,5.76-1.84,8.65-2.29,2.88-.43,5.76-.63,8.65-.63,2.88,0,5.76.2,8.65.62,2.88.45,5.76,1.08,8.65,2.3-2.88,1.22-5.76,1.85-8.65,2.3-2.88.43-5.76.63-8.65.62-2.88,0-5.76-.2-8.65-.63-2.88-.45-5.76-1.08-8.65-2.29Z"/>
      <path class="cls-8" d="m671.76,100.88c1.21,2.88,1.84,5.76,2.29,8.65.43,2.88.63,5.76.63,8.65,0,2.88-.2,5.76-.62,8.65-.45,2.88-1.08,5.76-2.3,8.65-1.22-2.88-1.85-5.76-2.3-8.65-.43-2.88-.63-5.76-.62-8.65,0-2.88.2-5.76.63-8.65.45-2.88,1.08-5.76,2.29-8.65Z"/>
    </g>
    <g>
      <path class="cls-8" d="m1152.06,279.27c2.88-1.21,5.76-1.84,8.65-2.29,2.88-.43,5.76-.63,8.65-.63,2.88,0,5.76.2,8.65.62,2.88.45,5.76,1.08,8.65,2.3-2.88,1.22-5.76,1.85-8.65,2.3-2.88.43-5.76.63-8.65.62-2.88,0-5.76-.2-8.65-.63-2.88-.45-5.76-1.08-8.65-2.29Z"/>
      <path class="cls-8" d="m1169.35,261.97c1.21,2.88,1.84,5.76,2.29,8.65.43,2.88.63,5.76.63,8.65,0,2.88-.2,5.76-.62,8.65-.45,2.88-1.08,5.76-2.3,8.65-1.22-2.88-1.85-5.76-2.3-8.65-.43-2.88-.63-5.76-.62-8.65,0-2.88.2-5.76.63-8.65.45-2.88,1.08-5.76,2.29-8.65Z"/>
    </g>
    <g>
      <path class="cls-8" d="m929.78,17.29c2.88-1.21,5.76-1.84,8.65-2.29,2.88-.43,5.76-.63,8.65-.63,2.88,0,5.76.2,8.65.62,2.88.45,5.76,1.08,8.65,2.3-2.88,1.22-5.76,1.85-8.65,2.3-2.88.43-5.76.63-8.65.62-2.88,0-5.76-.2-8.65-.63-2.88-.45-5.76-1.08-8.65-2.29Z"/>
      <path class="cls-8" d="m947.07,0c1.21,2.88,1.84,5.76,2.29,8.65.43,2.88.63,5.76.63,8.65,0,2.88-.2,5.76-.62,8.65-.45,2.88-1.08,5.76-2.3,8.65-1.22-2.88-1.85-5.76-2.3-8.65-.43-2.88-.63-5.76-.62-8.65,0-2.88.2-5.76.63-8.65.45-2.88,1.08-5.76,2.29-8.65Z"/>
    </g>
  </g>
</svg>