<?xml version="1.0" encoding="UTF-8"?>
<svg xmlns="http://www.w3.org/2000/svg" viewBox="0 0 303.49 359.87">
  <defs>
    <style>
      .cls-1 {
        fill: #5f7c81;
      }

      .cls-2, .cls-3 {
        fill: #fff;
      }

      .cls-4 {
        letter-spacing: 0em;
      }

      .cls-5 {
        letter-spacing: 0em;
      }

      .cls-6 {
        opacity: .5;
      }

      .cls-7 {
        fill: #e2d8d1;
      }

      .cls-8 {
        isolation: isolate;
      }

      .cls-9 {
        letter-spacing: 0em;
      }

      .cls-10, .cls-11 {
        fill: #773643;
      }

      .cls-12 {
        letter-spacing: 0em;
      }

      .cls-13, .cls-3 {
        mix-blend-mode: soft-light;
      }

      .cls-14 {
        fill: #a5cbd5;
      }

      .cls-15 {
        letter-spacing: 0em;
      }

      .cls-16 {
        font-family: ComingSoon-Regular, 'ComingSoon Regular';
        font-size: 5.59px;
      }

      .cls-17 {
        letter-spacing: 0em;
      }

      .cls-18 {
        fill: #282f3f;
      }

      .cls-19 {
        letter-spacing: 0em;
      }

      .cls-20 {
        letter-spacing: -.01em;
      }

      .cls-21 {
        letter-spacing: -.01em;
      }

      .cls-22 {
        letter-spacing: 0em;
      }

      .cls-11 {
        mix-blend-mode: multiply;
      }

      .cls-23 {
        letter-spacing: 0em;
      }

      .cls-24 {
        letter-spacing: .01em;
      }

      .cls-25 {
        letter-spacing: -.02em;
      }

      .cls-26 {
        letter-spacing: 0em;
      }
    </style>
  </defs>
  <g class="cls-8">
    <g id="OBJECTS">
      <g>
        <g>
          <path d="m249.78,278.92c1.69-6.81,6.2-25.42,6.82-27.9l2.44-9.8c1.7-6.82,3.4-13.65,5.1-20.48,3.35-13.51,6.67-27.02,10.07-40.52,1.8-7.15,5.52-21.8,5.58-22.03,6.25-24.67,12.69-49.29,18.67-74.02.94-3.87,4.14-16.56,4.61-18.8.42-2.01.7-4.28-.01-6.25-1.65-4.59-7.12-6.74-11.81-7.41-3.12-1.07-6.34-1.71-9.56-2.46-4.17-.98-8.33-2.01-12.49-3.05-3.83-.95-7.58-2.12-11.4-3.11-2.04-.53-4.08-1.04-6.13-1.55-1.29-.33-2.69-.9-4.02-.76.09-.72.16-1.43.22-2.12.08-1.03.05-2.17-.62-3.02-.68-.87-1.75-1.08-2.79-1.31.09-1,.09-2-.1-2.95-.04-.21-.18-.37-.37-.44-.08-.26-.3-.47-.59-.5-3.62-.33-7.06-1.48-10.65-1.98-3.85-.54-7.6-1.27-11.33-2.37-7.5-2.2-15.12-3.9-22.66-5.91-3.71-.99-7.41-2.01-11.13-2.93-3.71-.92-7.5-1.54-11.2-2.5-3.74-.96-7.37-2.27-11.06-3.42-3.62-1.13-7.3-1.89-10.99-2.75-3.05-.72-6.14-1.18-9.15-2.03-1.67-.47-3.85-1.19-5.68-.83-.16-.14-.4-.21-.65-.15-1.03.24-1.61,1.06-1.95,2.07-1.14-.13-2.35.02-3.2.51-1.44.82-2.36,2.32-3.04,3.94-3.48-1.36-7.23-2.05-10.84-2.97-4.22-1.06-8.43-2.1-12.66-3.12-4.12-1.01-8.24-1.99-12.37-2.95-3.58-.83-14.59-3.54-16.31-2.96-1.72.58-3.31,1.9-4.48,3.26-1.34,1.57-2.27,3.37-2.91,5.32-.59,1.79-1.29,3.77-1.52,5.7-1.68,5.85-3.03,11.8-4.51,17.7-1.08,4.33-2.17,8.67-3.25,13-.98,3.91-6.05,25.11-7.7,31.63-1.82,7.22-3.61,14.44-5.42,21.67-1.8,7.17-3.58,14.35-5.33,21.53-1.56,6.39-7.22,29.37-8.49,34.41-1.48,5.86-2.95,11.72-4.43,17.58-1.43,5.68-2.83,11.36-4.24,17.04-.7,2.81-1.42,5.62-2.09,8.44-.42,1.76-1.19,5.45-1.23,5.54-1.15,2.62-1.64,5.6-2.34,8.37l-2.2,8.8c-1.5,5.98-2.99,11.96-4.47,17.94-3,12.11-5.81,24.28-8.79,36.4-.83,3.37-1.67,6.74-2.48,10.11-.34,1.41-.74,2.84-1.11,4.28-.7,1.87-1,4.08-1.26,5.85-.43,2.81-.6,5.63,1.11,8.07,1.39,1.97,3.63,3.19,5.84,3.99,1.52.55,8.32,2.34,9.76,2.7,3.51.88,7.02,1.77,10.53,2.65,7.06,1.77,14.1,3.58,21.15,5.38,14.57,3.72,29.13,7.55,43.73,11.16.01,0,.03,0,.04,0,2.67.66,5.35,1.29,8.05,1.84,3.83.78,7.56,1.71,11.42,2.35.02,0,.03,0,.05,0,13.98,3.95,28.23,7.14,42.32,10.66,14.72,3.68,29.44,7.3,44.08,11.29,3.3.9,13.29,3.67,15.03,3.87.61.11,1.22.22,1.83.31,2.4.57,4.68,1.32,7.15.67,3.83-.99,8.08-5.05,9.06-9.24,1.96-4.97,7.36-27.92,8.93-34.09,3.17-12.45,6.28-24.91,9.38-37.38Zm-13.48-218.78c-1.83,1.52-6.35,0-8.45-.46-5.22-1.16-10.48-2.32-15.67-3.62-4.82-1.21-9.92-2.91-14.92-2.89-5.42.02-10.44-.25-15.7-1.77-5.19-1.5-10.24-3.54-15.12-5.84-9.66-4.55-20.4-5.53-30.31-9.35-1.4-.54-3.14-.73-3.29-2.51-.11-1.3.3-2.75.54-4.03.03-.16.06-.33.09-.5,6.73,1.53,13.5,2.8,20.21,4.46,7.03,1.74,14.06,3.47,21.03,5.43,13.7,3.85,27.5,7.38,41.31,10.83,3.87.97,7.75,1.95,11.63,2.9,1.88.46,3.76.91,5.63,1.37,1.66.4,3.59,1.21,5.33,1.09-.41,1.68-.98,3.77-2.33,4.89Zm2.87-7.64c-.06.38-.12.76-.19,1.14-1.1-.65-2.47-.82-3.7-1.14-1.87-.48-3.74-.96-5.61-1.44-2.87-.74-5.74-1.45-8.61-2.17,3.89.71,7.83,1.28,11.67,2.25,1.6.4,3.51,1.07,5.3,1.11.38.09.76.17,1.15.26ZM142.3,7.15c1.14.35,2.28.76,3.42,1.12,2.76.86,5.7,1.22,8.53,1.89,3.46.81,6.91,1.53,10.31,2.6,3.57,1.11,7.09,2.37,10.71,3.33,3.59.95,7.27,1.52,10.88,2.37,3.63.86,7.23,1.82,10.85,2.73,7.22,1.82,14.51,3.34,21.67,5.37,3.95,1.12,7.89,2.22,11.93,3,3.71.71,12.05,3.89,11.95,4.43-.56.2-.34,1.18-.29,1.2-.27.91-.61,1.8-.91,2.61-.12.32-.81,2.16-.78,2.24-.24.71-.47,1.42-.71,2.13-.11.33-.22.89-.47,1.15-.23.25-.19.13-.15.12-.67.24-1.98-.41-2.61-.65-1.89-.73-3.78-1.29-5.75-1.76-4.91-1.16-9.95-2.32-14.74-3.94-4.52-1.52-9.25-1.73-13.87-2.76-2.96-.66-5.91-1.35-8.86-2.04-.19-.64-.49-1.25-.87-1.8-1.26-1.82-3.41-2.6-5.54-2.83-1.86-.2-3.34.54-4.31,2.08-3.27-.79-6.55-1.58-9.82-2.37-4.93-1.18-9.94-2.02-14.93-2.98-4.97-.96-9.74-2.28-14.54-3.85-1.35-.44-2.81-.72-4.12-1.27-.62-.26-.98-.36-1.06-1.06-.11-1.01.56-2.45.64-3.53.12-1.6.19-3.2.32-4.8.03-.29.06-.58.09-.87.18-.18.25-.41.07-.6.03-.28.07-.56.1-.84.02-.18,0-.73.06-1.01.91-.12,2.03.32,2.84.56Zm41.09,24.31c.03-.53.28-1.04.81-1.32,0,0,.01,0,.02-.01-.05,0-.1-.02-.15-.03.3-.37.72-.69,1.3-.91,2.5-.94,5.96.43,6.79,2.83-.07-.01-.13-.03-.2-.05.26.36.36.77.33,1.17h.05c0,.51-.11,1.04-.36,1.59-1.33,2.92-5.2,3.39-7.55,1.43-.89-.74-1.42-1.61-1.63-2.51.25-.71.37-1.48.59-2.19Zm-47.38-12.9c.03.39.11.75.31,1.06.68,1.09,2.4,1.26,3.51,1.52,3.06.72,6.09,1.53,9.15,2.23,5.65,1.3,11.36,2.3,17.04,3.43,5.43,1.09,10.82,2.38,16.2,3.73-.65,1.31-.51,4.71-.35,4.6.19.59.5,1.18.94,1.74,2.58,3.3,8.05,2.99,10.19-.65.51-.86.68-1.81.6-2.76,2.19.57,4.38,1.14,6.58,1.69,5.46,1.38,11,1.77,16.38,3.54,2.43.8,4.92,1.41,7.4,2.05,3.08.8,6.43,1.4,9.38,2.55,2.12.82,4.63,2.67,6.67,2.15-.06.41-.1.82-.15,1.23-.16,1.34-.28,2.68-.45,4.02-5.33-.94-10.55-2.41-15.88-3.33-2.63-.46-5.26-.68-7.88-1.21-2.32-.47-4.65-.91-7.03-.66-1.05-.13-2.11-.26-3.15-.44-.94-.23-1.87-.46-2.81-.68-.82-.25-1.7-.5-2.56-.62-.6-.15-1.19-.29-1.78-.44-13.82-3.4-27.75-6.33-41.56-9.8-7.7-1.94-15.27-4.26-22.93-6.33.13-.72.27-1.43.42-2.14.47-2.19,1.24-4.31,1.75-6.49Zm-7.81,6.55c1-3.55,2.75-6.87,3.77-10.44.45-1.54.79-3.84,1.88-5.07.61-.69,1.74-.94,2.81-.85-.18,1.05-.22,2.15-.26,2.97-1.58,1.07-1.57,3.94-1.87,5.77-.51,3.1-2.86,12.96-3.1,13.79-.29,1.02-.76,2.08-.67,3.16.11,1.37,1.09,2.09,2.27,2.61,2.31,1.01,4.88,1.55,7.31,2.19,6.01,1.58,12.16,2.74,18.04,4.8,5.85,2.05,11.24,5.1,17.01,7.33,5.68,2.19,11.83,3.68,17.95,3.65,2.86-.01,5.48-.2,8.32.34,3.24.6,6.44,1.3,9.66,2.01,5.97,1.33,11.96,2.84,17.97,3.94,2.28.42,5.2,1.48,7.43.39,1.8-.88,2.77-2.76,3.44-4.56,1.22-3.28,1.57-6.79,2.01-10.23.22-1.73,1.03-4.01.93-5.97.19-.68.34-1.37.5-2.05.22-.95.46-1.96.64-2.98.43.18.81.42,1.09.77.71.88.64,2.39.52,3.44-.26,2.34-.7,4.83-1.18,7.14-.68,3.25-1.89,6.34-2.23,9.66-.33,3.16-.41,6.69-3.72,8.15-2.94,1.31-5.74.3-8.75-.03-3.22-.35-6.42-1.08-9.6-1.65-3.41-.61-6.78-1.46-10.14-2.28-3.09-.75-6.1-1.9-9.3-2.12-3-.21-6.02.34-9.02.34-3.37,0-6.7-.38-9.97-1.19-3.46-.86-6.56-2.36-9.72-3.96-2.92-1.47-5.97-2.63-8.88-4.12-5.74-2.94-12.2-3.02-18.32-4.74-4.73-1.33-10.11-2.03-14.23-4.88-2.36-1.63-3.58-3.82-3.7-6.66-.12-2.87.35-5.92,1.13-8.68Zm-2.78,9.12c-.13,5.73,4.32,8.8,9.38,10.24,6.14,1.77,12.46,2.94,18.73,4.13,7.83,1.49,14.54,6.05,21.78,9.19,6.54,2.84,14.28,3.2,21.3,2.59,3.88-.33,7.12.41,10.83,1.42,3.91,1.07,7.93,2.01,11.92,2.75,3.62.67,7.23,1.4,10.89,1.83,1.59.19,3.14.82,4.75.81,1.29-.01,2.64-.26,3.86-.68,2.87-.99,4.54-3.1,5.12-6.06.23-1.22.31-2.45.41-3.68,3.26,1.03,6.71,1.69,10.04,2.4,3.37.72,6.71,1.59,10.05,2.42,3.34.84,6.68,1.68,10.03,2.5,1.39.34,2.78.66,4.18.97.73.16,1.46.47,2.18.64-1.27,4.97-2.57,9.92-3.8,14.89-.64,1.61-.93,3.34-1.37,5.05-.61,2.4-1.28,4.78-1.91,7.17-1.24,4.79-2.5,9.57-3.72,14.36-2.38,9.34-4.7,18.69-7.02,28.04-4.71,18.92-9.28,37.88-13.92,56.81-1.29,5.28-2.59,10.55-3.88,15.83-.6,2.45-3.69,15.02-4.56,18.5-.95,3.82-1.91,7.64-2.86,11.45-1.98,7.92-3.96,15.85-5.94,23.77-3.97,15.89-7.9,31.79-11.87,47.67-1.72,6.9-3.58,13.78-5.23,20.7-.07.1-.1.21-.07.3-.4,1.7-.8,3.4-1.17,5.11-.4-.14-8.07-2.2-10.92-2.91-4.35-1.08-8.64-2.52-13.01-3.51-4.97-1.52-10.1-2.38-15.15-3.59-5.31-1.27-10.61-2.58-15.91-3.9-11.18-2.8-22.37-5.6-33.55-8.39-22.04-5.51-44.06-11.16-66.06-16.82-12.17-3.13-24.37-6.2-36.59-9.15.78-1.58,1.17-3.27,1.59-4.97.68-2.83,1.37-5.66,2.06-8.49,1.49-6.13,3.04-12.24,4.56-18.37,1.53-6.13,3.16-12.24,4.77-18.36.8-3.06,1.6-6.12,2.38-9.18.72-2.85,1.64-5.76,2.02-8.68.02-.15,1.56-6.48,2.32-9.51.88-3.49,1.75-6.98,2.62-10.47,1.85-7.4,3.7-14.8,5.55-22.19,3.7-14.8,7.49-29.59,11.08-44.42,2.06-8.51,4.21-17.01,6.05-25.56,0-.03,0-.04,0-.06,4.03-15.06,7.69-30.23,11.48-45.36,1.9-7.57,3.79-15.13,5.69-22.7,1.75-7.01,3.69-14,5.21-21.07,2.63,1.12,5.83,1.51,8.55,2.17,3.23.78,6.49,1.49,9.72,2.27,3.23.78,6.45,1.58,9.67,2.39,2.82.71,5.69,1.85,8.55,2.34-.46,2.41-.78,4.91-.84,7.36Zm119.94,17.44c.35-1.28.73-2.56,1.02-3.85.22-.96.42-1.94.62-2.94.03.03.06.05.11.07.75.3,1.51.58,2.25.91-.29,1.38-.54,2.77-.81,4.15-.12.62-.32,1.26-.43,1.9-.91-.15-1.83-.24-2.76-.24Zm7.82,3.05c2.47.74,4.97,1.23,7.49,1.72,5.31,1.03,10.63,2.17,15.85,3.63-.14.9-.27,1.83-.61,2.65-.28-.07-.55-.15-.83-.22-3.46-.88-6.92-1.73-10.38-2.6-6.65-1.66-13.3-3.99-20.06-5.18.03-.2.06-.39.1-.58.08-.37.16-.73.26-1.1.03,0,.06.01.1,0,2.8,0,5.43.87,8.08,1.67Zm-43.17,284.43c-.23.64-.49,1.29-.71,1.94-10.17-1.94-132.89-37.65-138.33-39.66-1.57-.58-3.14-1.11-4.72-1.59,7.04,1.71,14.08,3.41,21.12,5.14,22.41,5.5,44.8,11.08,67.19,16.66,6.02,1.5,12.04,3.01,18.04,4.57,5.12,1.33,24.96,6.53,29.54,7.68,2.95.75,5.89,1.58,8.88,2.18.02.89-.83,2.56-1.02,3.09Zm-164.28-44.12c-2.12-.14-4.25-.28-6.36-.44-2.92-.23-5.82-.56-8.75-.71-1.21-.06-3.56.19-4.06-1.16-.23-.61.16-1.75.37-2.55,6.16,1.59,13.4,3.46,18.81,4.86ZM126.65,25.07c-.5-.16-1.01-.31-1.53-.43.7-2.3,1.41-4.68,1.83-7.03.12-.7.16-1.99.68-2.17.37-.13,1.17.1,1.82.28,0,.02-.01.04-.02.06-1.02,3.12-2.06,6.12-2.79,9.29Zm156.63,113.01c-1.57,6.41-11.99,46.68-15.43,60.25-3.42,13.52-6.81,27.05-10.21,40.59-.91,3.65-1.83,7.3-2.74,10.96-.59,2.36-5.13,21.02-6.53,26.58-1.55,6.17-3.12,12.33-4.65,18.51-3.09,12.45-6.14,24.91-9.19,37.37-.81,3.31-1.62,6.63-2.44,9.95-.56,2.25-1.17,4.47-1.55,6.73-2.18,4.03-4.51,7.97-9.5,8.75-1.48.23-2.88.19-4.3.06-4.52-1.68-9.32-2.62-14.01-3.69-7.52-1.71-15.03-3.44-22.52-5.28-14.92-3.67-29.82-7.43-44.73-11.16-7.53-1.88-30.21-8.06-33.86-9.15-2.6-.77-5.23-1.46-7.87-2.13-.02,0-.03-.02-.05-.02-14.63-3.69-29.32-7.16-43.98-10.74-7.08-1.73-14.17-3.46-21.25-5.21-3.52-.87-7.04-1.75-10.55-2.62-2.3-.57-8.65-2.44-9.5-2.9-1.86-.98-3.81-1.83-5.18-3.49-1.7-2.05-1.9-5.03-1.64-7.58.01-.11.02-.22.03-.33.93-2.4,1.41-5.05,2.06-7.52.78-3,1.54-6.01,2.31-9.03,1.52-6.01,3.04-12.03,4.62-18.02,3.19-12.1,6.26-24.23,9.28-36.37.82-3.28,1.63-6.57,2.45-9.85.75-3.01,4.99-19.22,6.21-24.09,1.45-5.8,2.92-11.6,4.36-17.41,1.43-5.74,2.85-11.48,4.27-17.23,1.31-5.28,6.69-27.64,8.19-33.43,1.85-7.16,3.63-14.34,5.42-21.52,1.8-7.22,3.61-14.44,5.4-21.67,1.74-7.01,6.73-28.3,7.55-31.57,1.12-4.45,2.22-8.91,3.33-13.36,1.75-7.01,3.73-14,5.06-21.1.63-1.9,1.21-3.81,2.1-5.6.83-1.66,2.07-3.07,3.67-4.04,1.18-.72,2.35-.74,3.56-.76,3.98,1.61,8.4,2.39,12.55,3.5,4.32,1.16,8.65,2.29,12.99,3.39,4.21,1.08,8.42,2.15,12.64,3.19,3.47.86,6.95,1.92,10.5,2.37-.16.46-.3.91-.45,1.35-1.16-.69-3.12-.79-3.73.29-.6,1.06-.5,2.63-.71,3.81-.32,1.86-.88,3.66-1.3,5.49-1.93-.42-3.91-.72-5.78-1.19-3.23-.8-6.45-1.61-9.66-2.44-3.21-.83-6.4-1.73-9.61-2.56-2.84-.73-9.95-2.64-10.14-1.96-.35,1.19-.69,2.39-1.02,3.59-.15-.02-.31-.02-.5-.04-.62-.06-1.23-.21-1.83-.38-1.03-.29-1.99-.81-3.05-.44-.26.09-1.37,6.28-1.75,8.76-.46,3.05-1.3,6.03-1.92,9.05-.59,2.8-.9,5.65-1.53,8.43-.61,2.67-9.93,56.68-10.43,58.39-.32,1.09-8.23,33.27-11.89,47.91-3.67,14.73-7.35,29.45-11.02,44.17-.98,3.93-1.96,7.85-2.94,11.78-.93,3.71-2.91,11.5-2.95,11.6-1.09,2.95-1.69,6.13-2.43,9.18-.75,3.06-16.42,59.91-15.15,60.24,1.76.45,3.81.98,6,1.55-.53,1.36-1.52,3.41.07,4.36.84.5,2.19.47,3.12.53,1.82.12,3.64.13,5.46.28,5.22.43,10.48.68,15.71,1.14,1.87.48,3.01.78,3.05.79,2.5.5,4.78,1.78,7.26,2.43,2.49.66,4.98,1.27,7.41,2.13,5.02,1.77,9.97,3.61,15.09,5.09,10.16,2.94,114.36,32.89,125.78,35.91.48.13.86-.38.98-.77.44-1.44,1.1-2.8,1.56-4.24.12-.39.31-.87.42-1.37.38.06.75.13,1.14.19.12.22.43.24.7.1.08.01.8-2.57,1.76-6.16.89.09,1.74.44,2.59.74.93.33,1.98.45,2.88.82.33.14.86-.08.98-.42.22-.61,3.78-17.36,5.39-25.1.8-3.85,12.46-61.47,13.82-69.33,1.37-7.92,3.43-15.81,3.82-23.87.36-1.42.67-2.63.83-3.23,1.25-4.79,2.43-9.59,3.65-14.38,1.78-6.97,5.71-21.16,5.78-21.38,1.96-6.61,3.76-13.22,5.98-19.75,2.17-6.38,3.62-12.97,5.55-19.43,3.93-13.16,7.7-26.37,11.4-39.6,1.04-3.72,1.83-7.52,2.98-11.21.53-1.71,1.23-3.28,1.93-4.92.7-1.65.77-3.33,1.17-5.06.05-.22-.04-.53-.25-.64-1.17-.62-2.52-.72-3.66-1.34,1.09-3.97,2.04-7.57,1.86-7.73-.9-.77-2.27-.69-3.39-1.01-.75-.21-1.51-.42-2.26-.62.47-1.01.52-2.37.73-3.38.06-.3.02-.74-.33-.84-5.59-1.58-11.29-2.79-16.99-3.89-2.63-.51-5.19-1.11-7.76-1.87-1.13-.33-2.25-.64-3.38-.88.39-2.25.97-4.47,1.4-6.71.03-.17.01-.39-.17-.47-.9-.38-1.77-.71-2.75-.87-.17-.03-.43.12-.59.3.14-.76.26-1.54.38-2.31,1.02.6,2.5.69,3.56.96,2.05.5,4.09,1.02,6.15,1.52,4.01.97,8.07,1.75,12.07,2.75,3.84.97,7.68,1.93,11.51,2.94,3.28.87,6.52,1.84,9.86,2.4,1.85.75,3.76,1.4,5.46,2.47,1.95,1.23,3.55,3,4.78,4.92.86,1.36,1.14,3.61,1.15,5.11-2.05,5.79-3.29,10.92-4.83,16.86-1.59,6.15-3.14,12.31-4.68,18.47-3.13,12.53-6.17,25.07-9.25,37.61Zm-213.03-47.88c.82-5.76,2.03-11.52,3.19-17.21.59-2.94.89-5.92,1.5-8.85.57-2.74,1.2-5.42,1.49-8.21.59-5.8,2.04-11.44,3.07-17.17.57-3.19,1.42-6.32,2.08-9.49.61-2.94.74-5.94,1.22-8.89h0c.7.4,1.63.57,2.34.77.65.19,1.5.48,2.22.37-1.56,5.88-2.91,11.83-4.38,17.73-1.89,7.57-3.77,15.14-5.66,22.7-2.34,9.42-4.74,18.82-7.07,28.25Zm173.08,131.2v-.05c-.68,4.54-1.57,9.05-2.44,13.6-1.49,7.81-12.51,65.09-13.44,69.02-1.99,8.37-6.38,26.37-6.37,27.12-1.04-.06-2.36-.79-3.23-1.05-.58-.17-1.16-.29-1.74-.33,1.44-5.4,3.33-12.75,4.45-17.22,1.96-7.86,3.93-15.72,5.89-23.58,3.98-15.95,7.99-31.88,11.97-47.83l3.31-13.27,1.6-6.42Zm35.32-128.05c-1.69,6.6-3.97,13.03-5.66,19.63-1.72,6.74-3.8,13.36-5.9,19.98-2.04,6.44-3.57,13.03-5.78,19.41-.49,1.41-.99,2.83-1.48,4.24,3.89-15.25,7.78-30.5,11.52-45.79,1.29-5.26,2.55-10.54,3.81-15.81.66-2.75,1.29-5.5,1.94-8.25.48-2.03,1.27-4.12,1.43-6.21.45-1.79,1.16-4.36,1.86-6.91.89.53,1.88.84,2.81,1.34-.26,1.31-.36,2.65-.75,3.93-.47,1.54-1.04,3.01-1.43,4.58-.81,3.29-1.55,6.59-2.38,9.86Z"/>
          <path class="cls-7" d="m238.98,53.63c-1.1-.65-2.47-.82-3.7-1.14-1.87-.48-3.74-.96-5.61-1.44-2.87-.74-5.74-1.45-8.61-2.17,3.89.71,7.83,1.28,11.67,2.25,1.6.4,3.51,1.07,5.3,1.11.38.09.76.17,1.15.26-.06.38-.12.76-.19,1.14Z"/>
          <path class="cls-2" d="m236.3,60.13c-1.83,1.52-6.35,0-8.45-.46-5.22-1.16-10.48-2.32-15.67-3.62-4.82-1.21-9.92-2.91-14.92-2.89-5.42.02-10.44-.25-15.7-1.77-5.19-1.5-10.24-3.54-15.12-5.84-9.66-4.55-20.4-5.53-30.31-9.35-1.4-.54-3.14-.73-3.29-2.51-.11-1.3.3-2.75.54-4.03.03-.16.06-.33.09-.5,6.73,1.53,13.5,2.8,20.21,4.46,7.03,1.74,14.06,3.47,21.03,5.43,13.7,3.85,27.5,7.38,41.31,10.83,3.87.97,7.75,1.95,11.63,2.9,1.88.46,3.76.91,5.63,1.37,1.66.4,3.59,1.21,5.33,1.09-.41,1.68-.98,3.77-2.33,4.89Z"/>
          <path class="cls-7" d="m45.74,295.03c-2.12-.14-4.25-.28-6.36-.44-2.92-.23-5.82-.56-8.75-.71-1.21-.06-3.56.19-4.06-1.16-.23-.61.16-1.75.37-2.55,6.16,1.59,13.4,3.46,18.81,4.86Z"/>
          <path class="cls-7" d="m210.02,339.15c-.23.64-.49,1.29-.71,1.94-10.17-1.94-132.89-37.65-138.33-39.66-1.57-.58-3.14-1.11-4.72-1.59,7.04,1.71,14.08,3.41,21.12,5.14,22.41,5.5,44.8,11.08,67.19,16.66,6.02,1.5,12.04,3.01,18.04,4.57,5.12,1.33,24.96,6.53,29.54,7.68,2.95.75,5.89,1.58,8.88,2.18.02.89-.83,2.56-1.02,3.09Z"/>
          <path class="cls-7" d="m221.08,331.1c-1.04-.06-2.36-.79-3.23-1.05-.58-.17-1.16-.29-1.74-.33,1.44-5.4,3.33-12.75,4.45-17.22,1.96-7.86,3.93-15.72,5.89-23.58,3.98-15.95,7.99-31.88,11.97-47.83l3.31-13.27,1.6-6.42v-.05c-.68,4.54-1.57,9.05-2.44,13.6-1.49,7.81-12.51,65.09-13.44,69.02-1.99,8.37-6.38,26.37-6.37,27.12Z"/>
          <path class="cls-7" d="m70.25,90.21c.82-5.76,2.03-11.52,3.19-17.21.59-2.94.89-5.92,1.5-8.85.57-2.74,1.2-5.42,1.49-8.21.59-5.8,2.04-11.44,3.07-17.17.57-3.19,1.42-6.32,2.08-9.49.61-2.94.74-5.94,1.22-8.89h0c.7.4,1.63.57,2.34.77.65.19,1.5.48,2.22.37-1.56,5.88-2.91,11.83-4.38,17.73-1.89,7.57-3.77,15.14-5.66,22.7-2.34,9.42-4.74,18.82-7.07,28.25Z"/>
          <path class="cls-7" d="m282.47,78.91c-.47,1.54-1.04,3.01-1.43,4.58-.81,3.29-1.55,6.59-2.38,9.86-1.69,6.6-3.97,13.03-5.66,19.63-1.72,6.74-3.8,13.36-5.9,19.98-2.04,6.44-3.57,13.03-5.78,19.41-.49,1.41-.99,2.83-1.48,4.24,3.89-15.25,7.78-30.5,11.52-45.79,1.29-5.26,2.55-10.54,3.81-15.81.66-2.75,1.29-5.5,1.94-8.25.48-2.03,1.27-4.12,1.43-6.21.45-1.79,1.16-4.36,1.86-6.91.89.53,1.88.84,2.81,1.34-.26,1.31-.36,2.65-.75,3.93Z"/>
          <path class="cls-7" d="m275.92,62.72c-.28-.07-.55-.15-.83-.22-3.46-.88-6.92-1.73-10.38-2.6-6.65-1.66-13.3-3.99-20.06-5.18.03-.2.06-.39.1-.58.08-.37.16-.73.26-1.1.03,0,.06.01.1,0,2.8,0,5.43.87,8.08,1.67,2.47.74,4.97,1.23,7.49,1.72,5.31,1.03,10.63,2.17,15.85,3.63-.14.9-.27,1.83-.61,2.65Z"/>
          <path class="cls-14" d="m238.73,65.07c-2.94,1.31-5.74.3-8.75-.03-3.22-.35-6.42-1.08-9.6-1.65-3.41-.61-6.78-1.46-10.14-2.28-3.09-.75-6.1-1.9-9.3-2.12-3-.21-6.02.34-9.02.34-3.37,0-6.7-.38-9.97-1.19-3.46-.86-6.56-2.36-9.72-3.96-2.92-1.47-5.97-2.63-8.88-4.12-5.74-2.94-12.2-3.02-18.32-4.74-4.73-1.33-10.11-2.03-14.23-4.88-2.36-1.63-3.59-3.82-3.7-6.66-.12-2.87.35-5.92,1.13-8.68,1-3.55,2.75-6.87,3.77-10.44.45-1.54.79-3.84,1.88-5.07.61-.69,1.74-.94,2.81-.85-.18,1.05-.22,2.15-.26,2.97-1.58,1.07-1.57,3.94-1.87,5.77-.51,3.1-2.86,12.96-3.1,13.79-.29,1.02-.76,2.08-.67,3.16.11,1.37,1.09,2.09,2.27,2.61,2.31,1.01,4.88,1.55,7.31,2.19,6.01,1.58,12.16,2.74,18.04,4.8,5.85,2.05,11.24,5.1,17.01,7.33,5.68,2.19,11.83,3.68,17.95,3.65,2.86-.01,5.48-.2,8.32.34,3.24.6,6.44,1.3,9.66,2.01,5.97,1.33,11.96,2.84,17.97,3.94,2.28.42,5.2,1.48,7.43.39,1.8-.88,2.77-2.76,3.44-4.56,1.22-3.28,1.57-6.79,2.01-10.23.22-1.73,1.03-4.01.93-5.97.19-.68.34-1.37.5-2.05.22-.95.46-1.96.64-2.98.43.18.81.42,1.09.77.71.88.64,2.39.52,3.44-.26,2.34-.7,4.83-1.18,7.14-.68,3.25-1.89,6.34-2.23,9.66-.33,3.16-.41,6.69-3.72,8.15Z"/>
          <path class="cls-14" d="m191.99,34.73c-1.33,2.92-5.2,3.39-7.55,1.43-.89-.74-1.42-1.61-1.63-2.51.25-.71.37-1.48.59-2.19.03-.53.28-1.04.81-1.32,0,0,.01,0,.02-.01-.05,0-.1-.02-.15-.03.3-.37.72-.69,1.3-.91,2.5-.94,5.96.43,6.79,2.83-.07-.01-.13-.03-.2-.05.26.36.36.77.33,1.17h.05c0,.51-.11,1.04-.36,1.59Z"/>
          <path class="cls-14" d="m241.34,37.81c-.12.32-.81,2.16-.78,2.24-.24.71-.47,1.42-.71,2.13-.11.33-.22.89-.47,1.15-.23.25-.19.13-.15.12-.67.24-1.98-.41-2.61-.65-1.89-.73-3.78-1.29-5.75-1.76-4.91-1.16-9.95-2.32-14.74-3.94-4.52-1.52-9.25-1.73-13.87-2.76-2.96-.66-5.91-1.35-8.86-2.04-.19-.64-.49-1.25-.87-1.8-1.26-1.82-3.41-2.6-5.54-2.83-1.86-.2-3.34.54-4.31,2.08-3.27-.79-6.55-1.58-9.82-2.37-4.93-1.18-9.94-2.02-14.93-2.98-4.97-.96-9.74-2.28-14.54-3.85-1.35-.44-2.81-.72-4.12-1.27-.62-.26-.98-.36-1.06-1.06-.11-1.01.56-2.45.64-3.53.12-1.6.19-3.2.32-4.8.03-.29.06-.58.09-.87.18-.18.25-.41.07-.6.03-.28.07-.56.1-.84.02-.18,0-.73.06-1.01.91-.12,2.03.32,2.84.56,1.14.35,2.28.76,3.42,1.12,2.76.86,5.7,1.22,8.53,1.89,3.46.81,6.91,1.53,10.31,2.6,3.57,1.11,7.09,2.37,10.71,3.33,3.59.95,7.27,1.52,10.88,2.37,3.63.86,7.23,1.82,10.85,2.73,7.22,1.82,14.51,3.34,21.67,5.37,3.95,1.12,7.89,2.22,11.93,3,3.71.71,12.05,3.89,11.95,4.43-.56.2-.34,1.18-.29,1.2-.27.91-.61,1.8-.91,2.61Z"/>
          <path class="cls-18" d="m129.44,15.78c-1.02,3.12-2.06,6.12-2.79,9.29-.5-.16-1.01-.31-1.53-.43.7-2.3,1.41-4.68,1.83-7.03.12-.7.16-1.99.68-2.17.37-.13,1.17.1,1.82.28,0,.02-.01.04-.02.06Z"/>
          <path class="cls-18" d="m245.37,51.67c.35-1.28.73-2.56,1.02-3.85.22-.96.42-1.94.62-2.94.03.03.06.05.11.07.75.3,1.51.58,2.25.91-.29,1.38-.54,2.77-.81,4.15-.12.62-.32,1.26-.43,1.9-.91-.15-1.83-.24-2.76-.24Z"/>
          <path class="cls-18" d="m239.42,50.72c-5.33-.94-10.55-2.41-15.88-3.33-2.63-.46-5.26-.68-7.88-1.21-2.32-.47-4.65-.91-7.03-.66-1.05-.13-2.11-.26-3.15-.44-.94-.23-1.87-.46-2.81-.68-.82-.25-1.7-.5-2.56-.62-.6-.15-1.19-.29-1.78-.44-13.82-3.4-27.75-6.33-41.56-9.8-7.7-1.94-15.27-4.26-22.93-6.33.13-.72.27-1.43.42-2.14.47-2.19,1.24-4.31,1.75-6.49.03.39.11.75.31,1.06.68,1.09,2.4,1.26,3.51,1.52,3.06.72,6.09,1.53,9.15,2.23,5.65,1.3,11.36,2.3,17.04,3.43,5.43,1.09,10.82,2.38,16.2,3.73-.65,1.31-.51,4.71-.35,4.6.19.59.5,1.18.94,1.74,2.58,3.3,8.05,2.99,10.19-.65.51-.86.68-1.81.6-2.76,2.19.57,4.38,1.14,6.58,1.69,5.46,1.38,11,1.77,16.38,3.54,2.43.8,4.92,1.41,7.4,2.05,3.08.8,6.43,1.4,9.38,2.55,2.12.82,4.63,2.67,6.67,2.15-.06.41-.1.82-.15,1.23-.16,1.34-.28,2.68-.45,4.02Z"/>
          <path class="cls-1" d="m254.9,249.88c-.59,2.36-5.13,21.02-6.52,26.58-1.55,6.17-3.12,12.33-4.65,18.51-3.09,12.45-6.14,24.91-9.19,37.37-.81,3.31-1.62,6.63-2.44,9.95-.56,2.25-1.17,4.47-1.55,6.73-2.18,4.03-4.51,7.97-9.5,8.75-1.48.23-2.88.19-4.3.06-4.52-1.68-9.32-2.62-14.02-3.69-7.52-1.71-15.03-3.44-22.52-5.28-14.92-3.67-29.82-7.43-44.73-11.16-7.53-1.88-30.2-8.06-33.86-9.15-2.6-.77-5.23-1.46-7.87-2.13-.02,0-.03-.02-.05-.02-14.63-3.69-29.32-7.16-43.98-10.74-7.08-1.73-14.17-3.46-21.25-5.21-3.52-.87-7.04-1.75-10.55-2.62-2.3-.57-8.65-2.44-9.5-2.9-1.86-.98-3.81-1.83-5.18-3.49-1.7-2.05-1.9-5.03-1.64-7.58.01-.11.02-.22.03-.33.93-2.4,1.41-5.05,2.06-7.52.78-3,1.54-6.01,2.31-9.03,1.52-6.01,3.04-12.03,4.62-18.02,3.19-12.1,6.26-24.23,9.28-36.37.82-3.28,1.63-6.57,2.45-9.85.75-3.01,4.99-19.22,6.21-24.09,1.45-5.8,2.92-11.6,4.36-17.41,1.43-5.74,2.85-11.48,4.27-17.23,1.31-5.28,6.69-27.64,8.19-33.43,1.85-7.16,3.63-14.34,5.42-21.52,1.8-7.22,3.61-14.44,5.4-21.67,1.74-7.01,6.73-28.3,7.55-31.57,1.12-4.45,2.22-8.91,3.33-13.36,1.75-7.01,3.73-14,5.06-21.1.63-1.9,1.21-3.81,2.1-5.6.83-1.66,2.07-3.07,3.67-4.04,1.18-.72,2.35-.74,3.56-.76,3.98,1.61,8.4,2.39,12.55,3.5,4.32,1.16,8.65,2.29,12.99,3.39,4.21,1.08,8.42,2.15,12.64,3.19,3.47.86,6.95,1.92,10.5,2.37-.16.46-.3.91-.45,1.35-1.16-.69-3.12-.79-3.73.29-.6,1.06-.5,2.63-.71,3.81-.32,1.86-.88,3.66-1.3,5.49-1.93-.42-3.91-.72-5.78-1.19-3.23-.8-6.45-1.61-9.66-2.44-3.21-.83-6.4-1.73-9.61-2.56-2.84-.73-9.95-2.64-10.14-1.96-.35,1.19-.69,2.39-1.02,3.59-.15-.02-.31-.02-.5-.04-.62-.06-1.23-.21-1.83-.38-1.03-.29-1.99-.81-3.05-.44-.26.09-1.37,6.28-1.75,8.76-.46,3.05-1.3,6.03-1.92,9.05-.59,2.8-.9,5.65-1.53,8.43-.61,2.67-9.93,56.68-10.43,58.39-.32,1.09-8.23,33.27-11.89,47.91-3.67,14.73-7.35,29.45-11.02,44.17-.98,3.93-1.96,7.85-2.94,11.78-.93,3.71-2.91,11.5-2.95,11.6-1.09,2.95-1.69,6.13-2.43,9.18-.75,3.06-16.42,59.91-15.15,60.24,1.76.45,3.81.98,6,1.55-.53,1.36-1.52,3.41.07,4.36.84.5,2.19.47,3.12.53,1.82.12,3.64.13,5.46.28,5.22.43,10.48.68,15.71,1.14,1.87.48,3.01.78,3.05.79,2.5.5,4.78,1.78,7.26,2.43,2.49.66,4.98,1.27,7.41,2.13,5.02,1.77,9.97,3.61,15.09,5.09,10.16,2.94,114.36,32.89,125.78,35.91.48.13.86-.38.98-.77.44-1.44,1.1-2.8,1.56-4.24.12-.39.31-.87.42-1.37.38.06.75.13,1.14.19.12.22.43.24.7.1.08.01.8-2.57,1.76-6.16.89.09,1.74.44,2.59.74.93.33,1.98.45,2.88.82.33.14.86-.08.98-.42.22-.61,3.78-17.36,5.39-25.1.8-3.85,12.46-61.47,13.82-69.33,1.37-7.92,3.43-15.81,3.82-23.87.36-1.42.67-2.63.83-3.23,1.25-4.79,2.43-9.59,3.65-14.38,1.78-6.97,5.71-21.16,5.78-21.38,1.96-6.61,3.76-13.22,5.98-19.75,2.17-6.38,3.62-12.97,5.55-19.43,3.93-13.16,7.7-26.37,11.4-39.6,1.04-3.72,1.83-7.52,2.98-11.21.53-1.71,1.23-3.28,1.93-4.92.7-1.65.77-3.33,1.17-5.06.05-.22-.04-.53-.25-.64-1.17-.62-2.52-.72-3.66-1.34,1.09-3.97,2.04-7.57,1.86-7.73-.9-.77-2.27-.69-3.39-1.01-.75-.21-1.51-.42-2.26-.62.47-1.01.52-2.37.73-3.38.06-.3.02-.74-.33-.84-5.59-1.58-11.29-2.79-16.99-3.89-2.63-.51-5.19-1.11-7.76-1.87-1.13-.33-2.25-.64-3.38-.88.39-2.25.97-4.47,1.4-6.71.03-.17.01-.39-.17-.47-.9-.38-1.77-.71-2.75-.87-.17-.03-.43.12-.59.3.14-.76.26-1.54.38-2.31,1.02.6,2.5.69,3.56.96,2.05.5,4.09,1.02,6.15,1.52,4.01.97,8.07,1.75,12.07,2.75,3.84.97,7.68,1.93,11.51,2.94,3.28.87,6.52,1.84,9.86,2.4,1.85.75,3.76,1.4,5.46,2.47,1.95,1.23,3.55,3,4.78,4.92.86,1.36,1.14,3.61,1.15,5.11-2.05,5.79-3.29,10.92-4.83,16.86-1.59,6.15-3.14,12.31-4.68,18.47-3.13,12.53-6.17,25.07-9.25,37.61-1.57,6.41-11.99,46.68-15.43,60.25-3.42,13.52-6.81,27.05-10.21,40.59-.91,3.65-1.83,7.3-2.74,10.96Z"/>
          <path class="cls-2" d="m213.57,335.36c-.4-.14-8.07-2.2-10.92-2.91-4.35-1.08-8.64-2.52-13.01-3.51-4.97-1.52-10.1-2.38-15.15-3.59-5.31-1.27-10.61-2.58-15.91-3.9-11.18-2.8-22.37-5.6-33.55-8.39-22.04-5.51-44.06-11.16-66.06-16.82-12.17-3.13-24.37-6.2-36.59-9.15.78-1.58,1.17-3.27,1.59-4.97.68-2.83,1.37-5.66,2.06-8.49,1.49-6.13,3.03-12.24,4.56-18.37,1.53-6.13,3.16-12.24,4.77-18.36.8-3.06,1.6-6.12,2.38-9.18.72-2.85,1.64-5.76,2.02-8.68.02-.15,1.56-6.48,2.32-9.51.88-3.49,1.75-6.98,2.62-10.47,1.85-7.4,3.7-14.8,5.55-22.19,3.7-14.8,7.49-29.59,11.08-44.42,2.06-8.51,4.21-17.01,6.05-25.56,0-.03,0-.04,0-.06,4.03-15.06,7.69-30.23,11.48-45.36,1.9-7.57,3.79-15.13,5.69-22.7,1.75-7.01,3.69-14,5.21-21.07,2.63,1.12,5.83,1.51,8.55,2.17,3.23.78,6.49,1.49,9.72,2.27,3.23.78,6.45,1.58,9.67,2.39,2.82.71,5.69,1.85,8.55,2.34-.46,2.41-.78,4.91-.84,7.36-.13,5.73,4.32,8.8,9.38,10.24,6.14,1.77,12.46,2.94,18.73,4.13,7.83,1.49,14.54,6.05,21.78,9.19,6.54,2.84,14.28,3.2,21.3,2.59,3.88-.33,7.12.42,10.83,1.42,3.91,1.07,7.93,2.01,11.92,2.75,3.62.67,7.23,1.4,10.89,1.83,1.59.19,3.14.82,4.75.81,1.29-.01,2.64-.26,3.86-.68,2.87-.99,4.54-3.1,5.12-6.06.23-1.22.31-2.45.41-3.68,3.26,1.03,6.71,1.69,10.04,2.4,3.37.72,6.71,1.59,10.05,2.42,3.34.84,6.68,1.68,10.03,2.5,1.39.34,2.78.66,4.18.97.73.16,1.46.47,2.18.64-1.27,4.97-2.57,9.92-3.8,14.89-.64,1.61-.93,3.34-1.37,5.05-.61,2.4-1.28,4.78-1.91,7.17-1.24,4.79-2.5,9.57-3.72,14.36-2.38,9.34-4.7,18.69-7.02,28.04-4.71,18.92-9.28,37.88-13.92,56.81-1.29,5.28-2.59,10.55-3.88,15.83-.6,2.45-3.69,15.02-4.56,18.5-.95,3.82-1.91,7.64-2.86,11.45-1.98,7.92-3.96,15.85-5.94,23.77-3.97,15.89-7.9,31.79-11.87,47.67-1.72,6.9-3.58,13.78-5.23,20.7-.07.1-.1.21-.07.3-.4,1.7-.8,3.4-1.17,5.11Z"/>
          <g>
            <g class="cls-6">
              <path class="cls-2" d="m137.03,40.25c-2.07-.25-3.45-1.45-5.08-2.62-1.26-.9-1.58-2.01-1.89-3.47-.61-2.85.62-5.3,1.49-7.98.91-2.8,1.07-5.68,1.79-8.54.56-2.22.04-5.7,2.06-7.18.11-.08.13-.28-.04-.27-2.52.24-2.5,3.85-2.68,5.7-.39,4.13-2.9,7.48-4.16,11.37-.52,1.61-.63,3.08-.72,4.75-.08,1.48-.33,2.98.39,4.36.76,1.46,2.18,2.06,3.57,2.74,1.7.83,3.14,2.1,5.13,1.69.23-.05.48-.52.13-.57Z"/>
              <path class="cls-2" d="m195.1,56.99c-3.24.24-6.68-.74-9.84-1.42-3.68-.79-7.15-2.44-10.52-4.06-3.22-1.55-6.44-3.33-9.84-4.45-3.11-1.03-6.54-1.02-9.52-2.41-.1-.04-.17.13-.09.19,2.73,1.97,6.19,2.41,8.97,4.32,3.2,2.19,6.61,3.82,10.1,5.48,3.27,1.56,6.64,2.89,10.21,3.58,3.53.68,6.94.27,10.41-.55.25-.06.46-.7.1-.68Z"/>
              <path class="cls-2" d="m203.1,57.51c-1.81-.96-4.56-1-6.53-.58-.22.05-.38.54-.09.48,2.25-.44,4.21.24,6.4.51.17.02.42-.3.22-.41Z"/>
              <path class="cls-2" d="m241.57,56.22c.23-1.75.85-3.44,1.29-5.15.9-3.46,1.61-6.98,1.51-10.57,0-.11-.14-.03-.15.04-.32,5.68-1.73,11.78-4.13,16.95-.88,1.9-1.61,3.34-3.49,4.36-1.58.85-2.72,1.22-4.58,1.13-1.42-.07-2.81-.35-4.21-.5-.29-.03-.58.53-.25.66,1.43.52,3.02.65,4.53.76,1.02.07,1.96.15,2.93.45.5.16.95.31,1.49.25,2.46-.27,3.91-2.93,4.53-5.03.33-1.1.37-2.22.52-3.36Z"/>
              <path class="cls-2" d="m191.36,32.19c-.15-.39-.56-.8-.99-.51-.37.25-.47.93-.59,1.32-.27.92-1.42,2.56-2.56,2.34-.14-.03-.26.24-.13.32.41.25.74.49,1.24.48.53-.01,1.07-.18,1.5-.48.98-.68,2-2.24,1.53-3.47Z"/>
              <path class="cls-2" d="m187.83,30.22c-.07-.2-.19-.34-.34-.44.02-.51-.72-.52-1.08-.21,0,0-.13.1-.17.14-.24.08-.46.21-.66.37-.44.21-.81.61-.99,1.03-.23.55,0,1.25.7,1.26.5.01.93-.05,1.38-.3.36-.2.64-.48.92-.79.26-.28.37-.7.25-1.06Z"/>
              <path class="cls-2" d="m241.57,34.11c-.54-1.06-1.54-.82-2.52-.97-.03,0-.06,0-.1,0-.15-.18-.32-.35-.53-.51-.86-.65-2.1-.93-3.25-1.16-2.96-1.03-6.12-1.72-9.12-2.53-7.9-2.13-15.83-4.24-23.8-6.08-7.73-1.79-15.47-3.42-23.26-4.95,0,0-.02,0-.03,0-.35-.12-.69-.24-1.04-.36-4.16-1.43-8.38-2.73-12.6-3.96-3.31-.96-6.74-2-10.17-2.63-.85-.43-1.7-.86-2.63-1.05-1.11-.23-2.28-.45-3.45-.63-1-.48-2.52-.58-3.43-.66-1.09-.1-2.55-.14-3.54.48-.72.07-1.36.48-1.87,1.55-1.04,2.18-.65,5.23.1,7.45.16.47.65.38.99.2.34.53,1.32-.15,1.48-.58.46-1.27.53-2.57,1.16-3.82.39-.77.53-1.21,1.39-1.22.56,0,1.19.27,1.74.38,3.36.69,6.6,1.55,9.9,2.48,6.92,1.94,13.77,4.36,20.85,5.68,1.83.34,3.66.7,5.49,1.07,4.74,1.46,9.49,2.78,14.4,3.72,4.63.88,9.24,1.82,13.86,2.75,2.6.64,5.2,1.27,7.8,1.91,4.01.98,8.05,1.81,12.05,2.82.7.17,1.79.3,2.78.54.86.83,1.93,1.56,2.32,2.64.07.19.11.39.14.59-.01.47-.05.94-.07,1.38-.2,1.15-.65,2.36-.6,3.43.04.86,1.25.6,1.66.22,1.72-1.59,2.54-3.86,3.54-5.92.34-.7.74-1.47.35-2.23Z"/>
            </g>
            <g class="cls-6">
              <path class="cls-2" d="m191.8,56.49c-1.59-.37-3.23-.46-4.84-.84-2.14-.51-4.25-1.24-6.36-1.86-1.02-.3-1.98-.39-3.02-.57-1.11-.19-2.07-.78-3.06-1.31-1.88-1.01-3.58-1.83-5.73-1.9-.09,0-.15.15-.06.2,2.08,1.05,4.01,2.43,5.99,3.65,2.03,1.26,3.58,2.56,5.93,3.18,2.05.55,4.07.5,6.17.71,1.61.16,3.52.58,4.91-.49.16-.12.45-.69.09-.77Z"/>
              <path class="cls-2" d="m186.63,30.18c-.13-.07-.26-.06-.38,0h0c-.19.08-.32.22-.45.37-.1.07-.2.14-.29.22h0s-.08.07-.11.1c-.17.18-.25.54-.16.77.05.12.14.22.25.27.02.03.03.06.05.08.19.21.48.18.69.03h0s0,0,0,0c.04-.03.08-.07.12-.11.07-.08.14-.16.21-.25.14-.19.25-.36.33-.58.11-.29.05-.74-.25-.9Z"/>
              <path class="cls-2" d="m190.47,32.19c-.1-.44-.7-.08-.72.23-.02.49-.25.96-.53,1.36-.11.15-.23.27-.35.42-.17.2-.22.43-.32.65-.06.13-.03.4.14.44.79.18,1.31-.38,1.65-1.06.34-.67.28-1.33.13-2.04Z"/>
              <path class="cls-2" d="m236.58,32.39c-2.45-1-5.29-1.14-7.86-1.73-5.35-1.22-10.73-2.42-16.13-3.39-.08-.01-.2.12-.08.15,4.64,1.5,9.43,2.52,14.14,3.82,4.15,1.15,8.34,2.41,11.8,5.02.22.17.6-.03.65-.28.29-1.74-1-2.98-2.51-3.59Z"/>
              <path class="cls-2" d="m238.72,37.48c.01-.25.1-.51.15-.75.02-.1-.1-.07-.13,0-.07.24-.12.52-.22.75-.09.2-.2.34-.22.57-.02.23.28.14.34,0,.08-.2.06-.35.07-.56Z"/>
              <path class="cls-2" d="m162.62,13.76c-2.25-.67-4.55-1.26-6.82-1.89-2.54-.7-5.07-1.73-7.68-2.07-1.78-.23-3.74-.36-5.16.96-1.46,1.35-1.05,3.7-1.28,5.48-.05.39.46.14.53-.08.34-1.07.62-2.56,1.34-3.43.66-.79,1.51-.88,2.48-.92,2.05-.09,4.32.12,6.32.52,1.9.38,3.8.85,5.66,1.4,1.46.44,2.96,1.05,4.47.6.19-.06.45-.47.15-.56Z"/>
              <path class="cls-2" d="m178.74,18.49c-1.67-1.22-4.25-1.99-6.21-2.61-2.07-.65-4.26-.62-6.4-.85-.25-.03-.51.51-.23.59,1.92.57,3.79,1.27,5.77,1.63,1.04.19,2.06.19,3.09.45,1.29.33,2.47.89,3.73,1.3.27.09.49-.35.26-.51Z"/>
              <path class="cls-2" d="m131.82,37.48c-.73-.72-1.33-1.17-1.61-2.2-.25-.92-.42-1.69-.39-2.67.08-2.36-.02-4.73.44-7.05.02-.1-.09-.06-.12,0-.61,1.39-.8,2.83-1.1,4.31-.3,1.47-.73,2.99-.81,4.49-.11,2.04,1.13,3.53,3.25,3.69.23.02.54-.36.34-.56Z"/>
              <path class="cls-2" d="m240.71,58.9c-1.05.75-1.6,1.9-2.59,2.71-.43.35-.91.82-1.41,1.07-.57.29-1.22.27-1.8.59-.18.1-.38.27-.3.5.59,1.57,3.12.15,3.84-.6.54-.55.68-1.25,1-1.92.37-.75.87-1.58,1.38-2.24.08-.1-.05-.16-.14-.1Z"/>
            </g>
          </g>
          <g>
            <path class="cls-3" d="m257.64,238.92c3.39-13.53,6.79-27.06,10.21-40.59,3.43-13.57,13.85-53.84,15.43-60.25,3.07-12.54,6.12-25.08,9.25-37.61,1.54-6.16,3.09-12.32,4.68-18.47,1.53-5.94,2.78-11.07,4.83-16.86-.01-1.49-.29-3.75-1.15-5.11-1.23-1.92-2.83-3.69-4.78-4.92-1.7-1.07-3.61-1.72-5.46-2.47-3.34-.56-6.58-1.53-9.86-2.4-3.83-1.02-7.67-1.98-11.51-2.94-4.01-1.01-8.06-1.79-12.07-2.75-2.05-.49-4.1-1.01-6.15-1.52-1.06-.26-2.55-.36-3.56-.96-.11.77-.24,1.54-.38,2.31.16-.18.42-.33.59-.3.97.16,1.85.48,2.75.87.18.08.2.31.17.47-.1.53-.21,1.05-.32,1.57,1.4.35,2.79.69,4.19,1.03,3.91.94,7.86,1.7,11.76,2.68,3.74.94,7.48,1.88,11.22,2.87,3.2.85,6.35,1.79,9.61,2.34,1.81.74,3.66,1.36,5.32,2.41,1.9,1.2,3.46,2.92,4.66,4.8.84,1.32,1.11,3.52,1.13,4.98-2,5.64-3.21,10.64-4.7,16.43-1.55,5.99-3.06,11.99-4.56,18-3.05,12.21-6.02,24.43-9.01,36.65-1.53,6.25-11.69,45.48-15.03,58.71-3.33,13.17-6.64,26.36-9.94,39.54-.89,3.56-1.78,7.12-2.67,10.68-.58,2.3-4.99,20.48-6.36,25.9-1.51,6.01-3.04,12.02-4.53,18.03-3.01,12.13-5.98,24.27-8.95,36.41-.79,3.23-1.58,6.46-2.38,9.69-.54,2.2-1.14,4.35-1.51,6.56-2.12,3.93-4.4,7.76-9.26,8.52-1.44.22-2.81.19-4.19.06-4.41-1.63-9.09-2.55-13.66-3.59-7.33-1.67-14.65-3.35-21.94-5.14-14.54-3.58-29.05-7.24-43.58-10.87-7.33-1.83-29.43-7.86-32.99-8.92-2.54-.75-5.1-1.43-7.66-2.07-.02,0-.03-.01-.05-.02-14.26-3.59-28.56-6.98-42.85-10.47-6.9-1.68-13.8-3.37-20.7-5.08-3.43-.85-6.86-1.7-10.28-2.55-2.24-.55-8.42-2.38-9.26-2.82-1.81-.95-3.71-1.78-5.05-3.4-1.66-2-1.85-4.9-1.59-7.39.01-.11.02-.22.03-.32.91-2.34,1.38-4.92,2.01-7.33.76-2.93,1.5-5.86,2.25-8.79,1.49-5.86,2.96-11.72,4.51-17.56,3.11-11.79,6.1-23.6,9.05-35.44.8-3.2,1.59-6.4,2.39-9.59.73-2.93,4.86-18.72,6.05-23.47,1.42-5.65,2.84-11.3,4.24-16.96,1.39-5.59,2.78-11.19,4.16-16.78,1.27-5.14,6.51-26.93,7.98-32.57,1.81-6.98,3.54-13.98,5.28-20.97,1.75-7.04,3.52-14.07,5.27-21.11,1.7-6.83,6.56-27.58,7.36-30.76,1.09-4.34,2.16-8.68,3.25-13.02,1.7-6.83,3.63-13.64,4.93-20.56.61-1.85,1.18-3.71,2.04-5.45.81-1.62,2.02-2.99,3.58-3.94,1.15-.7,2.29-.72,3.47-.74,3.88,1.57,8.18,2.32,12.23,3.41,4.21,1.13,8.43,2.23,12.66,3.31,4.1,1.05,8.2,2.09,12.32,3.11,1.67.41,3.35.88,5.04,1.29.08-.58.2-1.15.47-1.61.61-1.08,2.57-.98,3.73-.29.14-.44.29-.9.45-1.35-3.55-.45-7.03-1.52-10.5-2.37-4.22-1.04-8.43-2.12-12.64-3.19-4.34-1.11-8.67-2.23-12.99-3.39-4.15-1.11-8.57-1.89-12.55-3.5-1.21.02-2.39.04-3.56.76-1.6.97-2.84,2.38-3.67,4.04-.89,1.79-1.47,3.7-2.1,5.6-1.33,7.1-3.31,14.09-5.06,21.1-1.11,4.45-2.21,8.91-3.33,13.36-.82,3.27-5.81,24.55-7.55,31.57-1.79,7.22-3.6,14.44-5.4,21.67-1.79,7.18-3.57,14.36-5.42,21.52-1.5,5.79-6.88,28.15-8.19,33.43-1.42,5.74-2.85,11.48-4.27,17.23-1.44,5.81-2.9,11.6-4.36,17.41-1.22,4.87-5.46,21.08-6.21,24.09-.82,3.28-1.64,6.56-2.45,9.85-3.02,12.14-6.09,24.27-9.28,36.37-1.58,6-3.1,12.01-4.62,18.02-.76,3.01-1.52,6.02-2.31,9.03-.65,2.48-1.13,5.12-2.06,7.52-.01.11-.02.22-.03.33-.26,2.55-.06,5.53,1.64,7.58,1.37,1.66,3.32,2.52,5.18,3.49.85.45,7.21,2.33,9.5,2.9,3.52.87,7.04,1.75,10.55,2.62,7.08,1.75,14.16,3.48,21.25,5.21,14.66,3.58,29.34,7.06,43.98,10.74.02,0,.03.01.05.02,2.63.67,5.26,1.36,7.87,2.13,3.66,1.09,26.34,7.28,33.86,9.15,14.91,3.72,29.8,7.49,44.73,11.16,7.49,1.84,15,3.57,22.52,5.28,4.69,1.07,9.49,2.01,14.02,3.69,1.42.13,2.82.17,4.3-.06,4.99-.78,7.32-4.72,9.5-8.75.37-2.26.99-4.48,1.55-6.73.82-3.31,1.63-6.63,2.44-9.95,3.05-12.46,6.1-24.93,9.19-37.37,1.53-6.17,3.1-12.34,4.65-18.51,1.4-5.57,5.93-24.22,6.52-26.58.91-3.65,1.83-7.3,2.74-10.96Z"/>
            <g class="cls-13">
              <path class="cls-2" d="m102.9,8.59c-2.93.11-5.51-1.6-8.19-2.54-2.65-.93-5.35-1.63-8-2.59-2.37-.85-4.5-1.64-6.98-.7-2.15.82-3.62,2.62-4.67,4.61-1.07,2.02-1.66,4.36-2.16,6.58-.74,3.29-1.39,6.58-2.17,9.86-.75,3.19-1.32,6.43-2.16,9.6-.88,3.33-2.22,6.68-2.74,10.09-.04.25.26.19.32.01,1.96-5.49,3.28-11.31,4.57-16.99.73-3.22,1.58-6.41,2.38-9.62.63-2.55.94-5.2,2.14-7.57,1.28-2.54,3.18-4.08,6.04-4.39,2.49-.26,4.78-.09,7.26.24,2.71.36,5.5,1.06,8.07,2,2,.74,4.07,1.71,6.25,1.58.09,0,.15-.2.03-.19Z"/>
              <path class="cls-2" d="m13.77,304.54c-2.99-.75-7.2-3.13-8.21-6.25-.89-2.75-.41-5.74.07-8.51.57-3.28,1.03-6.55,1.78-9.79.42-1.8.56-3.61.91-5.42.3-1.54.95-2.95.89-4.54,0-.07-.11-.02-.11.03-.02,2.09-1.05,4.18-1.47,6.23-.42,2.06-1,4.09-1.46,6.15-.78,3.45-1.92,6.86-2.59,10.33-.52,2.69-.55,5.18,1.24,7.39,2.05,2.52,5.35,4.75,8.64,4.99.3.02.75-.5.32-.61Z"/>
              <path class="cls-2" d="m231.49,339.56c-2.38,3.77-2.87,8.2-6.3,11.36-3.11,2.86-7.32,3.6-11.39,3.15-4.16-.45-8.35-.9-12.42-1.88-4.48-1.07-8.88-2.48-13.36-3.57-.05-.01-.12.08-.05.1,5.15,1.36,10.23,2.94,15.39,4.25,2.42.61,4.87,1,7.33,1.47,2.15.41,4.32.9,6.51.99,3.58.14,7.06-1.35,9.51-3.96,2.91-3.08,4-7.98,5.29-11.89.12-.36-.4-.19-.51-.02Z"/>
              <path class="cls-2" d="m295.45,57.29c-1.69-1.28-3.69-2.13-5.73-2.66-1.49-.57-3.13-.93-4.58-1.31-2.05-.53-4.1-.94-6.23-.95-.25,0-.42.48-.13.53.75.14,1.49.29,2.24.44,1.28.44,2.64.64,3.95,1.02,2.57.74,5.22,1.67,7.57,2.95,2.17,1.19,3.95,2.7,5.25,4.82,1.54,2.53,1.43,4.71,1.24,7.56-.02.36.61.39.73.1,1.88-4.62-.52-9.64-4.31-12.51Z"/>
              <path class="cls-2" d="m292.49,97.01c.96-3.73,1.83-7.47,2.68-11.23.32-1.44.69-2.87,1-4.31.17-.49.35-.98.52-1.47.63-1.79.84-3.61,1.22-5.46.04-.22-.31-.22-.41-.11-1.11,1.15-1.17,2.65-1.6,4.13-.65,2.26-1.58,4.43-2.21,6.7-1.12,4.07-1.79,8.16-2.28,12.34-.89,3.43-1.77,6.85-2.51,10.31-.89,4.13-2.01,8.22-2.83,12.35-.1.53.47.46.6.04,2.37-7.64,3.82-15.54,5.81-23.29Z"/>
            </g>
          </g>
          <g>
            <path d="m238.92,174.04c-20.9-5.89-42.04-11.08-63.13-16.28-20.94-5.15-41.87-10.35-62.79-15.58-11.86-2.97-23.71-6.34-35.68-8.84-.65-.13-1.45,1.08-.69,1.31,10.44,3.05,21.14,5.36,31.69,7.99,10.58,2.64,21.16,5.27,31.74,7.91,20.91,5.21,41.77,10.66,62.72,15.71,11.91,2.87,23.8,5.88,35.76,8.49.36.08.8-.6.38-.72Z"/>
            <path d="m233.16,196.48c-5.3-1.52-10.54-3.09-15.89-4.45-5.16-1.31-10.32-2.61-15.49-3.87-10.45-2.55-20.93-4.95-31.37-7.56-21.07-5.26-42.13-10.51-63.2-15.77-11.84-2.95-23.68-5.89-35.51-8.84-.68-.17-1.51.93-.61,1.16,42.09,10.56,84.24,20.91,126.24,31.84,5.86,1.53,11.74,2.99,17.63,4.43,5.9,1.44,11.81,2.67,17.74,3.94.51.11,1.14-.68.46-.88Z"/>
            <path d="m227.64,219.04c-5.01-1.69-10.19-2.83-15.33-4.11-5.15-1.29-10.3-2.58-15.45-3.88-10.45-2.62-20.9-5.28-31.34-7.94-21.13-5.38-42.29-10.66-63.43-15.96l-35.65-8.94c-1-.25-2.11,1.66-.84,1.98,42.1,10.47,84.24,20.83,126.34,31.3,5.89,1.46,11.77,2.93,17.66,4.39,5.82,1.45,11.61,3.1,17.53,4.09.41.07,1.04-.76.52-.94Z"/>
            <path d="m221.97,241.58c-5.07-1.83-10.51-2.88-15.74-4.23-5.27-1.36-10.54-2.73-15.8-4.09-10.4-2.69-20.79-5.42-31.18-8.15-20.96-5.5-41.94-10.9-63.04-15.82-5.84-1.36-11.69-2.63-17.56-3.87-6.07-1.29-12.03-2.98-18.07-4.42-.77-.18-1.71,1.27-.85,1.49,5.27,1.37,10.62,2.46,15.86,3.97,5.19,1.49,10.38,3.03,15.59,4.43,10.5,2.83,21.05,5.49,31.61,8.12,21.08,5.26,42.24,10.17,63.37,15.25,5.92,1.42,11.84,2.85,17.76,4.27,5.82,1.4,11.68,3.19,17.6,4.07.44.07.99-.83.45-1.02Z"/>
          </g>
          <g>
            <g>
              <text class="cls-16" transform="translate(96.24 239.24) rotate(14.02)"><tspan class="cls-20" x="0" y="0">L</tspan><tspan x="2.56" y="0">o</tspan><tspan class="cls-17" x="5.63" y="0">r</tspan><tspan class="cls-9" x="7.4" y="0">em ipsum dolor sit ame</tspan><tspan class="cls-15" x="61.99" y="0">t</tspan><tspan x="63.82" y="0">, </tspan><tspan class="cls-19" x="66.16" y="0">c</tspan><tspan x="68.63" y="0">onse</tspan><tspan class="cls-24" x="79.82" y="0">c</tspan><tspan class="cls-26" x="82.39" y="0">t</tspan><tspan x="84.21" y="0">etur</tspan><tspan x="0" y="6.71">adipiscing eli</tspan><tspan class="cls-15" x="30.5" y="6.71">t</tspan><tspan x="32.33" y="6.71">, sed do eiusmod </tspan><tspan class="cls-26" x="72.89" y="6.71">t</tspan><tspan x="74.7" y="6.71">empor</tspan><tspan x="0" y="13.41">incididu</tspan><tspan class="cls-12" x="18.91" y="13.41">n</tspan><tspan class="cls-9" x="21.99" y="13.41">t ut labo</tspan><tspan class="cls-17" x="41.39" y="13.41">r</tspan><tspan x="43.17" y="13.41">e et dolo</tspan><tspan class="cls-21" x="63.59" y="13.41">r</tspan><tspan x="65.36" y="13.41">e ma</tspan><tspan class="cls-26" x="76.7" y="13.41">g</tspan><tspan x="79.79" y="13.41">na aliqua.</tspan></text>
              <g>
                <path d="m87.33,246.22c.9-4.57,2.06-9.48,4.1-13.69.15-.3-.14-.57-.39-.65-2.07-.71-4.3-.53-6.4-1.1-2.12-.57-4.12-1.53-6.24-2.1-3.27-.88-7.19-.96-10.02-3.02-.75-.55-2.2.37-1.98,1.15,0,.02-.01.03-.02.05-1,4.42-1.58,9.06-3.18,13.32-.9,2.4-3.35,6.08-1.79,8.64.12.19.47.21.66.18,1.87-.34,3.96.55,5.7,1.14,2.02.68,4.1,1.15,6.16,1.69,2.16.57,4.3,1.04,6.5,1.41,1.52.26,3.21.55,4.75.19.8-.18,1.36-.61,1.59-1.42.51-1.8.19-3.94.56-5.8Zm-.21-2.51c-.66,2.13-1.35,4.26-1.94,6.4-.12.44-.17,1.29-.38,1.73-.03.01-.08.03-.15.06-.44.19-1.07.09-1.54.09-4.16-.06-8.45-.77-12.45-1.86-2.64-.72-5.14-1.94-7.87-2.29-.55-2.9.71-5.99,1.69-8.66,1.34-3.65,2.25-7.58,3.26-11.37,2.85,1.44,6.38,1.25,9.43,1.98,2.18.52,4.2,1.52,6.34,2.14,2.01.58,4.12.55,6.15,1.04-.52,1.51-.76,3-.98,4.59-.3,2.12-.91,4.1-1.54,6.14Z"/>
                <path class="cls-10" d="m92.56,222.45c-1.84,1.3-3.02,3.53-4.37,5.3-1.74,2.28-3.74,4.14-5.77,6.14-1.92,1.9-3.69,3.98-5.48,6.01-1.19,1.34-2.24,2.85-3.51,4.12-.27-.47-.44-1.05-.69-1.48-.32-.56-.7-1.05-1.09-1.57-.96-1.27-1.88-2.56-2.81-3.84-.84-1.17-1.71-2.29-2.38-3.56-.68-1.28-1.2-2.53-2.18-3.62-.27-.3-.57-.22-.81,0-.22.12-.39.37-.37.78,0,.04,0,.08,0,.12.41,3.21,1.17,6.19,2.81,9,.8,1.37,1.68,2.73,2.67,3.97.48.6.95,1.18,1.58,1.64.57.42,1.46.63,1.92,1.18.28.33.58.38.99.28,2.14-.52,3.61-2.48,5.02-4.04,1.87-2.06,3.83-4.05,5.47-6.31,1.67-2.29,3.04-4.79,4.69-7.11,1.53-2.16,3.4-4.32,4.64-6.65.12-.23-.08-.52-.33-.35Z"/>
              </g>
            </g>
            <g>
              <text class="cls-16" transform="translate(88.94 268.48) rotate(14.02)"><tspan class="cls-4" x="0" y="0">U</tspan><tspan x="3.64" y="0">t enim ad minim </tspan><tspan class="cls-17" x="42.98" y="0">v</tspan><tspan class="cls-9" x="45.61" y="0">eniam, quis nostrud</tspan><tspan class="cls-15" x="0" y="6.71">e</tspan><tspan class="cls-25" x="2.78" y="6.71">x</tspan><tspan x="5.29" y="6.71">e</tspan><tspan class="cls-21" x="8.09" y="6.71">r</tspan><tspan class="cls-5" x="9.86" y="6.71">cit</tspan><tspan class="cls-12" x="15.52" y="6.71">a</tspan><tspan x="18.19" y="6.71">tion ullam</tspan><tspan class="cls-22" x="41.77" y="6.71">c</tspan><tspan x="44.24" y="6.71">o labo</tspan><tspan class="cls-4" x="58.75" y="6.71">r</tspan><tspan class="cls-9" x="60.6" y="6.71">is nisi ut aliquip</tspan><tspan class="cls-15" x="0" y="13.41">e</tspan><tspan x="2.78" y="13.41">x ea </tspan><tspan class="cls-22" x="13.23" y="13.41">c</tspan><tspan class="cls-5" x="15.7" y="13.41">ommodo </tspan><tspan class="cls-22" x="38.56" y="13.41">c</tspan><tspan x="41.03" y="13.41">onsequ</tspan><tspan class="cls-23" x="58.44" y="13.41">at</tspan><tspan class="cls-5" x="62.94" y="13.41">.</tspan></text>
              <g>
                <path d="m80.02,275.46c.9-4.57,2.06-9.48,4.1-13.69.15-.3-.14-.57-.39-.65-2.07-.71-4.3-.53-6.4-1.1-2.12-.57-4.12-1.53-6.24-2.1-3.27-.88-7.19-.96-10.02-3.02-.75-.55-2.2.37-1.98,1.15,0,.02-.01.03-.02.05-1,4.42-1.58,9.06-3.18,13.32-.9,2.4-3.35,6.08-1.79,8.64.12.19.47.21.66.18,1.87-.34,3.96.55,5.7,1.14,2.02.68,4.1,1.15,6.16,1.69,2.16.57,4.3,1.04,6.5,1.41,1.52.26,3.21.55,4.75.19.8-.18,1.36-.61,1.59-1.42.51-1.8.19-3.94.56-5.8Zm-.21-2.51c-.66,2.13-1.35,4.26-1.94,6.4-.12.44-.17,1.29-.38,1.73-.03.01-.08.03-.15.06-.44.19-1.07.09-1.54.09-4.16-.06-8.45-.77-12.45-1.86-2.64-.72-5.14-1.94-7.87-2.29-.55-2.9.71-5.99,1.69-8.66,1.34-3.65,2.25-7.58,3.26-11.37,2.85,1.44,6.38,1.25,9.43,1.98,2.18.52,4.2,1.52,6.34,2.14,2.01.58,4.12.55,6.15,1.04-.52,1.51-.76,3-.98,4.59-.3,2.12-.91,4.1-1.54,6.14Z"/>
                <path class="cls-10" d="m82.31,253.46c-1.65,1.45-3.28,2.69-4.67,4.43-1.5,1.87-2.81,3.88-4.16,5.86-1.42,2.08-2.96,3.99-4.65,5.86-.99,1.1-2.33,2.39-2.98,3.85-1.05-.81-1.95-3.42-2.13-4.08-.36-1.32-.7-2.55-1.32-3.78-.71-1.39-1.55-2.7-2.36-4.03-.85-1.39-1.6-2.9-2.7-4.11-1.28-1.39-2.36,1.68-2.16,2.54.73,3.15,3.14,6.52,5.1,9.05.86,1.11,1.95,2.03,2.8,3.16.45.6.82,1.23,1.3,1.81.4.48,1.02.94,1.15,1.6.09.46.6.68,1.01.53.93-.34,1.36-1.08,1.98-1.81.78-.92,1.62-1.78,2.45-2.66,1.64-1.75,3.05-3.6,4.4-5.57,1.43-2.09,2.79-4.23,4.3-6.28,1.37-1.86,2.44-3.63,3.13-5.85.08-.27-.13-.81-.47-.51Z"/>
              </g>
            </g>
          </g>
        </g>
        <g>
          <g>
            <path d="m206.74,101.32c.21-1.16.35-2.34.39-3.53.05-1.18,0-2.37-.14-3.55-.14-1.18-.36-2.34-.68-3.49-.32-1.14-.73-2.27-1.27-3.33-1.07-2.14-2.67-4.01-4.62-5.4-.97-.69-2.02-1.28-3.11-1.74-1.1-.46-2.22-.82-3.36-1.12-1.14-.29-2.3-.5-3.48-.62-1.17-.12-2.35-.15-3.52-.09-2.35.1-4.67.55-6.9,1.24-1.12.35-2.21.75-3.3,1.15l-3.23,1.23-2.12-2.75c-.7-.89-1.41-1.84-2.19-2.71-.78-.87-1.63-1.68-2.53-2.43l-.69-.55-.71-.52-.18-.13-.18-.12-.37-.24-.37-.24-.38-.22c-.5-.31-1.03-.57-1.55-.84l-.8-.36c-.13-.06-.27-.12-.41-.17l-.41-.16-.41-.16-.42-.14-.42-.14-.21-.07-.21-.06-.85-.24-.86-.2c-1.15-.25-2.32-.44-3.5-.52-1.18-.08-2.37-.08-3.55.04-2.37.24-4.7,1-6.75,2.24-1.02.63-1.96,1.37-2.83,2.19l-.63.63c-.2.22-.4.44-.6.66l-.3.33-.28.34c-.19.23-.38.46-.56.69-.35.48-.71.95-1.03,1.45-.34.49-.63,1.01-.93,1.52-.57,1.04-1.08,2.12-1.51,3.23-.11.28-.2.56-.3.84l-.15.42-.13.43c-.08.28-.17.57-.25.85l-.21.86-.05.22-.04.22-.09.43c-.06.29-.12.58-.16.87l-.14.88-.1.88c-.02.15-.04.29-.05.44l-.03.44c-.02.29-.05.59-.06.88-.02.59-.05,1.18-.04,1.77,0,1.18.07,2.36.2,3.54.13,1.17.32,2.34.56,3.49.24,1.15.55,2.29.89,3.42.68,2.25,1.54,4.44,2.5,6.58.48,1.07.99,2.12,1.53,3.16.54,1.04,1.11,2.06,1.69,3.08,1.18,2.02,2.46,3.98,3.82,5.88.68.95,1.38,1.88,2.1,2.8.72.92,1.45,1.83,2.2,2.72,1.5,1.79,3.07,3.52,4.72,5.17.83.82,1.67,1.63,2.54,2.41.22.2.43.39.65.58l.33.29c.11.09.22.19.34.29.24.19.5.37.78.51.28.14.6.24.93.27.33.04.65,0,.96-.08l.22-.06c.06-.02.13-.03.19-.05.13-.03.27-.05.41-.07.28-.04.58-.06.88-.12.29-.06.57-.12.86-.19,1.14-.26,2.27-.55,3.39-.88s2.23-.69,3.33-1.07c1.1-.38,2.19-.78,3.28-1.2,4.35-1.67,8.59-3.6,12.63-5.93,2.02-1.16,3.98-2.42,5.87-3.78.47-.34.95-.68,1.41-1.04l.7-.53.68-.55c.92-.72,1.79-1.49,2.66-2.28.86-.79,1.69-1.62,2.49-2.47.8-.86,1.55-1.76,2.27-2.68.71-.94,1.38-1.91,1.99-2.91.15-.25.29-.51.44-.76l.22-.38.2-.39c.13-.26.28-.52.41-.79l.37-.8c.97-2.15,1.7-4.41,2.12-6.74Zm-2.93,6.38c-.46,1.05-.98,2.07-1.55,3.06-.58.99-1.21,1.95-1.88,2.88-.68.92-1.4,1.82-2.17,2.69-.77.86-1.57,1.69-2.4,2.49-.84.79-1.69,1.58-2.58,2.31l-.66.56-.68.54c-.45.37-.91.71-1.37,1.06-.92.7-1.88,1.35-2.84,2-.48.32-.97.63-1.46.94-.49.3-.99.6-1.49.9-4,2.34-8.24,4.27-12.58,5.89-1.09.41-2.18.79-3.28,1.16-1.1.36-2.21.7-3.32,1-1.12.31-2.24.58-3.37.81-.28.06-.57.11-.85.17-.27.05-.55.07-.85.1-.15.02-.3.04-.45.07-.08.02-.15.03-.23.05l-.11.03-.1.03c-.26.06-.51.08-.76.05-.5-.06-.97-.33-1.39-.68-.11-.09-.21-.18-.32-.28l-.32-.29c-.21-.19-.43-.39-.64-.59-.84-.79-1.66-1.61-2.46-2.44-1.6-1.67-3.12-3.41-4.58-5.21-.73-.9-1.44-1.81-2.14-2.73-.7-.92-1.39-1.85-2.05-2.8-1.33-1.89-2.58-3.84-3.72-5.84-.57-1-1.12-2.01-1.64-3.04-.52-1.03-1.01-2.07-1.48-3.12-.92-2.11-1.75-4.26-2.4-6.46-.65-2.2-1.13-4.45-1.38-6.72-.25-2.27-.25-4.57-.01-6.83l.09-.85.13-.84c.04-.28.1-.56.15-.84l.08-.42.04-.21.05-.21.2-.83c.07-.27.16-.55.23-.82l.12-.41.14-.4c.09-.27.18-.54.28-.8.4-1.06.88-2.09,1.42-3.09.55-.99,1.17-1.95,1.85-2.86.17-.23.35-.45.53-.67l.27-.33.28-.32c.19-.21.37-.43.57-.64l.6-.6c.81-.78,1.69-1.49,2.64-2.1,1.91-1.19,4.09-1.95,6.34-2.21,1.13-.13,2.27-.16,3.41-.1,1.14.06,2.28.22,3.4.44,1.13.21,2.23.54,3.31.92l.4.15c.13.05.27.1.4.16l.79.34c.52.25,1.04.49,1.53.78,2.01,1.11,3.83,2.55,5.44,4.21.8.84,1.51,1.73,2.28,2.64l2.25,2.68c.15-.04.29-.08.44-.13l.42-.14.83-.27,1.65-.55c1.1-.37,2.2-.72,3.32-1.03,2.23-.62,4.52-.98,6.81-1.03,2.3-.05,4.59.24,6.8.84,1.1.3,2.19.68,3.23,1.14,1.03.47,2.02,1.03,2.93,1.7,1.83,1.33,3.3,3.11,4.3,5.14.5,1.01.89,2.08,1.19,3.17.3,1.09.51,2.22.63,3.35.25,2.26.15,4.56-.25,6.8-.41,2.24-1.08,4.45-1.99,6.55Z"/>
            <path class="cls-10" d="m203.82,107.7c-.46,1.05-.98,2.07-1.55,3.06-.58.99-1.21,1.95-1.88,2.88-.68.92-1.4,1.82-2.17,2.69-.77.86-1.57,1.69-2.4,2.49-.84.79-1.69,1.58-2.58,2.31l-.66.56-.68.54c-.45.37-.91.71-1.37,1.06-.92.7-1.88,1.35-2.84,2-.48.32-.97.63-1.46.94-.49.3-.99.6-1.49.9-4,2.34-8.24,4.27-12.58,5.89-1.09.41-2.18.79-3.28,1.16-1.1.36-2.21.7-3.32,1-1.12.31-2.24.58-3.37.81-.28.06-.57.11-.85.17-.27.05-.55.07-.85.1-.15.02-.3.04-.45.07-.08.02-.15.03-.23.05l-.11.03-.1.03c-.26.06-.51.08-.76.05-.5-.06-.97-.33-1.39-.68-.11-.09-.21-.18-.32-.28l-.32-.29c-.21-.19-.43-.39-.64-.59-.84-.79-1.66-1.61-2.46-2.44-1.6-1.67-3.12-3.41-4.58-5.21-.73-.9-1.44-1.81-2.14-2.73-.7-.92-1.39-1.85-2.05-2.8-1.33-1.89-2.58-3.84-3.72-5.84-.57-1-1.12-2.01-1.64-3.04-.52-1.03-1.01-2.07-1.48-3.12-.92-2.11-1.75-4.26-2.4-6.46-.65-2.2-1.13-4.45-1.38-6.72-.25-2.27-.25-4.57-.01-6.83l.09-.85.13-.84c.04-.28.1-.56.15-.84l.08-.42.04-.21.05-.21.2-.83c.07-.27.16-.55.23-.82l.12-.41.14-.4c.09-.27.18-.54.28-.8.4-1.06.88-2.09,1.42-3.09.55-.99,1.17-1.95,1.85-2.86.17-.23.35-.45.53-.67l.27-.33.28-.32c.19-.21.37-.43.57-.64l.6-.6c.81-.78,1.69-1.49,2.64-2.1,1.91-1.19,4.09-1.95,6.34-2.21,1.13-.13,2.27-.16,3.41-.1,1.14.06,2.28.22,3.4.44,1.13.21,2.23.54,3.31.92l.4.15c.13.05.27.1.4.16l.79.34c.52.25,1.04.49,1.53.78,2.01,1.11,3.83,2.55,5.44,4.21.8.84,1.51,1.73,2.28,2.64l2.25,2.68c.15-.04.29-.08.44-.13l.42-.14.83-.27,1.65-.55c1.1-.37,2.2-.72,3.32-1.03,2.23-.62,4.52-.98,6.81-1.03,2.3-.05,4.59.24,6.8.84,1.1.3,2.19.68,3.23,1.14,1.03.47,2.02,1.03,2.93,1.7,1.83,1.33,3.3,3.11,4.3,5.14.5,1.01.89,2.08,1.19,3.17.3,1.09.51,2.22.63,3.35.25,2.26.15,4.56-.25,6.8-.41,2.24-1.08,4.45-1.99,6.55Z"/>
            <path class="cls-11" d="m202.27,110.76c.57-1,1.09-2.02,1.55-3.06.92-2.1,1.59-4.3,1.99-6.55.4-2.25.5-4.54.25-6.8-.13-1.13-.33-2.25-.63-3.35-.3-1.09-.69-2.16-1.19-3.17-.99-2.03-2.47-3.8-4.3-5.14-.91-.67-1.9-1.23-2.93-1.7-1.04-.46-2.13-.83-3.23-1.14-2.21-.6-4.51-.89-6.8-.84-2.3.05-4.59.42-6.81,1.03-1.11.31-2.22.66-3.32,1.03l-1.65.55-.83.27-.42.14c-.15.05-.3.09-.44.13l-.27-.32c-.07.11-.09.26-.02.36.02.02.03.05.05.08.01.07.05.13.13.15h0c.13.04.25-.02.33-.13,0,0,.02-.02.03-.03.02.04.04.08.08.12.34.35,1.3.09,1.72.03,2.1-.31,4.14-.49,6.27-.39,4.12.21,8.17,1.03,11.85,2.92,1.7.87,3.39,1.98,4.55,3.53,1,1.33,1.88,3.05,2.13,4.7.54,3.51-1.26,7.09-2.28,10.36-.67,2.16-1.58,4.09-2.87,5.96-1.16,1.67-2.46,3.28-3.75,4.85-1.33,1.62-2.97,2.98-4.6,4.3-1.63,1.31-3.35,2.46-5.22,3.41-3.55,1.81-7.36,3.08-11,4.72-2.04.92-4.1,1.77-6.19,2.57-1.03.4-2.07.78-3.11,1.14-.83.29-1.63.61-2.53.59-3.22-.09-6.06-2.74-8.19-4.9-1.94-1.96-4.2-3.61-6.23-5.48.17.25.35.5.52.75.66.95,1.35,1.88,2.05,2.8.7.92,1.41,1.83,2.14,2.73,1.46,1.79,2.98,3.54,4.58,5.21.8.83,1.62,1.65,2.46,2.44.21.2.42.4.64.59l.32.29c.11.1.21.19.32.28.42.35.89.63,1.39.68.25.03.51.01.76-.05l.1-.03.11-.03c.08-.02.15-.04.23-.05.15-.03.3-.05.45-.07.3-.03.58-.05.85-.1.27-.05.56-.11.85-.17,1.13-.24,2.25-.51,3.37-.81,1.11-.31,2.22-.64,3.32-1,1.1-.37,2.19-.75,3.28-1.16,4.35-1.62,8.58-3.55,12.58-5.89.5-.29.99-.6,1.49-.9.49-.31.98-.62,1.46-.94.96-.64,1.92-1.3,2.84-2,.46-.35.93-.69,1.37-1.06l.68-.54.66-.56c.89-.74,1.75-1.52,2.58-2.31.84-.8,1.63-1.63,2.4-2.49.76-.86,1.48-1.76,2.17-2.69.67-.93,1.31-1.89,1.88-2.88Z"/>
            <g>
              <g class="cls-6">
                <path class="cls-2" d="m146.9,79.39c.28-.22.58-.41.88-.59.28-.1.57-.27.73-.34.7-.32,1.4-.64,2.06-1.03.26-.15.67-.4,1.02-.7.05-.03.1-.06.14-.09.71-.35,1.28-.8,1.2-1.33,0-.02.02-.03.02-.05.45-1.05-.85-1.82-1.64-2.15-1.55-.65-3.33-.58-4.9-.01-3.37,1.22-6.06,4.08-7.77,7.15-1.06,1.91-1.63,3.92-1.73,6.1-.08,1.73-.17,3.79.74,5.33.07.11.24.1.34.04.79-.49,1.15-1.38,1.39-2.32.03-.08.06-.16.09-.24.15-.39.33-.77.49-1.15.45-.91.95-1.8,1.45-2.67.09-.12.17-.25.27-.37.49-.66,1.03-1.3,1.56-1.93,1.1-1.31,2.28-2.62,3.64-3.66Zm3.6-3.06c-.05.02-.1.04-.16.07.01-.02.02-.05.03-.07.02,0,.05-.02.07-.02.04-.01.08-.02.12-.03-.02.02-.04.04-.07.06Z"/>
                <path class="cls-2" d="m153.85,79.47c-.07-.26-.24-.51-.54-.73-1.11-.82-2.75.56-3.6,1.22-.82.63-1.54,1.45-1.7,2.51-.16,1.03.57,1.6,1.48,1.88.08.03.16-.03.19-.11.53.05,1.13-.22,1.53-.46.89-.54,1.69-1.37,2.24-2.25.31-.5.76-1.47.4-2.07Z"/>
                <path class="cls-2" d="m178.72,84.54c-.38-.68-1.57-.16-2.07.01-1.76.59-3.68.22-5.29-.69-.16-.14-.31-.29-.45-.41-.91-.81-1.71-1.68-2.45-2.64-.44-.56-.93-1.22-1.5-1.82-.97-1.28-2.15-2.37-3.74-2.26-.2.01-.67.38-.42.61.55.5,1.2.92,1.65,1.52.45.6.81,1.3,1.18,1.96.74,1.33,1.41,2.71,2.36,3.91.54.68,1.15,1.27,1.86,1.7.7.65,1.66,1.01,2.69,1.15,2.03.26,3.79-.38,5.33-1.69.31-.27,1.13-.82.85-1.34Z"/>
                <path class="cls-2" d="m167.11,132.25c-.89.05-1.74.03-2.63.15-.98.13-1.95.31-2.92.45-.59.09-1.14.02-1.64-.15-.54-.3-1.01-.7-1.45-1.15-.76-.77-1.5-1.56-2.23-2.35-.13-.14-.25-.28-.38-.42-.42-.75-1.05-1.4-1.64-2.05-.8-1.09-1.54-2.22-2.28-3.36-.77-1.19-1.51-2.35-2.46-3.4-.58-.63-1.58-1.86-2.57-1.71-1.57.24-.88,2.28-.43,3.14.84,1.62,2.07,3.08,3.27,4.44,1.53,1.73,3.28,3.26,4.95,4.85,1.68,1.61,3.54,3.58,6.04,3.56,1.02-.01,2.1-.24,3.09-.46.11-.03.22-.05.33-.08,1.04-.17,2.06-.48,2.97-.91.23-.11.33-.55-.02-.53Z"/>
                <path class="cls-2" d="m145.63,113.35c-.34-.73-.84-1.61-1.59-1.98-.36-.18-.7.09-.9.37,0,0,0,0,0,0-.39.28-.61.84-.64,1.29-.04.72.25,1.45.54,2.1.25.56.58,1.3,1.16,1.6.68.35,1.36-.25,1.64-.84.39-.81.15-1.77-.21-2.55Z"/>
              </g>
              <g class="cls-6">
                <path class="cls-2" d="m151.8,79.25s-.07.02-.1.03c-.07.02-.12.06-.16.11-.53.09-1.09.53-1.44.84-.5.43-.94,1.09-.46,1.72.99,1.29,2.75-1.04,2.8-2.02.02-.32-.25-.8-.63-.68Z"/>
                <path class="cls-2" d="m150.17,74.86c.03-.41-.16-.62-.45-.71-.86-.46-2.04-.07-2.88.25-1.14.44-2.2,1.04-3.14,1.82-1.17.97-2.27,2.14-2.96,3.51-.24.48-1.06,2.41.06,2.47.84.05,1.72-1,2.25-1.52,1.17-1.15,2.42-2.41,3.91-3.13,1.1-.54,3.09-1.2,3.21-2.69Z"/>
                <path class="cls-2" d="m174.69,85.33c-.93-.19-1.73-.37-2.6-.8-.81-.4-1.49-.92-2.15-1.54-.81-.76-1.61-1.51-2.32-2.36-.7-.84-1.35-1.72-2.02-2.59-.04-.06-.16.02-.12.08.66.98,1.37,1.91,2.05,2.87.65.92,1.18,2.04,1.96,2.85,1.28,1.32,3.28,2.15,5.13,1.7.07-.02.22-.19.08-.22Z"/>
                <path class="cls-2" d="m144.77,113.77c.03-.06.04-.12.05-.16.04-.6-.42-1.27-.79-1.7-.25-.3-.57.13-.56.39.01.43.05.87.19,1.28.11.33.39.79.8.68.21-.05.33-.29.31-.5Z"/>
                <path class="cls-2" d="m158.63,132.42c-.71-.73-1.51-1.38-2.22-2.11-.73-.75-1.42-1.54-2.08-2.35-.53-.65-1.11-1.26-1.7-1.86-.37-.62-.86-1.16-1.31-1.72-.7-.89-1.42-1.8-2.06-2.74-.43-.62-1.03-2.86-2.07-2.52-1.45.46.03,2.51.49,3.14,1.34,1.85,2.97,3.47,4.6,5.06.97.95,2,1.84,2.96,2.81.93.93,2,1.98,3.23,2.5.1.04.23-.13.15-.21Z"/>
                <path class="cls-2" d="m162.88,133.14c-1.02.37-2.07.2-3.12.31-.03,0-.08.07-.03.08,1.01.22,2.25.28,3.18-.24.07-.04.08-.18-.02-.14Z"/>
              </g>
            </g>
          </g>
          <g>
            <path d="m209.75,113.64s-.02-.04-.03-.06c-.01-.02-.03-.03-.05-.05-.02-.01-.04-.02-.06-.03h-.06c-.59-.05-1.14-.31-1.72-.46-.29-.08-.59-.12-.89-.17-.3-.05-.59-.1-.88-.16-.59-.12-1.17-.25-1.75-.4-.58-.14-1.15-.33-1.74-.45-.58-.13-1.17-.26-1.69-.54-.27-.13-.48-.33-.64-.57-.16-.24-.29-.52-.44-.78-.08-.13-.16-.26-.26-.38-.05-.06-.1-.12-.16-.17-.02-.01-.02-.03-.05-.04-.02-.02-.05-.03-.08-.03-.06,0-.1,0-.14.02-.08.03-.14.1-.2.14l-.17.15c-.11.1-.22.2-.34.29-.23.19-.47.37-.72.53l-.67.42c-.07-.47-.15-.93-.2-1.4-.03-.25-.05-.5-.07-.75-.02-.25-.05-.51-.11-.76-.03-.13-.08-.25-.14-.37-.01-.03-.03-.06-.05-.1-.01-.02-.03-.03-.05-.05-.02-.01-.05-.03-.07-.03-.11-.02-.18.03-.24.06-.06.04-.11.09-.15.14-.02.03-.04.06-.06.09l-.04.09c-.05.11-.12.22-.19.32-.24.36-.54.66-.85.98-.03-.43-.07-.86-.12-1.29l-.04-.37-.02-.19c-.01-.06-.02-.16-.11-.23-.04-.04-.1-.05-.15-.05-.05,0-.09.01-.13.03-.08.03-.14.08-.19.13-.05.06-.09.12-.11.21-.01.07-.02.12-.03.18-.1.47-.34.91-.56,1.36-.22.45-.41.92-.6,1.38l-1.24,2.73c-.17.35-.32.71-.47,1.07.56-2.24,1.21-4.46,1.89-6.68.43-1.4.86-2.8,1.22-4.23.18-.71.34-1.43.5-2.14l.49-2.14c.17-.71.34-1.42.52-2.13l.03-.13v-.04s.02-.06.02-.06c0-.03,0-.08,0-.13,0-.02,0-.05-.01-.08,0-.03-.01-.05-.02-.08-.01-.03-.03-.05-.04-.08-.02-.02-.04-.05-.06-.07-.09-.08-.2-.11-.29-.12-.18,0-.32.04-.45.14-.03.02-.06.06-.09.08-.01.02-.03.03-.04.05l-.02.03v.02s-.08.13-.08.13c-.19.33-.34.68-.48,1.03-.27.7-.47,1.4-.74,2.07l-.78,2.06-.78,2.06c-.25.69-.51,1.37-.77,2.05-.31.8-.63,1.6-.97,2.38,0-.08-.01-.16-.02-.25-.01-.12-.03-.23-.05-.35-.02-.07,0-.09-.06-.24-.03-.07-.07-.14-.15-.21-.07-.06-.18-.11-.26-.12-.17-.02-.28.02-.38.06-.09.04-.16.09-.23.14-.07.06-.13.12-.19.22-.02.03-.03.05-.04.08l-.02.05v.03s-.03.06-.03.06c-.06.17-.15.35-.25.53-.05.09-.1.18-.15.27-.01-.09-.03-.19-.03-.28-.04-.41,0-.83.06-1.28.06-.44.13-.91.13-1.4v-.09s0-.01,0-.01v-.03s0-.05,0-.05c0-.04,0-.07-.02-.11-.01-.04-.03-.07-.04-.11-.02-.03-.04-.07-.06-.1-.05-.06-.11-.11-.16-.15-.11-.07-.22-.11-.32-.12-.1-.02-.19-.02-.27-.01-.09,0-.17.02-.26.05-.05.02-.09.03-.14.06-.02.01-.05.03-.08.05l-.04.03-.02.02c-.1.08-.19.16-.28.25-.36.35-.64.72-.93,1.06-.3.36-.56.71-.85.9-.14.1-.28.15-.42.15-.18,0-.39,0-.59-.03-.41-.06-.83-.17-1.26-.3-.43-.13-.87-.27-1.33-.38l-.18-.04-.17-.04-.34-.07-.67-.13c-.89-.17-1.78-.34-2.64-.57-.22-.06-.43-.12-.64-.18-.21-.06-.4-.13-.55-.21-.15-.08-.23-.16-.35-.33-.06-.08-.11-.17-.18-.26-.06-.09-.14-.21-.19-.29-.12-.18-.24-.38-.39-.58-.15-.2-.33-.41-.57-.59-.06-.04-.12-.08-.19-.12-.02-.01-.09-.05-.13-.07-.05-.02-.1-.03-.14-.04-.18-.04-.36-.05-.56.02l-.03-.06v.07c-.11.04-.21.09-.31.19-.05.05-.1.12-.13.18-.02.03-.03.07-.04.1l-.02.05v.02c-.03.07-.05.14-.08.21-.11.13-.2.26-.28.38l-.15-.51c-.07-.22-.13-.43-.17-.64-.04-.19-.06-.37-.05-.53.03-.13.06-.26.07-.4l-.17-.55c-.05-.06-.12-.12-.19-.16-.15-.09-.35-.1-.51-.06-.16.05-.29.14-.36.24-.08.1-.13.2-.16.28-.02.04-.03.08-.05.12-.04.08-.08.16-.13.23-.07.1-.15.21-.23.31-.01-.07-.03-.15-.05-.22-.08-.36-.19-.75-.41-1.12l-.6-.4c-.11-.02-.22-.02-.33.01-.11.03-.21.09-.29.16-.07.07-.13.15-.17.22-.02.04-.04.07-.05.11l-.03.08c-.03.07-.06.15-.09.22-.13.3-.28.6-.43.9-.16.3-.32.61-.48.94l.12-.5c.15-.62.3-1.24.44-1.86.28-1.24.57-2.48.83-3.72.27-1.25,1.22-4.77,1.41-5.33.1-.28.19-.57.27-.86l.06-.22v-.03s.01-.01.01-.01v-.02s.02-.09.02-.09c0-.06.01-.13,0-.2,0-.13-.06-.27-.14-.39-.08-.12-.21-.23-.38-.28-.04-.01-.09-.02-.13-.02-.05,0-.09,0-.14,0-.04,0-.09.02-.13.04-.04.02-.08.04-.11.06-.13.09-.22.21-.27.31-.03.06-.04.09-.06.12l-.05.1-.09.21c-.12.28-.23.56-.33.84-.2.56-.37,1.13-.52,1.7-.35.91-.62,1.83-.93,2.75l-.9,2.77c-.46,1.45-.94,2.89-1.51,4.28-.02-.16-.04-.32-.08-.49-.04-.15-.09-.31-.17-.47-.04-.08-.09-.16-.16-.23-.04-.05-.12-.13-.24-.17l-.12-.03s-.02,0-.04,0c-.08,0-.16.02-.22.05,0-.05,0-.11,0-.16-.03-.35-.06-.72-.2-1.1-.07-.19-.16-.38-.32-.54-.08-.08-.18-.15-.28-.21-.13-.07-.27-.08-.39-.07-.12,0-.24.04-.35.1-.11.06-.23.15-.3.3-.02.04-.03.07-.04.11v.03s0,0,0,0c0,0,0,0,0,0,0,0,0,0,0,.01h0s-.01.02-.01.02c-.03.04-.08.08-.14.13-.12.09-.27.17-.42.25l-.23.13c-.08.05-.16.09-.25.17-.09.07-.15.15-.22.22-.06.07-.12.14-.17.21-.1.13-.2.26-.3.33-.05.04-.1.06-.15.07-.02,0-.05,0-.08.01-.04,0-.07,0-.11,0-.15,0-.3-.04-.46-.09-.31-.09-.63-.23-.97-.34-.33-.11-.67-.21-1.01-.3-.34-.09-.68-.17-1.01-.26l-2.02-.5-1.01-.25-.51-.13c-.18-.04-.35-.08-.52-.11-.33-.07-.65-.15-.89-.33-.06-.04-.11-.09-.16-.15-.05-.06-.1-.12-.15-.19-.08-.1-.16-.22-.28-.34,0-.05.01-.1.01-.15,0-.1-.02-.22-.13-.34-.05-.06-.13-.09-.2-.11-.07-.01-.14,0-.19,0h-.04s-.03.02-.03.02l-.06.02s-.08.03-.11.04c-.3.13-.56.31-.78.52-.23.2-.43.42-.64.61-.14.13-.28.25-.43.35-.09-.44-.2-.87-.28-1.3-.11-.49-.06-1.02-.11-1.57-.01-.14-.03-.28-.06-.42-.01-.09-.07-.21-.18-.28,0,0-.33-.05-.33-.05,0,0-.01,0-.02,0-.05.02-.1.04-.14.07-.02.01-.04.04-.06.05l-.04.04c-.05.05-.1.1-.14.16-.09.11-.17.22-.25.34-.15.23-.28.47-.41.7-.04.07-.09.15-.14.22-.01-.27-.03-.53-.06-.79-.02-.22-.05-.44-.09-.65l-.02-.16c-.01-.07-.04-.17-.12-.24-.06-.05-.13-.07-.19-.08l-.17.02s-.1.04-.14.06c-.06.04-.12.09-.16.16-.02.03-.04.08-.05.11l-.03.08-.11.31-.22.62-.44,1.23-.88,2.46c-.15.41-.29.82-.44,1.22,0,.03-.02.05-.03.08l.13-.95c.11-.72.23-1.43.36-2.15.26-1.43.55-2.85.84-4.28.29-1.42.59-2.85.92-4.26.35-1.42.59-2.85.91-4.27.08-.35.16-.71.25-1.06l.07-.26c.02-.11.05-.23-.01-.37,0-.02-.02-.04-.03-.05-.01-.02-.03-.03-.04-.05-.03-.03-.06-.05-.1-.08-.04-.02-.07-.03-.11-.04-.04,0-.07,0-.11,0-.14.01-.25.07-.34.14-.09.07-.16.18-.21.29l-.02.04v.03s-.03.06-.03.06l-.04.13c-.06.17-.12.34-.18.51-.12.34-.25.68-.38,1.01-.27.67-.55,1.34-.82,2.02l-.79,2.03-.79,2.03c-.27.68-.52,1.36-.78,2.04-.24.64-.47,1.28-.72,1.9,0-.08,0-.15-.01-.23,0-.06-.01-.11-.02-.17l-.02-.09s-.01-.06-.02-.09c-.01-.04-.02-.07-.05-.11-.02-.04-.05-.07-.08-.11-.07-.07-.16-.12-.26-.14-.19-.02-.34.05-.46.13-.06.04-.11.1-.15.16-.02.03-.04.06-.06.1l-.02.05-.02.04-.21.46s0-.06,0-.09c-.02-.26,0-.54,0-.82.01-.28.03-.57,0-.87,0-.15-.03-.3-.06-.45-.01-.08-.03-.15-.05-.22-.01-.04-.02-.07-.03-.11l-.02-.05s-.02-.06-.04-.08c-.01-.03-.04-.06-.06-.08-.02-.03-.05-.05-.08-.08-.07-.04-.14-.07-.21-.08-.14-.01-.24.03-.33.07-.09.04-.16.1-.24.17-.02.02-.04.04-.05.06l-.04.05-.07.08-.52.66-.26.33c-.09.11-.18.22-.26.31-.08.09-.15.14-.23.16-.04.01-.09.02-.14.02-.05,0-.1,0-.17-.02-.54-.08-1.07-.24-1.62-.38-.27-.07-.55-.15-.83-.21l-.83-.18-1.65-.37-.82-.18-.21-.05-.21-.04-.42-.08-.21-.04-.1-.02s-.08-.01-.12-.02c-.14-.02-.28-.04-.4-.06-.12-.02-.24-.07-.28-.1,0,0,0,0,0,0,0,0,0,0,0,0h0s0,0,0,0l-.02-.02-.03-.04s-.06-.06-.09-.08c-.03-.03-.08-.05-.13-.06-.05-.02-.1-.02-.14-.02-.05,0-.09.01-.13.02-.04.01-.07.03-.1.04-.12.07-.19.15-.25.25-.06.09-.1.2-.11.34,0,.07,0,.14.03.22.01.03.03.08.05.1l.04.06.05.06s.03.04.05.05c.03.03.07.07.11.1.15.12.31.19.46.24.15.05.3.09.45.12.29.06.58.08.85.12.12.02.26.05.4.07l.41.08c.55.12,1.1.24,1.64.37l1.64.4c.53.13,1.04.32,1.58.5.26.09.54.2.87.25.16.02.34.03.53,0,.19-.04.37-.12.51-.23.14-.1.26-.22.36-.33.1-.11.19-.22.29-.32l.08-.09c.11.82.13,1.66.07,2.49v.2s-.02.1-.02.1c0,.03,0,.06,0,.12,0,.06,0,.11.01.18,0,.03.01.06.02.1.01.04.03.07.05.11.02.03.04.07.07.1.03.03.06.07.1.09.04.02.08.05.11.07.04.01.08.03.12.04.15.03.28.01.39-.02.07-.02.14-.06.2-.1,0,.13-.01.26-.01.38v.14s0,.03,0,.06c0,.02,0,.05,0,.07,0,.05.02.1.04.15.04.1.11.19.21.27.1.07.24.12.37.11.27,0,.45-.22.48-.26l.1-.11s.06-.08.09-.12c.12-.16.22-.34.31-.51.34-.71.44-1.44.62-2.09.02-.08.05-.16.07-.24l.08-.23.18-.5.35-1c.45-1.3.9-2.59,1.42-3.84-.04.17-.08.34-.11.51-.34,1.58-.66,3.17-.98,4.75l-.95,4.75c-.32,1.58-.66,3.16-.92,4.78v-.06s0,.1-.02.14c0,.05,0,.12,0,.18,0,.04,0,.08.02.11v.06s.03.04.04.07c.02.04.04.08.07.13.03.04.07.08.11.12.17.14.36.17.5.16.14,0,.25-.05.36-.11.2-.11.35-.28.43-.48l.02-.04v-.02s.01-.01.01-.01v-.04s.04-.08.04-.08l.05-.17c.13-.43.24-.86.33-1.29l.4-.89c.14-.31.29-.64.42-.96.13-.32.26-.65.37-.98l.34-.97c.2-.57.42-1.14.64-1.7.01.02.03.05.05.07.06.08.14.14.23.18.18.09.36.08.5.04.14-.04.25-.11.34-.2.05-.04.08-.09.11-.13l.04-.07.03-.05s.04-.07.06-.11c.04-.07.09-.14.15-.22.06-.08.12-.16.19-.24.01.08.02.16.04.24l.17.84c.03.14.05.27.07.4,0,.07.02.13.02.19v.1s.02.08.02.08c0,.03,0,.07.02.1.03.13.08.27.22.43.07.08.19.16.32.19.13.04.25.03.35.01.02,0,.05-.01.07-.02h.03s.06-.03.06-.03l.12-.04c.08-.03.16-.07.23-.1.31-.15.58-.35.82-.56.24-.21.45-.44.63-.62.05-.05.1-.09.14-.13.01.02.03.05.05.07l.04.05c.05.07.11.14.17.21.12.14.27.26.43.36.17.1.32.17.48.23.63.23,1.23.28,1.73.4,1.13.28,2.25.51,3.34.81.27.07.54.15.81.23.13.04.27.08.4.13.12.04.25.09.38.14.26.1.54.21.84.31.3.09.61.18.96.21.17.02.36,0,.55-.02.19-.04.38-.09.57-.19.19-.1.34-.23.47-.35.13-.13.23-.25.32-.36.09-.11.17-.21.25-.29.07-.07.17-.15.27-.23,0,0,.02-.01.03-.02,0,.02,0,.03,0,.05,0,.14.01.3.02.46,0,.15.01.3.01.45,0,.3,0,.59-.03.87,0,.07-.01.14-.02.21v.05s-.02.08-.02.08c-.01.08,0,.19.01.29.02.11.08.23.15.32.08.1.17.17.26.22.14.07.26.09.38.1.03,0,.05.02.08.02.09.02.2.01.3-.01.1-.03.19-.07.26-.13.02-.01.03-.02.04-.04v.68s.01.07.01.07v.07s0,.07.01.1c.02.13.06.24.13.34.07.1.15.2.3.29.07.04.16.08.27.09.1.01.22,0,.32-.03.2-.07.31-.2.38-.29.04-.06.04-.07.06-.09l.02-.04c-.52,2.04-1.06,4.07-1.6,6.11l-.05.19-.03.1v.04s-.02.05-.02.05c0,.03-.01.07-.01.1-.02.27.05.52.22.75.09.11.21.23.41.3.05.02.1.03.16.04.05,0,.11,0,.17,0,.06,0,.1-.02.16-.03.03,0,.05-.02.07-.02l.06-.03s.08-.05.11-.07c.03-.02.06-.05.09-.07l.04-.04.03-.04.06-.07s.03-.04.04-.05l.03-.04.06-.09c.32-.47.58-.97.81-1.48.46-1.01.78-2.04,1.15-3.01.09-.24.19-.48.29-.72l.32-.73.65-1.46.32-.73c.11-.25.21-.47.32-.71.01-.02.02-.04.03-.07l.05.19v.06s.03.08.05.13c.04.11.13.23.24.32.11.08.24.13.37.15.13.01.25,0,.35-.04.05-.02.11-.04.15-.07l.04-.02h.01s.03-.03.03-.03l.11-.07c.12-.09.24-.18.36-.28.02.14.05.27.07.41.04.24.09.48.12.71.02.12.04.23.05.34l.02.17v.09c.01.05.02.11.04.16.03.11.08.23.16.35.09.12.22.22.37.28.15.06.31.06.43.05.03,0,.06-.01.09-.02.03,0,.04-.01.06-.02l.12-.04c.32-.11.59-.32.79-.53.26-.28.45-.56.62-.8.02.03.05.06.07.09l.08.1s.06.07.09.1c.07.07.14.14.21.21.15.13.31.24.47.33.33.18.66.3.97.4.31.1.62.18.93.27,1.25.32,2.5.53,3.73.77l.46.09c.16.03.29.06.44.1.29.07.59.16.89.25.61.18,1.25.36,1.95.41h.27s.27,0,.27,0l.27-.03c.1-.02.2-.04.3-.08.4-.14.71-.41.95-.64.2-.2.38-.41.56-.61.02.25.04.49.05.73.03.57,0,1.2.12,1.86.03.16.07.33.12.49.03.08.05.16.09.24l.03.06v.03s.02.02.03.04c.02.04.04.08.07.12.03.03.06.07.09.1.13.12.27.18.4.21.13.03.26.03.38.02.12-.02.25-.05.37-.12.03-.02.05-.03.08-.05l-.02.32v.13s0,.02,0,.02v.03s0,.06,0,.06c0,.04,0,.09.02.13.02.09.06.19.13.28.07.09.17.17.28.21.22.08.44.04.6-.06.08-.05.15-.11.2-.17.03-.03.05-.07.07-.1l.03-.05.02-.03.24-.47c.63-1.26,1.13-2.57,1.6-3.87.47-1.31.92-2.61,1.41-3.9l.03-.08c-.3,1.21-.67,2.41-1.04,3.62-.76,2.51-1.5,5.03-2.12,7.58-.31,1.28-.6,2.56-.84,3.85l-.05.24c-.02.1-.03.23.06.37.05.06.12.12.19.13.07.02.13.02.19.01.12-.02.22-.06.31-.12.04-.03.09-.07.12-.11.04-.05.05-.08.08-.11.05-.07.09-.14.14-.22.09-.15.16-.3.23-.45.28-.62.45-1.25.69-1.85.23-.62.45-1.23.67-1.85.22-.61.47-1.22.72-1.82.43-1.02.89-2.03,1.32-3.05v.78s-.02.35-.02.35v.09s0,.07,0,.11c.01.08.05.15.11.21.11.11.28.14.42.12.14-.03.26-.12.35-.22.08-.1.14-.22.17-.34.02-.07.03-.11.05-.16.02-.05.04-.1.07-.14.11-.19.26-.36.41-.53.15-.17.32-.35.44-.55.06-.09.12-.18.17-.28,0,.18-.01.35-.01.53,0,.31.03.61.05.92l.09.91c.02.15.03.3.04.45v.11s.01.07.02.12c.01.09.05.18.14.25.08.06.19.07.28.06.09-.01.17-.05.24-.09.07-.05.14-.1.19-.18l.06-.09s.04-.06.07-.08c.19-.22.45-.38.7-.55.13-.08.26-.18.37-.28.12-.1.23-.21.33-.32.19-.2.37-.41.56-.61.27.39.4.88.65,1.32.13.23.31.45.53.6.22.16.47.26.72.35.5.17,1.02.25,1.53.37.25.06.5.14.75.2.25.07.51.13.76.2.51.13,1.02.25,1.53.35.26.05.52.1.77.15.26.05.51.11.76.17.51.12,1.02.23,1.54.29.13.01.26.03.39.03.07,0,.13,0,.2,0,.07,0,.13,0,.21-.02.15-.06.22-.2.27-.33.02-.07.03-.14.01-.22Zm-38.03-11.25h0s0,0,0,0h0Zm-26.25-3.39s0,0,0,0h0s0,0,0,0Zm.48.22h0s0,0,0,0h0Zm18.24,6.07s0,0,0,0c0,0,0,.01,0,0Z"/>
            <path class="cls-7" d="m209.56,113.54c-.56-.04-1.02-.24-1.55-.4-.46-.14-.94-.19-1.41-.27-1.1-.19-2.18-.46-3.25-.75-.84-.24-1.93-.36-2.68-.84-.67-.43-.76-1.31-1.35-1.83-.09-.08-.23.02-.29.07-.49.45-.98.86-1.55,1.2-.17.1-.34.2-.49.31-.08-.61-.2-1.21-.26-1.82-.05-.55-.05-1.09-.31-1.59-.12-.23-.41.07-.47.19-.27.6-.77,1.06-1.22,1.55-.04-.69-.13-1.38-.21-2.07-.04-.35-.46-.11-.49.13-.08.6-.4,1.14-.65,1.68-.2.43-.37.88-.56,1.31-.41.97-.86,1.93-1.3,2.89-.38.84-.71,1.7-1.06,2.55.63-2.84,1.41-5.64,2.25-8.43.53-1.77,1.05-3.52,1.45-5.32.41-1.85.79-3.72,1.26-5.55.09-.36-.36-.34-.5-.1-.6,1.03-.85,2.22-1.29,3.32-.51,1.29-.97,2.6-1.44,3.9-.75,2.08-1.54,4.2-2.51,6.21.07-.82.11-1.64-.06-2.42-.07-.34-.52-.04-.58.15-.17.61-.67,1.22-.94,1.85-.17-.54-.3-1.09-.31-1.67,0-.84.21-1.64.2-2.48,0-.34-.55-.32-.74-.17-.46.38-.81.85-1.19,1.31-.41.5-.87,1.16-1.57,1.19-1.13.05-2.37-.52-3.47-.75-1.48-.31-3-.54-4.45-.97-.36-.11-.72-.22-.99-.49-.2-.2-.34-.46-.5-.69-.31-.45-.59-.99-1.09-1.26-.2-.11-.62-.1-.69.18-.03.12-.07.23-.12.34-.31.36-.54.81-.89,1.11-.1-.36-.21-.72-.31-1.08-.13-.47-.35-1.09-.31-1.62.04-.12.06-.24.07-.35,0,0,0,0,0,0,.04-.35-.36-.46-.5-.07-.19.54-.67,1.04-1.14,1.42-.14-.68-.21-1.45-.55-2.02,0,0,0,0,0,0-.02-.03-.05-.05-.08-.06-.15-.19-.45-.22-.57.12-.31.84-.82,1.62-1.17,2.45-.43,1-.9,1.99-1.34,2.98-.21.47-.4.97-.58,1.47.58-2.27,1.14-4.54,1.66-6.83.41-1.79.84-3.58,1.2-5.38.18-.88.37-1.77.6-2.64.35-.91.71-1.81.96-2.74.12-.45-.38-.77-.6-.28-.43.93-.75,1.89-1.01,2.87-.11.3-.22.59-.33.89-.45,1.29-.86,2.6-1.29,3.91-.68,2.08-1.34,4.19-2.3,6.16,0-.29-.01-.57-.03-.86-.04-.44-.05-1.07-.38-1.42-.19-.2-.37,0-.44.2-.05.13-.11.26-.18.38,0-.29,0-.58-.02-.87-.03-.55-.08-1.52-.66-1.8-.23-.11-.65,0-.7.29-.07.35-.93.65-1.2.89-.33.3-.55.85-1.03.86-.48.01-1.04-.25-1.49-.41-.51-.18-1.01-.33-1.53-.46-1.38-.35-2.76-.71-4.15-1.06-.58-.15-1.23-.19-1.65-.65-.2-.22-.32-.45-.51-.59.08-.25.02-.54-.27-.46-.95.28-1.42,1.25-2.25,1.67-.08-.56-.24-1.1-.35-1.66-.12-.63-.01-1.28-.15-1.91-.04-.21-.27-.24-.41-.1-.37.35-.57.78-.83,1.21-.13.23-.29.44-.44.65.02-.71-.07-1.43-.18-2.11-.05-.32-.44-.17-.52.05-.69,1.83-1.33,3.67-1.97,5.51-.19.55-.42,1.09-.65,1.62.1-.73.19-1.46.3-2.18.28-1.83.63-3.65,1-5.46.37-1.8.73-3.6,1.16-5.38.43-1.8.71-3.63,1.18-5.42.15-.56-.5-.49-.64-.04-.42,1.33-.98,2.6-1.49,3.89-.52,1.31-1.01,2.63-1.53,3.94-.49,1.24-.93,2.51-1.41,3.76-.2.53-.45,1.04-.62,1.59-.09.26-.17.53-.26.8.1-.9.57-1.83.34-2.74-.1-.41-.55-.23-.68.07-.17.39-.35.79-.54,1.18-.07-.34-.14-.68-.14-1.05-.01-.79.14-1.49-.13-2.25-.11-.31-.48-.11-.61.05-.29.38-.59.75-.88,1.12-.3.37-.46.63-.96.56-.86-.12-1.73-.43-2.59-.61-1.15-.23-2.3-.51-3.45-.75-.31-.07-.63-.11-.95-.17-.23-.04-.85-.07-.99-.31-.19-.32-.6.16-.45.41.32.54,1.42.53,1.96.64,1.34.26,2.69.58,4.02.9.54.13,1.05.32,1.58.49.37.12.82.3,1.21.22.38-.07.65-.39.89-.66.22-.25.43-.5.65-.75.25,1.21.29,2.43.19,3.67-.05.6.71.38.78-.08.07-.46.12-.87.35-1.28.06-.1.12-.19.18-.29.03.41-.03.82-.1,1.22-.1.52-.13,1.02-.13,1.55,0,.22.22.35.39.18.83-.85.84-2.13,1.23-3.2.49-1.37.95-2.76,1.45-4.12.5-1.35,1.1-2.68,1.68-4,.18-.41.38-.83.58-1.24-.15.87-.36,1.71-.56,2.57-.43,1.83-.8,3.66-1.17,5.5-.36,1.78-.72,3.55-1.06,5.33-.35,1.85-.77,3.71-1.06,5.58-.15.51.45.44.59.04.18-.52.31-1.05.42-1.59.15-.36.32-.72.47-1.07.34-.74.62-1.48.88-2.25.5-1.47,1.09-2.88,1.66-4.31.09.6.14,1.18.02,1.81-.07.37.3.4.45.11.24-.47.63-.83.9-1.27.14-.22.25-.44.38-.65,0,.4-.04.8,0,1.19.08.72.31,1.4.37,2.13.01.17.11.39.33.32.49-.15.88-.43,1.24-.79.36-.34.68-.76,1.13-.96.12.15.19.38.28.52.14.21.33.39.55.52.57.32,1.36.38,1.99.53,1.52.38,3.09.68,4.58,1.17.81.27,1.98.91,2.84.53.48-.21.71-.71,1.09-1.04.29-.26.62-.45.94-.67.18.41.18.96.2,1.36.03.57.03,1.18-.05,1.75-.04.26.15.37.37.36.09.05.2.04.27-.07.12-.06.22-.16.24-.28.02-.09.03-.18.04-.27.15-.25.32-.48.47-.73.1.33.09.75.1,1.03.03.49.03.98.03,1.47,0,.24.27.48.44.2,1.13-1.83,1.87-3.89,2.55-5.94-.11.48-.22.97-.33,1.45-.86,3.77-1.87,7.5-2.86,11.23-.1.39.29.86.6.42,1.13-1.59,1.57-3.57,2.34-5.34.46-1.04.93-2.06,1.38-3.1.28-.65.63-1.26.93-1.9.07.59.24,1.2.37,1.74.04.18.24.23.38.13.39-.26.86-.64,1.21-1.07,0,.28.02.57.07.86.1.64.24,1.28.31,1.93.03.26.19.44.46.37.78-.19,1.1-1.02,1.61-1.59,0-.1.02-.2.03-.3.2.33.42.65.65.92.44.51,1.08.72,1.7.91,1.61.49,3.3.74,4.94,1.08,1.19.25,2.58.91,3.81.7.53-.09.87-.44,1.22-.82.36-.38.69-.78,1.07-1.13,0,.6.07,1.21.09,1.8.04.86-.04,1.75.32,2.56.14.32.77.27.88-.05.18-.57.37-1.12.59-1.67.01-.02.03-.04.04-.06,0,.91-.06,1.82-.12,2.74-.03.38.39.43.56.12,1.25-2.32,2.05-4.88,2.98-7.34.48-1.26.93-2.53,1.43-3.78.13-.31.24-.64.35-.96-.17.9-.33,1.8-.52,2.69-.41,1.92-1.02,3.77-1.6,5.64-1.11,3.59-2.15,7.21-2.86,10.91-.09.45.41.37.59.12.51-.71.72-1.55,1.03-2.35.38-.98.72-1.99,1.12-2.97.61-1.51,1.34-2.99,1.94-4.5-.02.61-.02,1.22-.04,1.83,0,.23.21.35.41.3.25-.05.39-.31.45-.53.12-.46.6-.84.88-1.21.18-.24.31-.49.44-.74.02.35-.02.7-.01,1.04.02.78.14,1.55.19,2.32.03.45.55.31.72.03.25-.42.77-.63,1.14-.94.37-.31.68-.68,1.01-1.04.43.56.52,1.35,1.05,1.84.64.59,1.84.68,2.65.91,1.11.31,2.23.6,3.36.8,1.04.19,2.15.56,3.22.53.25,0,.48-.59.17-.61Z"/>
          </g>
        </g>
      </g>
    </g>
  </g>
</svg>