<?xml version="1.0" encoding="UTF-8"?>
<svg id="Object" xmlns="http://www.w3.org/2000/svg" viewBox="0 0 200.98 200.98">
  <defs>
    <style>
      .cls-1 {
        fill: #9cc1a5;
        isolation: isolate;
        opacity: .25;
      }

      .cls-2 {
        fill: #d7e8f4;
      }

      .cls-3 {
        fill: #587bc9;
      }

      .cls-4 {
        fill: #7db5db;
      }

      .cls-5 {
        fill: #305399;
      }
    </style>
  </defs>
  <circle class="cls-1" cx="100.49" cy="100.49" r="100.49"/>
  <g>
    <path class="cls-4" d="m109.48,50c-1.75-2.98-4.94-2.61-7.52-1-1,.63-2.25.16-2.69-.82v-11.83h-.17c-22.42.67-41.97,12.77-53.01,30.68l8.6,4.97c.28-1.58.93-2.93,1.89-3.94,1.18-1.23,2.79-1.89,4.66-1.91,1.91-.02,3.79.78,5.17,2.19,1.38,1.4,2.14,3.29,2.09,5.19-.06,2.37-1.3,3.88-2.62,4.92l8.27,4.78c5.41-8.25,14.51-13.85,24.95-14.47h.02s.16.01.16.01v-11.68c.43-.95,1.62-1.43,2.62-.86,1.81,1.03,3.6,1.94,5.62.83,2.46-1.34,3.38-4.65,1.95-7.07Z"/>
    <path class="cls-2" d="m61.23,68.12c-3.46.03-4.73,2.97-4.63,6.01.04,1.18-.99,2.03-2.05,1.92l-10.24-5.91-.08.14h0c-10.64,19.76-9.93,42.75.06,61.26l8.6-4.97c-1.22-1.04-2.08-2.27-2.47-3.61-.48-1.64-.24-3.36.68-4.99.94-1.67,2.57-2.89,4.48-3.38,1.9-.49,3.92-.21,5.54.79,2.02,1.24,2.71,3.07,2.96,4.73l8.27-4.78c-4.44-8.81-4.74-19.49-.06-28.84h.02s.08-.15.08-.15l-10.12-5.84c-.61-.85-.43-2.12.57-2.7,1.8-1.05,3.48-2.15,3.53-4.45.07-2.8-2.34-5.25-5.15-5.23Z"/>
    <path class="cls-3" d="m52.81,118.96c-1.7,3.01.21,5.58,2.89,7.01,1.04.56,1.26,1.87.63,2.73l-10.24,5.91.08.14h.01c11.79,19.1,32.04,29.97,53.07,30.58v-9.93c-1.51.54-3.01.66-4.36.33-1.66-.41-3.03-1.47-3.98-3.08-.97-1.65-1.22-3.67-.69-5.57.53-1.89,1.78-3.5,3.45-4.41,2.08-1.13,4.01-.82,5.57-.19v-9.55c-9.84-.56-19.25-5.64-25.01-14.37v-.02s-.08-.14-.08-.14l-10.12,5.84c-1.04.11-2.05-.69-2.05-1.84-.01-2.09-.12-4.08-2.09-5.29-2.39-1.46-5.72-.6-7.1,1.84Z"/>
    <path class="cls-4" d="m92.62,151.68c1.75,2.98,4.94,2.61,7.52,1,1-.63,2.25-.16,2.69.82v11.83h.17c22.42-.67,41.97-12.77,53.01-30.68l-8.6-4.97c-.28,1.58-.93,2.93-1.89,3.94-1.18,1.23-2.79,1.89-4.66,1.91-1.91.02-3.79-.78-5.17-2.19-1.38-1.4-2.14-3.29-2.09-5.19.06-2.37,1.3-3.88,2.62-4.92l-8.27-4.78c-5.41,8.25-14.51,13.85-24.95,14.47h-.02s-.16-.01-.16-.01v11.68c-.43.95-1.62,1.43-2.62.86-1.81-1.03-3.6-1.94-5.62-.83-2.46,1.34-3.38,4.65-1.95,7.07Z"/>
    <path class="cls-2" d="m140.86,133.55c3.46-.03,4.73-2.97,4.63-6.01-.04-1.18.99-2.03,2.05-1.92l10.24,5.91.08-.14h0c10.64-19.76,9.93-42.75-.06-61.26l-8.6,4.97c1.22,1.04,2.08,2.27,2.47,3.61.48,1.64.24,3.36-.68,4.99-.94,1.67-2.57,2.89-4.48,3.38-1.9.49-3.92.21-5.54-.79-2.02-1.24-2.71-3.07-2.96-4.73l-8.27,4.78c4.44,8.81,4.74,19.49.06,28.84h-.02s-.08.15-.08.15l10.12,5.84c.61.85.43,2.12-.57,2.7-1.8,1.05-3.48,2.15-3.53,4.45-.07,2.8,2.34,5.25,5.15,5.23Z"/>
    <path class="cls-5" d="m149.29,82.72c1.7-3.01-.21-5.58-2.89-7.01-1.04-.56-1.26-1.87-.63-2.73l10.24-5.91-.08-.14h-.01c-11.79-19.1-32.04-29.97-53.07-30.58v9.93c1.51-.54,3.01-.66,4.36-.33,1.66.41,3.03,1.47,3.98,3.08.97,1.65,1.22,3.67.69,5.57-.53,1.89-1.78,3.5-3.45,4.41-2.08,1.13-4.01.82-5.57.19v9.55c9.84.56,19.25,5.64,25.01,14.37v.02s.08.14.08.14l10.12-5.84c1.04-.11,2.05.69,2.05,1.84.01,2.09.12,4.08,2.09,5.29,2.39,1.46,5.72.6,7.1-1.84Z"/>
  </g>
</svg>