<?xml version="1.0" encoding="UTF-8"?>
<svg id="OBJECTS" xmlns="http://www.w3.org/2000/svg" viewBox="0 0 848.49 213.56">
  <defs>
    <style>
      .cls-1 {
        fill: #fff;
      }

      .cls-2 {
        fill: #2cbf7b;
      }

      .cls-3 {
        fill: #72a2ba;
      }

      .cls-4 {
        fill: #033a3f;
      }

      .cls-5 {
        fill: #fd5b68;
      }

      .cls-6 {
        fill: #027369;
      }

      .cls-7 {
        fill: #a5c8e4;
      }
    </style>
  </defs>
  <g>
    <g>
      <path class="cls-2" d="m171.89,127.76c1.27-.45,2.6-.78,3.91-1.04,18.22-3.56,36.63,3.31,49.31,16.56-11.45,13.11-31.75,18.87-48.48,15.17-3.57-.79-7.24-2.11-9.59-4.92-2.73-3.27-3.11-7.85-3.15-12.11-.03-3.24.12-6.67,1.93-9.36,1.42-2.11,3.64-3.43,6.07-4.3Z"/>
      <path class="cls-4" d="m145.25,143.52s.02,0,.03,0c13.06-2.17,26.42-3.28,39.72-3.28,13.3,0,26.66,1.09,39.72,3.25.06,0,.12-.03.13-.09,0-.06-.03-.12-.09-.13-13.07-2.17-26.45-3.26-39.76-3.25-13.31,0-26.69,1.11-39.76,3.29-.06,0-.1.07-.09.13,0,.05.05.08.09.09Z"/>
      <path class="cls-4" d="m217.9,149.71s.09-.01.11-.06c.03-.05,0-.12-.05-.15l-2.17-1.14c-4.45-2.34-8.7-4.96-12.3-7.59-.05-.04-.12-.03-.15.02-.04.05-.03.12.02.15,3.61,2.63,7.87,5.27,12.33,7.61l2.17,1.14s.02,0,.03.01Z"/>
      <path class="cls-4" d="m207.96,155.42c.05,0,.1-.02.12-.07.02-.06,0-.12-.07-.14-1.77-.62-3.62-1.85-5.25-2.93-.37-.25-.73-.48-1.08-.71-5.04-3.26-10.76-7.18-15.02-11.6-.04-.04-.11-.04-.16,0-.04.04-.04.11,0,.16,4.28,4.43,10.02,8.37,15.06,11.63.35.23.7.46,1.08.71,1.64,1.09,3.5,2.32,5.29,2.95,0,0,.01,0,.02,0Z"/>
      <path class="cls-4" d="m194.38,159.23s.09-.02.11-.06c.03-.05,0-.12-.05-.15-6.54-3.22-12.56-7.55-18.39-11.74-2.43-1.75-5.18-3.72-6.58-6.61-.03-.05-.09-.08-.15-.05-.05.03-.08.09-.05.15,1.42,2.94,4.2,4.93,6.65,6.7,5.83,4.19,11.86,8.52,18.42,11.75.01,0,.02,0,.03,0Z"/>
      <path class="cls-4" d="m203.41,140.97s.05,0,.08-.02c3.81-2.48,8.13-4.06,13.21-4.83.06,0,.1-.06.09-.12,0-.06-.06-.1-.12-.09-5.11.78-9.46,2.37-13.3,4.87-.05.03-.07.1-.03.15.02.03.05.04.08.05Z"/>
      <path class="cls-4" d="m186.58,140.19s.1-.02.12-.07c.15-.37,2.95-2.99,6.37-5.95,2.86-2.48,6.57-5.55,7.62-6.04.05-.03.08-.09.05-.15-.03-.05-.09-.08-.15-.05-2.08.99-13.74,11.22-14.1,12.1-.02.06,0,.12.06.14,0,0,.02,0,.03,0Z"/>
      <path class="cls-4" d="m168.48,141.11s.07,0,.09-.03c3.28-3.27,6.28-6.87,8.78-9.97l.06-.08c1.59-1.98,3.24-4.02,5.48-5.19.05-.03.07-.09.05-.15-.03-.05-.09-.07-.15-.05-2.28,1.19-3.94,3.25-5.55,5.25l-.06.08c-2.5,3.09-5.49,6.69-8.76,9.95-.04.04-.04.11,0,.15.02.02.04.03.06.03Z"/>
      <path class="cls-4" d="m145.25,143.52s.02,0,.03,0c13.09-2.18,26.52-3.3,39.91-3.32,13.46-.02,26.89,1.06,39.91,3.22h0c.06,0,.11-.03.12-.09,0-.06-.03-.12-.09-.13-13.04-2.16-26.48-3.24-39.95-3.22-13.4.02-26.84,1.14-39.94,3.32-.06,0-.1.07-.09.13,0,.05.05.08.09.09Z"/>
    </g>
    <g>
      <path class="cls-2" d="m145.47,108.84c.9.37,1.86.61,2.88.71,4.06.39,8.12-1.29,11.28-3.88,5.18-4.24,8.08-10.63,10.18-16.98,7.53-22.76,6.51-47.63-1.52-70.13-2.22,14.91-13.4,26.38-21.95,38.06-7.23,9.87-13.49,21.61-11.93,33.75.83,6.41,4.45,15.77,11.06,18.47Z"/>
      <path class="cls-4" d="m133.61,131.64s.08-.01.1-.04c8.86-12.22,14.79-26.33,20.52-39.98,1.65-3.93,3.36-7.99,4.83-12.08,3.22-8.91,5.61-18.48,7.29-29.26,1.39-8.91,2.3-18.77,2.78-30.14,0-.06-.05-.11-.1-.11-.06,0-.11.04-.11.1-.49,11.37-1.4,21.22-2.78,30.12-1.68,10.77-4.06,20.33-7.28,29.22-1.48,4.08-3.18,8.14-4.83,12.06-5.72,13.64-11.64,27.74-20.49,39.93-.04.05-.02.12.02.15.02.01.04.02.05.02Z"/>
      <path class="cls-4" d="m149.2,104.76s.05,0,.07-.02c7.19-4.77,14-10.22,20.23-16.19.04-.04.05-.11,0-.16-.04-.04-.11-.05-.16,0-6.22,5.96-13.02,11.4-20.2,16.17-.05.03-.06.1-.03.15.02.03.05.05.08.05Z"/>
      <path class="cls-4" d="m157.46,83.55s.06,0,.08-.02c1.56-1.24,13.8-11.62,16.8-14.74.04-.04.04-.11,0-.16-.04-.04-.11-.04-.16,0-2.99,3.12-15.22,13.48-16.78,14.72-.05.04-.06.11-.02.15.02.02.05.04.08.04Z"/>
      <path class="cls-4" d="m164.78,58.14s.07,0,.09-.03c3.49-3.63,7.79-9.18,9.41-13.91.02-.06-.01-.12-.07-.14-.06-.02-.12.01-.14.07-1.61,4.69-5.89,10.22-9.36,13.83-.04.04-.04.11,0,.15.02.02.04.03.07.03Z"/>
      <path class="cls-4" d="m164.73,58.18s.04,0,.05,0c.06-.02.08-.09.06-.14l-3.03-7.31c-1.46-3.51-2.6-7.46-3.06-10.57,0-.06-.06-.1-.12-.09-.06,0-.1.06-.09.12.46,3.12,1.61,7.09,3.07,10.62l3.03,7.31s.05.06.09.07Z"/>
      <path class="cls-4" d="m157.46,83.55s.06,0,.08-.03c.04-.04.05-.11,0-.15-3.79-4.1-5.21-9.31-6.72-14.83-.21-.76-.42-1.55-.64-2.32-.47-1.67-.93-3.6-1.38-5.47-.45-1.87-.91-3.81-1.38-5.48-.02-.06-.08-.09-.14-.08-.06.02-.09.08-.08.14.47,1.67.93,3.6,1.38,5.47.45,1.87.91,3.81,1.38,5.48.22.77.43,1.56.64,2.32,1.45,5.3,2.95,10.78,6.77,14.92.02.02.04.03.07.03Z"/>
      <path class="cls-4" d="m149.55,104.06s.05,0,.07-.02c.05-.03.07-.1.04-.15-5.48-8.94-9.9-18.54-13.13-28.52-.02-.06-.08-.09-.14-.07-.06.02-.09.08-.07.14,3.23,10,7.66,19.61,13.15,28.57.02.03.05.05.08.05Z"/>
      <path class="cls-4" d="m133.61,131.64s.08-.01.1-.04c8.86-12.22,14.79-26.33,20.52-39.98,1.65-3.93,3.36-7.99,4.83-12.08,3.22-8.91,5.61-18.48,7.29-29.26,1.39-8.91,2.3-18.77,2.78-30.14,0-.06-.05-.11-.1-.11-.06,0-.11.04-.11.1-.49,11.37-1.4,21.22-2.78,30.12-1.68,10.77-4.06,20.33-7.28,29.22-1.48,4.08-3.18,8.14-4.83,12.06-5.72,13.64-11.64,27.74-20.49,39.93-.04.05-.02.12.02.15.02.01.04.02.05.02Z"/>
    </g>
    <g>
      <path class="cls-6" d="m140.8,148.01c-1.36-20.4,11.13-39.86,27.8-51.7,16.66-11.84,36.99-17.26,57.07-21.11-9.76,4.06-18.51,10.54-25.23,18.7-9.23,11.2-14.48,25.16-22.92,36.98-8.44,11.81-22.15,21.91-36.44,19.3l-.29-2.16Z"/>
      <path class="cls-4" d="m127.09,173.31c.09,0,.18-.02.26-.03.81-1.56,1.69-3.22,2.65-4.98.33-.61.68-1.24,1.03-1.87.52-.94,1.06-1.91,1.61-2.89.75-1.32,1.53-2.69,2.34-4.08.83-1.42,1.67-2.83,2.51-4.23.11-.18.22-.37.33-.55.06-.11.13-.21.19-.32h0c.21-.34.41-.68.62-1.02.39-.63.78-1.26,1.17-1.89,0,0,0,0,0,0,.4-.63.79-1.27,1.19-1.89.03-.04.05-.08.08-.12,2.89-4.56,5.84-8.95,8.84-13.14.16-.22.32-.45.48-.67.32-.44.63-.88.95-1.31.48-.66.96-1.31,1.44-1.95.51-.69,1.03-1.37,1.54-2.05,4.04-5.32,8.14-10.27,12.27-14.8,1.31-1.44,2.63-2.84,3.94-4.2.69-.71,1.38-1.41,2.08-2.1.02-.02.05-.05.07-.07.08-.09.17-.17.26-.25,2.6-2.57,5.2-5.02,7.79-7.34.08-.08.17-.15.25-.23,4.43-3.95,8.85-7.52,13.2-10.68.15-.11.31-.22.46-.33.81-.58,1.61-1.14,2.41-1.7h0s.05-.03.07-.05c.1-.07.2-.14.3-.2,4.74-3.23,9.39-5.96,13.85-8.12,7.67-3.71,12.62-4.68,14-4.9.26-.04.39-.05.4-.05.06,0,.1-.06.1-.12,0-.06-.06-.1-.12-.1-.03,0-1.52.16-4.27.96-2.45.71-5.9,1.93-10.19,4.01-4.5,2.17-9.18,4.92-13.94,8.17-.1.07-.21.14-.31.21-.8.55-1.61,1.12-2.42,1.7-.15.11-.31.22-.46.33-4.38,3.17-8.82,6.77-13.29,10.75-.05.04-.09.08-.14.12-.04.04-.09.08-.13.12t0,0c-2.57,2.3-5.15,4.73-7.73,7.28-.09.09-.18.17-.26.26-.08.08-.17.17-.26.25-.69.69-1.38,1.39-2.07,2.1-1.22,1.27-2.45,2.57-3.67,3.91-1,1.09-1.99,2.21-2.98,3.35-.06.07-.12.14-.19.21-3.14,3.61-6.25,7.46-9.33,11.52-.51.68-1.03,1.36-1.54,2.05-.44.59-.88,1.19-1.32,1.79-.17.23-.33.46-.5.68-.16.22-.31.43-.47.65-3.13,4.36-6.23,8.94-9.25,13.7-.05.08-.1.16-.16.24-.42.67-.85,1.34-1.27,2.02,0,0,0,0,0,0-.39.63-.78,1.25-1.17,1.89-.23.38-.46.75-.69,1.13h0c-.06.11-.13.21-.19.32h0c-.08.13-.15.26-.23.38-.83,1.37-1.65,2.75-2.46,4.14-.84,1.44-1.65,2.84-2.42,4.21-.56.99-1.1,1.95-1.61,2.89-.35.63-.69,1.26-1.02,1.87-.95,1.76-1.84,3.42-2.65,4.98Z"/>
      <path class="cls-4" d="m147.74,140.16s0,0,.01,0c9.8-2.28,19.53-5.24,28.95-8.79.06-.02.09-.08.06-.14-.02-.06-.08-.09-.14-.06-9.4,3.55-19.13,6.5-28.92,8.78-.06.01-.1.07-.08.13.01.05.06.09.12.08Z"/>
      <path class="cls-4" d="m166.13,120.08c7.5-.77,15.54-3.26,22.03-6.85.05-.03.07-.1.04-.15-.03-.05-.1-.07-.15-.04-7.28,4.03-16.52,6.66-24.73,7.03-.06,0-.11.05-.1.11,0,.06.05.11.11.1.92-.04,1.86-.11,2.8-.21Z"/>
      <path class="cls-4" d="m186.64,101.19c3.82-.39,7.11-1.07,9.97-2.04.06-.02.09-.08.07-.14-.02-.06-.08-.09-.14-.07-4.24,1.44-9.44,2.23-15.92,2.41-.06,0-.11.05-.11.11,0,.06.05.11.11.11,2.14-.06,4.14-.18,6.01-.38Z"/>
      <path class="cls-4" d="m204.91,89.03s.09-.04.1-.09c.01-.06-.03-.12-.09-.13-1.88-.36-5.8-.62-7.87-.41,0,0-.02,0-.03,0-.06,0-.1.06-.1.12,0,.06.06.1.12.1h0c2.05-.22,5.96.04,7.83.4.01,0,.02,0,.03,0Z"/>
      <path class="cls-4" d="m197.04,88.63s.08-.03.09-.07c.41-1.15.92-2.47,1.41-3.76.49-1.29,1-2.61,1.41-3.76.02-.06,0-.12-.07-.14-.06-.02-.12,0-.14.07-.41,1.15-.92,2.48-1.41,3.76-.49,1.28-1,2.61-1.41,3.76-.02.06,0,.12.07.14.02,0,.03,0,.05,0Z"/>
      <path class="cls-4" d="m180.63,101.56s.09-.04.1-.09c.68-3.49,2.11-8.3,4.25-14.31.02-.06,0-.12-.07-.14-.06-.02-.12,0-.14.07-2.14,6.01-3.58,10.84-4.26,14.34-.01.06.03.12.09.13.01,0,.02,0,.03,0Z"/>
      <path class="cls-4" d="m163.43,118.85s.09-.04.1-.09c.51-3.38,1.22-6.78,2.11-10.08.39-1.46.83-2.94,1.25-4.37.7-2.38,1.43-4.85,1.97-7.32.01-.06-.02-.12-.08-.13-.06-.01-.12.02-.13.08-.54,2.46-1.27,4.92-1.97,7.3-.42,1.43-.86,2.91-1.25,4.37-.89,3.31-1.6,6.72-2.11,10.11,0,.06.03.12.09.12,0,0,.02,0,.03,0Z"/>
      <path class="cls-4" d="m148.24,138.2h0c.06,0,.1-.06.1-.12l-1.18-10.6c-.19-1.71-.41-3.65.12-5.41.02-.06-.02-.12-.07-.14-.06-.02-.12.02-.14.07-.54,1.8-.32,3.77-.13,5.5l1.18,10.6c0,.06.06.1.12.1Z"/>
      <path class="cls-4" d="m127.09,173.31c.09,0,.18-.02.26-.03.81-1.56,1.69-3.22,2.65-4.98.33-.61.68-1.24,1.03-1.87.52-.94,1.06-1.91,1.61-2.89.75-1.32,1.53-2.69,2.34-4.08.83-1.42,1.67-2.83,2.51-4.23.11-.18.22-.37.33-.55.06-.11.13-.21.19-.32h0c.21-.34.41-.68.62-1.02.39-.63.78-1.26,1.17-1.89,0,0,0,0,0,0,.4-.63.79-1.27,1.19-1.89.03-.04.05-.08.08-.12,2.89-4.56,5.84-8.95,8.84-13.14.16-.22.32-.45.48-.67.32-.44.63-.88.95-1.31.48-.66.96-1.31,1.44-1.95.51-.69,1.03-1.37,1.54-2.05,4.04-5.32,8.14-10.27,12.27-14.8,1.31-1.44,2.63-2.84,3.94-4.2.69-.71,1.38-1.41,2.08-2.1.02-.02.05-.05.07-.07.08-.09.17-.17.26-.25,2.6-2.57,5.2-5.02,7.79-7.34.08-.08.17-.15.25-.23,4.43-3.95,8.85-7.52,13.2-10.68.15-.11.31-.22.46-.33.81-.58,1.61-1.14,2.41-1.7h0s.05-.03.07-.05c.1-.07.2-.14.3-.2,4.74-3.23,9.39-5.96,13.85-8.12,7.67-3.71,12.62-4.68,14-4.9.26-.04.39-.05.4-.05.06,0,.1-.06.1-.12,0-.06-.06-.1-.12-.1-.03,0-1.52.16-4.27.96-2.45.71-5.9,1.93-10.19,4.01-4.5,2.17-9.18,4.92-13.94,8.17-.1.07-.21.14-.31.21-.8.55-1.61,1.12-2.42,1.7-.15.11-.31.22-.46.33-4.38,3.17-8.82,6.77-13.29,10.75-.05.04-.09.08-.14.12-.04.04-.09.08-.13.12t0,0c-2.57,2.3-5.15,4.73-7.73,7.28-.09.09-.18.17-.26.26-.08.08-.17.17-.26.25-.69.69-1.38,1.39-2.07,2.1-1.22,1.27-2.45,2.57-3.67,3.91-1,1.09-1.99,2.21-2.98,3.35-.06.07-.12.14-.19.21-3.14,3.61-6.25,7.46-9.33,11.52-.51.68-1.03,1.36-1.54,2.05-.44.59-.88,1.19-1.32,1.79-.17.23-.33.46-.5.68-.16.22-.31.43-.47.65-3.13,4.36-6.23,8.94-9.25,13.7-.05.08-.1.16-.16.24-.42.67-.85,1.34-1.27,2.02,0,0,0,0,0,0-.39.63-.78,1.25-1.17,1.89-.23.38-.46.75-.69,1.13h0c-.06.11-.13.21-.19.32h0c-.08.13-.15.26-.23.38-.83,1.37-1.65,2.75-2.46,4.14-.84,1.44-1.65,2.84-2.42,4.21-.56.99-1.1,1.95-1.61,2.89-.35.63-.69,1.26-1.02,1.87-.95,1.76-1.84,3.42-2.65,4.98Z"/>
    </g>
  </g>
  <g>
    <path class="cls-7" d="m98.38,3.58c-.14.42.08.87.49,1.02l.85.31c.24.09.37.35.28.6l-.09.25c-.12.33.05.69.38.8l1.41.5c1.78.64,3.74-.31,4.38-2.11.64-1.8-.29-3.78-2.07-4.42l-1.41-.5c-.32-.12-.68.06-.79.38l-.09.25c-.09.25-.35.37-.59.29l-.85-.31c-.42-.15-.88.07-1.03.5v.02s-.86,2.4-.86,2.4c0,0,0,0,0,.01Z"/>
    <path class="cls-7" d="m122.86,10.96c-.64,1.8.29,3.78,2.07,4.42l1.41.5c.32.12.68-.06.8-.38l.09-.25c.09-.24.35-.37.59-.29l.85.3c.41.15.87-.07,1.02-.48,0,0,0,0,0-.01l.85-2.4v-.02c.15-.42-.06-.89-.48-1.04l-.85-.3c-.24-.09-.37-.36-.28-.6l.09-.25c.12-.33-.05-.69-.38-.8l-1.41-.5c-1.78-.64-3.74.31-4.37,2.11Z"/>
    <path class="cls-3" d="m66.68,43.23c.43-.03.87.02,1.29.17.42.15.79.38,1.1.68,3.06-8.41,10.93-28.54,19.1-37.56,2.61-2.88,6.56-4,10.21-2.94,0,0,0,0,0-.01l.85-2.4c-4.61-1.4-9.63-.01-12.92,3.63-8.59,9.48-16.54,29.89-19.63,38.43Z"/>
    <path class="cls-3" d="m129.69,14.77s0,0,0,.01c3.5,1.5,5.86,4.87,6.07,8.76.68,12.18-5.85,32.79-8.75,41.26.42-.03.86.02,1.28.18.43.15.8.39,1.11.69,2.96-8.59,9.6-29.47,8.89-42.28-.28-4.92-3.29-9.18-7.75-11.02l-.85,2.4Z"/>
    <path class="cls-3" d="m130.38,172.52c-15.18,1.23-30.62,6.5-45.74,11.67-26.19,8.95-50.97,17.43-71.01,3.52-1.08-.75-2.08-1.59-2.99-2.54-6.99-7.27-9.58-15.47-7.3-23.28,2.89-9.91,13.15-17.65,26.77-20.2,1.19-.22,2.37-.44,3.62-.66,8.66-1.57,18.48-3.35,26.82-7.62,8.94-4.57,14.97-11.36,18.38-20.7-.23.03-.46.03-.7,0-.24-.03-.48-.08-.72-.17-.38-.14-.72-.34-1.01-.59-7.42,20.07-26.4,23.5-43.21,26.55-1.2.22-2.44.44-3.63.67-14.57,2.73-25.58,11.16-28.75,22-2.71,9.28.62,18.96,9.39,27.25.03.03.06.06.1.08,5.17,3.97,10.74,6.58,17.02,7.97,5.59,1.24,11.64,1.47,18.47.72,12.61-1.38,25.69-5.86,39.55-10.59,14.93-5.1,30.18-10.32,45.07-11.53"/>
    <path class="cls-7" d="m62.01,50.79c-3.17,8.96-2.7,18.63,1.32,27.2,3.57,7.61,9.54,13.56,17.02,17.01l-4.75,13.45c-.45,1.28-.05,2.66.91,3.5.29.25.63.45,1.01.59.24.09.48.14.72.17.23.03.47.02.7,0,1.16-.14,2.21-.92,2.63-2.11l4.75-13.45c1.66.43,3.34.74,5.03.92,6.4.69,12.88-.42,18.85-3.3,8.5-4.1,14.92-11.29,18.09-20.26l1.92-5.44c.44-1.23.08-2.55-.8-3.4-.31-.3-.68-.53-1.11-.69-.42-.15-.86-.21-1.28-.18-1.22.09-2.33.89-2.77,2.13l-1.92,5.44c-2.6,7.35-7.87,13.25-14.84,16.61-6.97,3.36-14.81,3.78-22.06,1.19-14.98-5.36-22.81-22.07-17.45-37.25l1.92-5.44c.44-1.24.08-2.57-.81-3.41-.31-.29-.68-.53-1.1-.68-.43-.15-.87-.21-1.29-.17-1.21.09-2.32.89-2.75,2.13l-1.92,5.44Z"/>
  </g>
  <g>
    <path class="cls-3" d="m201.49,134.2s-2.53,52.96-74.38,79.36l-7.26-3.41,1.64-3.2h0s55.42-100.51,55.42-100.51c6.86,2.61,13.78,5.97,20.27,10.3,0,0-4.56,10.12,4.3,17.46Z"/>
    <path class="cls-7" d="m119.83,94.08s39.67-1.04,70.1,19.26c0,0-4.55,10.12,4.3,17.46,0,0-2.53,52.96-74.38,79.36,0,0-42-40.65-17.96-106.18,0,0,12.88,3.01,17.94-9.9Z"/>
    <polygon class="cls-1" points="168.16 146.87 149.53 141.59 154.82 122.96 139.14 118.51 133.85 137.14 115.22 131.86 110.78 147.54 129.4 152.82 124.12 171.45 139.8 175.9 145.09 157.27 163.71 162.55 168.16 146.87"/>
  </g>
  <g>
    <g>
      <g>
        <path class="cls-2" d="m728.71,123.89c-1.32.28-2.63.69-3.88,1.15-17.4,6.47-29.53,21.93-33.43,39.85,16.6,5.21,36.93-.46,49.28-12.35,2.64-2.54,5.08-5.58,5.62-9.2.62-4.21-1.44-8.32-3.63-11.98-1.66-2.78-3.59-5.63-6.53-6.98-2.31-1.06-4.9-1.03-7.42-.5Z"/>
        <path class="cls-4" d="m759.66,123.43s-.02.01-.03.02c-12.28,4.96-24.25,10.99-35.6,17.92-11.35,6.93-22.18,14.84-32.19,23.49-.05.04-.12.03-.15-.01-.04-.05-.03-.12.01-.15,10.02-8.67,20.87-16.58,32.22-23.52,11.36-6.94,23.35-12.97,35.63-17.93.06-.02.12,0,.14.06.02.05,0,.1-.03.12Z"/>
        <path class="cls-4" d="m700.91,166.6s-.09.04-.13.01c-.05-.03-.07-.1-.04-.15l1.26-2.1c2.57-4.31,4.83-8.77,6.53-12.89.02-.06.09-.08.14-.06.06.02.08.09.06.14-1.7,4.13-3.97,8.6-6.55,12.92l-1.26,2.1s-.01.02-.02.03Z"/>
        <path class="cls-4" d="m712.37,166.29s-.1.03-.14,0c-.05-.04-.05-.11-.02-.15,1.19-1.46,2.12-3.46,2.95-5.24.19-.41.37-.79.55-1.17,2.6-5.41,5.43-11.74,6.77-17.73.01-.06.07-.1.13-.08.06.01.1.07.08.13-1.34,6.01-4.18,12.36-6.79,17.78-.18.38-.36.76-.55,1.17-.83,1.78-1.77,3.8-2.98,5.28,0,0,0,.01-.01.01Z"/>
        <path class="cls-4" d="m725.94,162.46s-.09.04-.13,0c-.05-.03-.07-.1-.03-.15,3.9-6.16,6.78-13,9.56-19.6,1.16-2.76,2.48-5.88,2.16-9.07,0-.06.04-.11.1-.12.06,0,.11.04.12.1.32,3.25-1.01,6.4-2.18,9.18-2.79,6.61-5.67,13.45-9.58,19.63,0,0-.01.02-.02.03Z"/>
        <path class="cls-4" d="m708.71,151.59s-.05.03-.07.03c-4.54-.13-9.05.77-13.79,2.77-.06.02-.12,0-.14-.06-.02-.06,0-.12.06-.14,4.77-2.01,9.31-2.92,13.88-2.78.06,0,.11.05.11.11,0,.03-.02.06-.04.08Z"/>
        <path class="cls-4" d="m722.66,142.15s-.09.04-.14,0c-.33-.24-4.08-1.01-8.54-1.75-3.73-.62-8.5-1.3-9.65-1.18-.06,0-.11-.04-.12-.1,0-.06.04-.11.1-.12,2.29-.24,17.57,2.41,18.35,2.97.05.04.06.1.02.15,0,0-.01.01-.02.02Z"/>
        <path class="cls-4" d="m738.58,133.49s-.06.03-.1.02c-4.5-1.08-8.94-2.59-12.69-3.93l-.09-.03c-2.39-.85-4.86-1.74-7.39-1.57-.06,0-.11-.04-.12-.1,0-.06.04-.11.1-.12,2.57-.17,5.06.72,7.47,1.58l.09.03c3.74,1.34,8.17,2.85,12.67,3.92.06.01.1.07.08.13,0,.02-.02.04-.04.06Z"/>
        <path class="cls-4" d="m759.66,123.43s-.02.01-.03.02c-12.31,4.97-24.35,11.02-35.78,17.99-11.49,7-22.39,14.93-32.37,23.56h0s-.11.03-.15-.01c-.04-.05-.03-.12.01-.15,10-8.64,20.9-16.58,32.4-23.58,11.44-6.97,23.49-13.03,35.81-18,.06-.02.12,0,.14.06.02.05,0,.1-.03.12Z"/>
      </g>
      <g>
        <path class="cls-2" d="m721.19,107.19c-.35.91-.84,1.78-1.46,2.58-2.51,3.21-6.53,5-10.57,5.51-6.64.84-13.27-1.45-19.33-4.3-21.7-10.2-39.05-28.05-49.85-49.35,12.35,8.65,28.36,8.43,42.72,10.25,12.13,1.54,24.97,5.08,32.7,14.56,4.08,5.01,8.38,14.07,5.8,20.73Z"/>
        <path class="cls-4" d="m745.89,114.27s-.06.05-.1.04c-14.96-1.97-29.28-7.38-43.13-12.61-3.99-1.51-8.11-3.06-12.09-4.8-8.68-3.79-17.27-8.64-26.25-14.84-7.42-5.12-15.2-11.24-23.79-18.72-.05-.04-.05-.11-.01-.15.04-.05.11-.05.15-.01,8.58,7.47,16.36,13.58,23.77,18.7,8.97,6.19,17.55,11.04,26.21,14.82,3.97,1.73,8.09,3.29,12.08,4.8,13.83,5.23,28.14,10.63,43.08,12.6.06,0,.1.06.09.12,0,.02-.01.04-.02.05Z"/>
        <path class="cls-4" d="m715.66,107.09s-.04.03-.06.04c-8.41,1.94-17.04,3.13-25.67,3.54-.06,0-.11-.04-.11-.1,0-.06.04-.11.1-.11,8.61-.41,17.23-1.6,25.63-3.53.06-.01.12.02.13.08,0,.03,0,.07-.02.09Z"/>
        <path class="cls-4" d="m694.59,98.5s-.04.04-.07.04c-1.97.28-17.93,2.03-22.25,2.05-.06,0-.11-.05-.11-.11,0-.06.05-.11.11-.11,4.32-.03,20.25-1.77,22.22-2.05.06,0,.12.03.12.09,0,.03,0,.06-.02.08Z"/>
        <path class="cls-4" d="m671.11,86.33s-.05.04-.09.04c-5.03.04-12.02-.66-16.57-2.74-.06-.03-.08-.09-.05-.15.03-.06.09-.08.15-.05,4.51,2.06,11.47,2.76,16.48,2.72.06,0,.11.05.11.11,0,.03,0,.05-.02.07Z"/>
        <path class="cls-4" d="m671.17,86.32s-.02.02-.04.03c-.06.02-.12,0-.14-.06l-3.22-7.23c-1.55-3.47-3.63-7.02-5.57-9.49-.04-.05-.03-.12.02-.15.05-.04.12-.03.15.02,1.95,2.48,4.04,6.05,5.59,9.53l3.22,7.23s.01.08-.01.11Z"/>
        <path class="cls-4" d="m694.59,98.5s-.05.04-.08.04c-.06,0-.11-.04-.12-.1-.37-5.57-3.17-10.19-6.14-15.08-.41-.67-.83-1.37-1.24-2.06-.89-1.49-1.97-3.15-3.02-4.76-1.05-1.61-2.14-3.28-3.03-4.77-.03-.05-.01-.12.04-.15.05-.03.12-.01.15.04.89,1.49,1.97,3.16,3.02,4.76,1.05,1.61,2.14,3.28,3.03,4.77.41.69.83,1.39,1.24,2.06,2.85,4.7,5.79,9.55,6.17,15.18,0,.03,0,.05-.02.07Z"/>
        <path class="cls-4" d="m714.91,106.86s-.03.03-.06.04c-.06.02-.12-.02-.13-.08-2.72-10.13-6.65-19.94-11.67-29.15-.03-.05,0-.12.04-.15.05-.03.12,0,.15.04,5.03,9.23,8.96,19.05,11.69,29.2,0,.03,0,.07-.02.1Z"/>
        <path class="cls-4" d="m745.89,114.27s-.06.05-.1.04c-14.96-1.97-29.28-7.38-43.13-12.61-3.99-1.51-8.11-3.06-12.09-4.8-8.68-3.79-17.27-8.64-26.25-14.84-7.42-5.12-15.2-11.24-23.79-18.72-.05-.04-.05-.11-.01-.15.04-.05.11-.05.15-.01,8.58,7.47,16.36,13.58,23.77,18.7,8.97,6.19,17.55,11.04,26.21,14.82,3.97,1.73,8.09,3.29,12.08,4.8,13.83,5.23,28.14,10.63,43.08,12.6.06,0,.1.06.09.12,0,.02-.01.04-.02.05Z"/>
      </g>
      <g>
        <path class="cls-6" d="m747.93,122.96c-13.75-15.13-36.42-19.64-56.51-15.87-20.09,3.78-38.1,14.65-54.81,26.44,9.7-4.21,20.43-6.01,30.97-5.19,14.47,1.13,28.16,7.04,42.53,9.16,14.36,2.12,31.15-.75,39.18-12.84l-1.36-1.71Z"/>
        <path class="cls-4" d="m775.66,130.65c-.07.06-.14.11-.21.17-1.68-.5-3.49-1.01-5.42-1.55-.67-.19-1.36-.37-2.06-.56-1.04-.28-2.11-.56-3.2-.84-1.47-.38-3-.76-4.56-1.14-1.6-.39-3.2-.76-4.79-1.13-.21-.05-.42-.09-.63-.14-.12-.03-.24-.05-.36-.08h0c-.39-.09-.78-.17-1.16-.26-.72-.16-1.45-.32-2.17-.47,0,0,0,0,0,0-.73-.16-1.46-.31-2.19-.46-.05-.01-.1-.02-.14-.03-5.29-1.08-10.5-2-15.59-2.75-.27-.04-.55-.08-.82-.12-.53-.08-1.07-.15-1.6-.23-.8-.11-1.6-.22-2.4-.32-.85-.11-1.7-.21-2.55-.31-6.63-.78-13.04-1.26-19.17-1.44-1.95-.06-3.87-.08-5.76-.08-.99,0-1.98.01-2.96.03-.03,0-.07,0-.1,0-.12,0-.24,0-.36,0-3.65.09-7.22.26-10.69.52-.11,0-.23.02-.34.03-5.92.45-11.56,1.15-16.85,2.09-.19.03-.37.07-.56.1-.98.18-1.94.37-2.9.56h0s-.05.01-.08.02c-.12.02-.24.05-.35.07-5.61,1.17-10.8,2.62-15.46,4.34-7.99,2.95-12.12,5.83-13.24,6.68-.21.16-.31.25-.32.25-.05.04-.12.03-.15-.01-.04-.05-.03-.12.01-.15.02-.02,1.17-.99,3.65-2.41,2.21-1.27,5.48-2.9,9.96-4.56,4.69-1.73,9.91-3.19,15.56-4.37.12-.03.24-.05.37-.08.96-.2,1.92-.38,2.9-.56.18-.03.37-.07.56-.1,5.32-.95,11-1.65,16.96-2.11.06,0,.12,0,.18-.01.06,0,.12,0,.17-.01t0,0c3.44-.25,6.98-.42,10.6-.51.12,0,.25,0,.37,0,.12,0,.24,0,.36,0,.98-.02,1.96-.03,2.95-.03,1.76,0,3.55.02,5.36.07,1.48.04,2.97.1,4.48.18.09,0,.19,0,.28.02,4.78.25,9.71.68,14.77,1.28.85.1,1.69.21,2.55.32.73.1,1.47.19,2.21.3.28.04.56.08.84.12.26.04.53.07.79.11,5.31.77,10.76,1.72,16.28,2.85.09.02.19.04.28.06.78.16,1.55.32,2.33.49,0,0,0,0,0,0,.72.15,1.44.31,2.17.47.43.09.86.19,1.3.29h0c.12.03.24.05.36.08h0c.15.03.29.07.44.1,1.56.36,3.12.72,4.69,1.1,1.62.39,3.19.79,4.71,1.18,1.1.28,2.17.57,3.2.85.7.19,1.39.38,2.06.56,1.93.53,3.74,1.05,5.42,1.55Z"/>
        <path class="cls-4" d="m737.47,122.51s0,0-.01,0c-8.44,5.47-17.33,10.43-26.41,14.74-.05.03-.12,0-.15-.05-.03-.05,0-.12.05-.15,9.08-4.31,17.96-9.26,26.39-14.73.05-.03.12-.02.15.03.03.05.02.11-.02.14Z"/>
        <path class="cls-4" d="m710.24,121.82c-5.76,4.86-13.13,8.93-20.22,11.11-.06.02-.12-.01-.14-.07-.02-.06.01-.12.07-.14,7.95-2.44,16.26-7.27,22.23-12.93.05-.04.11-.04.15,0,.04.04.04.11,0,.15-.67.63-1.37,1.26-2.09,1.87Z"/>
        <path class="cls-4" d="m682.41,123.47c-2.94,2.48-5.71,4.38-8.39,5.76-.05.03-.12,0-.15-.05-.03-.05,0-.12.05-.15,3.98-2.05,8.16-5.25,12.78-9.79.04-.04.11-.04.16,0,.04.04.04.11,0,.16-1.53,1.5-3,2.85-4.44,4.07Z"/>
        <path class="cls-4" d="m660.97,128.19s-.09.04-.13,0c-.05-.03-.07-.1-.03-.15,1.04-1.6,3.58-4.6,5.17-5.95,0,0,.01-.01.02-.02.05-.04.12-.03.15.01.04.05.03.12-.01.15h0c-1.58,1.33-4.11,4.32-5.15,5.92,0,0-.01.02-.02.02Z"/>
        <path class="cls-4" d="m666.14,122.25s-.08.03-.12.02c-1.11-.5-2.42-1.06-3.68-1.6-1.27-.54-2.58-1.09-3.69-1.6-.06-.02-.08-.09-.05-.15.02-.05.09-.08.15-.05,1.11.5,2.42,1.06,3.68,1.6,1.27.54,2.58,1.09,3.69,1.6.06.02.08.09.05.15,0,.02-.02.03-.03.04Z"/>
        <path class="cls-4" d="m686.84,119.41s-.09.04-.13,0c-2.99-1.93-7.45-4.24-13.25-6.87-.06-.02-.08-.09-.05-.15.02-.05.09-.08.15-.05,5.82,2.63,10.29,4.95,13.28,6.89.05.03.07.1.03.15,0,0-.01.02-.02.02Z"/>
        <path class="cls-4" d="m711.23,119.02s-.09.04-.13,0c-2.79-1.98-5.73-3.83-8.72-5.48-1.32-.73-2.69-1.44-4.01-2.13-2.2-1.15-4.48-2.34-6.64-3.66-.05-.03-.07-.1-.04-.15.03-.05.1-.07.15-.04,2.15,1.32,4.43,2.5,6.63,3.65,1.32.69,2.69,1.4,4.01,2.14,3,1.66,5.94,3.51,8.74,5.5.05.04.06.1.03.15,0,0-.01.01-.02.02Z"/>
        <path class="cls-4" d="m735.7,121.52h0s-.12.03-.15-.01l-6.81-8.21c-1.1-1.33-2.35-2.83-3.98-3.67-.05-.03-.07-.09-.05-.15.03-.05.09-.07.15-.05,1.67.86,2.94,2.38,4.05,3.72l6.81,8.21s.03.11-.01.15Z"/>
        <path class="cls-4" d="m775.66,130.65c-.07.06-.14.11-.21.17-1.68-.5-3.49-1.01-5.42-1.55-.67-.19-1.36-.37-2.06-.56-1.04-.28-2.11-.56-3.2-.84-1.47-.38-3-.76-4.56-1.14-1.6-.39-3.2-.76-4.79-1.13-.21-.05-.42-.09-.63-.14-.12-.03-.24-.05-.36-.08h0c-.39-.09-.78-.17-1.16-.26-.72-.16-1.45-.32-2.17-.47,0,0,0,0,0,0-.73-.16-1.46-.31-2.19-.46-.05-.01-.1-.02-.14-.03-5.29-1.08-10.5-2-15.59-2.75-.27-.04-.55-.08-.82-.12-.53-.08-1.07-.15-1.6-.23-.8-.11-1.6-.22-2.4-.32-.85-.11-1.7-.21-2.55-.31-6.63-.78-13.04-1.26-19.17-1.44-1.95-.06-3.87-.08-5.76-.08-.99,0-1.98.01-2.96.03-.03,0-.07,0-.1,0-.12,0-.24,0-.36,0-3.65.09-7.22.26-10.69.52-.11,0-.23.02-.34.03-5.92.45-11.56,1.15-16.85,2.09-.19.03-.37.07-.56.1-.98.18-1.94.37-2.9.56h0s-.05.01-.08.02c-.12.02-.24.05-.35.07-5.61,1.17-10.8,2.62-15.46,4.34-7.99,2.95-12.12,5.83-13.24,6.68-.21.16-.31.25-.32.25-.05.04-.12.03-.15-.01-.04-.05-.03-.12.01-.15.02-.02,1.17-.99,3.65-2.41,2.21-1.27,5.48-2.9,9.96-4.56,4.69-1.73,9.91-3.19,15.56-4.37.12-.03.24-.05.37-.08.96-.2,1.92-.38,2.9-.56.18-.03.37-.07.56-.1,5.32-.95,11-1.65,16.96-2.11.06,0,.12,0,.18-.01.06,0,.12,0,.17-.01t0,0c3.44-.25,6.98-.42,10.6-.51.12,0,.25,0,.37,0,.12,0,.24,0,.36,0,.98-.02,1.96-.03,2.95-.03,1.76,0,3.55.02,5.36.07,1.48.04,2.97.1,4.48.18.09,0,.19,0,.28.02,4.78.25,9.71.68,14.77,1.28.85.1,1.69.21,2.55.32.73.1,1.47.19,2.21.3.28.04.56.08.84.12.26.04.53.07.79.11,5.31.77,10.76,1.72,16.28,2.85.09.02.19.04.28.06.78.16,1.55.32,2.33.49,0,0,0,0,0,0,.72.15,1.44.31,2.17.47.43.09.86.19,1.3.29h0c.12.03.24.05.36.08h0c.15.03.29.07.44.1,1.56.36,3.12.72,4.69,1.1,1.62.39,3.19.79,4.71,1.18,1.1.28,2.17.57,3.2.85.7.19,1.39.38,2.06.56,1.93.53,3.74,1.05,5.42,1.55Z"/>
      </g>
      <g>
        <path class="cls-6" d="m736.86,73.42c-.98-1.9-1.99-3.95-1.73-6.08.26-2.13,2.39-4.15,4.41-3.44,1.42.5,2.15,2.03,2.68,3.43,2.77,7.32,4.12,15.17,3.94,22.99,0,0-6.53-11.52-9.3-16.9Z"/>
        <path class="cls-6" d="m744.84,89.32c-4.92-4.23-12.01-4.52-18.5-4.51-2.71,0-6.07.44-7,2.99-.74,2.04.73,4.35,2.69,5.27,1.96.93,4.23.81,6.38.6,6.24-.61,16.43-4.36,16.43-4.36Z"/>
        <path class="cls-6" d="m723.45,63.19c-.84-1.6-1.65-3.28-1.72-5.08-.07-1.8.78-3.76,2.45-4.44.88-.36,1.89-.32,2.8-.06,2.28.65,3.99,2.62,4.93,4.79.94,2.18,1.21,4.57,1.47,6.92.5,4.44.99,8.89,1.49,13.33,0,0-8.58-10.02-11.43-15.47Z"/>
        <path class="cls-6" d="m732.89,77.55c-6.84-4.08-16.05-3.74-22.57.82-.51.36-1.03.76-1.26,1.34-.74,1.81,1.65,3.31,3.6,3.57,7.21.97,20.24-5.73,20.24-5.73Z"/>
        <path class="cls-6" d="m718.34,67.04c-4.75-4.85-9.12-10.07-13.07-15.59-.51-.72-1.03-1.48-1.13-2.35-.3-2.63,3.55-4.05,5.8-2.65,2.25,1.4,3.13,4.19,3.83,6.74,1.24,4.5,4.57,13.85,4.57,13.85Z"/>
        <path class="cls-6" d="m698.9,66.75c-1.76.77-3.69,2.32-3.23,4.19.32,1.29,1.74,2.05,3.06,2.06,1.32,0,2.58-.56,3.78-1.11,4.46-2.06,8.92-4.12,13.38-6.18,0,0-11.3-1.44-16.99,1.05Z"/>
        <path class="cls-6" d="m695.57,49.73c-1.34-1.62-2.75-3.4-2.85-5.5s1.86-4.37,3.86-3.73c1.51.49,2.16,2.23,2.58,3.77,1.26,4.71,2.2,9.51,2.79,14.35,0,0-4.51-6.63-6.38-8.89Z"/>
        <path class="cls-6" d="m699.45,58.25c-6.28-1.59-13.09-1.02-19.01,1.6-1.2.53-2.51,1.33-2.7,2.64-.22,1.52,1.36,2.81,2.89,2.9,1.53.09,2.97-.67,4.32-1.4,4.38-2.37,14.5-5.73,14.5-5.73Z"/>
        <path class="cls-6" d="m690.61,54.53c-5.22-1.59-10.11-4.29-14.25-7.85-1.38-1.19-2.72-2.54-3.32-4.26-.59-1.72-.22-3.9,1.29-4.92,1.46-.98,3.53-.58,4.94.47,1.41,1.06,2.32,2.63,3.2,4.17,2.36,4.14,8.14,12.39,8.14,12.39Z"/>
        <path class="cls-6" d="m675.95,51.08c-5.92,1.57-12.17,1.87-18.22.87-3.11-.51-6.81-2.11-6.94-5.26-.11-2.68,2.73-4.71,5.41-4.79s5.18,1.22,7.59,2.39c3.91,1.91,12.15,6.79,12.15,6.79Z"/>
        <path class="cls-4" d="m751.63,97.77s0,0,0,0c.05-.03.07-.1.04-.15-.01-.02-1.28-2.25-3.99-5.7-2.5-3.18-6.78-8.09-12.96-13.38-6.94-5.95-14.82-11.16-23.41-15.5-10.74-5.42-22.63-9.48-35.34-12.06-.06-.01-.12.03-.13.09-.01.06.03.12.09.13,12.69,2.58,24.56,6.63,35.28,12.04,8.57,4.33,16.44,9.53,23.36,15.47,6.16,5.28,10.43,10.17,12.93,13.35,2.7,3.44,3.97,5.66,3.98,5.68.03.05.09.07.15.04Z"/>
        <path class="cls-6" d="m751.63,97.77s0,0,0,0c.05-.03.07-.1.04-.15-.01-.02-1.28-2.25-3.99-5.7-2.5-3.18-6.78-8.09-12.96-13.38-6.94-5.95-14.82-11.16-23.41-15.5-10.74-5.42-22.63-9.48-35.34-12.06-.06-.01-.12.03-.13.09-.01.06.03.12.09.13,12.69,2.58,24.56,6.63,35.28,12.04,8.57,4.33,16.44,9.53,23.36,15.47,6.16,5.28,10.43,10.17,12.93,13.35,2.7,3.44,3.97,5.66,3.98,5.68.03.05.09.07.15.04Z"/>
      </g>
    </g>
    <g>
      <g>
        <path class="cls-1" d="m763,185.33c-67.57,0-70.73-131.75-70.73-131.75,24.03-6.13,36.21-29.86,36.21-29.86,0,0,13.71-3.18,34.51-3.18s34.51,3.18,34.51,3.18c0,0,12.19,23.73,36.21,29.86,0,0-3.16,131.75-70.73,131.75Z"/>
        <path class="cls-7" d="m763,176.24c-6.49,0-12.56-1.52-18.02-4.52-5.14-2.82-9.97-7.04-14.35-12.55-7.91-9.94-14.47-24.05-19.51-41.95-4.62-16.39-7.02-32.86-8.23-43.79-.6-5.46-.97-10.1-1.19-13.39,17.39-7.04,28.2-21.4,32.52-28.15,5.38-.91,15.58-2.25,28.78-2.25s23.4,1.34,28.78,2.25c4.32,6.75,15.13,21.11,32.52,28.15-.22,3.29-.58,7.93-1.19,13.39-1.21,10.93-3.61,27.4-8.23,43.79-5.04,17.9-11.6,32.01-19.51,41.95-4.39,5.51-9.21,9.74-14.35,12.55-5.46,3-11.53,4.52-18.02,4.52Z"/>
      </g>
      <polygon class="cls-1" points="807.74 80.47 775.83 80.47 775.83 48.13 750.34 48.13 750.34 80.47 718.44 80.47 718.44 106.3 750.34 106.3 750.34 138.63 775.83 138.63 775.83 106.3 807.74 106.3 807.74 80.47"/>
    </g>
    <g>
      <path class="cls-5" d="m826.78,9.74c-11.62-8.47-39.37,10.84,6.23,35.32,34.47-38.59,1.79-47.24-6.23-35.32Z"/>
      <path class="cls-1" d="m812.35,29.58c2.48-.54,4.97-1.05,7.46-1.55l-.15.1c1.13-1.98,2.29-3.93,3.47-5.88l.52-.86.43.95c.7,1.58,1.41,3.15,2.09,4.74.69,1.58,1.35,3.18,2.01,4.77l-1.38-.03c.98-2.17,2.01-4.31,3.03-6.46,1.02-2.15,2.07-4.29,3.12-6.42l.5-1.01.58.93c1.29,2.09,2.58,4.18,3.84,6.28l-.43-.19c1.59-.24,3.19-.43,4.79-.65,1.6-.22,3.19-.43,4.8-.61-1.57.38-3.14.73-4.72,1.07-1.57.34-3.15.71-4.72,1.02l-.26.05-.17-.24c-1.41-2.01-2.79-4.04-4.17-6.07l1.08-.08c-.95,2.18-1.92,4.36-2.9,6.52-.99,2.16-1.97,4.33-3,6.48l-.74,1.55-.64-1.59c-.64-1.6-1.28-3.21-1.89-4.82-.63-1.61-1.22-3.23-1.81-4.85l.95.09c-1.31,1.86-2.63,3.71-3.99,5.54l-.07.09h-.09c-2.51.39-5.02.76-7.54,1.11Z"/>
    </g>
  </g>
</svg>