<?xml version="1.0" encoding="UTF-8"?>
<svg xmlns="http://www.w3.org/2000/svg" xmlns:xlink="http://www.w3.org/1999/xlink" viewBox="0 0 200.98 200.98">
  <defs>
    <style>
      .cls-1 {
        fill: #bc9471;
      }

      .cls-2 {
        fill: #262626;
      }

      .cls-3 {
        fill: #fff;
      }

      .cls-4 {
        fill: #8c6341;
      }

      .cls-5 {
        fill: #9b714b;
      }

      .cls-6 {
        opacity: .8;
      }

      .cls-6, .cls-7 {
        mix-blend-mode: color-burn;
      }

      .cls-8, .cls-9 {
        isolation: isolate;
      }

      .cls-10 {
        fill: #c18659;
      }

      .cls-11 {
        fill: #e8b485;
      }

      .cls-12 {
        clip-path: url(#clippath-1);
      }

      .cls-13 {
        opacity: .3;
      }

      .cls-9 {
        fill: #8dc3a6;
        opacity: .25;
      }

      .cls-14 {
        fill: #dda678;
      }

      .cls-15 {
        fill: #e5e6e7;
      }

      .cls-16 {
        clip-path: url(#clippath);
      }

      .cls-7 {
        opacity: .5;
      }

      .cls-17 {
        fill: none;
      }

      .cls-18 {
        fill: #191919;
      }

      .cls-19 {
        mix-blend-mode: multiply;
        opacity: .45;
      }

      .cls-19, .cls-20 {
        fill: #606060;
      }

      .cls-21 {
        fill: #a77c4f;
      }
    </style>
    <clipPath id="clippath">
      <circle class="cls-20" cx="100.99" cy="100.19" r="50.63" transform="translate(-21.11 27.19) rotate(-13.9)"/>
    </clipPath>
    <clipPath id="clippath-1">
      <circle class="cls-17" cx="100.2" cy="100.19" r="62.58" transform="translate(-15.3 18.11) rotate(-9.6)"/>
    </clipPath>
  </defs>
  <g class="cls-8">
    <g id="OBJECTS">
      <circle class="cls-9" cx="100.49" cy="100.49" r="100.49"/>
      <g>
        <g class="cls-7">
          <circle class="cls-20" cx="100.18" cy="100.19" r="62.57" transform="translate(-15.03 182.65) rotate(-80.6)"/>
          <circle class="cls-19" cx="100.18" cy="100.19" r="62.57" transform="translate(-15.03 182.65) rotate(-80.6)"/>
        </g>
        <circle class="cls-3" cx="100.99" cy="100.19" r="50.63" transform="translate(-21.11 27.19) rotate(-13.9)"/>
        <g class="cls-13">
          <circle class="cls-20" cx="100.99" cy="100.19" r="50.63" transform="translate(-21.11 27.19) rotate(-13.9)"/>
          <g class="cls-16">
            <g class="cls-6">
              <g>
                <g>
                  <path class="cls-20" d="m31.93,60.24s.07-.04.11-.05c-.05,0-.09-.01-.14,0,.01.02.02.04.03.06Z"/>
                  <path class="cls-20" d="m32.85,60.54c.76-.56-.1-2.16-1.12-2.09-.26.53.07,1.33.7,1.66-.14,0-.27.03-.39.08.29.02.59.15.81.35Z"/>
                  <path class="cls-20" d="m37.45,70.59c.07-.33-.28-.75-.66-.78.05.24.11.48.16.72l-.43-.3c.23.27.61.42.92.36Z"/>
                  <path class="cls-20" d="m20.54,49.97c-.12-.4.29-.68.7-.71.41-.03.85.1,1.25.04.4-.06.74-.44.52-.82.51-.05,1.07.08,1.56.35.03-.12.06-.24.09-.36.65.22,1.34-.13,1.43-.73.04-.3-.16-.73-.49-.75-.2,0-.33.14-.49.22-.16.08-.45.05-.5-.14-.04-.13.06-.23.08-.35.05-.3-.36-.53-.68-.65-.51-.18-1.03-.37-1.54-.55-.13-.05-.29-.1-.39-.03-.19.11-.05.42.03.65.24.71-.53,1.36-1.27,1.06.09.33.12.67.09.99-.46-.04-.93-.13-1.39-.26-.14.35-.27,1.22.08,1.61.11.12.97.59.92.43Z"/>
                  <path class="cls-20" d="m38.62,43.63c.35.15.69.3,1.05.45-.22.49-.31,1.06-.26,1.63.09.05.19.07.29.08h0s.01,0,.02,0c.03,0,.05,0,.08,0v-.04s.1-.03.15-.06c-.11-.18-.17-.39-.17-.62,0-.08,0-.16.02-.24v-.02c.05-.31.2-.62.44-.86.2-.2.45-.39.54-.64.08-.26-.21-.53-.42-.34-.02-.23-.04-.46-.06-.69-.27.04-.49-.1-.6-.31h0c-.09-.18-.11-.38-.02-.54-.32-.21-.73-.24-1.01-.06l.47,1.48c-.38-.05-.75-.1-1.13-.15-.17.11-.13.37.03.55.15.17.37.27.58.36Z"/>
                  <path class="cls-20" d="m35.08,42.17l.4.05c.16-.38.19-.82.09-1.26-.39.29-.99.32-1.51.09-.16.46.5.91,1.02,1.13Z"/>
                  <path class="cls-20" d="m26.65,43.23c.14.07.29.15.44.14.09,0,.17-.03.25-.05.53-.18,1.06-.36,1.59-.54l.27-.19c-.05.17-.03.36.05.54.81-.14,1.4-.83,1.38-1.64-.3-.05-.59-.1-.89-.15.03.66-.79,1.07-1.44.73-.13-.07-.25-.16-.39-.19-.09-.02-.18-.01-.27,0-.46.04-.92.07-1.38.11-.11,0-.22.02-.31.07-.21.13-.17.46,0,.68.17.22.44.36.7.49Z"/>
                  <path class="cls-20" d="m34.32,52.27c.28.36.41.84.22,1.17-.19.33-.78.4-1.09.06-.3-.32-.04-.9-.42-1.12-.33-.19-.6.2-.57.54l.04.67c.28-.17.69.28.69.62,0,.34-.18.66-.09,1,.13.51.9.83,1.27.52-.27-.13-.31-.51-.15-.71.16-.19.45-.26.7-.34.26-.08.52-.22.58-.47.07-.29-.15-.66.01-.9.1-.15.32-.2.37-.37.09-.27-.31-.56-.63-.59-.32-.03-.64.05-.95-.09Z"/>
                  <path class="cls-20" d="m32.5,51.64c.15-.12-.04-.38-.21-.53-.22-.2-.46-.4-.74-.51-.28-.1-.61-.07-.74.14-.06.11-.07.25-.07.38,0,.51-.02,1.01-.03,1.52-.17-.39-.15-.8-.34-1.19-.18-.38-.74-.72-1.02-.47-.03.51-.06,1.02-.09,1.52-.14-.18-.42-.02-.4.18.02.2.18.38.3.57.21.34.25.75.11,1.07-.48.07-.95-.41-1.22-.85-.28-.44-.57-.96-1.06-1.12.38.07.76.15,1.13.22,0-.23,0-.47,0-.7-.4-.07-.8-.14-1.2-.2-.14-.02-.28-.05-.39-.15-.26-.25.01-.59.3-.71.29-.12.66-.28.58-.6-.51.15-1.06.24-1.61.27-.13-.46.14-.92.59-1.01-.65.04-1.29.08-1.94.11-.81.05-1.51.67-1.49,1.45.54.11,1.22.31,1.59.82-.96.16-2.03.03-3.02-.38.54.18.68.92,1.17,1.24.37.24.83.18,1.23.35.39.16.66.52.92.86.11.15.23.31.24.48.01.17-.15.33-.32.26-.22-.75-1.43-1.13-1.88-.59-.69-.37-1.55-.32-2.05.11.03.41.55.71.99.78.44.07.88,0,1.3.18.42.18.75.76.44,1-.17.13-.42.09-.64.13-.22.04-.41.27-.25.46.5.04,1,.08,1.49.13.75.06,1.54.12,2.16-.18.41-.2.71-.55.99-.89.02.28.05.57.07.85.25-.14.69.11.72.41.02.15-.05.28-.06.43-.03.31.21.67.54.79.33.13.7,0,.82-.27-.45-.29-.76-.78-.81-1.25.73.47,1.61.69,2.4.59-.76-.96-1.57-2.12-1.28-3.14.28.18.54-.13.58-.42.04-.28.07-.65.37-.69.1-.01.22.02.31-.03.25-.15-.25-.55-.24-.85,0-.3.54-.4.42-.71.34.06.69.12,1.03.18.11.02.23.04.31-.03Z"/>
                  <path class="cls-20" d="m30.12,44.24c-.19.07-.25.31-.43.39-.24.11-.64-.07-.81.12-.08.09-.08.22-.11.33-.12.37-.72.49-1.08.49.67.78,1.27.2,2.03.55.45.21.59.75.67,1.2-.27-.32-.59-.62-.98-.8-.38-.17-.84-.19-1.12.04-.27.23-.28.73.05,1,.13.11.3.17.47.22.59.17,1.2.21,1.75.1.41.2.82.39,1.23.59.3.14.63.29.93.24.3-.06.47-.44.22-.67.46.04.81-.32.82-.73-.07.12-.25.2-.41.12-.27-.14-.35-.5-.27-.75.08-.25.27-.44.39-.67.12-.23.14-.55-.07-.78-.43-.06-.85.05-1.14.29-.1.08-.19.18-.21.31-.1.5.71,1.16.35,1.49-.81.16-1.87-.65-1.81-1.45.02-.34.22-.63.22-.98,0-.35-.38-.79-.7-.67Z"/>
                  <path class="cls-20" d="m33.73,47.04c.03.09.04.18.04.27.05-.09.05-.19-.04-.27Z"/>
                  <path class="cls-20" d="m32.51,43.15l.23-.23c.09.41.31.81.62,1.14.19-.61.84-.99,1.55-.92-.7-.6-1.59-.99-2.47-1.07.2.35.23.76.07,1.08Z"/>
                  <path class="cls-20" d="m36.65,49.3c-.09.12-.29.09-.42.17-.12.08,0,.35.11.28.2.22.52.34.78.26.27-.08.42-.37.34-.66.29.02.58.05.88.07-.24-.17-.22-.5-.09-.7.14-.2.35-.35.44-.58.22-.58-.62-1.32-1.29-1.24.32.78-.49,1.57-1.32,1.27-.08.4.81.81.57,1.12Z"/>
                  <path class="cls-20" d="m35.58,55.57c-.13.09-.17.26-.23.41-.24.59-.88.95-1.58.91.36.11.42.59.31.9-.11.31-.3.64-.11.96.17.29.55.4.87.41v-.73c.45.13.92.18,1.36.14.23-.8-.64-1.86-.25-2.59.05-.09.11-.18.08-.28-.05-.17-.31-.22-.44-.13Z"/>
                  <path class="cls-20" d="m37.03,53.89c.39.07.55.66.94.77.18-.56,1.53.03,1.57-.57.02-.28-.32-.51-.59-.69-.27-.19-.53-.56-.32-.74-.45-.28-1.07-.18-1.27.22-.05.1-.08.22-.16.31-.13.16-.42.18-.63.05-.48.63-.38,1.64.22,2.36l.19-.52c-.17-.22-.34-.46-.37-.71-.03-.25.15-.51.42-.46Z"/>
                  <path class="cls-20" d="m39.15,50.22c-.39-.14-.82.1-.82.48l-.11-.02c0,.24.02.49.02.73.37.06.74.12,1.1.18-.07-.46-.13-.91-.2-1.37Z"/>
                  <path class="cls-20" d="m34.79,108.73c.22.06.48.1.63-.02-.34-.57-1.19-.46-1.82-.68-.44-.15-.8-.5-1.19-.78-.51-.38-1.09-.66-1.65-.94-.47-.23-.91-.44-1.39-.53-.04.59.61.55,1.17.68.14.03.29.08.37.2.09.15,0,.31,0,.46,0,.35.47.59.84.63.37.04.78.02,1.09.26.23.18.34.46.49.7.15.24.44.48.69.42-.18-.15-.08-.43.12-.49.2-.06.44.03.66.09Z"/>
                  <path class="cls-20" d="m33.5,105.95c-.13-.15-.14-.34-.19-.52-.06-.18-.23-.38-.41-.34-.15.03-.18.21-.11.36.07.14.21.25.35.34l-.53-.1c.18.31.64.45.89.27Z"/>
                  <path class="cls-20" d="m36.09,109.28c.44-.05.17-.75.4-1.09.08-.11.21-.17.29-.28.19-.26,0-.7-.32-.92-.32-.21-.72-.24-1.06-.17-.02-.4-.04-.8-.06-1.2-.17.15-.43-.18-.47-.42-.04-.24-.22-.58-.43-.5.23-.31-.02-.83-.41-1.08-.39-.26-.85-.36-1.23-.26.02.19.14.36.33.46.25.12.54.16.76.33.54.43.23,1.29.73,1.75.12.11.28.19.34.33.08.17-.03.35.03.53.08.27.46.38.65.61.26.32.06.7-.04,1.04-.1.34.1.9.48.86Z"/>
                  <path class="cls-20" d="m39.02,110.4c-.31-.12-.58-.37-.68-.67-.69-.39-1.58-.05-1.67.63.18.04.36.07.54.11h-.13c.41.28.81.56,1.22.84.05.03.09.06.14.07.27.06.2-.34.21-.59,0-.2.17-.34.37-.38Z"/>
                  <path class="cls-20" d="m39.02,110.4c.14.06.29.09.43.07-.14-.09-.29-.1-.43-.07Z"/>
                  <path class="cls-20" d="m33.26,109.57c-.43-.06-.83.08-1.21.21.42.19.85.38,1.27.57l.1-.03c.27.1.57.12.82.05-.07-.41-.55-.74-.98-.8Z"/>
                  <path class="cls-20" d="m22.6,121.04c-.08,0-.15.05-.19.12l-.11-.8c0,.41,0,.81,0,1.22,0,.28,0,.59.18.85.17.26.58.43.78.24-.04-.24.15-.44.39-.49.24-.05.5,0,.75.07-.43-.32-.86-.65-1.29-.97-.16-.12-.35-.25-.53-.25Z"/>
                  <path class="cls-20" d="m100.11,86.46c.16-.33.18-.63.1-.9-.03.3-.07.6-.1.9Z"/>
                  <path class="cls-20" d="m82.62,76.88c-.27.46-.07,1.17.45,1.01.22.15.58-.13.7-.41.12-.28.16-.59.39-.81.13-.12.3-.19.43-.31.2-.2.22-.48.27-.73.09-.47.3-.93.61-1.34.08-.11.17-.21.29-.27.66-.3.67,1.08,1.36,1.02-.18.31-.56.52-.9.51-.02.53-.03,1.07-.05,1.6,0,.12-.72.06-.8.04.24.49.47.98.71,1.46.5-1.11,1.28-1.06,2.37-1.34,1.03-.26,1.76-1.56,1.32-2.37-.47.13-.96-.04-1.17-.41-.2-.37-.1-.9.25-1.26-.81.07-1.48-.57-1.39-1.34.43.07.93-.43.84-.83-.67.08-1.3-.22-1.57-.74-.1-.19-.17-.41-.37-.5-.37-.16-.82.26-1.1.61-.3.38-.62.92-.32,1.21.1.1.24.14.35.22.48.36,0,1.18-.45,1.71.22-.05.44.08.47.28-.22.37-.81.15-1.2.36-.45.24-.38.84-.54,1.29-.17.49-.67.85-.93,1.31Z"/>
                  <path class="cls-20" d="m94.68,86.61c0,.15,0,.31-.03.46l.63-.41c-.22.06-.43.04-.6-.05Z"/>
                  <path class="cls-20" d="m94.17,85.99c.07.27.26.51.51.63.02-.74-.08-1.46-.33-2.11-.15.5-.29,1.02-.18,1.49Z"/>
                  <path class="cls-20" d="m97.21,87.21c.49.47,1.35.57,2.09.25l-1.06-.03c.57-.1,1.13-.21,1.7-.31-.65-.61-1.9-.57-2.73.09Z"/>
                  <path class="cls-20" d="m95.07,83.5l.04.38c.17-.04.33-.08.5-.12,0-.26,0-.52,0-.78-.4.06-.8.13-1.2.19-.1.33.37.57.66.33Z"/>
                  <path class="cls-20" d="m79.06,65.76c.1-1.06.89-2.14,1.95-2.66-.63.37-1.27-.09-1.78-.44-.5-.36-1.43-.52-1.78.1-.08.15-.11.31-.16.46-.21.56-.94.97-1.49.84-.56-.13-.83-.78-.56-1.33-.31.19-.61.39-.92.58-.09.13-.17.27-.19.42.53-.1.98.28,1.1.75.13.47.01.99-.1,1.5,1.27-.74,2.84-.83,3.94-.22Z"/>
                  <polygon class="cls-20" points="74.3 63.31 74.31 63.31 74.31 63.3 74.3 63.31"/>
                  <path class="cls-20" d="m74.31,63.3l.51-.4c-.21.07-.38.22-.51.4Z"/>
                  <path class="cls-20" d="m95.2,42.78c.25-.38.34-.84.68-1.15.41.17.33.76.15,1.21-.17.45-.36,1-.04,1.29.14.12.36.17.45.34.07.14.02.33.02.49.02.51.74.76,1.21.41.08-.54-.64-.79-.68-1.32-.04-.44.4-.85.56-1.3.14-.38.07-.78.24-1.15.17-.37.79-.65.94-.32-.3.9.14,1.86.98,2.15.36-1.06.13-2.25-.73-2.8-.37-.24-.85-.35-1.18-.64-.33-.28-.48-.85-.11-1.22.28-.03.46.19.65.35.52.44,1.35.44,2.11.42-.07-.74.13-1.54.54-2.26.02-.03.05-.07.07-.1,0,0-.01,0-.02,0,0-.01.01-.03.02-.05-1.21.55-2.61.49-3.54-.16.42.29-1.62,2.22-1.87,2.35-.08-.2-.26-.39-.33-.61-.61.64-1.54,3.77-1.2,4.37.19.34.83.06,1.07-.32Z"/>
                  <path class="cls-20" d="m76.08,57.77c-1,.44-2.14.44-2.98,0,.49-.07.98-.13,1.47-.2-.45-.63-.9-1.25-1.34-1.88,1.11-.41,2.19.68,1.7,1.72.34.19.82.18,1.22-.03.46-1.17-.13-2.46-1.27-2.78.45-.28,1.06-.06,1.11.39.4-.17.66-.66.53-1.01-.13-.35-.62-.49-1.01-.3.04-.41.08-.82.11-1.23.32.55,1.01.84,1.72.73-.02-.49-.03-.97-.05-1.46.34-.02.68-.04,1.02-.06-.45.04-.58-.58-.29-.96s.79-.54,1.24-.68c-.12.43.26.84.71.76.42-.66-.55-1.37-1.17-.85-.29-.82-.59-1.65-.88-2.47.68-.35,1.52-.21,1.89.31.06-.79-.35-1.52-1.04-1.85.35-.45.7-.91,1.05-1.36-.44.1-.76-.42-.49-.79.17-.31.34-.61.51-.92,1.07-1.94,2.18-3.91,3.8-5.52-.96-.45-2.13-.58-3.3-.36.45.36-.26,1.13-.88,1.4-.62.27-1.44.72-1.33,1.29-.58-.21-.16-1.15.42-1.56.58-.41,1.34-.77,1.48-1.41-1.08.25-2.14.72-3.09,1.36.31-.25.62-.5.94-.75-1.24-.04-2.55.28-3.72.9.3-1.11,1.74-1.7,2.9-1.8,1.17-.09,2.37.07,3.48-.46-.51-.67-1.45-1-2.41-.86.29-.25.58-.49.86-.74-1.38.11-2.77.23-4.15.34-.29-.61.83-1.23,1.56-1.14s1.53.41,2.18-.06c-1.22-.2-2.44-.4-3.66-.6-.44-.07-.92-.14-1.38.05-.57.24-.94.83-1.48,1.15-.54.33-1.42.04-1.13-.49-.53.19-.94.77-.89,1.26.68,0,1.14.67.91,1.31-.46-.42-.92-.83-1.38-1.25-.08.4-.42.78-.84.91.29.98.47,2.01.53,3.07-1.13-.41-1.73-1.67-1.38-2.89-.13.48-.26.97-.39,1.45-.78.58-1.97-.04-1.74-.91-.31.55-.61,1.1-.92,1.65.14-.68.12-1.35-.07-1.97-.62.46-1.33.79-2.05.96-.09.49-.19.97-.28,1.46-.33-.41-.67-.82-1-1.23.12-.21.2-.45.2-.67.43-.12.88-.07,1.21.14-.23-.29-.47-.58-.7-.86.19-.1.38-.19.57-.29.16-.51-.36-.91-.9-.88-.54.03-1.05.35-1.54.65-.15-.15.13-.42.36-.48.24-.05.52-.06.66-.27.23-.32-.26-.58-.64-.49-.38.08-.82.29-1.09.08-.03-.18-.07-.37-.1-.55-.06-.28-.55-.1-.76.16-.21.26-.44.61-.74.58-.08-.29.04-.66.31-.89-.34-.31-.93-.35-1.42-.09.15.45.07,1.22-.46,1.26.04-.31.08-.62.12-.93-.66-.06-1.31.89-.92,1.36-.82-.32-1.92-.12-2.72.49-.03.24-.05.47-.08.71-.15-.4-.14-.87.04-1.32-.25-.07-.53-.07-.81.02-.3.53-.07,1.19.46,1.35-.23.3-.65.47-.99.4.21-.5-.34-.99-.86-.76.06.15.11.31.17.46-.36-.06-.74-.11-1.1.03-.37.14-.69.56-.55.87.32-.03.63.03.9.16-.31.23-.61.46-.92.69.48-.29,1.04-.41,1.54-.32.46.08.82.62.53.95.27.19.31.65-.01.89.64-.27,1.27-.54,1.91-.82.18-.08.38-.17.48-.34.1-.17,0-.41-.2-.35.66-.2,1.35.18,1.43.79-.53.15-1.06.29-1.59.44-.01.38.17.72.49.9-.95-.09-2.23.73-2.84.1-.3.46-.48.98-.51,1.49-.13-.46-.27-.91-.4-1.37-.46-.07-.92-.14-1.38-.21.24.83.26,1.74.06,2.65.2.29.35.62.45.96-.41-.03-.71-.39-.66-.8-.84.46-1.59,1.12-2.14,1.89.41-.06.82-.12,1.23-.18-.32.69-.35,1.46-.06,2.06-.15-.31.4-1.04.61-1.26-.5,1.75.79.65,1.43.21.64-.44,3.09-1.05,3.03-1.73-.67-.14-1.22-.57-1.48-1.15.27.02.59-.16.72-.42.26.31.81-.2,1.05-.61.24-.4.95-.79,1.03-.38.1.17.2.35.3.52.54-.08,1.01-.69.9-1.16.23.24.46.48.69.72-.08-.55,0-1.15.25-1.72.32-.04.64-.08.95-.12.06.14.12.28.18.43.78.05,1.65-.75,1.62-1.49.3.12.7.05.99-.18-.81,0-1.63.13-2.45.35.12-.29.44-.59.75-.77.47-.28,1.05-.69.95-1.15.36-.03.5.49.19.72.26.09.55.17.84.09.29-.09.56-.43.44-.66.33-.15.72-.04.87.22-.09.67-.18,1.35-.27,2.02-1.19-.16-2.59.44-3.39,1.46.47.16.94.31,1.42.47-.32.47-.52,1.01-.57,1.53-.35.09-.69.18-1.03.27-.02.32-.04.63-.05.95-1.42-.3-3.07.02-4.44.86-.56.56.2,1.25.92,1.35.71.1,1.66.26,1.59.97-.8.19-1.61.07-2.22-.31,0,.47.2.8.5,1.07-.09-.02-.17-.04-.26-.06l-.1.14c.04.5.08,1.01.12,1.51,0,.08.02.17.07.22.08.07.23.05.35.03.92-.18,1.83-.36,2.75-.54.17.08.34.17.49.28,1.21.83,1.43,2.47,1.58,3.97.12,1.19.13,2.63-.92,3.52.22.16.45.33.67.49.18-.36.5-.67.87-.85-.13.88.1,1.75.63,2.37-.6-.35-1.2-.71-1.81-1.06-.28.89-.17,1.82.28,2.52.07-.4-.04-.8-.31-1.06.41.41,2.05.5,1.54,1.7-.37.86-.99.37-1.62.83-1.87,1.37-2,3.92.04,4.76-.47,0-.98.43-1.02.89.42,1.38,1.27,2.57,2.43,3.42.02-.35.03-.71.05-1.06.19.64.38,1.28.57,1.92.74-.12,1.48-.12,2.16.02-.54-.64-.27-1.7.23-2.53.5-.83,1.22-1.57,1.63-2.43.32-.65.45-1.35.78-2,.33-.65.96-1.29,1.68-1.34-.65.48-.94,1.36-.66,1.97.79-.88,1.59-1.76,2.38-2.63.6-.66,1.22-1.34,1.99-1.79,1.05-.62,2.25-.76,3.38-1.18,1.12-.42,2.3-1.38,2.29-2.45Z"/>
                  <path class="cls-20" d="m50.07,38.95c-.37.19-.37.86.03.76.05-.34.37-.67.71-.77-.24-.08-.49-.11-.74.01Z"/>
                  <path class="cls-20" d="m50.81,38.94c.12.04.24.1.35.15.04-.03.07-.06.1-.1-.05-.04-.12-.07-.19-.08-.09-.01-.18,0-.27.02Z"/>
                  <path class="cls-20" d="m43.3,43.88c-.02.52.36.96.88,1.03.53.07,1.15-.24,1.45-.73.14-.22.22-.49.42-.66.51-.44,1.45-.1,1.79-.66-.16-.03-.33-.06-.49-.09-.25-.31-.17-.83.16-1.16.06-.06.13-.12.17-.2.21-.4-.69-.61-.45-1,.1-.16.31-.19.48-.24.18-.05.38-.23.31-.37-.21.04-.37-.13-.4-.33-.03-.19.03-.4.05-.6.03-.32-.06-.65-.33-.81-.26-.16-.71-.08-.91.21.37.51-.27,1.47-.97,1.46.05.09.1.17.16.26-.2-.05-.32.28-.26.47.06.19.16.42-.01.58-.15.13-.35.06-.53.05-.32-.03-.68.13-.89.4-.2.23-.12.56.1.71.21.15.52.16.81.15.16,0,.34-.02.46.06.18.13.15.43,0,.63-.52.68-1.31.35-1.99.84Z"/>
                  <path class="cls-20" d="m51.38,82.85c.14-.2.1-.49-.11-.56s-.52.14-.51.36c0,.11.08.2.11.3.01.05.01.1,0,.16.19,0,.4-.09.51-.26Z"/>
                  <path class="cls-20" d="m53.02,83.61c-.21-.22-.65-.08-.96.11-.31.19-.64.44-.98.42.08-.35-.03-.7-.25-.94-.11.24-.41.45-.66.38.35.57-.93,1.5-.5,2.01h0c.04.1.14.2.27.22.3.05.66-.28.63-.57.29-.1.6-.12.88-.08,0-.22,0-.44,0-.65.29.18-.01.71.18.99.19.27.67.1,1.02-.08-.27-.53.78-1.38.36-1.8Z"/>
                  <path class="cls-20" d="m50.73,83.09s.07.07.1.11c.01-.03.02-.07.03-.1-.05,0-.09,0-.13,0Z"/>
                  <path class="cls-20" d="m39.7,71.52c-.06-.04-.13-.07-.2-.08h.02c.12-.19.02-.49-.21-.62-.29.08-.5.33-.54.62.14.02.28.05.42.07,0,0-.02,0-.02.01h.04c.16.02.33.04.49.07h0s.01,0,.01,0c.03,0,.07.01.1.02,0-.01-.02-.02-.03-.03h.04s-.07-.05-.11-.06Z"/>
                  <path class="cls-20" d="m44.01,64.01c.24.07.57-.12.64-.37-.39-.23-.83-.4-1.3-.49.07.4.14.81.21,1.21l.46-.35Z"/>
                  <path class="cls-20" d="m48.57,59.42c-.51.06-1.16-.27-.86-.7.32-.09.64-.17.95-.25.17-.3,0-.69-.33-.73-.33-.04-.72.28-.73.6-.64-.06-.72-.84-.81-1.44-.08-.61-.64-1.27-1.22-.88.15.24.19.56.1.86-.42.14-.83.28-1.24.41-.52-.11-1.13-.38-.99-.91.17-.67,1.48-1.17,1.13-1.69-.11-.16-.34-.19-.55-.18-1.02.05-2.05.94-2.23,1.9.13.55.17,1.14.1,1.72-.19.03-.39.06-.58.09-.13-.37-.49-.63-.93-.66.03-.54.05-1.09.07-1.64.56-.9,1.47-1.63,2.48-1.98-.37-.37-.86-.77-1.44-.55-.27.1-.48.32-.66.53-.4.49-.7,1.02-1.01,1.55-.04.07-.08.14-.12.21-.37.54-.75,1.08-1.12,1.61.33.01.65.02.98.03.05.1.09.2.13.3h0s.02.08.04.12c.03.09.05.18.07.27v-.02c.05.27.04.56-.04.85-.02-.02-.04-.03-.06-.04-.29-.3-.66-.53-1.06-.65.02.31.03.62.04.93.28-.21.71.03,1.02.35h0s0,.01.01.01c.03.03.06.07.09.1v-.02s.05.04.07.06c.28.31.56.72,1.03.66.38-.04.69-.38,1.06-.52.37-.14.84.19.56.47.36.17.86.11,1.24-.15-.23-.39-.37-.84-.41-1.31.52.26.88.75.97,1.33.04.23.04.49.17.67.14.18.49.23.65.01-.33.74,1.04.9,1.18,1.61.07.34-.17.71-.27,1.08-.16.6.09,1.18-.06,1.78-.14.6-1.09,1.17-1.36.68,0,.43,0,.87,0,1.3-.87.31-1.71.25-2.48.02-.04.44.17.86.51,1.09.47-1.38,2.14.1,2.3-.2-.47.87.33,1.66,1.07,2.14.41.27.82.53,1.23.8.42-.98-1.41-1.71-.72-2.57,1-.24,1.63.68,2.01,1.49.56-1.42.01-2.98-1.25-3.57.18.06.39-.16.41-.35.02-.19-.07-.36-.09-.54-.07-.49.43-1.08.97-1.15.55-.07,1,.39.89.91.3-.37.85.02.82.46-.04.43-.31.89-.19,1.29.63-.79,1.26-1.58,1.89-2.37-1.46-.45-2.7-1.34-3.53-2.53.48-.02.92-.6.77-1.01.22.19.62.17.89-.04.1-.35.13-.76-.15-.93-.29-.17-.84.27-.62.5-.36.13-.74-.1-.74-.44.4-.14.81-.27,1.21-.4-.03-.47-.73-.45-1.24-.39Z"/>
                  <path class="cls-20" d="m41.47,49.82c-.34.06-1.22,1.24-1.3,1.58-.08.32.14.6.45.68s.67-.02.98-.18c.1-.05.22-.11.32-.08.14.05.11.25.16.38.1.25.48.26.78.17.3-.08.63-.21.9-.11.18.07.28.23.42.34.5.39,1.34.07,2.02-.25.02-.32.04-.64.06-.96.22.09.52-.17.53-.4,0-.24-.2-.41-.44-.45s-.5.02-.75.08c-.29.07-.59.14-.88.21-.19.04-.39.09-.55.04-.17-.05-.27-.25-.16-.41-.57.09-1.14.17-1.71.26-.12.02-.25.03-.3-.06-.04-.08,0-.18.03-.28.09-.33-.2-.63-.55-.57Z"/>
                  <path class="cls-20" d="m45.98,46.77c.26-.23.17-.63-.09-.77-.26-.14-.61-.11-.93-.07-.23.18-.04.5.19.59.24.09.55.16.58.42-.05-.46-2.1,1.39-2.24,1.89.5.25,1.45.41,1.94-.19-.03-.12-.07-.23-.1-.35.57-.13,1.08.11,1.54.35.09.05.19.1.25.18.07.09.1.22.15.33.15.33.56.51.97.41.41-.1.78-.46.86-.85.03-.12.03-.25-.03-.35-.22-.43-.97-.08-1.52-.04-.09,0-.18,0-.23-.06-.21-.23.54-.58.45-.88-.05-.15-.27-.15-.45-.13-.37.05-.74.1-1.11.15.07-.25-.04-.5-.25-.61Z"/>
                  <path class="cls-20" d="m45.35,54.48c-.38.23-.51.85-.13.95v-.05c.49.11,1.09-.11,1.44-.53.11-.13.19-.32.09-.42-.04-.04-.11-.05-.17-.06-.39-.06-.84-.11-1.22.12Z"/>
                  <path class="cls-20" d="m41.9,45.33c.4-.18.68-.64.62-1.01-.06-.38-.45-.63-.87-.57-.1.01-.2.05-.27.12-.07.07-.1.17-.12.26-.11.5-.05,1,.16,1.41l.48-.21Z"/>
                  <path class="cls-20" d="m40.21,47.55l-.16.02c-.29.04-.34.49-.13.64.21.15.53.13.79.21.47.15.71.68.53,1.17.25.3.92-.1.91-.51,0-.41-.5-.62-.94-.51.07-.37.13-.77-.05-1.05-.19-.29-.75-.32-.95.02Z"/>
                  <path class="cls-20" d="m41.41,46.7c.12,0,.24-.01.35-.02l.2.11c.24.11.59-.19.58-.46,0-.27-.27-.43-.55-.45-.28-.01-.57.09-.85.19-.02.25.08.48.27.62Z"/>
                  <path class="cls-20" d="m40.46,110.8l.02.08c.01.19.02.39.03.58.4.23.97.2,1.43-.07-.16-.56-.86-.83-1.48-.59Z"/>
                  <path class="cls-20" d="m45.31,113.03c.31-.02.39-.49.23-.71-.16-.22-.45-.37-.48-.66,0-.1.01-.2-.03-.29-.14-.24-.62.05-.87-.1-.2-.12-.12-.42-.12-.66,0-.24-.33-.45-.47-.23l-.08-.43c-.4.05-.45.62-.33.96.25-.19.64-.11.71.14.03.1.02.22.06.31.15.32.84.18.87.54-.25.13-.4.45-.31.68.07.16.24.24.42.24-.15.03-.3.06-.45.1-.1.44-.2.89-.3,1.33-.02.09-.04.19,0,.27.09.22.51.06.61-.18.1-.25-.01-.48-.12-.69.35-.08.7-.17,1.05-.25-.09-.16-.23-.29-.4-.37Z"/>
                  <path class="cls-20" d="m64.16,123.89c-1.28-.07-2.49-.45-3.47-1.1-1.03.9-2.46-.65-3.63.05-.05.41-.09.82-.14,1.23-.41.15-.44-.45-.43-.84.03-1.01-1.36-1.56-2.3-.89-.07.62-.24,1.25-.5,1.85-.43.39-.93-.27-.73-.78.2-.51.68-.98.65-1.49.03-.34-.42-.55-.74-.33-.03.81-.87,1.66-1.73,1.75-.22-.35-.33-.79-.28-1.25.73-.26,1.67-.8,1.55-1.48-.04-.2-.17-.37-.29-.53-.21-.33-.32-.74-.58-1.03-.27-.29-.78-.44-1.16-.17,0-.32-.06-.63-.18-.9-1.15.18-2.31.37-3.46.55.19-.41-.07-.84-.46-.98-.38-.15-.85-.09-1.3-.03.18-.11.36-.22.54-.33-.44-.45-1.24-.54-1.92-.24-.27-.82-.85-1.78-1.81-1.49-.76.23-1.46,1.19-2.08,1.27-.13-.03-.26-.09-.38-.21-.09-.29-.17-.57-.26-.85-.63,0-1.26,0-1.89.01.06-.2.07-.4,0-.62-1.26.02-2.43.44-3.29,1.18-.23.19-.47.39-.71.58-.3,0-.6.02-.91.02.24-.39-.46-.93-.97-.88-.51.05-.91.36-1.43.38-.52.02-1.18-.6-.86-.94-.42-.13-.85-.26-1.27-.39-.51-.57-1.02-1.49-.46-1.84.15-.1.36-.12.54-.19.53-.2.71-.88.39-1.42-.33-.53-1.1-.81-1.6-.57.32-.32-.47-.84-.93-.71-.46.12-.92.47-1.4.23.29-.23.59-.46.71-.82.12-.35-.01-.84-.39-1.06.29,0,.58.01.87.02-.23-.78.05-1.58.68-1.98-.81-.07-1.64-.24-2.44-.5-.77.97-.85,2.44-.21,3.72-.36-.05-.71-.11-1.07-.17.01-.51.02-1.02.04-1.53-1.22-.11-2.48-.65-3.47-1.49-.28-.24-.55-.51-.67-.84-.22-.58-.17-1.44-.79-1.57,1.26-.25,1.49-2.1.38-3,.41-.02.86.1,1.23.34-.33-.78.1-1.59.78-1.96.67-.38,1.54-.41,2.37-.44.34-.01.72-.01,1.02.21.58.42.65,1.49,1.32,1.5.6-.15-.14-1.47.49-1.54.2-.02.41.14.61.24.59.31,1.23.14,1.85.19.62.05,1.43.6,1.24,1.13.36-.31,1.05.23,1.17.74.12.51-.04,1.01.12,1.52.18.62.86,1.14,1.51,1.16-.22-1.33-.67-2.66-1.3-3.93-.1-.21-.21-.42-.21-.64,0-1.03,2.01-.39,2.6-1.16.2-.26.19-.64.41-.88.4-.46,1.31-.2,1.81-.56.21-.15.32-.4.43-.63.33-.75.67-1.5,1-2.24-.44-.05-.89-.35-1.13-.74.63-.06,1.33.15,1.88.56-.35-.59-.04-1.34.6-1.42.66-.09,1.55.41,1.97-.03.01-.01.02-.03.03-.04h0s0,0,.01-.02c.04-.06.08-.12.09-.19,0-.03,0-.06,0-.08.01-.07.02-.13.02-.2,0-.01,0-.03,0-.04,0-.15-.02-.31-.04-.47,0-.01,0-.02,0-.03,0-.06,0-.11-.01-.17,0-.1,0-.2.03-.29v-.02s.02-.1.04-.14c.16-.45.65-.74,1.09-.98l2.79-1.52c.18-.1.38-.21.58-.22.45-.02.69.48.56.91-.09.31-.31.58-.55.84.54-.52,1.2-.94,1.91-1.17.72-.24,1.6-.38,1.98-1.02-.46.08-.85-.34-.71-.77-.67.55-1.61.9-2.3.6-.69-.3-.8-1.41-.07-1.88.25-.16.62-.32.59-.58-.9-.28-1.92.58-2.72,1.31-.79.72-2.03,1.43-2.72.85,1.06-.97,2.11-1.93,3.17-2.9.15-.13.29-.27.44-.4.54-.49,1.33-1.03,1.85-.7-.17.16-.18.17-.35.32,1.2-.18,2.41-.4,3.62-.61.34-.06.67-.11,1-.17-.56-.05-.92-.61-.76-1.16.67-.06,1.32.13,1.79.5.25-.48.5-.96.75-1.44-.23-.46-.36-.98-.36-1.52-.53.19-.88.7-1.32,1.07-.44.37-1.23.5-1.36.03-.12-.48.58-.9,1.13-1.07.54-.17,1.25-.54,1.18-1.04-.65-.07-1.41.28-1.83.85-.21-.32-.07-.84.3-1.1-.77.06-1.16-.94-.59-1.52-.43-.15-.71-.55-.71-1.01-.55-.65-.76-1.57-.57-2.48-.21,1.02-.78,2.02-1.58,2.82-.3.37-.92.26-1.14-.08-.22-.35-.19-.8-.27-1.21-.08-.42-.35-.83-.8-.81.16-.53.76-.96,1.31-.95.11-.33-.05-.68-.36-.79-.2.5-1.02.69-1.3.31.48-.28.11-.94-.39-1.01-.5-.07-1.12.07-1.45-.25-.18-.17-.23-.45-.36-.66-.13-.22-.43-.38-.69-.21.12.43-.06.96-.44,1.32.96.21-.79,2.28.14,2.56-.2.18-.39.37-.59.55-.25.16-.51.31-.77.47.55,1.4.59,2.89.12,4.14-.46.04-.92.08-1.38.12-.91,1.03-1.23,2.53-.86,4-.04.18-.36.05-.46-.13-.09-.18-.1-.4-.27-.54-.24-.21-.57-.05-.87-.04-.37,0-.78-.3-.86-.66-.09-.36.16-.7.52-.74-.21-.24-.54-.38-.83-.36-.02-.25-.03-.5-.04-.74.31-.02.62-.04.93-.05-.02-.41-.03-.82-.05-1.23.26.26.65-.14.46-.44-.19-.3-.62-.39-.95-.37-.34.01-.69.08-1.03-.06-.31-.14-.58-.64-.33-.78-.71-.48-1.41-.96-2.12-1.44l.02-1.04c-.84.02-1.67.03-2.51.05.48-.64.7-1.46.64-2.31-.54.09-.87.63-.7,1.17-.44-.69-.79-1.5-.58-2.19.21-.68,1.23-1.01,1.84-.44-.08-.39-.16-.78-.24-1.17,1.02-.54,2.04-1.08,3.06-1.61.03-.25.07-.49.1-.73-.69.09-1.42-.88-1.06-1.41.49.44.94.93,1.34,1.45.21-.23.42-.45.63-.68.49.85,1.9,1.08,2.38.39-.16-.9-1.01-1.77-1.95-1.99-.13-.21-.17-.46-.1-.66.34.06.69.11,1.03.16-.07.5.34,1.06.84,1.37.32.2.67.32,1.03.41.07.18.09.37.05.54-.08.35-.51.57-.87.39-.02.42.18.88.54,1.2l.65.36c.35.18.71-.28.43-.57.3-.13.68.12.94.39.26.27.49.59.84.7.16.05.31,0,.42-.1h0s0,0,.01,0c.04-.04.07-.08.09-.12.01-.03.02-.06.02-.1.01-.08-.01-.15-.09-.2,0,0,0,0-.01,0-.32.03-.69-.16-.88-.45-.19-.29-.18-.67.03-.88-.31.12-.7-.16-.91-.46-.21-.31-.34-.67-.61-.92-.04-.03-.08-.06-.12-.09-.19-.37-.59-.75-.65-1.16-.07-.41.33-.75.76-.67.43.09.79.58.7.95.14-.3.29-.61.43-.91.19.44.37.88.56,1.32.23-.11.46-.23.68-.36h0s.02,0,.02-.01c.03-.02.05-.03.08-.04v-.03c.4-.36.78-.74,1.12-1.15-.33-.11-.78.08-.97.41-.26-.66.37-1.6,1.16-1.76-.06-.44.1-.93.41-1.32-.64.22-1.29-.28-1.17-.89-.27,0-.49.16-.65.38,0,0,0,0,0,0-.15.15-.23.37-.22.6-.01.22.05.42.23.54.01,0,.02.01.03.02.02.02.03.03.05.05-.02.02-.04.04-.07.06-.72.44-1.44.88-2.16,1.32-.09.06-.18.11-.3.13-.58.07-.8-.87-.52-1.32.29-.46.73-.99.38-1.51-.53-.03-.21.95-.65,1.16-.34.17-.81-.3-.87-.7-.06-.4.08-.79-.06-1.19-.13-.4-.77-.72-.95-.39.22.87-.65,1.63-1.56,1.36-.23.58-.47,1.15-.71,1.72-.04.1-.09.2-.17.27-.24.18-.68-.07-.83-.38-.14-.31-.07-.63,0-.93.09-.34.35-.75.71-.56.1-.28.05-.62-.11-.91-.23.12-.41.32-.47.58-.22-.05-.42-.22-.51-.43-.19.35-.39.7-.58,1.06-.24-.49-.38-1-.4-1.5-.4.2-.53.74-.28,1.18-.51-.06-1.02-.26-1.46-.56-.07-.31.1-.6.39-.69-.74-.51-1.53-1.07-1.9-1.85-.22.6-.99.89-1.69.65-.03.4.05.84.22,1.24-.71.07-1.2.71-1.11,1.41-.19-.95-.19-1.91,0-2.8-.27-.07-.7-.55-.82-.79-.19.06-.37.17-.49.32-.63-.12-1.29-.25-1.86-.6-.57-.35-1.03-1-.92-1.56.44.29.91.6,1.41.65.49.04.99-.31.86-.78-.77-.06-1.6-.14-2.28-.6-.68-.46-1.06-1.47-.54-1.91-1.26-.87-2.83-.77-4.21-.62,0-.82.57-1.52,1.37-1.72.37-.15-.29-.73-.64-.55-.36.17-.51.61-.9.71-.55.13-1.17-.46-1.75-.41-.32.03-.55.27-.77.46-.23.19-.54.36-.87.25s-.5-.64-.19-.71c.44.04.87.09,1.31.13.01-.36.41-.6.79-.5-.71-.25-1.45-.38-2.17-.39-.37.4-.73.79-1.1,1.19-.2.22-.47.45-.81.35-.35-.12-.51-.53-.59-.87-.23-.91-.45-1.8-.68-2.7-.66.39-1.26.85-1.81,1.36-.01-.82.34-1.56.95-2.04-.45-.6-1.32-.63-2.04-.76-.72-.12-1.64-.78-1.39-1.37-.49-.36-.99-.72-1.49-1.07.03-.24.05-.49.07-.74-.8-.27-1.61-.46-2.42-.55-.01-.26.05-.51.18-.7.37.22.87.01.88-.37.01-.38-.47-.77-.85-.7-.05.52-.68.76-1.25.63-.57-.12-1.07-.5-1.55-.87,0,.54-.02,1.08-.03,1.62-.45.08-1.01-.38-.98-.83-.83.88-2.1,1.3-3.39,1.51-.05-.35-.1-.71-.16-1.06-.42.1-.84.19-1.26.29.19.6-.14,1.23-.72,1.38.96.53.29,1.97,1.01,2.8.44.51,1.2.55,1.83.54-.45.27-.63.85-.45,1.39-.55.12-1.13-.33-1.64-.68-.51-.35-1.27-.62-1.6-.21-.19-.46.06-.98.52-1.08-.39-.2-.73-.53-.91-.92-.08,1.14-1.65,1.27-2.88,1.16.47.33.92.7,1.34,1.09-.14.2-.28.39-.42.59-.38-.05-.74-.39-.8-.76-.2.13-.3.37-.27.61.42.03.79.53.67.88.73.34,1.61.22,2.06-.3.18.27.45.48.76.59-.15.66-.3,1.32-.45,1.98-.36-.26-.86.16-.61.53-.71.08-1.5-.12-2.16-.54-.15.21-.22.47-.21.75-.57-.2-1.18.08-1.29.59-.3-.5-1.14-.17-1.09.36.05.54.57.98,1.05,1.35-.45-.08-.9-.17-1.36-.26.08.47.17.94.25,1.4.52.15,1.01-.29.87-.79.22-.09.52-.03.73.15,0,.52.01,1.04.02,1.56-.33.04-.71-.13-.95-.4-.13.33-.02.76.26,1.08.16.18.39.33.51.53.12.21.06.51-.18.49.56.38,1.34.36,1.73-.04.53.14,1.01.58,1.18,1.08-.69.17-1.47.15-2.22-.05.32.6-.31,1.11-.89,1.32-.59.21-1.23.52-1.17,1.16,2.28-.65,4.49-1.44,6.63-2.34-.48-.2-.97-.4-1.46-.6,1.06-.8,2.42-1.19,3.76-1.56.62-.17,1.6-.15,1.78.5-.6.54-1.66.6-2.51.13-.2.42-.26.9-.15,1.39.64-.1,1.29-.19,1.93-.29,0-.45.47-.73.95-.71.48.02.95.26,1.41.49-.31.5-.51,1.06-.59,1.66.65.53,1.62.62,2.19.18.44.46,1.29.4,1.47-.11.17,1.27.43,2.54.76,3.81.08-.49.16-.98.24-1.47.34.65.55,1.34.6,2.01.04-.76.08-1.52.12-2.28.16-.1.4.09.54.26.3.35.61.73.7,1.15.09.42-.15.88-.59.86.24.13.47.25.71.38.16.72-.24,1.42-.93,1.61.85-.18,1.45,1.02,1.61,1.89.14.77.06,1.8-.75,1.77.09.24.18.48.28.72.26.13.58.03.65-.21.07.19.14.39.21.58-.36.14-.73.27-1.09.4.57.28,1.19.63,1.42,1.19.23.56-.37,1.2-.89.83.15.44.72.77,1.16.67.5,1.1,1.07,2.19,1.69,3.25-.34.08-.67.16-1.01.24.14.28.28.59.22.87-.06.28-.41.47-.68.28.43-.58.27-1.48-.18-2.19-.44-.71-1.13-1.28-1.79-1.83-.17-.14-.35-.29-.53-.43.39.68.78,1.36,1.17,2.04.2.06.4.11.6.17.32.58.21,1.21.1,1.79-.21,1.05-.43,2.1-.65,3.15-.06.26-.12.54-.35.69-.18.12-.44.11-.65.19-.5.17-.69.77-.54,1.3.15.54.58,1.01,1.06,1.38-.51.16-.78.72-.61,1.26.17.54.76,1,1.33,1.03-.27.34-.8.45-1.27.26.99,1.24.2,3.31,1.61,4.07.34.18.73.23,1.05.44.99.68.33,2.2,1.15,3.08.18.19.41.33.59.52.32.33.42.78.54,1.2.46,1.65,1.33,3.27,2.52,4.67-.45-.98-.91-1.96-1.36-2.93-.07-.16-.14-.31-.21-.47-.36-.76-.71-1.52-1.11-2.27-.25-.47-.52-.92-.8-1.37.22-.25.36-.57.39-.93.74.53,1.46,1.09,2.15,1.67-.61.67-.15,1.85.53,2.68.67.83,1.56,1.55,1.96,2.5.15.36.22.76.46,1.09.23.33.73.59,1.03.39.01.34-.27.61-.62.61.17.49.52.95.96,1.27-.61-.13-.53.87,0,1.25.53.38,1.25.54,1.6,1.06.01.36-.03.64-.02,1,.55-.07,1.09-.14,1.64-.22.19.23.27.54.19.78,1.02.3,1.98.88,2.74,1.65.01-.28.02-.56.03-.85.35-.32,1,.18,1.26.65.26.48.52,1.08,1.05,1.19.12-.39.44-.68.86-.77.02.68.03,1.37.05,2.06.54.05,1.08.09,1.62.14.09-.13.13-.3.13-.47.03.19.12.38.24.54.65.11,1.29.21,1.94.31-.31.22-.62.43-.93.64,1.28.48,2.28,1.79,2.29,3.02.89.37,1.83.61,2.75.69.08-.23.15-.46.23-.69.84-.32,1.5,1.76,2.27,1.73.11.81.03,1.69-.53,2.07.29.24.57.48.86.72-.46.15-.95.32-1.19.71-.24.39-.07,1.08.43,1.27-.58-.17-1.15-.34-1.73-.51.04.81-.3,1.57-.89,2.06.16-.06.33-.12.49-.18.43.26.73.73.76,1.18.01.18-.02.39.13.54.16.17.42.14.65.16.22.01.53.19.46.38-.95-.05-1.91-.21-2.85-.49.17.45.35.91.68,1.29.34.37.89.63,1.31.48-.39.8-.04,1.96.8,2.62.16.13.33.24.45.39.29.38.14.83.15,1.25,0,.31.26.7.54.81-.13,0-.27.01-.4.01.68.62,1.51,1.09,2.37,1.36-.3.47-.19,1.18.26,1.66.1-.46.61-.74,1.13-.64.06.38.19.83.25,1.21.37.3.73.6,1.1.9-.22.79-.08,1.72.39,2.53-.2.53-.4,1.06-.6,1.59.69.12.78,1.06.64,1.67-.33,1.46-.66,2.91-.99,4.36.43-.13.97.34,1.07.8.1.46-.11.88-.3,1.26-.3.58-.6,1.17-.9,1.76-.15.29-.3.6-.24.95.06.35.43.72.78.67-.3.76-.32,1.64-.08,2.5.43-.04.9-.07,1.31.16.15.09.28.23.36.39h0s.02.04.03.06c.03.08.06.17.06.24,0,.1-.03.19-.08.28-.03.03-.06.06-.09.08-.18.1-.43.06-.61.16-.31.17-.24.62-.14.99.28.04.56.07.84.11h0s0,0,0,0c.03,0,.07,0,.1.01v-.03c.45-.09.9-.18,1.34-.27.07.3.04.64-.09.96-.39-.19-.86-.24-1.33-.16-.16-.02-.32-.04-.47-.03-.1.33-.2.65-.31.98-.14-.32-.6-.5-.87-.35-.03.3-.05.59-.07.88.45.21.92.34,1.39.39-.22.28-.46.59-.44.98.01.37.38.79.75.78h0s.02,0,.03,0c0,0,.01,0,.02,0,.02.03.04.05.06.08h0c.09.15.04.38-.1.56-.12.11-.29.17-.46.12.24.1.38.32.46.58h0c.02.08.04.16.06.23.02.07.03.14.04.22v-.02s.02.09.03.13c.08.44.53.9.92.57.02.43.03.86.05,1.29.55-.06,1.1-.12,1.65-.19.49.17.43.84.47,1.36.04.52.64,1.03,1.06.61.1-.23.19-.45.29-.67.19.77,1.33,1.02,2.07.46-.95-.25-1.79-.74-2.43-1.4-.31-.33-.76-.71-1.21-.56.23-.2.19-.66,0-.9-.23-.29-.55-.68-.28-1.04.63.1,1.19-.66,1.36-1.3.17-.63.22-1.36.76-1.82-.07-.24-.14-.48-.2-.71-.63.54-1.69.37-1.89-.3.32-.14.64-.27.96-.41.24-.44-.64-.48-.84-.87-.2-.38.37-.86.84-1.03.47-.18,1.08-.39,1.19-.85-.28.02-.56.04-.83.07.51-.59-.66-1-.76-1.67-.09-.65.98-1.18,1.56-.88-.03.23.03.45.15.62l1.06-.26c-.96-.29-.36-2.33.69-2.77-.14.25-.29.5-.43.75,1.22-.44,2.41-1.05,3.48-1.81-.57-.56-1.13-1.12-1.7-1.67.09-.46.18-.93.27-1.39.6.66,1.62.94,2.63.72.04-.49-.04-.96-.23-1.38.5-.24.99-.49,1.49-.73-.56-.6.09-1.89,1.02-2.03.26-.69.91-1.29,1.64-1.52-.23-.52-.47-1.04-.7-1.56-.06-.14-.13-.29-.11-.46.07-.61,1.01-.78,1.62-.71.02-.34.29-.66.53-.95.75-.87,1.93-1.86,2.81-1.39.25-.52.72-.97,1.27-1.21.1-1.53.49-3.1,1.16-4.6-.42-.7-.68-1.51-.76-2.37.31.12.61.23.92.35.74-1.36,1.67-2.88,3.17-3.37-.73-.22-.92-1.23-.36-1.88Zm-26.59-5.66c-.64.11-1.07-.87-.87-1.44.1-.3.28-.58.39-.87.49.72.68,1.58.47,2.31Z"/>
                  <path class="cls-20" d="m111.52,62.2c-.16-.21-.38-.38-.63-.45.21.15.42.3.63.45Z"/>
                  <path class="cls-20" d="m114.92,59.26c.45-.12.75-.53.73-.99-.4-.28-.79-.55-1.19-.83-.06.73.11,1.51.47,2.24-.05-.14-.06-.28,0-.42Z"/>
                  <path class="cls-20" d="m119.16,54.56c.05.13.09.26.17.38.37.51,1.12.22,1.54-.12l.04-.08c-.34-.25-.68-.51-1.02-.76-.12-.09-.25-.19-.31-.32-.19-.38.25-.66.37-1.02.16-.44-.19-.97-.57-1.37-.38-.4-.83-.79-.95-1.28.48,1.26-.11,2.64-1.31,3.04.86.07,1.74.72,2.05,1.53Z"/>
                  <path class="cls-20" d="m119.72,48.58c1.17.06.45-.71.96-1.35.68-.85,1.92-1.31,3.12-1.31.07-.54-.27-1.24-.86-1.43-.59-.19-1.17.45-.77.93-.75-.2-1.64-.38-2.09.11-.5.54-2.44,2.95-.36,3.05Z"/>
                  <path class="cls-20" d="m130.93,36.5c.33-.19.79-.15,1.18-.26.39-.11.72-.5.48-.87-.07-.11-.17-.19-.27-.27-.6-.47-1.2-.94-1.79-1.41-.08.56.06,1.17.37,1.73-.06.35-.05.71.05,1.08Z"/>
                  <path class="cls-20" d="m161.12,44.61c.32.18.67.2.98.11v.03s.05-.03.07-.05c.02,0,.04,0,.06-.02v-.02c.37-.27.65-.69.64-1.1-.23.14-.49.14-.7.05-.16-.11-.29-.26-.38-.42-.21-.39-.21-.82-.2-1.22-.33-.04-.66-.09-.99-.13.35.13.66.4.82.72-.22.34-.84.09-1.22-.21-.38-.3-.86-.68-1.26-.52.65.77,1.31,1.55,1.95,2.33l.23.44Z"/>
                  <path class="cls-20" d="m133.54,38.3c.49.29,1.05.47,1.47.86l.97.21c-.65-.67-1.07-1.52-1.16-2.36-.37-.19-.75-.39-1.15-.43-.39-.05-.81.1-.92.43-.15.46.31,1,.8,1.3Z"/>
                  <path class="cls-20" d="m137.47,39.08c.24.53-.19,1.13.2,1.59l-.29-.12c.31.23.76.26,1.02.07.27-.19.33-.59.15-.92.23-.04.47-.08.7-.12,0-.25,0-.5,0-.75-.86-.34-1.69-.77-2.48-1.27-.28.1-.19.53.03.79.22.25.54.45.67.75Z"/>
                  <path class="cls-20" d="m157.11,112.84l.12.47c-.34.8-.21,1.82.33,2.66.2-.56.31-1.16.31-1.78,0-.52-.21-1.22-.77-1.34Z"/>
                  <path class="cls-20" d="m158.2,117.44c-.19.39.17,1,.66,1.12v-.04c.17.02.34.05.5.07,0-.55-.58-1.13-1.16-1.15Z"/>
                  <path class="cls-20" d="m148.16,115.81c-.05.45.04.94.26,1.4l-.09.21c.07.33.56.52.85.39.29-.14.38-.49.33-.82-.1-.6-.73-1.23-1.35-1.17Z"/>
                  <path class="cls-20" d="m123.97,128.41c-.84.28-2.04-.06-2.54-.9-.1.7-1.4.86-1.12,1.58.13.33.54.5.87.67.34.17.7.51.59.81-.13.36-.87.45-.64.82-.26-.07-.55-.22-.8-.33-.09.8-.57,3.73.65,3.92.63.1,1.27.2,1.9.3,0-.82,0-1.65,0-2.47,0-.26,0-.53.17-.71.14-.15.37-.2.52-.33.16-.14.24-.34.32-.54.57-1.55,1.14-3.09,1.71-4.64-.29.8-.8,1.55-1.64,1.83Z"/>
                  <path class="cls-20" d="m115.7,37.84c.26.13.54.12.81.11,0-.81-.06-1.75-.74-2.38.28.48.37,1.02.27,1.5h-.18c-.17.03-.34.07-.51.11-.11.22.1.53.36.66Z"/>
                  <path class="cls-20" d="m118.1,35.63c.14-.33,0-.78-.33-1.05-.25.36-.24.89.02,1.33l.31-.28Z"/>
                  <path class="cls-20" d="m110.31,37.97c.01.12.04.24.09.36l.21-.27s.01,0,.02,0c.05,0,.1-.02.15-.04l-.16.14c.35.05.69.1,1.04.14-.04-.22-.04-.44-.02-.66.12-.03.22-.08.3-.16.21-.21.22-.58.04-.87.09-.14.19-.27.31-.39-.2-.06-.4-.13-.6-.19.04.18,0,.35-.08.5-.49.01-.92.3-1.13.7-.06.03-.13.07-.19.1-.09.06-.17.13-.19.23-.03.15.08.3.23.39Z"/>
                  <path class="cls-20" d="m108.46,36.48c-.33.17-.11.77.29.91.4.14.79-.1.93-.44.13-.3.1-.66.06-1.01-.04.21-.47.23-.76.14-.34-.11-.87-.01-.7.3l.19.1Z"/>
                  <path class="cls-20" d="m169.18,111.28c-1.56-.39-2.81-1.43-3.4-2.83,1.05-.96,2.5-1.51,3.82-1.45-.15-.39-.3-.77-.44-1.16,1.38-.04,2.8-.39,4.13-1.01,1.55-1.04,2.34-3.05,1.79-4.53.52-.31,1.05-.63,1.57-.95-.21-.79-.69-1.47-1.37-1.92.26-.48.52-.95.78-1.43-1.81-.27-2.06-3.02-.38-4.15-1.01.24-2,.78-2.79,1.51-.39-.51-.78-1.02-1.17-1.54.89-1.04,1.78-2.09,2.66-3.13.22.58.45,1.15.68,1.73.17-.91,1.35-1.68,2.22-1.44.04.67.08,1.34.12,2.01.7-.03,1.41-.05,2.11-.07-.12.62-.24,1.28.01,1.8.26.52,1.04.78,1.58.36,1.17-.91-.74-2.19-.47-3.52-.47.01-.93.02-1.4.03.28-1.61.62-3.22,1.03-4.83.33.52,1.23.48,1.85.06.61-.42.99-1.08,1.28-1.72,1.71-3.8,1.28-8.07-1.11-10.84-.3.56-.85,1.04-1.47,1.26-.79-.76-1.96-1.14-3.19-1.03.92-1.13,1.07-2.7.36-3.71.53-.28,1.05-.55,1.57-.83.14-.99.47-1.98.97-2.92,1.98-.1,4.07-1.2,5.36-2.84.28.52.89.83,1.56.77-.87-.96-.44-2.8.84-3.67-.15-.38-.29-.76-.44-1.15.73-.21,1.46-.41,2.19-.62-.32.68.33,1.42,1.06,1.21.57-1.21.31-2.6-.62-3.32.94-.37,2.02-.12,2.5.59-.32.27-.64.54-.96.82.76,3.14.39,6.69-1.03,10,1.64,1.35,3,2.99,4.02,4.83.57-1.58.66-3.24.26-4.7.29-.14.59-.28.88-.42-.27-1.48-.84-2.86-1.66-4.05-.75-1.08-1.72-2.44-.85-3.72.58-.02,1.16-.05,1.75-.07-.17-.37-.33-.74-.49-1.1,1.09-.22,2.18-.44,3.27-.67.02-1.51.04-3.03.05-4.55,1.05-.14,2.09-.28,3.14-.41-1.13-1.3-2.67-2.37-4.56-2.48-.94-.06-2.29-.55-1.64-1.32.68.48,1.71.53,2.61.13.18-.63.19-1.28.03-1.85-.94.27-1.87-.46-1.72-1.36.82-.45,1.87-.21,2.19.51.13-.41.26-.81.39-1.22.76.14,1.52.28,2.29.42.15-.9-.42-1.75-1.3-1.93.6-.55.8-1.45.45-2.03-.57.14-1.13.28-1.69.41.44.36.6,1.01.38,1.61-.6-.54-1.19-1.09-1.79-1.63-2.44-.09-4.93.05-7.43.41-1.07.15-2.29.43-2.98,1.31.67.22,1.35.45,2.03.67-.22.44-.45.87-.67,1.31-1.71-.71-4.1-.17-5.65,1.29.27.62-.38,1.54-1.13,1.63-.53-.88-1.06-1.76-1.59-2.64-.94.1-1.88.2-2.82.3.13,1.05-1.37,1.78-2.51,2.08-.64.17-1.34.33-1.89.13-.56-.21-.84-.98-.36-1.46-.69-.23-1.6,0-2.21.55.91.3-.03,2.08-.93,1.77-.19-.46-.37-.93-.56-1.39-.74.29-1.47.58-2.21.87.62.48,1.23.97,1.85,1.44-.47.12-.94.24-1.4.36.22.58.18,1.28-.12,1.91-.67-.94-2.45-.85-3.37.16.24.7.48,1.41.72,2.12-.52.05-1.04.04-1.54-.03-1.47-.66-2.78-1.75-3.67-3.07.57,0,1.14,0,1.71,0-.92-1.59-2.97-2.63-4.67-2.37.82.34,1.53,1.02,1.85,1.81-1.55-.26-3.11-.51-4.66-.76.05-.56-.58-1.19-1.18-1.19-.6,0-.98.63-.73,1.2-.94-.23-1.88-.45-2.82-.67,1.05,1.23-.17,3.11-1.69,2.6,1.32-1.72-.57-5.29,1.46-6.25-.56-.19-1.12-.38-1.67-.57-.02-.46-.04-.91-.05-1.37-.88-.26-1.78-.37-2.65-.35.48.85-.34,1.85-1.29,1.58.11-.53.21-1.07.32-1.6-.88.05-1.87-.57-2.23-1.4-.49.58-.09,1.66.66,2.11-.16.05-.31.19-.29.38.05.36.37.67.5,1.02.29.79-.88,1.37-1.54.76.14-.61-.84-1.2-1.45-1-.61.2-.89.82-1.11,1.39-1.3.29-2.26,1.35-2.38,2.64.85.34,1.55,1.11,1.77,1.94-.6-.03-1.22-.49-1.42-1.06-.41.8-1.46,1.16-2.46.86.15,1.15,1.5,1.92,2.56,2.64,1.07.72,2.09,2.17,1.31,2.91.84.52,1.8.73,2.69.95-.03.1-.14.28-.29.48-.63-.29-1.33-.5-2.08-.61-.29-.04-.58-.09-.87-.13-.43-.69-.69-1.44-.7-2.18-.85-1.25-2.7-1.82-3.86-1.2.84.17,1.66.61,2.31,1.22-1.22.35-2.85-.35-3.59-1.53.25,1.45.85,2.9,1.74,4.21.37-.05.74-.11,1.12-.16,1.3.94,2.08,2.52,1.95,3.9-.69-.75-1.38-1.5-2.08-2.26-.3,1.12-.59,2.24-.88,3.36-.53-.11-1.06-.24-1.58-.37-.66-.17-1.33-.35-1.98-.52.38-1.16,3.45-.28,3.61-1.68.05-.38-.18-.78-.41-1.14-1.39-2.09-3.7-4.44-2.77-6.38l-1.15-.47c-1.37,1.4-1.24,3.98.29,5.73,1.11.63,2.08,1.51,2.81,2.53-2.39-.64-4.71-1.78-6.75-3.31.27.69.54,1.39.8,2.08-.04,0-.08,0-.12-.02-.93-.75-2.2-1.14-3.18-.75-.09.83-1.52.94-2.03.15-.49.5-.99,1-1.48,1.5-.44.44-.93.91-1.62.92-.43.01-.91-.26-1.17-.61.16.29.35.57.57.83-1.04-.34-2.14-.33-3.05,0,.51.77.65,1.71.38,2.46-.48-.35-.96-.69-1.44-1.03.21.28.3.64.18.92-.22.48-1.02.56-1.49.15-.27-.23-.41-.55-.54-.86-.48-1.13-.97-2.26-1.45-3.39.81.54,1.69,1.09,2.6,1.14.91.06,1.79-.64,1.51-1.51-1.49.13-3.13-1.55-2.87-2.92-1.32.21-2.79-.01-4.11-.63.07-.4.36-.73.76-.86-1.25-.74-2.69-1.12-4.03-1.07.42.57-.36,1.08-1.02,1.09-.02,0-.03,0-.05,0v-.03c-.66.22-1.49.51-1.6,1.14-.05.29.09.57-.01.85-.27.78-1.88.72-1.98,1.51.17.34.35.68.52,1.02-.47.21-.94.43-1.41.64.19,1.18-.48,2.58-1.61,3.38.45.2.89.4,1.34.59-1.59.54-3.12,1.34-4.51,2.35.68-.04,1.33.09,1.89.36-.14.37-.49.7-.89.81.33.96.39,2.03.16,3.1,1.12-.38,2.01-1.51,2.03-2.57.49-.08.98.07,1.28.38-.06,1.26.19,2.49.7,3.56-.85.57-2.03-.24-1.64-1.13-.58-.18-1.35.1-1.77.64-.41.53-.42,1.27-.02,1.68.91.32,1.9.64,2.93.37,1.04-.27,2.03-1.42,1.67-2.27.38-.11.76-.21,1.14-.32-.33-.6-.67-1.26-.49-1.99.17-.73,1.14-1.43,1.74-1.08-.42-.84-1.12-1.53-1.99-1.96.09-.94.7-1.91,1.58-2.51-.06-.74.29-1.51.86-2.14.71-.55,1.76-.75,2.74-.34-.61.84-1.21,1.68-1.82,2.52.38.31.76.63,1.14.95-1.05.17-1.6,1.36-1.11,2.38,1.2-.49,2.62-.6,4.03-.33.45.09.95.25,1.21.63.47.7-.29,1.43-1.09,1.42-.8,0-1.61-.41-2.42-.48.29.31.58.63.87.95-.61.25-.9.96-.67,1.63-.41.13-.92.06-1.34-.18.48.78-.21,1.62-1.04,1.8-.13.03-.28.05-.42.06v-.02c-.71.3-1.48.45-2.18.83-.83.45-1.55,1.48-1.11,2.13-1.77-.61-3.77-.78-5.79-.48.1.42.2.84.31,1.27-.35.11-.69.21-1.04.32-.47,1.9-2.52,3.57-4.51,3.69-.19.53-.22,1.08-.09,1.57.62-.07,1.24-.14,1.86-.21-.35,1.3.72,2.84-.44,3.71-.48.36-1.11.33-1.66.3-.99-.07-1.97-.14-2.96-.21-.38,1.7-.49,3.41-.33,5.05.53-.14,1.06-.17,1.56-.1.03.36.15.75.21,1.09.24,1.38-1.29,3.07-2.81,3.09.63.4.87,1.24.56,2-.96,1.06-2.31,1.83-3.67,2.1-.72,1.8-1.44,3.6-2.15,5.4,1.45.41,1.44,2.76-.02,3.63,1.5,2.87,3.66,5.35,6.33,7.25-.05-.45.1-.95.38-1.36,1.11.32,2.41,0,3.63-.3.49-.12.99-.25,1.48-.37.74-.86,1.84-1.46,2.93-1.61.82.2,1.2,1.01,1.88,1.44.68.43,2.11.03,2.02-.79.53.46,1.07.91,1.6,1.37-.85.32-.91,1.69-.09,1.81-.41.38-.82.76-1.22,1.14,1.03.29,1.88.95,2.37,1.84-.22.26-.45.53-.68.79.61.79,1.22,1.57,1.83,2.36-.38.18-.75.36-1.12.54.33.16.74.21,1.15.12-.52.87-.81,1.59-.44,2.38-.76.13-1.51.68-1.86,1.36.39.26.77.52,1.16.78-.09.39-.47.74-.87.81.33.22.73.35,1.15.38-1.23,1.95,2.37,3.83.93,5.67-.01.79.79,1.37,1.63,1.19h0s.03,0,.04,0c.26,1.7.51,3.4.77,5.1,2.54.41,5.07.26,7.33-.44,1.17-.36,2.43-1.28,1.93-2.5.48-.1.96-.2,1.44-.31-.18-.64-.82-1.22-1.5-1.36,1.03-.9,2.61-1.22,4.15-.85-1.17-1.09-1.11-2.86-.31-3.92.81-1.07,2.14-1.63,3.39-2.23-.1-.48-.15-.96-.2-1.43-.22-2.26-.45-4.52-.68-6.78.96-.63,1.93-1.26,2.9-1.9.93-.6,1.86-1.21,2.65-1.96,1.54-1.44,2.52-3.35,3.28-5.32-1.82.07-3.64.13-5.45.2-.37.01-.78.01-1.11-.22-.53-.36-.53-1.05-.61-1.62-.34-2.43-3.15-4.39-3.69-6.83-.19-.88-.46-2.14-1.38-2.15.71-.53.02-1.74-.69-2.5-.7-.76-1.5-1.88-.9-2.53.35.26.69.53,1.03.81-.06.17-.12.34-.18.5.32-.02.62.03.91.13.16.14.32.28.47.42.03-.05.06-.1.08-.15,1.22.77,2.09,2.54,2.65,3.97,1.06,2.69,2.54,5.3,4.38,7.68,2.33.09,4.57-.47,6.36-1.6.89-.56,2.01-1.27,3.07-.65-.09-.91.18-1.78.74-2.42-.67-.56-1.47-.97-2.3-1.19-.16-.46-.32-.91-.48-1.37-.74.28-1.37.75-1.82,1.35-1.92-1.77-3.46-3.92-4.43-6.21.64.03,1.29.06,1.93.09,1.1,1.14,2.2,2.29,3.3,3.44.67-.05,1.34-.1,2.01-.15,2.69,2.69,7.52,2.06,10.05,4.88-.35.56.19,1.52.94,1.67.14-.52.29-1.03.43-1.54.8.38.92,1.39.96,2.18.19,3.42,1.68,6.97,4.13,9.88.47-2.13.96-4.3,2.14-6.07.91-1.37,2.22-2.47,3.79-3.16,1.41-.15,2.83-.31,4.24-.45-.24.65-.34,1.36-.28,2.09,1.33.79,2.06,2.48,1.59,3.7.66-.07,1.24-.4,1.59-.89,1.44.66,2.31,2.46,1.78,3.7.11-.16.26-.29.43-.39.1.22.19.44.29.66v.02c.03.05.05.11.08.16.02.04.04.08.05.12h0c.11.2.22.41.32.63.39-.64.58-1.35.56-2.03.18-.01.37,0,.54.04.19.87,1.18,1.39,2.16,1.13-.14.8.1,1.58.65,2.09.12-.98,1.02-1.94,2.05-2.21-.25-1.19,0-2.55.68-3.74Zm-52.99-25.29c-.68.06-1.37.2-2.06-.02-.55-.18-1.02-.57-1.55-.82-1.28-.61-2.83-.22-3.37.85-.01.03-.02.05-.03.08l-1.78-.29c.51.42.23,1.16.56,1.71.26.43.81.62,1.29.76l.02.04s.03-.07.05-.1c.23.49.6.94,1.07,1.26.74-.28,1.53-.57,2.39-.47.86.11,1.82.75,1.95,1.57.07.4-.06.77-.19,1.13-.28.77-.56,1.55-.85,2.32-.21-.16-.44-.29-.67-.37-1.05-.38-2.12-.24-3.18-.36-1.07-.12-2.33-.68-2.66-1.68.14.78-.93,1.14-1.71.78-.78-.37-1.29-1.15-1.73-1.87-.3.78-.39,1.67-.26,2.55-.87-.02-1.69-.41-2.48-.93v-.03c-1.58-.53-3.09-1.59-4.85-1.14-.09-.28-.56-.57-.65-.85.68-.54.91-1.53.48-2.11-2.28.71-4.55,1.42-6.82,2.12-.89.27-1.85.55-2.65.3-.32.42-.87.67-1.36.62.03-.45.03-.9,0-1.34.27.09.52.2.74.35.71-.96,1.99-1.55,3.09-1.42.35-1.15.48-2.33.39-3.45l2.01-.34c.02-.49.04-.97.06-1.46,1.26-.83,2.67-1.43,4.1-1.73-.49,1.31,1.09,2.06,2.38,2.37.96.23,2.06.78,2.29,1.58.04-.35.08-.71.12-1.06.02-.18.04-.36-.02-.52-.09-.25-.36-.37-.6-.49-1.41-.67-2.66-1.6-3.67-2.73.91-1.13,2.6-.52,3.6.2.25.55.72.98,1.28,1.26h0c.56.47,1.22.8,1.91.93-.55.58.09,1.63.76,2.31.66.69,1.44,1.57,1.15,2.32.41-.53.38-1.3.31-2.01-.06-.72-.12-1.48.26-2.04.38-.55,1.38-.7,1.9-.11-.09-.85.92-1.44,1.78-1.04.47-.46-.54-1.31-.48-1.99.08-.89,1.51-.51,2.46-.21,1.82.56,3.76-.08,4.54-1.5.93,1.2-.18,2.54-1.23,3.32.75-.18,1.63.41,2.12,1.11.48.69.7,1.49,1.05,2.23.08.16.17.31.26.47-.52-.05-1.03-.06-1.53-.02Zm6.48,3.63c.62.02,1.2-.22,1.07-.77-.06-.25-.27-.47-.47-.67-.79-.8-1.57-1.59-2.36-2.39.45.14.58-.52.31-.92-.27-.39-.73-.73-.8-1.17-.04-.29.11-.54.26-.77.35-.51.75-.97,1.17-1.42.97.36,2.14.42,3.14.38-.41.69-.82,1.39-1.23,2.08,1.47,2.56,2.94,5.13,4.41,7.68-1.89.09-3.96-.69-5.49-2.05Zm39.49,24.91l-.17-.18s.08-.02.12-.03v.02s.04-.02.06-.04c.02,0,.05-.02.07-.02v-.02s.03-.02.05-.03c.03.18.09.34.16.5l-.28-.2Z"/>
                  <path class="cls-20" d="m162.21,41.33s.02.02.03.03h0c.4.36.7.83.84,1.36.15-.02.31-.04.46-.06l.24-.2c.36-.14.43-.64.2-.88-.23-.23-.61-.27-.96-.3-.28-.02-.56-.04-.84-.06-.02,0-.04-.02-.07-.03,0,0,.01.02.02.02,0,0-.02,0-.02,0,.04.03.07.07.11.1Z"/>
                  <path class="cls-20" d="m167,41.98l-.11-.18c.16-.17.32-.33.48-.5-.9-.14-1.79-.29-2.69-.43.13.96,1.3,1.51,2.33,1.11Z"/>
                  <path class="cls-20" d="m165.03,45.08c-.36-.02-.48.59-.18.73.3.14.71-.03,1.05-.2l-.1-.07c-.34.13-.44-.43-.78-.45Z"/>
                  <path class="cls-20" d="m184.11,74.04c1.17.69,1.66,2.07,1.81,3.45.04.37.3.85.67.62-.16-.39,0-.91.37-1.24.12-.1.25-.19.34-.31.34-.47-.21-.89-.6-1.2-1.01-.81-1.22-2.47-2.54-2.81.19.37.25.82.17,1.26l-.22.23Z"/>
                  <path class="cls-20" d="m187.03,80.35c.6-.22.98-.96.76-1.45-.13-.29-.46-.48-.82-.45l.15.11c-.2.6-.23,1.23-.08,1.79Z"/>
                  <path class="cls-20" d="m190.14,83.78c.26-.41.29-.88.52-1.3.08-.14.18-.29.14-.42-.04-.15-.23-.19-.4-.21-.61-.07-1.22-.1-1.85-.1-.01-.15-.02-.3-.03-.45-.31-.13-.7-.13-1.05,0-.18,1-.37,2-.55,3-.07.4-.14.82.05,1.14l-.27-.45c0,.41.33.75.76.77.43.02.91-.28,1.09-.69-.31-.07-.62-.14-.92-.21-.07-.34-.04-.75.22-1.06.27-.31.81-.4.99-.11.08.13.07.3.16.43.23.34.9.06,1.15-.34Z"/>
                  <path class="cls-20" d="m188.16,91.46c.44.1.93.05,1.39-.12.26-.32-.25-.55-.47-.82-.12-.15-.14-.37-.16-.57-.08-.93-.64-2.51.5-3.19-.99.37-2.91,1.81-1.7,2.56-.99.35-1.49,1.23-1.74,2.13-.03.13-.07.26-.16.37-.29.33-.78.15-1.1-.05-.32-.2-.89-.29-1.08.09.3.13.05.63-.28.8-.33.17-.73.21-1.01.47-.36.33-.32.84-.26,1.25-.24.08-.47.16-.71.23.9.69,1.58,1.62,1.96,2.7.34-1.1.45-2.23.31-3.29.75-.14,1.5-.28,2.25-.42.12-.27.01-.58-.24-.67.96.06,2.04-.57,2.51-1.46Z"/>
                  <path class="cls-20" d="m176.87,103.37c-.26.21-.55.46-.59.77-.03.23.2.42.42.39l-.2.1c.22-.04.45-.09.67-.13,0-.62.11-1.26.32-1.89-.07.3-.36.54-.62.75Z"/>
                  <path class="cls-20" d="m169.55,109.45s.14-.07.07-.08l-.07-.1s0,0,0,.01c-.02.06-.04.14,0,.17Z"/>
                  <path class="cls-20" d="m168.84,108.54c-.15.4.24.8.68.68l.04.05c.14-.37.29-.74.43-1.12-.39.06-.78.19-1.15.38Z"/>
                  <path class="cls-20" d="m165.65,122.31c.26-.78-.1-1.51-.46-2.16-.54-.98-1.85-1.06-2.19-1.93-.48,1.11.74,1.16.86,2.17.11.95.83,1.72,1.79,1.92Z"/>
                  <path class="cls-20" d="m166.07,124.27c-.78-.04-1.13-.81-1.56-1.37-.52-.69-1.4-1.26-2.35-1.36-.24-.11-.48-.18-.73-.22-.06.6.25,1.16.67,1.7v.03s.05.04.07.06c.02.03.04.05.06.08v-.02c.72.65,1.63,1.23,1.54,2.3-.01.16-.05.33.02.46.06.11.17.17.28.23.77.4,1.53.8,2.3,1.19.18.09.46.17.61-.02.07-.08.07-.19.08-.28.03-.75.06-1.49.09-2.24,0-.12.01-.25-.05-.36-.17-.29-.65-.17-1.03-.19Z"/>
                  <path class="cls-20" d="m174.87,122.7c.13-.09.28-.16.36-.28.08-.12.06-.26.06-.39.03-.67.81-1.34,1.5-1.28-.66.03-1.17-.52-1.08-1.15.09-.63.78-1.21,1.43-1.22-.74-.06-1.33-.6-1.43-1.3-.64.33-1.17.91-1.42,1.54-.63.06-1.2.54-1.6,1.06-.4.52-.69,1.1-1.12,1.6-.09.11-.19.21-.31.29-.5.33-1.27.35-1.81.57.59.53,1.15,2.03,2.02,2.36.22.09,2.98-.04,2.95,0-.12-.61-.15-1.39.44-1.8Z"/>
                  <path class="cls-20" d="m173.7,127.96c-.35-.56-1.16-.67-1.9-.69-1.27-.05-2.56.01-3.85.18l-.25.42c-.31.35.11.8.55.76.44-.04.86-.33,1.3-.46.83-.23,1.6.14,2.42.19.57.03,1.18-.11,1.72-.4Z"/>
                  <path class="cls-20" d="m178.65,126.99c-.51-.02-1.08.22-1.46.62.24-.02.48-.03.72-.05l-.34.19c.45.02.95-.33,1.08-.76Z"/>
                  <path class="cls-20" d="m176.37,128.98c.35.22.75.38,1.18.45l.02-.18c-.01-.16-.02-.31-.04-.47-.39.07-.77.13-1.16.2Z"/>
                  <path class="cls-20" d="m181.07,119.56c-.55.17-.74.98-1.29,1.12-.31.08-.58-.11-.88-.13-.68-.04-1.24.74-1.47,1.39-.19.54-.37,1.16-.78,1.57.25-.04.55.1.63.34.11.37-.03.82.15,1.15l-.07.3c.46-.08.47-.72.31-1.1-.16-.38-.17-1.01.28-1.11.42-.09.54.44.48.83-.05.4-.02.93.4.91.36-.01.59-.48.51-.79-.07-.32-.32-.54-.46-.83-.14-.28-.12-.72.2-.92.27-.16.69-.15.78-.42.11-.32-.44-.36-.73-.13-.28.23-.52.59-.86.63-.46.05-.59-.6-.26-.96.33-.36.85-.46,1.31-.49.46-.03.95-.03,1.37-.27.42-.25.69-.86.36-1.11Z"/>
                  <path class="cls-20" d="m176.36,123.74c.11-.06.2-.14.29-.23-.13.02-.24.09-.29.23Z"/>
                  <path class="cls-20" d="m178.07,108.11l-.75.34c-.25.81-.5,1.72-.11,2.37.33.53,1.07.88.97,1.55-.03.25-.19.5-.19.75,0,.25.32.45.52.25.1-.1.1-.24.1-.36,0-.47,0-.95,0-1.42.27.04.55.07.82-.05.27-.12.48-.46.33-.66-.07-.09-.19-.13-.31-.16-.37-.09-.76-.11-1.16-.07.44-.01,1.11-.3.95-.66-.11-.25-.55-.18-.74-.37-.24-.23,0-.66.1-1.02.1-.36-.28-.79-.54-.49Z"/>
                  <path class="cls-20" d="m182.16,115.12c.09-.21-.11-.4-.33-.41-.22,0-.45.12-.66.24-.54.31-1.09.62-1.63.93.41-.31.9.04,1.11.41.21.38.44.85.92.8h-.69c.26.16.65.13.94-.08-.22-.48-.41-1.14.04-1.58.11-.1.24-.19.3-.32Z"/>
                  <path class="cls-20" d="m181.21,112.91l.13.2c.07-.32.14-.65.02-.92-.12-.27-.52-.41-.8-.2-.28.46.12,1.03.64.93Z"/>
                  <path class="cls-20" d="m178.96,114.48c.18.04.4-.06.5-.23l.36-.71c-.28.06-.57.11-.85.17,0,.26,0,.51-.01.77Z"/>
                  <path class="cls-20" d="m199.38,124.05c-.73-.26-1.55-.72-1.41-1.51.05-.26.19-.58.02-.76-.06-.06-.14-.09-.23-.12-1.5-.52-3.15-.76-4.84-.69-.22,0-.45.02-.65-.04-.36-.12-.56-.49-.93-.61-.49-.15-1.17.3-1.24.82-.04.31.06.69-.23.87-.21.13-.45.04-.63-.05-.18-.09-.36-.18-.53-.27-.5-.25-1.05-.78-.66-1.29-.95-.09-1.88.65-2.49,1.37.46-.26,1.12-.3,1.24.24.03.12.01.25.06.37.09.26.47.34.74.16.21-.14.3-.4.25-.61.18.25.57.33.91.43.4.11.82.4.67.81.32.1.7-.07,1.06-.17.36-.1.81-.08.9.23.11.4-.51.85-.44,1.27.07.39.65.39,1.09.25.43-.14.96-.32,1.25-.06.21.19.18.55.35.78.3.41,1.08.22,1.48-.23.4-.44.52-1.02.62-1.56.46-.28,1.06-.27,1.4.03.19.17.3.41.45.61.68.93,2.09,1.06,3.36,1.12,0-.78-.84-1.15-1.57-1.41Z"/>
                  <path class="cls-20" d="m183.48,126.2c-.4-.15-.98.17-1.11.6l.79-.31c.15.04.35-.14.32-.28Z"/>
                  <path class="cls-20" d="m183.29,122.64c-.4-.13-.96.18-1.1.61l.25.47c.52-.02,1-.64.85-1.08Z"/>
                  <path class="cls-20" d="m185.02,122.69l.49-.08c.29-.24.12-.74-.24-.68-.36.06-.54.62-.25.76Z"/>
                  <path class="cls-20" d="m183.68,120.08c-.01-.21-.02-.41-.03-.62-.27.04-.54.09-.82.13-.23.45.16.97.66.88l.18-.39Z"/>
                  <path class="cls-20" d="m202.58,119.73c-1.22-.35-3.89.62-3.22,2.21-.09.05-.19.09-.28.13l4.27-1.11c.09-.17.26-.27.44-.3-.32-.43-.7-.79-1.21-.93Z"/>
                  <path class="cls-20" d="m199.08,122.07l-.39.1c.13-.02.26-.05.39-.1Z"/>
                  <path class="cls-20" d="m196.42,132.17c-.39-.68-.61-1.45-.83-2.21-.34-1.18-.67-2.36-1.01-3.54-1.18,1.97-1.91,4.12-2.09,6.23-.46-.47-.72-1.12-.72-1.81-1.12.28-2.28.17-3.17-.32.51-.12.57-.98.07-1,.26-.28.53-.56.79-.84-1.05.29-2.14-.07-2.64-.86.06.37.12.74.18,1.11-.38.17-.82.29-1.15.14-.33-.16-.37-.71,0-.91-.45.13-.9.27-1.35.4.22.55.45,1.11.67,1.66-.72.08-1.46.43-2.01.96-.13-.36-.26-.73-.38-1.09-.31.4-.49.88-.5,1.34-1.52-.53-3.2,2.79-4.62,2.1.83.35,1.05,1.51.45,2.33,0,0-1.3.2-1.55.32-.67.32-.83.99-1.45,1.28-1.32.62-2.4-.11-3.1,1.52-.24.55.13,1.03.03,1.54-.13.72-.6.91-.73,1.64-.28,1.61.6,3.59.42,5.33-.06.59-.31,1.34-.92,1.49.41.27.89.46,1.41.55.56-1.15,1.9-2.01,3.15-2.02.45,0,.88.09,1.33.01.35-.06.69-.22,1.02-.38,1.26-.59,2.51-1.18,3.77-1.77.63-.29,1.28-.6,1.93-.61,1.52-.03,2.28,1.42,2.78,2.69.3-.46.6-.92.9-1.38.33.69.63,1.57.25,2.29.41-.35,1.19-.33,1.49.08.37.52.22,1.28.06,1.97,1.22-.02,2.37.37,3.2,1.1,0-.28,0-.56,0-.84.37-.39,1.08-.35,1.26.06.16-.42.21-.86.15-1.27.78-.17,1.56-.33,2.34-.5-.4-.96.22-2.34,1.31-2.92.05-.66-.11-1.3-.46-1.81.7.19,1.57-.21,2.13-.81.55-.6.84-1.35,1.07-2.08.45-1.49.68-3.01.68-4.49-.94-1.02-1.89-2.05-2.83-3.07-.47-.51-.95-1.03-1.3-1.63Z"/>
                  <path class="cls-20" d="m187.33,148.38c-.1.09-.19.2-.23.34.1-.11.17-.22.23-.34Z"/>
                  <path class="cls-20" d="m190.35,153.35c.09.49-.06,1.05-.39,1.5.48-.15.84.29.89.74.05.44-.06.92.08,1.32.37.04.79-.15,1.03-.47.26-.34.28-.81.05-1.09.45,0,.88-.45.99-.88.1-.44-.03-.85-.15-1.25-.78.54-1.85.59-2.49.12Z"/>
                  <path class="cls-20" d="m190.93,156.93s0-.01,0-.02c-.03,0-.06,0-.08,0l.09.02Z"/>
                  <path class="cls-20" d="m180.15,126.92c-.2.42-.17.89.07,1.21l.33.1c.14.09.39-.02.45-.19-.06-.5-.38-.93-.85-1.13Z"/>
                  <path class="cls-20" d="m181.78,99.85c-.32-.06-.74.21-.78.53-.05.32.37.56.67.35l.55-.17c.07-.32-.11-.65-.43-.71Z"/>
                  <path class="cls-20" d="m183.57,98.06c-.41.07-.6.71-.26.86l.51-.08c.35-.26.16-.85-.25-.78Z"/>
                </g>
                <g>
                  <path class="cls-20" d="m66.12,59.87c.55-.57,1.12-.96,1.75-1.27-.83-.47-1.71-.86-2.6-1.27-1.14-.52-.58-2.25.64-2.21.79.02,2.6.38,3.28-.03-.29.18-.02-.61.11-.88.15-.32.41-.63.73-.83.52-.34,1.42-.1,1.83-.36,1.85-1.17-.07-6.37.48-8.3.17-.61.91-1,1.56-.83,1.02.28,1.68.52,1.65-.51-.01-.56-.69-1.3-1.15-1.59-.58-.36-1.03-.34-1.44-.16-.12.06-.23.12-.34.18-.19.12-.37.26-.56.39l.02.32-.32-.12c-.32.21-.67.38-1.1.44l-.43.23.06-.21c-1.82-.07-2.43-2.19-4.13-1-.24.17-.47.34-.69.49.04.39.04.81,0,1.26-.09,1.11-1.56,1.6-2.29.7-.77.58-1.55,1.14-2.36,1.65.18.27.3.59.35,1,.11.97-.17,1.73.11,2.75.08.27.16.54.26.8,2.55.49,4.63,2.31,2.04,4.6-.17.15-.35.24-.53.29-.19.68-.46,1.39-.49,2.32-.06,1.73.75,3.35.06,5.06-.46,1.13-1.38,1.84-2.38,2.55-.47.33-1.08.62-1.38,1.11,0,0,0,0,0,0l-.24,1.04c-.02.54.09,1.1.44,1.31-.19-.11.25-.44.64-.82l-.07-.73c.06.2.14.39.22.58.03-.04.07-.07.1-.11.44-.53.8-1.12,1.17-1.69.64-.98,1.18-2.05,2.16-2.77.06-.05.12-.08.18-.12.37-.43.83-.82,1.37-1.12.07-.11.14-.24.21-.39.31-.69.53-1.15,1.1-1.73Z"/>
                  <path class="cls-20" d="m39.29,132.78c.66.75,1.13,1.59,1.57,2.47,1.75,3.52,3.15,8,.43,11.26.49.8.82,1.63.83,2.61,0,.69-.11,1.32-.19,1.96,1.51-1.19,2.56-2.59,2.77-4.69.18-1.8.19-3.56,1.39-5.06.57-.7,1.65-.82,2.19,0,.85,1.29.64.82,1.03-.09.25-.57.56-1.11.85-1.66.46-.84.92-1.69,1.49-2.47,1.22-1.69,3.22-2.69,4.43-4.29.64-.85.68-2.23.7-3.24.03-1.55-.3-2.39-1.9-2.79-.27-.07-.54-.13-.81-.19-.22.05-.45.09-.68.09-.72,0-1.42-.26-1.96-.72-.22-.06-.44-.14-.66-.21l-1.02.1-.5-.79c-.63-.4-1.04-.86-1.43-1.37h-.02s0-.02,0-.02c-.31-.41-.6-.86-.98-1.32-1.05-1.3-3.18.18-4.72-.78-.44-.27-.85-1.18-1.35-1.25-.46-.07-1.64.88-2.03,1.04-.17.07-.34.12-.5.17l.07.06-2.25.73c.72,1.1.98,2.04.78,3.33-.21,1.38-1.26,2.84-.57,4.23.55,1.1,2.01,1.83,2.86,2.72l.23.07-.07.11Z"/>
                  <path class="cls-20" d="m5.73,53.93c.51,1.46-1.94,2.07-2.45.63-.76-2.15,1.5-3.72-.06-5.75-.63-.82-2.38-2.1-3.56-1.59-.6.26-1.48,1.39-1.85,1.91-.44.63-.66,1.6-1.49,1.91-.62.23-.94,0-1.43.36-.63.47-.99,1.53-1.44,2.32v.02s-.01,0-.01,0c-.1.17-.2.32-.31.45-.09.11-.19.21-.28.3.1.04.21.08.31.12.23-.03.45-.05.68-.05,1.03,0,1.94.32,2.59.87.37.08.73.17,1.08.27.09-.16.18-.32.28-.48.52-.84,1.64-.69,2.19,0,1.04,1.3,1.3,2.86,2.2,4.2.75,1.12,2.01,1.46,2.52,2.75.05.11.08.23.12.35.11.24.21.5.26.78.07.31.09.63.06.94l.06.27c.09.42.11.83.06,1.23.04.26.08.51.14.76.02.08.04.16.07.23.2.44.35.91.43,1.37.01.06.02.13.03.19.32,1.01.68,2.01,1,3.02.57,1.8,1.46,3.83,1.71,5.83l1.23,2.09-1.32.32c-.06.25-.13.51-.23.76-.49,1.25-1.34,2-1.11,3.31.12.68.36,1.27.55,1.87l.69.04-.5.63.07.05-.06.02c.07.34.11.69.09,1.08-.13,2.28-.78,3.18,1.06,5.26.14.16.28.32.42.48.33.26.65.52.97.79l1.82,1.55-.45.49c.11.15.23.29.34.45.45.63,1.12,2.16,2.21,1.88.11-.03.71-.69.81-.76,1.02-.72,2.44-1.06,3.69-1.16,3.65-.27,7.18,1.56,10.81.5,1.36-.39,1.32-.59,1.08-1.73-.2-.96-.39-1.88-.38-2.87,0-.52.39-1.01.93-1.14,1.37-.35,2.81-.24,4.18-.54,2.54-.57,1.8-2.43.11-3.46-1.03-.63-2.17-1.1-3.01-1.97-1.18-1.23-1.24-2.86-2.11-4.24-1.21-1.94-4.16-2.35-5.98-3.66l-1.13.03.46-.61c-.26-.28-.47-.6-.62-.98-.4-1.03.23-1.68.78-2.52.84-1.27,1.19-2.73,2.03-3.98.13-.2.29-.38.45-.56h0s.03-.03.03-.03c.87-.93,2.04-1.7,2.08-3.03.06-2.07-2.13-2.37-3.85-2.7-1.26-.25-2.29-.52-3.17-1.04h-.03s0-.01,0-.02c-.68-.41-1.27-.97-1.81-1.79-.12-.17-.24-.37-.36-.58-.81-.53-1.54-1.38-1.83-2.38-.09-.08-.19-.15-.29-.21-.95-.58-2.1.35-3.29.24-1.04-.1-1.9-.59-2.49-1.38-.38-.51-.48-1.31-.89-1.77-.04-.05-.09-.09-.14-.13-.07.02-.14.04-.21.05.08.88-.85,1.8-1.84,1.17-.88-.56-1.62-1.16-2.3-1.93-.03-.04-.06-.08-.08-.12l-.4.37c-.03.22-.02.43.06.66Z"/>
                  <path class="cls-20" d="m103.51,132.7c.16.47.29,1.05.57,1.49.34.54,1.02.88,1.04,1.23-.02-.55.39-.97.9-1.11.68-1.21,2.2-2.44,3.32-3.38,1.71-1.44,2.11-3.45,4.34-4.42,1.97-.86,1.79-1.61,1.07-3.51-.37-.99-.88-1.9-.79-2.98.06-.71.32-1.32.7-1.85l-.03-.34.82-.54c.51-.47,1.1-.88,1.69-1.27.86-.55,1.89-1.02,2.6-1.75,1.45-1.5-.19-1.71-1.43-2.29-2.06-.96-2.72-2.69-3.52-4.59-.56-1.32-.97-3-1.98-4.09-1.37-1.48-3.72-1.15-5.53-1.81h-.57s.23-.18.23-.18c-.77-.56-.95-1.94.29-2.12.48-.07,1.28-.04,1.73-.26,1.1-.54,1.15-2.03-.05-2.68-1.51-.82-2.15.1-3.42.61-1.88.76-3.24.16-4.71-.95-1.98-1.5-4.81.07-6.65-1.68-.5-.48-.48-1.29-.9-1.71-.05-.55-.19-.59-.42-.13-.23.24-.41.51-.55.8-.21.29-.37.59-.65.84-.71.65-1.61.87-2.57,1-.6.09-1.49.02-2.06.25-.28.11-1.1.53-1.11.58-.01.21.83,1.01.91,1.4.14.72-.13,1.44-.69,1.93-1.68,1.45-4.9.29-4.35,3.37.27,1.54.67,2.88-.04,4.22,2.26,2.61,4.85,2.6,7.61.18.44-.39.97-.4,1.4-.21.23-.49.45-.99.66-1.49.32-.8,1.41-1.22,2.12-.52,2.68,2.62,5.53,4.87,8.93,6.65.69.36.86,1.35.26,1.86-1.19,1-2.6,4.44.3,3.42,1.15-.41,1.83.91,1.43,1.74-.15.31-1.49,2.17-1.14,2.35.79.41.86,1.65,0,2.05-1.33.61-.11,1.04.07,2.16.22,1.34-.66,2.49-.74,3.79-.04.69.09,1.39.28,2.08l.58-.12v1.91s.02.07.03.1Z"/>
                  <path class="cls-20" d="m177.47,82.63c.07-1.42.12-2.42.78-3.72.22-.44.95-.72,1.43-.55.7.25,1.24.62,1.72,1.03.05-.88,0-1.74-.41-2.34-.63-.96-1.33-.76-2.4-.56-1.27.24-3.27.96-4.57.51-.84-.3-1.15-1.05-1.23-1.83-.22.03-.44.07-.66.1.22-.13.43-.29.63-.45,0-.24,0-.49.02-.71.08-.93.52-1.63.8-2.5.31-.98.08-1.74.05-2.72-.07-1.99,1.48-3.13,2.65-4.6,1.16-1.45,1-2.85,3.25-3.1,2.8-.31,2.74-1.56,3.71-3.64.38-.8.9-1.38,1.55-1.84-.95-1.52.32-2.85,2.92-3.04,1.79-.13,3.62.02,5.41.17.41.04,1.4.32,1.82.19,0-.02-.01-.03-.02-.05-.07-.39-.81-.92-1.04-1.25-.41-.58-.61-1.07-.69-1.61-.31-.53-.5-1.12-.56-1.72-.07-.78.04-1.56.26-2.32-.33-.27-.92-.29-1.91.06-.49.17-.96.38-1.42.61-.16.41-.29.83-.42,1.24-.21-.28-.49-.47-.81-.59-1.29.74-2.55,1.55-3.93,2.12-1.39.57-2.72.92-4.25.88-1.9-.05-3.94-.68-5.68.33-1.26.73-2.04,1.78-3.52,2.24-.81.25-1.48.13-2.05.92-.24.33-.36.83-.5,1.29.36.52.36,1.27-.36,1.68-1.34.76-2.75.65-4.26.49-1.8-.19-3.53.1-5.33,0-1.43-.09-2.94-.43-4.02-1.34-.67-.56-.84-1.02-1.7-1.35-.98-.38-1.81-.17-2.84-.01-2.56.4-5.51.93-7.32-1.31-1.05-1.3-.77-2.54-.22-3.77-.44.39-.84.82-1.18,1.29-.39.54-1.01,1.34-.98,1.98,0,.09,0,.15,0,.2.3.24.84.4,1.13.68.54.51,1.04,1.28,1.3,1.96.58,1.49.07,2.99-1.21,4.03-.64.53-1.19.58-1.92.86-.65.25-1.37.23-1.5,1.16-.05.36.25.92.31,1.29.4,2.19-.84,5.5-3.62,3.81-.86-.53-1.41-1.06-2.46-1.31-1.32-.32-2.7-.25-4.01-.61-1.98-.55-3.64-1.86-5.62-2.17-.44.49-.79,1.15-1.16,1.53-.04.04-.08.08-.12.12.1.16.18.31.22.44-.06-.09-.2-.19-.39-.28-.52.47-1.08.79-1.8,1.03-1.2.39-3.25.89-4.67.49-.16.06-.32.11-.49.16-.04.15-.09.3-.15.45-.18-.07-.35-.15-.53-.24-.39.12-.76.26-1.1.46-.78.46-1.25,1.36-1.78,2.04-1.22,1.55-2.49,3.36-4.08,4.61-.56.44-1.4.7-1.89,1.18-1.12,1.1-.45,1.67.14,2.69.05.09.1.18.15.26.43-.18.93-.3,1.53-.37,1.91-.2,3.53.71,5.02-.89.74-.8,1.2-1.53,2.34-1.95,3.44-1.28,4.44,2.37,5.16,5.19,2.22-1.51,5.63-1.81,8.21-1.22.75-.96,1.88-1.31,3.4-.4.35.21.67.61.63,1.02-.07.69-.19,1.39-.31,2.08.62,1.37.48,2.99-.42,4.33.01.24.03.48.06.72.32,2.27,2.01,3.58,2.66,5.65.43,1.37-.06,2.87-1.49,3.54-.12.06-.25.1-.38.14,1.56,1.11,3.21,1.98,5.39,2.18,1.91.17,3.65.28,5.25,1.36,2.82,1.9,3.51,5.17,4.55,8.12,3.39-2.47,7.61-5.73,11.98-4.7,1.25.29,1.7.9,1.94,2.03.29,1.36.72,2.7,1.47,3.88.32-1.33.81-2.65,1.57-3.62,1.26-1.62,2.87-1.58,4.8-1.76,1.83-.17,2.3-1.01,2.59-2.62.24-1.33.43-2.61-.66-3.6-1.43-1.3-3.44-1.92-3.62-4.06-.17-1.97,1.54-3.01,3.05-4.02,1.11-.75,1.65-1.54,2.29-2.63.33-.56.59-1.03,1.25-1.32.41-.18.95-.24,1.47-.2.13-.15.26-.31.39-.46.11.19.21.38.32.57.11.03.22.06.32.09.72.26.8.61,1.18,1.02.06-.12.12-.25.18-.37-.01-.08-.02-.17-.02-.25.04-.78.32-1.66.36-2.49Z"/>
                  <path class="cls-20" d="m120.41,96.33l-1.47-3.44s4.43.2,4.66.21c-.97-.45-1.89-1.04-2.69-1.76l-3.3-2.94-.16-.02c-.23-.02-.44-.03-.64-.03-.13,0-.26,0-.38.01-.01,0-.02,0-.03,0,.43.51.74,1.12.85,1.82.17,1.01-.14,1.83-.3,2.25-.2.56-.4,1.11-.61,1.67,1.31.95,2.39,2.57,3.31,4.92.84,2.13,1.94,4.17,3.31,6.1,1.2-.11,2.32-.44,3.31-.98l-.85-.78c-2.17-2-3.91-4.43-5.01-7.03Z"/>
                  <path class="cls-20" d="m190.87,145.23c.18.29.43.48.69.63-.97-1.41-1.58-3.65-1.4-5.04.09-.71.52-1.09,1.27-1.19,1.63-.2,6.6,1.7,6.07-.96-.18-.91-.77-1.87-1.18-2.74l-.25-.27c-.25.53-.6,1.01-.65,1.66-.11,1.52-2.65,1.52-2.54,0,.02-.2.05-.43.09-.67l-.2-.2c-1.98.07-3.18-1.89-5.08-2.43-1.09-.31-1.85.09-2.44.68-.22.22-.29.54-.58.77-.59.46-1.57.54-2.31.5-.12,0-.36-.05-.56-.08-.04.1-.12.26-.2.48-.32.84-1.26,1.72-1.93,2.37-.84.82-1.9,1.25-2.93,1.83-.57.32-1.4.73-1.81,1.23-1.09,1.31.02,1.99,1.32,1.74,1.25-.24,2.22-1.7,3.48-2.11.93-.3,1.67-.19,2.62-.17,1.69.03,3.35-.28,4.85.11l.24-.36.25.51c.57.21,1.1.55,1.61,1.06.76.78,1.04,1.76,1.59,2.66Z"/>
                </g>
              </g>
            </g>
          </g>
        </g>
        <g class="cls-12">
          <g>
            <path class="cls-5" d="m145.32,100.45l-6.28,1.04-8.82,1.45c-1.71.48-4.44.93-5.6,2.28,0,0,0,.01-.02.02-2.89,3.34-15.51,5.94-23.58,7.3-4.02.67-6.9,1.04-6.9,1.04l.49-2.38,3.06-14.91s.04-.04.07-.06c2.06-1.76,4.27-3.39,6.58-4.81.04-.03.09-.05.13-.08,1.59-.97,1.7-2.83,3.56-2.91,3.61-.17,6.59.36,9.09.69,1.24.16,2.5.27,3.75.16.49-.04.96-.14,1.4-.26.58-.16,1.14-.37,1.74-.59.62-.23,1.23-.45,1.84-.68,2.15-.8,4.29-1.59,6.44-2.38l13.06,15.09Z"/>
            <path class="cls-4" d="m138.09,97.16c0-.21-4.05-6.63-4.05-6.63l-8.22-2.78c-.62.23-1.23.45-1.84.68-.59.22-1.16.43-1.74.59.13,1.82.66,7.06,2.64,10.24,0,0-.34.98-1.07,1.98.96,1.01,2.95,1.3,2.95,1.3-4.33,5.42-12.56,2-12.56,2,2.4.35,4.09-.47,5.04-1.17-3.6-.28-9.94-2.35-12.61-6.44-.69-1.06,1.4-3.59-2.32-5.5-2.31,1.42-4.52,3.05-6.58,4.81-.03.02-.05.04-.07.06l-3.06,14.91c1.54.32,3.94.81,6.41,1.33,8.07-1.36,20.7-3.95,23.58-7.3,0,0,.01-.01.02-.02,1.16-1.35,3.89-1.79,5.6-2.28l8.82-1.45c-.52-2.27-.96-4.24-.96-4.33Z"/>
            <path class="cls-11" d="m125.32,108.24c-.23,1.64-3.27,2.99-3.27,2.99,0,0,1.18,4.62-4.54,5.82,0,0-.41,3.94-7.05,4.35,0,0-1.42,2.05-6.12,2.1-.45,0-.94.05-1.51.06-.31,0-.64.01-.99,0-.04,0-.08,0-.12,0-4.68-.2-17.72-2.92-23.2-12.23-1.16-1.96-19.09-7.74-19.09-7.74l8.91-13.44c3.11,1.26,5.84,2.11,8.22,2.62,5.61,1.19,9.33.53,11.73-.92,2.91-1.76,5.42-2.74,7.63-3.19,7.1-1.45,11.03,2.62,14.63,4.35,0,0-11.65,2.36-11.41,3.96.15,1.03,4.12,2.96,10.29,6.46t0,0c.43.25.87.5,1.32.76,1.54.89,2.93,1.58,4.22,2.07.46.18.92.33,1.35.46,3.05.86,5.57.43,8.28-1.47,0,0,.96,1.37.72,3.01Z"/>
            <path class="cls-3" d="m127.18,100.41c1.32,1.47,3.03,2.75,5.24,3.63l15.66-4.35-18.66-14.37-4.22,1.31-2.52.78s-.28,7.7,4.5,13Z"/>
            <path class="cls-15" d="m130.22,99.74l-3.04.67c1.32,1.47,3.03,2.75,5.24,3.63l15.66-4.35-18.66-14.37-4.22,1.31c.43,2.54,1.83,9.46,5.03,13.11Z"/>
            <path class="cls-2" d="m206.19,29.75v45.73c-33.11,22.93-65.14,29.13-65.14,29.13-1.62-.42-3.07-1.02-4.36-1.76-.42-.24-.83-.5-1.22-.77-2.42-1.68-4.22-3.86-5.55-6.12-1.65-2.79-2.58-5.68-3.11-7.87-.05-.23-.1-.45-.15-.65-.09-.44-.17-.83-.24-1.19-.19-1.11-.24-1.79-.25-1.81,36.25-11.6,64.23-37.24,80-54.68Z"/>
            <path class="cls-18" d="m206.19,54.49v21c-33.11,22.93-65.14,29.13-65.14,29.13-1.62-.42-3.07-1.02-4.36-1.76-.42-.24-.83-.5-1.22-.77-2.42-1.68-4.22-3.86-5.55-6.12,2.24-.32,4.48-.74,6.71-1.26,1.02-.24,2.03-.49,3.05-.76.22-.06.45-.12.68-.18,25.33-6.99,49.66-25.08,65.82-39.26Z"/>
            <path class="cls-14" d="m109.42,103.42c-12.08-5.35-12.32,2.4-16.72,2.43-3.18.02-3.29-2.51-3.29-2.51,0,0,6.85-.14,6.8-3.45-.06-3.3,3.98-9.8,3.16-10.56-.82-.76-3.47-.67-3.47-.67,7.1-1.45,11.03,2.62,14.63,4.35,0,0-11.65,2.36-11.41,3.96.15,1.03,4.12,2.96,10.29,6.46Z"/>
            <path class="cls-21" d="m121.92,95.43c-5.88,7.63-18.19.66-18.19.66,0,0-5.47-.17-7.55,4.09-2.38,4.87-6.99,4.37-8.29,3.44-.21-.14-.29-.32-.3-.52-.02-.69.95-1.71,1.81-2.85.49-.66.92-1.37,1.15-2.07,2.26-6.88,2.77-8.07,9.74-11.25,5.67-2.58,13.8.1,17.51,1.61,3.24,1.31,5.16,5.54,4.12,6.89Z"/>
            <path class="cls-1" d="m89.42,103.33s-1.1.06-1.83-.24c-.02-.69.95-1.71,1.81-2.85.04-.02.07-.03.07-.03,0,0,1.73,1.49-.04,3.12Z"/>
            <path class="cls-14" d="m101.71,123.55c-4.68-.2-17.72-2.92-23.2-12.23-1.16-1.96-19.09-7.74-19.09-7.74l8.91-13.44c3.11,1.26,5.84,2.11,8.22,2.62-.3,2.58-1.52,11.98-3.52,14.16,0,0,6.55,2.34,7.72,3.43,1.17,1.09,1.75,4.73,2.98,4.86,1.24.12,3.46.94,4.52,2.31,0,0,4.1-.1,4.99,1.73,0,0,4.78-.6,5.42,1.38,0,0,4.31.42,3.05,2.92Z"/>
            <path class="cls-4" d="m96.3,123.49c-.06-.06-.11-.12-.15-.19-.13-.18-.22-.39-.24-.6-.04-.42.2-.84.52-1.12.81-.7,2.07-.97,3.11-.81,2.4.38,1.35,3.29-.51,3.66-.86.17-2.11-.26-2.73-.94Z"/>
            <path class="cls-5" d="m90.56,121.45s1.06-2.7,4.55-2.09c3.49.61,2.04,2.87,2.04,2.87,0,0-2.07,1.84-2.98,1.89-.91.06-3.08-1.07-3.6-2.67Z"/>
            <path class="cls-21" d="m85.02,120.03s1.06-2.7,4.55-2.09c3.49.61,2.04,2.87,2.04,2.87,0,0-2.07,1.84-2.98,1.89-.91.06-3.08-1.07-3.6-2.67Z"/>
            <path class="cls-5" d="m80.95,117.56c.02-.71.33-1.52.91-1.74.94-.37,2.49.21,3.43.63,2.57,1.16.39,3.33-1.42,3.39-.43.01-.85-.16-1.23-.38-.56-.33-1.7-1.14-1.68-1.9Z"/>
            <path class="cls-14" d="m125.32,108.24c-.23,1.64-3.27,2.99-3.27,2.99,0,0,1.18,4.62-4.54,5.82,0,0-.41,3.94-7.05,4.35,0,0-1.42,2.05-6.12,2.1-.45,0-.94.05-1.51.06,1.32-.36,1.87-.88,1.64-1.94-.13-.61,3.82-.57,3.2-3.28-.35-1.54,5-1.79,4.74-3.97-.48-4.05,2.43-2.79,3.26-4.49.73-1.49-.41-3.23-.7-3.64.46.18.92.33,1.35.46,3.05.86,5.57.43,8.28-1.47,0,0,.96,1.37.72,3.01Z"/>
            <path class="cls-10" d="m122.05,111.23s-4.74,1.14-7.21.36c-1.05-.33-1.02.54-.23.78,3.42,1.05,6.57-.37,7.43-1.14Z"/>
            <path class="cls-10" d="m117.51,117.05s-5.39.1-6.36.52.34.94,1.06.84c1.36-.2,3.04-.39,5.3-1.35Z"/>
            <path class="cls-10" d="m110.47,121.42s-3.8-.32-4.4.1c-1.72,1.2,4.4-.1,4.4-.1Z"/>
            <path class="cls-3" d="m70.88,104.74c-1.36,1.43-3.11,2.66-5.34,3.48l-15.53-4.79,19.07-13.83,4.18,1.43,2.49.85s.06,7.7-4.87,12.87Z"/>
            <path class="cls-15" d="m67.86,103.98l3.02.76c-1.36,1.43-3.11,2.66-5.34,3.48l-15.53-4.79,19.07-13.83,4.18,1.43c-.5,2.53-2.1,9.41-5.4,12.96Z"/>
            <path class="cls-2" d="m72.33,88.8s-.08.7-.3,1.8c-.05.26-.12.55-.18.85-.53,2.24-1.58,5.59-3.58,8.76-1.11,1.76-2.51,3.47-4.27,4.9h0c-.81.66-1.7,1.27-2.68,1.79-1.31.71-2.77,1.27-4.41,1.64,0,0-32.1-7.18-64.68-31.29V29.81c14.89,17.85,42.82,45.86,80.12,58.99Z"/>
            <path class="cls-18" d="m68.26,100.21c-1.11,1.76-2.51,3.47-4.27,4.9h0c-.81.66-1.7,1.27-2.68,1.79-1.31.71-2.77,1.27-4.41,1.64,0,0-32.1-7.18-64.68-31.29v-21.62c15.73,14.76,40.02,34.2,65.69,42.07,1.52.47,3.05.89,4.57,1.28,1.93.48,3.86.89,5.79,1.23Z"/>
          </g>
        </g>
        <g>
          <g>
            <path class="cls-20" d="m139.3,66.47l-.42.03c-.11,0-.21,0-.31-.02-.45-.09-.81-.48-.85-.96-.05-.59.39-1.1.98-1.15l.43-.03c.59-.04,1.11.4,1.15.98.05.59-.4,1.1-.99,1.14Z"/>
            <path class="cls-20" d="m153.3,66.46l-.42-.04s-.09-.01-.13-.02c-.52-.11-.89-.59-.85-1.13.05-.59.56-1.02,1.15-.97l.44.04c.59.05,1.03.57.97,1.16-.05.59-.57,1.02-1.16.96Z"/>
            <path class="cls-20" d="m143.98,66.22h-.43c-.09.02-.17,0-.26,0-.47-.1-.83-.51-.85-1.01-.02-.59.44-1.08,1.03-1.1h.43c.59-.03,1.09.43,1.11,1.02.02.59-.44,1.08-1.04,1.1Z"/>
            <path class="cls-20" d="m148.65,66.2h-.42c-.07-.01-.14-.02-.2-.03-.49-.1-.86-.54-.85-1.06,0-.59.5-1.06,1.09-1.04h.44c.59.02,1.06.51,1.05,1.1-.01.59-.5,1.05-1.1,1.04Z"/>
            <path class="cls-20" d="m129.99,67.52l-.42.06c-.13.02-.26.02-.38-.01-.42-.09-.77-.43-.84-.88-.09-.58.31-1.12.89-1.21l.43-.06c.58-.09,1.13.31,1.22.9.09.58-.31,1.12-.9,1.21Z"/>
            <path class="cls-20" d="m134.64,66.91l-.42.05c-.12.01-.24,0-.35-.02-.44-.09-.79-.45-.85-.92-.07-.58.35-1.11.94-1.18l.43-.05c.59-.07,1.12.35,1.19.94.07.58-.35,1.11-.94,1.18Z"/>
            <path class="cls-20" d="m166.88,69.84c-.09-.02-.18-.05-.26-.09-.12-.06-.24-.12-.37-.18-.53-.25-.76-.89-.51-1.42.25-.53.89-.76,1.43-.5.14.06.27.13.41.2.53.26.74.9.48,1.43-.22.44-.71.66-1.18.56Z"/>
            <path class="cls-20" d="m174.31,76.1c-.22.1-.45.12-.67.08-.32-.07-.6-.28-.75-.59-.06-.12-.11-.23-.17-.35-.27-.52-.07-1.16.46-1.43s1.17-.06,1.45.46c.07.14.14.28.21.42.25.53.02,1.17-.51,1.42Z"/>
            <path class="cls-20" d="m170.8,72.45c-.18-.04-.35-.12-.5-.25-.1-.09-.2-.18-.3-.26-.45-.38-.51-1.05-.12-1.5.38-.45,1.06-.5,1.51-.12.12.1.23.2.35.3.44.39.48,1.07.08,1.5-.26.29-.65.4-1.02.33Z"/>
            <path class="cls-20" d="m174.91,80.75c-.08,0-.16,0-.24-.02-.48-.1-.84-.52-.85-1.03,0-.13,0-.26-.01-.39-.03-.59.42-1.09,1.01-1.12.59-.03,1.1.42,1.13,1.01,0,.15.01.31.02.46.01.59-.46,1.07-1.05,1.08Z"/>
            <path class="cls-20" d="m125.35,68.28l-.42.08c-.14.03-.28.02-.42,0-.41-.09-.75-.41-.84-.85-.11-.58.27-1.13.86-1.24l.43-.08c.58-.11,1.14.28,1.25.86.11.58-.28,1.13-.86,1.24Z"/>
            <path class="cls-20" d="m157.9,67.06l-.42-.07s-.03,0-.04,0c-.56-.12-.93-.65-.84-1.22.1-.58.65-.97,1.23-.87l.43.07c.59.1.97.65.87,1.23-.1.58-.66.97-1.24.86Z"/>
            <path class="cls-20" d="m162.47,68.13s-.06-.01-.09-.02c-.13-.04-.27-.08-.4-.12-.57-.16-.9-.75-.74-1.32.16-.56.75-.9,1.32-.73.14.04.29.08.43.12.57.17.89.76.72,1.33-.16.53-.7.85-1.24.73Z"/>
            <path class="cls-20" d="m89.3,78.69l-.4.16c-.2.08-.41.09-.61.05-.34-.07-.64-.31-.78-.65-.22-.55.05-1.17.6-1.38l.4-.16c.55-.22,1.17.05,1.39.6.22.55-.05,1.17-.6,1.38Z"/>
            <path class="cls-20" d="m84.94,80.45l-.39.17c-.21.09-.43.1-.64.06-.33-.07-.63-.29-.77-.63-.23-.54.02-1.17.57-1.39l.4-.17c.55-.23,1.17.03,1.41.57.23.54-.02,1.17-.57,1.39Z"/>
            <path class="cls-20" d="m93.69,77.02l-.4.15c-.2.07-.4.08-.59.04-.35-.07-.65-.32-.79-.67-.21-.55.08-1.16.63-1.37l.4-.15c.55-.2,1.17.08,1.38.63.21.55-.07,1.16-.63,1.37Z"/>
            <path class="cls-20" d="m98.12,75.46l-.4.14c-.19.07-.39.07-.57.04-.36-.07-.67-.33-.79-.69-.2-.56.1-1.16.66-1.35l.41-.14c.56-.19,1.17.1,1.36.66.19.56-.1,1.16-.66,1.35Z"/>
            <path class="cls-20" d="m34.64,113.59l-.26.33c-.26.33-.67.46-1.06.38-.16-.03-.31-.1-.45-.21-.46-.37-.54-1.04-.17-1.5l.27-.34c.37-.46,1.04-.53,1.51-.16.46.37.54,1.04.17,1.5Z"/>
            <path class="cls-20" d="m29.78,121.27c-.05.13-.11.25-.16.38-.2.48-.71.74-1.21.64-.06-.01-.13-.03-.19-.06-.55-.22-.81-.85-.59-1.39.06-.14.11-.27.17-.41.23-.54.86-.79,1.41-.55.54.23.8.86.56,1.4Z"/>
            <path class="cls-20" d="m116.16,70.21l-.42.1c-.16.04-.32.04-.47,0-.39-.08-.72-.38-.82-.79-.14-.57.21-1.15.79-1.29l.42-.1c.58-.14,1.16.21,1.3.79.14.57-.21,1.15-.79,1.28Z"/>
            <path class="cls-20" d="m107.08,72.62l-.41.12c-.18.05-.35.06-.52.02-.37-.08-.69-.35-.81-.74-.17-.56.15-1.16.72-1.32l.41-.12c.57-.17,1.16.16,1.33.72.17.56-.15,1.16-.72,1.32Z"/>
            <path class="cls-20" d="m111.61,71.36l-.41.11c-.17.05-.34.05-.5.01-.38-.08-.71-.37-.82-.76-.16-.57.18-1.15.75-1.31l.42-.11c.57-.15,1.16.19,1.31.75.15.57-.18,1.15-.76,1.3Z"/>
            <path class="cls-20" d="m120.75,69.18l-.42.09c-.15.03-.3.03-.45,0-.4-.08-.74-.39-.83-.82-.13-.57.24-1.14.82-1.26l.42-.09c.58-.12,1.15.25,1.27.82.12.58-.24,1.14-.82,1.26Z"/>
            <path class="cls-20" d="m173.87,85.32c-.57-.17-.88-.77-.71-1.33.04-.13.08-.26.11-.38.16-.57.75-.9,1.32-.74.57.16.9.75.74,1.31-.04.14-.08.29-.13.44-.16.53-.71.84-1.24.73-.03,0-.07-.02-.1-.03Z"/>
            <path class="cls-20" d="m102.59,73.99l-.41.13c-.18.06-.37.07-.55.03-.36-.08-.68-.34-.8-.72-.18-.56.13-1.16.69-1.34l.41-.13c.56-.18,1.17.13,1.35.69.18.56-.13,1.16-.69,1.34Z"/>
            <path class="cls-20" d="m62.02,90.54c-.3-.51-.12-1.16.39-1.45l.38-.21c.51-.29,1.17-.11,1.46.4.29.51.12,1.16-.4,1.45l-.37.21c-.24.14-.5.17-.75.12-.29-.06-.55-.24-.71-.51Z"/>
            <path class="cls-20" d="m37.61,138.51c.13.05.26.1.39.15.56.2.84.82.64,1.37-.19.5-.71.78-1.22.67-.05-.01-.1-.03-.15-.04-.14-.05-.28-.1-.42-.16-.55-.21-.83-.83-.62-1.38.21-.55.83-.82,1.38-.61Z"/>
            <path class="cls-20" d="m43.15,102.19c.45-.38,1.13-.31,1.51.14.38.45.32,1.12-.13,1.5l-.33.27c-.26.22-.6.29-.91.23-.23-.05-.44-.17-.6-.36-.38-.45-.32-1.12.13-1.5l.33-.28Z"/>
            <path class="cls-20" d="m39.75,107.44c-.21-.04-.41-.15-.56-.32-.4-.43-.38-1.1.05-1.5l.32-.29c.43-.4,1.11-.37,1.51.06.4.43.38,1.11-.06,1.5l-.31.29c-.26.25-.62.33-.95.26Z"/>
            <path class="cls-20" d="m46.54,99.5l.34-.26c.47-.36,1.14-.27,1.5.2.36.47.27,1.14-.2,1.49l-.34.26c-.26.2-.58.26-.87.2-.24-.05-.47-.18-.63-.4-.36-.47-.27-1.14.2-1.49Z"/>
            <path class="cls-20" d="m51.62,98.43c-.25.18-.56.23-.84.17-.26-.05-.49-.2-.66-.43-.34-.48-.23-1.14.25-1.48l.35-.25c.48-.34,1.15-.22,1.49.26.34.48.22,1.15-.26,1.48l-.35.24Z"/>
            <path class="cls-20" d="m41.97,139.83s.01,0,.02,0l.41.09c.58.13.94.7.82,1.27-.13.57-.69.93-1.26.81h-.01s-.43-.1-.43-.1c-.58-.13-.94-.7-.81-1.28.13-.57.69-.92,1.26-.8Z"/>
            <path class="cls-20" d="m27.31,128.95c.58-.13,1.15.23,1.28.81.03.13.06.25.09.38.15.57-.19,1.15-.76,1.3-.17.04-.33.05-.49.01-.38-.08-.71-.37-.82-.77-.04-.15-.08-.3-.11-.45-.13-.57.23-1.14.81-1.27Z"/>
            <path class="cls-20" d="m30.24,117.98c-.5-.31-.66-.97-.35-1.47.08-.12.16-.25.24-.37.32-.5.98-.64,1.48-.32.5.32.65.98.33,1.47-.07.12-.15.23-.22.35-.24.39-.7.57-1.13.48-.12-.03-.24-.07-.35-.14Z"/>
            <path class="cls-20" d="m54.67,93.79c.49-.32,1.16-.18,1.48.31.32.49.19,1.15-.31,1.47l-.36.23c-.25.16-.54.21-.81.15-.27-.06-.51-.21-.68-.46-.33-.49-.19-1.15.3-1.47l.36-.24Z"/>
            <path class="cls-20" d="m27.61,124.27c.58.09.98.64.89,1.22-.02.13-.04.26-.06.39-.08.58-.61.99-1.2.92-.03,0-.06,0-.08-.01-.54-.11-.92-.63-.84-1.18.02-.15.04-.3.07-.45.09-.58.64-.98,1.22-.88Z"/>
            <path class="cls-20" d="m33.6,136.49c.11.07.23.15.34.22.5.31.65.97.34,1.47-.24.39-.7.56-1.13.47-.12-.03-.24-.07-.35-.14-.13-.08-.26-.16-.38-.24-.49-.32-.63-.99-.31-1.48.33-.49.99-.63,1.48-.3Z"/>
            <path class="cls-20" d="m35.84,108.97l.3-.31c.41-.43,1.08-.44,1.52-.04.43.41.45,1.08.04,1.51l-.29.31c-.27.28-.65.38-1,.31-.19-.04-.37-.13-.51-.27-.43-.4-.45-1.08-.05-1.51Z"/>
            <path class="cls-20" d="m30.38,133.57c.08.1.16.21.24.31.37.46.31,1.13-.15,1.5-.26.21-.59.28-.9.22-.23-.05-.45-.17-.61-.37-.1-.12-.19-.24-.29-.36-.36-.47-.27-1.14.2-1.49.47-.36,1.14-.27,1.5.2Z"/>
            <path class="cls-20" d="m166.32,95.2c.39-.44,1.06-.49,1.51-.1.45.39.5,1.06.11,1.5l-.29.33c-.26.3-.66.41-1.02.34-.18-.04-.35-.12-.49-.25-.44-.39-.49-1.06-.1-1.5l.28-.31Z"/>
            <path class="cls-20" d="m78.82,81.94c-.24-.54,0-1.17.54-1.41l.39-.17c.54-.24,1.17,0,1.42.54.24.54,0,1.17-.54,1.41l-.39.17c-.21.1-.44.11-.66.07-.32-.07-.61-.28-.76-.61Z"/>
            <path class="cls-20" d="m75.04,82.51l.39-.18c.54-.25,1.17-.02,1.43.51.25.53.03,1.17-.51,1.42l-.38.18c-.22.1-.46.13-.68.08-.32-.07-.6-.27-.75-.58-.26-.53-.03-1.17.5-1.42Z"/>
            <path class="cls-20" d="m162.84,98.86l.3-.29c.42-.41,1.1-.41,1.52,0,.42.42.42,1.09,0,1.51l-.31.31c-.27.26-.63.35-.97.28-.2-.04-.39-.14-.55-.3-.41-.42-.41-1.09.01-1.51Z"/>
            <path class="cls-20" d="m171.4,88.1c.07-.12.13-.24.19-.36.27-.52.92-.72,1.45-.45.53.27.73.92.46,1.44-.07.13-.14.26-.21.39-.23.42-.71.63-1.16.53-.1-.02-.2-.06-.29-.11-.52-.28-.71-.93-.43-1.44Z"/>
            <path class="cls-20" d="m168.94,91.94l.24-.34c.34-.48,1.01-.59,1.49-.25.48.34.6,1.01.25,1.49l-.26.35c-.26.35-.69.5-1.09.42-.14-.03-.28-.09-.41-.18-.48-.35-.59-1.01-.24-1.49Z"/>
            <path class="cls-20" d="m70.78,84.6l.39-.19c.53-.26,1.17-.05,1.44.47.27.53.06,1.17-.47,1.43l-.38.19c-.23.11-.47.14-.7.09-.31-.06-.58-.26-.74-.56-.27-.52-.06-1.17.47-1.43Z"/>
            <path class="cls-20" d="m51.17,141.06l.42.02c.59.03,1.05.53,1.02,1.12-.03.59-.53,1.04-1.12,1.01l-.44-.02c-.05,0-.11-.01-.16-.02-.51-.11-.88-.57-.85-1.1.03-.59.54-1.04,1.13-1Z"/>
            <path class="cls-20" d="m66.95,86.58c.52-.28,1.17-.08,1.45.44.28.52.09,1.16-.44,1.44l-.38.2c-.23.12-.49.15-.73.1-.3-.06-.57-.25-.73-.54-.28-.52-.09-1.16.43-1.44l.38-.2Z"/>
            <path class="cls-20" d="m58.33,91.5l.37-.22c.51-.31,1.16-.14,1.47.36.31.5.15,1.16-.36,1.46l-.36.22c-.24.15-.52.19-.78.13-.28-.06-.53-.23-.7-.49-.31-.5-.15-1.16.35-1.46Z"/>
            <path class="cls-20" d="m46.54,140.64l.42.05c.58.07,1.01.6.94,1.19-.07.58-.6,1-1.19.93l-.43-.05s-.06,0-.09-.01c-.54-.11-.92-.62-.84-1.18.07-.58.61-1,1.2-.92Z"/>
          </g>
          <g>
            <path class="cls-20" d="m85.48,50.43c-.22.02-.44-.03-.65-.14l-.37-.22c-.52-.3-.7-.97-.4-1.49.3-.52.97-.7,1.49-.4l.38.22c.52.3.7.97.39,1.49-.18.32-.51.51-.85.54Z"/>
            <path class="cls-20" d="m159.92,136.37c-.08.02-.16.04-.23.05-.5.04-.98-.26-1.14-.76l-.13-.41c-.19-.57.13-1.19.7-1.37.57-.19,1.19.13,1.37.7l.14.42c.18.57-.14,1.19-.71,1.37Z"/>
            <path class="cls-20" d="m161.8,145.79s-.02,0-.02,0c-.59.05-1.12-.38-1.18-.97-.02-.14-.03-.28-.05-.42-.07-.6.35-1.14.95-1.22.6-.08,1.14.35,1.22.95.02.15.04.3.05.45.07.6-.37,1.14-.96,1.2Z"/>
            <path class="cls-20" d="m161.1,141.03s-.1.02-.15.02c-.54.05-1.04-.31-1.16-.84l-.1-.42c-.14-.59.22-1.17.81-1.31.58-.14,1.17.22,1.31.81l.1.44c.13.59-.23,1.17-.82,1.31Z"/>
            <path class="cls-20" d="m116,73.81c-.3.03-.61-.07-.85-.29l-.32-.3c-.44-.41-.46-1.1-.05-1.54.41-.44,1.1-.46,1.54-.05l.32.3c.44.41.46,1.1.04,1.54-.19.2-.44.31-.69.34Z"/>
            <path class="cls-20" d="m156.56,127.35c-.11.05-.23.08-.35.09-.45.04-.89-.2-1.09-.64l-.18-.4c-.25-.55,0-1.2.54-1.45.55-.25,1.2,0,1.45.54l.18.4c.25.55,0,1.19-.54,1.44Z"/>
            <path class="cls-20" d="m152.29,118.72c-.14.08-.28.12-.43.13-.42.04-.84-.17-1.05-.56l-.21-.38c-.3-.53-.11-1.19.42-1.49.53-.29,1.19-.11,1.49.42l.22.39c.29.53.1,1.19-.42,1.48Z"/>
            <path class="cls-20" d="m158.37,131.81c-.1.04-.2.06-.3.07-.47.04-.93-.23-1.11-.69l-.16-.4c-.22-.56.05-1.19.61-1.42.56-.22,1.19.05,1.42.61l.16.41c.22.56-.06,1.19-.62,1.41Z"/>
            <path class="cls-20" d="m148.55,112.29c.52-.31,1.19-.15,1.5.37l.23.38c.31.52.14,1.19-.37,1.5-.15.09-.31.14-.46.15-.4.04-.81-.15-1.03-.52l-.23-.37c-.31-.52-.15-1.19.37-1.5Z"/>
            <path class="cls-20" d="m145.88,110.1l-.24-.36c-.33-.5-.19-1.18.32-1.51.5-.33,1.18-.19,1.51.32l.24.37c.33.51.18,1.18-.32,1.51-.15.1-.32.16-.49.17-.39.04-.79-.14-1.01-.49Z"/>
            <path class="cls-20" d="m150.14,161.5c.14-.02.27-.03.41-.05.6-.09,1.15.33,1.23.93.08.6-.33,1.15-.93,1.23-.15.02-.31.04-.46.06,0,0-.02,0-.03,0-.59.05-1.11-.37-1.18-.96-.07-.6.36-1.14.96-1.21Z"/>
            <path class="cls-20" d="m154.43,160.33c.12-.06.24-.12.36-.18.54-.27,1.19-.06,1.47.47.28.54.06,1.19-.47,1.47-.14.07-.28.14-.43.21-.12.06-.24.09-.37.1-.44.04-.88-.2-1.08-.62-.26-.55-.02-1.19.52-1.45Z"/>
            <path class="cls-20" d="m153.33,120.65c.54-.27,1.19-.06,1.47.48l.2.39c.27.54.06,1.19-.48,1.47-.13.06-.26.1-.39.11-.43.04-.86-.18-1.07-.59l-.2-.39c-.27-.54-.06-1.19.47-1.47Z"/>
            <path class="cls-20" d="m160.08,153.51c.17-.58.78-.91,1.36-.74.58.17.91.78.74,1.36-.04.15-.09.3-.14.45-.14.43-.52.71-.94.75-.14.01-.29,0-.44-.05-.57-.19-.89-.8-.7-1.38.04-.13.08-.26.12-.39Z"/>
            <path class="cls-20" d="m158.11,157.42c.37-.48,1.06-.56,1.53-.19.47.37.56,1.06.19,1.53-.1.13-.2.25-.31.37-.19.23-.46.35-.73.38-.28.03-.57-.06-.81-.26-.46-.39-.51-1.08-.12-1.54.08-.1.17-.2.25-.3Z"/>
            <path class="cls-20" d="m160.75,149.45c0-.14.01-.28.02-.42.02-.6.53-1.07,1.13-1.05.6.02,1.07.53,1.05,1.13,0,.15-.01.31-.02.46-.03.55-.46.98-.99,1.03-.05,0-.11,0-.16,0-.6-.03-1.06-.55-1.03-1.15Z"/>
            <path class="cls-20" d="m143.25,104.25c.5-.34,1.18-.22,1.52.28l.25.36c.34.5.22,1.18-.28,1.52-.16.11-.34.17-.52.19-.38.03-.77-.13-1-.47l-.25-.36c-.34-.5-.22-1.18.28-1.52Z"/>
            <path class="cls-20" d="m81.26,48.1c-.2.02-.41-.02-.6-.12l-.38-.2c-.53-.28-.74-.94-.47-1.47s.93-.74,1.47-.47l.39.2c.53.28.74.94.46,1.47-.18.34-.51.55-.87.58Z"/>
            <path class="cls-20" d="m49.94,43.46c-.1.08-.21.16-.31.24-.18.14-.38.22-.59.24-.35.03-.7-.1-.94-.4-.38-.47-.31-1.15.15-1.54.12-.1.25-.2.38-.3.48-.36,1.16-.27,1.53.21.36.48.27,1.17-.21,1.53Z"/>
            <path class="cls-20" d="m45.74,50.95c-.02.13-.05.27-.07.41-.08.51-.49.88-.98.93-.08,0-.17,0-.26,0-.6-.09-1.01-.64-.92-1.24.02-.15.05-.31.07-.46.1-.59.67-.99,1.26-.89.59.1.99.67.89,1.26Z"/>
            <path class="cls-20" d="m45.46,55.52c0,.14.01.28.02.42.03.59-.41,1.09-.99,1.14-.01,0-.03,0-.05,0-.6.03-1.11-.43-1.14-1.04,0-.15-.01-.3-.02-.45-.02-.6.44-1.11,1.05-1.13.6-.02,1.11.45,1.13,1.05Z"/>
            <path class="cls-20" d="m46.96,47.09c-.17.35-.51.57-.88.6-.19.02-.4-.02-.58-.11-.54-.27-.76-.92-.49-1.46.07-.14.14-.28.22-.42.29-.53.95-.73,1.48-.44.53.29.73.95.44,1.48-.06.12-.12.23-.18.35Z"/>
            <path class="cls-20" d="m72.5,44.11c-.16.01-.33,0-.49-.07l-.4-.15c-.56-.21-.85-.84-.64-1.4.21-.56.84-.85,1.4-.64l.42.16c.56.21.85.85.63,1.41-.15.4-.52.66-.92.7Z"/>
            <path class="cls-20" d="m76.94,45.98c-.18.02-.37-.01-.55-.1l-.39-.18c-.55-.25-.79-.89-.55-1.44.25-.55.89-.79,1.44-.55l.4.18c.55.25.79.9.54,1.45-.17.37-.52.6-.89.63Z"/>
            <path class="cls-20" d="m67.94,42.57c-.13.01-.27,0-.4-.04l-.41-.12c-.58-.16-.92-.76-.76-1.34.16-.58.77-.92,1.34-.76l.43.12c.58.17.91.77.75,1.35-.13.44-.52.74-.95.78Z"/>
            <path class="cls-20" d="m63.26,41.49c-.09,0-.19,0-.28-.01l-.42-.07c-.6-.09-1-.65-.91-1.25.09-.6.65-1,1.25-.91.15.02.29.05.44.07.59.1.99.66.89,1.26-.08.5-.5.86-.98.91Z"/>
            <path class="cls-20" d="m53.89,41.59c-.13.03-.26.07-.39.11-.07.02-.14.03-.21.04-.51.05-.99-.27-1.14-.78-.17-.58.16-1.18.73-1.36.15-.04.3-.09.45-.13.58-.15,1.18.19,1.33.78.15.58-.19,1.18-.77,1.33Z"/>
            <path class="cls-20" d="m58.47,41.05s-.07,0-.1,0c-.14,0-.28,0-.42,0-.6.01-1.1-.47-1.11-1.07-.01-.6.47-1.1,1.07-1.11.15,0,.3,0,.46,0,.6,0,1.09.49,1.09,1.09,0,.57-.44,1.03-.99,1.08Z"/>
            <path class="cls-20" d="m96.46,57.89c-.49-.35-.59-1.04-.24-1.52.35-.49,1.04-.59,1.52-.24l.35.26c.49.35.59,1.04.24,1.52-.19.26-.48.42-.78.44-.25.02-.52-.04-.74-.2l-.35-.26Z"/>
            <path class="cls-20" d="m104.04,63.73c-.47-.38-.54-1.07-.16-1.53.38-.47,1.07-.54,1.53-.16l.34.28c.47.38.53,1.07.15,1.54-.19.24-.46.37-.75.4-.27.02-.56-.05-.79-.24l-.34-.27Z"/>
            <path class="cls-20" d="m107.71,66.8c-.46-.39-.51-1.08-.12-1.54.39-.46,1.08-.51,1.54-.12l.33.29c.46.39.51,1.08.11,1.54-.19.22-.46.35-.73.37-.28.03-.58-.06-.81-.26l-.33-.28Z"/>
            <path class="cls-20" d="m92.54,55.15c-.5-.34-.63-1.02-.29-1.52.34-.5,1.02-.63,1.52-.29l.36.25c.5.34.63,1.02.29,1.52-.19.28-.49.44-.8.47-.24.02-.49-.04-.71-.19l-.36-.24Z"/>
            <path class="cls-20" d="m100.29,60.76c-.48-.37-.57-1.05-.2-1.53.37-.48,1.05-.57,1.53-.2l.35.27c.48.37.56,1.05.19,1.53-.19.25-.47.39-.76.42-.26.02-.54-.05-.77-.22l-.34-.26Z"/>
            <path class="cls-20" d="m45.66,63.98c.58-.16,1.18.18,1.34.76l.12.41c.16.58-.17,1.18-.75,1.35-.07.02-.13.03-.2.04-.51.05-1-.28-1.15-.79l-.12-.43c-.16-.58.18-1.18.76-1.34Z"/>
            <path class="cls-20" d="m44.7,59.27c.58-.1,1.16.29,1.26.89.02.14.05.28.08.42.11.59-.28,1.16-.87,1.27-.03,0-.07.01-.1.01-.55.05-1.07-.33-1.17-.89-.03-.15-.05-.3-.08-.44-.1-.59.29-1.16.89-1.26Z"/>
            <path class="cls-20" d="m88.91,52.76l-.37-.23c-.51-.32-.66-1-.34-1.51.32-.51,1-.66,1.51-.34l.37.23c.51.32.66,1,.34,1.51-.19.3-.5.47-.82.5-.23.02-.47-.03-.68-.17Z"/>
            <path class="cls-20" d="m145.56,161.51c.14.01.28.03.42.04.6.05,1.05.57,1.01,1.17-.04.54-.47.96-.99,1-.06,0-.12,0-.18,0-.15-.01-.3-.02-.46-.04-.6-.06-1.04-.59-.98-1.19.06-.6.59-1.04,1.19-.98Z"/>
            <path class="cls-20" d="m131.43,89.05c.46-.39,1.15-.33,1.54.13l.28.33c.39.46.33,1.15-.13,1.54-.18.15-.39.23-.61.25-.34.03-.69-.1-.93-.38l-.28-.33c-.39-.46-.33-1.15.13-1.54Z"/>
            <path class="cls-20" d="m140.97,160.74c.14.03.28.06.41.09.59.13.96.71.83,1.3-.1.48-.51.81-.97.85-.11,0-.22,0-.33-.02-.15-.03-.29-.07-.44-.1-.59-.14-.95-.72-.81-1.31.14-.59.72-.95,1.31-.81Z"/>
            <path class="cls-20" d="m128.26,85.43c.45-.4,1.14-.36,1.54.09l.29.33c.4.45.36,1.14-.1,1.54-.18.16-.4.25-.62.27-.33.03-.68-.09-.92-.36l-.29-.33c-.4-.45-.36-1.14.09-1.54Z"/>
            <path class="cls-20" d="m136.44,159.44l.41.14c.57.19.88.8.7,1.38-.14.43-.52.71-.94.75-.14.01-.29,0-.44-.05l-.43-.14c-.57-.19-.88-.81-.68-1.38.19-.57.81-.88,1.38-.68Z"/>
            <path class="cls-20" d="m135.59,95.02c-.35.03-.71-.11-.95-.4l-.27-.34c-.38-.47-.31-1.16.16-1.53.47-.38,1.16-.31,1.53.16l.28.34c.38.47.3,1.16-.16,1.53-.17.14-.38.22-.59.24Z"/>
            <path class="cls-20" d="m140.46,102.21l-.26-.35c-.36-.49-.25-1.17.24-1.52.49-.35,1.17-.25,1.52.24l.26.36c.35.49.25,1.17-.24,1.52-.17.12-.35.19-.54.2-.37.03-.75-.12-.98-.45Z"/>
            <path class="cls-20" d="m137.53,96.5c.48-.37,1.16-.28,1.53.2l.27.35c.37.48.28,1.16-.2,1.53-.17.13-.37.2-.57.22-.36.03-.73-.11-.96-.42l-.27-.35c-.37-.48-.28-1.16.2-1.53Z"/>
            <path class="cls-20" d="m119.81,74.99l.31.31c.43.42.43,1.11,0,1.54-.19.19-.43.3-.68.32-.31.03-.63-.08-.87-.31l-.31-.31c-.43-.42-.43-1.11-.01-1.54.42-.43,1.11-.43,1.54-.01Z"/>
            <path class="cls-20" d="m111.63,70.26l-.32-.29c-.45-.4-.48-1.09-.08-1.54.4-.45,1.09-.48,1.54-.08l.33.29c.45.4.48,1.09.08,1.54-.19.21-.45.33-.71.36-.29.03-.59-.06-.83-.28Z"/>
            <path class="cls-20" d="m121.68,78.4c.43-.42,1.12-.41,1.54.02l.31.32c.42.43.41,1.12-.03,1.54-.19.18-.42.28-.66.3-.32.03-.64-.08-.88-.33l-.3-.31c-.42-.43-.41-1.12.02-1.54Z"/>
            <path class="cls-20" d="m127.69,155.78l.39.19c.54.26.77.92.51,1.46-.17.36-.52.58-.88.61-.19.02-.39-.02-.57-.1l-.4-.19c-.54-.26-.76-.92-.5-1.46.26-.54.92-.76,1.46-.5Z"/>
            <path class="cls-20" d="m132.02,157.75l.4.17c.56.23.82.87.59,1.43-.16.39-.52.63-.91.67-.17.02-.35,0-.52-.08l-.41-.17c-.56-.23-.82-.87-.58-1.43.23-.56.87-.82,1.43-.58Z"/>
            <path class="cls-20" d="m125.24,83.74l-.29-.32c-.41-.44-.38-1.13.06-1.54.44-.41,1.13-.38,1.54.06l.3.32c.41.44.38,1.13-.06,1.54-.18.17-.41.26-.64.28-.33.03-.66-.09-.9-.35Z"/>
          </g>
        </g>
      </g>
    </g>
  </g>
</svg>