<?xml version="1.0" encoding="UTF-8"?>
<svg id="OBJECTS" xmlns="http://www.w3.org/2000/svg" viewBox="0 0 200.98 200.98">
  <defs>
    <style>
      .cls-1 {
        fill: #fff;
      }

      .cls-2 {
        fill: #d2dcec;
      }

      .cls-3 {
        fill: #39393b;
      }

      .cls-4 {
        fill: #21b573;
      }

      .cls-5 {
        fill: #8dc3a6;
        isolation: isolate;
        opacity: .25;
      }

      .cls-6 {
        fill: #ced3e6;
      }

      .cls-7 {
        fill: #df615c;
      }
    </style>
  </defs>
  <circle class="cls-5" cx="100.49" cy="100.49" r="100.49"/>
  <g>
    <g>
      <path class="cls-1" d="m172.04,60.29v81.63c0,2.39-1.94,4.33-4.33,4.33H34.78c-2.39,0-4.33-1.94-4.33-4.33V60.29c0-2.39,1.94-4.33,4.33-4.33h132.93c.06,0,.13,0,.19,0,.05,0,.09,0,.14,0h0s.07,0,.1,0c.06,0,.11.01.17.02.04,0,.07,0,.11.02.02,0,.03,0,.05,0,.04,0,.07.01.11.02,1.97.4,3.46,2.15,3.46,4.24Z"/>
      <circle class="cls-6" cx="102.65" cy="140.39" r="2.99" transform="translate(-66.77 101.12) rotate(-40.78)"/>
      <path class="cls-3" d="m168.58,56.05s-.07-.02-.11-.02c-.02,0-.03,0-.05,0-.04,0-.07-.01-.11-.02-.06,0-.11-.02-.17-.02-.03,0-.07,0-.1,0h0s-.09,0-.14,0c-.06,0-.13,0-.19,0H34.78c-2.39,0-4.33,1.94-4.33,4.33v75.59h141.59V60.29c0-2.09-1.49-3.84-3.46-4.24Zm-2.16,72.28c0,.65-.53,1.18-1.18,1.18H37.24c-.65,0-1.18-.53-1.18-1.18V62.75c0-.65.53-1.18,1.18-1.18h128c.65,0,1.18.53,1.18,1.18v65.58Z"/>
      <rect class="cls-6" x="36.06" y="61.57" width="130.36" height="67.93" rx="1.18" ry="1.18"/>
      <g>
        <path class="cls-1" d="m166.42,62.75v6.19H36.06v-6.19c0-.65.53-1.18,1.18-1.18h128c.65,0,1.18.53,1.18,1.18Z"/>
        <g>
          <path class="cls-7" d="m156.32,65.16c0,.55-.45,1-1,1s-1-.45-1-1,.45-1,1-1,1,.45,1,1Z"/>
          <path class="cls-4" d="m159.57,65.16c0,.55-.45,1-1,1s-1-.45-1-1,.45-1,1-1,1,.45,1,1Z"/>
        </g>
        <rect class="cls-2" x="47.44" y="64.1" width="103.71" height="2.12" rx=".89" ry=".89"/>
        <path d="m40.77,65.16v.98c0,.14-.15.22-.27.16l-.85-.49-.85-.49c-.12-.07-.12-.24,0-.31l.85-.49.85-.49c.12-.07.27.02.27.16v.98Z"/>
        <path d="m42.26,65.16v.98c0,.14.15.22.27.16l.85-.49.85-.49c.12-.07.12-.24,0-.31l-.85-.49-.85-.49c-.12-.07-.27.02-.27.16v.98Z"/>
      </g>
    </g>
    <g>
      <rect class="cls-3" x="160.54" y="64.84" width="2.4" height=".57" rx=".24" ry=".24" transform="translate(1.32 133.44) rotate(-45)"/>
      <rect class="cls-3" x="161.46" y="63.92" width=".57" height="2.4" rx=".24" ry=".24" transform="translate(1.33 133.45) rotate(-45)"/>
    </g>
    <g>
      <rect class="cls-1" x="50.8" y="70.43" width="100.54" height="56.44" rx="2.36" ry="2.36"/>
      <rect class="cls-6" x="54.15" y="97.68" width="25.48" height="14.31" rx="1.11" ry="1.11"/>
      <rect class="cls-6" x="122.01" y="73.79" width="25.48" height="14.31" rx="1.11" ry="1.11"/>
      <g>
        <rect class="cls-6" x="54.11" y="85.95" width="25.52" height="1.22" rx=".59" ry=".59"/>
        <rect class="cls-6" x="54.11" y="80.76" width="25.52" height="1.22" rx=".59" ry=".59"/>
        <rect class="cls-6" x="54.11" y="91.13" width="25.52" height="1.22" rx=".59" ry=".59"/>
      </g>
      <g>
        <rect class="cls-6" x="122.01" y="98.08" width="25.48" height="1.22" rx=".59" ry=".59"/>
        <rect class="cls-6" x="122.01" y="92.9" width="25.48" height="1.22" rx=".59" ry=".59"/>
        <rect class="cls-6" x="122.01" y="103.27" width="25.48" height="1.22" rx=".59" ry=".59"/>
      </g>
      <path class="cls-3" d="m50.8,118.11h100.54v8.24c0,.29-.23.52-.52.52H51.32c-.29,0-.52-.23-.52-.52v-8.24Z"/>
      <g>
        <path class="cls-1" d="m144.13,121.35v-.74h.93v-.66h-1.26c-.18,0-.33.15-.33.33v1.07h.66Z"/>
        <path class="cls-1" d="m144.13,122.68h-.66v1.13c0,.18.15.33.33.33h1.26v-.66h-.93v-.8Z"/>
        <path class="cls-1" d="m146.99,121.35h.66v-1.07c0-.18-.15-.33-.33-.33h-1.21v.66h.88v.74Z"/>
        <path class="cls-1" d="m146.99,122.68v.8h-.88v.66h1.21c.18,0,.33-.15.33-.33v-1.13h-.66Z"/>
      </g>
      <rect class="cls-6" x="50.8" y="116.46" width="100.54" height="1.65"/>
      <path class="cls-7" d="m56.23,73.81c0,.76-.62,1.38-1.38,1.38s-1.38-.62-1.38-1.38.62-1.38,1.38-1.38,1.38.62,1.38,1.38Z"/>
      <g>
        <path class="cls-7" d="m138.24,110.87c0,.67-.54,1.22-1.21,1.22s-1.21-.54-1.21-1.22.54-1.21,1.21-1.21,1.21.54,1.21,1.21Z"/>
        <g>
          <path class="cls-7" d="m139.29,113.94h-4.54s.52-1.44,2.24-1.44c.01,0,.02,0,.03,0s.02,0,.03,0c1.72,0,2.24,1.44,2.24,1.44Z"/>
          <g>
            <path class="cls-3" d="m143.48,110.13v.76l-1.22,2.92h-1.36l1.17-2.72h-.71v.54h-1.02v-1.5h3.15Z"/>
            <path class="cls-3" d="m146.71,112.85v.96h-2.95v-.76l1.33-1.23c.25-.24.29-.38.29-.5,0-.18-.12-.29-.36-.29-.22,0-.43.12-.54.34l-.94-.47c.27-.5.8-.85,1.59-.85.87,0,1.49.45,1.49,1.15,0,.36-.09.69-.63,1.17l-.53.48h1.24Z"/>
          </g>
        </g>
      </g>
    </g>
  </g>
</svg>