<?xml version="1.0" encoding="UTF-8"?>
<svg id="OBJECTS" xmlns="http://www.w3.org/2000/svg" viewBox="0 0 200.98 200.98">
  <defs>
    <style>
      .cls-1 {
        fill: #fff;
      }

      .cls-2 {
        stroke-width: .34px;
      }

      .cls-2, .cls-3, .cls-4, .cls-5, .cls-6, .cls-7, .cls-8 {
        stroke-linecap: round;
        stroke-linejoin: round;
      }

      .cls-2, .cls-3, .cls-4, .cls-5, .cls-6, .cls-7, .cls-8, .cls-9 {
        fill: none;
      }

      .cls-2, .cls-7 {
        stroke: #bacbd6;
      }

      .cls-10 {
        fill: #bacbd6;
      }

      .cls-3 {
        stroke-width: 4.44px;
      }

      .cls-3, .cls-4, .cls-6, .cls-9 {
        stroke: #fff;
      }

      .cls-4 {
        stroke-width: .36px;
      }

      .cls-11 {
        fill: #363f4e;
      }

      .cls-5 {
        stroke: #03052a;
        stroke-width: .53px;
      }

      .cls-12 {
        fill: #8dc3a6;
        isolation: isolate;
        opacity: .25;
      }

      .cls-6 {
        stroke-width: .36px;
      }

      .cls-7 {
        stroke-width: 1.37px;
      }

      .cls-13 {
        fill: #728793;
      }

      .cls-8 {
        stroke: #363f4e;
        stroke-width: 1.03px;
      }

      .cls-14 {
        fill: #e4edf4;
      }

      .cls-9 {
        stroke-miterlimit: 10;
        stroke-width: .44px;
      }
    </style>
  </defs>
  <circle class="cls-12" cx="100.49" cy="100.49" r="100.49"/>
  <g>
    <rect class="cls-1" x="52.12" y="140.82" width="83.09" height="10.18"/>
    <rect class="cls-14" x="52.12" y="145.03" width="83.09" height="5.97"/>
    <path class="cls-1" d="m99.56,143.95h0c-2.16,0-3.92-1.76-3.92-3.92v-16.86c0-2.16,1.76-3.92,3.92-3.92h0c2.16,0,3.92,1.76,3.92,3.92v16.86c0,2.16-1.76,3.92-3.92,3.92Z"/>
    <path class="cls-1" d="m99.43,123.17h9.15l9.41,19.21h-18.42l-.13-19.21Z"/>
    <path class="cls-1" d="m99.3,64.91v7.06c13.11.42,23.65,11.21,23.65,24.42s-10.54,24-23.65,24.42v7.06c17-.42,30.71-14.37,30.71-31.47s-13.71-31.05-30.71-31.47Z"/>
    <path class="cls-11" d="m102.89,127.68c0,1.37-1.11,2.48-2.48,2.48s-2.48-1.11-2.48-2.48,1.11-2.48,2.48-2.48,2.48,1.11,2.48,2.48Z"/>
    <path class="cls-5" d="m103.35,134.8c0,1.37-1.11,2.48-2.48,2.48s-2.48-1.11-2.48-2.48,1.11-2.48,2.48-2.48,2.48,1.11,2.48,2.48Z"/>
    <line class="cls-8" x1="51.35" y1="135.14" x2="96.44" y2="135.14"/>
    <rect class="cls-11" x="68.58" y="95.6" width="11.88" height="13.91" transform="translate(57.63 -23.08) rotate(28.35)"/>
    <rect class="cls-1" x="65.25" y="95.94" width="21.05" height="8.85" transform="translate(56.74 -23.95) rotate(28.35)"/>
    <g>
      <rect class="cls-11" x="97.03" y="34.12" width="13.07" height="31.65" transform="translate(36.13 -43.18) rotate(28.35)"/>
      <path class="cls-11" d="m117.19,39.97l-12.78-6.89c-.91-.49-1.26-1.64-.76-2.56h0c.49-.91,1.64-1.26,2.56-.76l12.78,6.89c.91.49,1.26,1.64.76,2.56h0c-.49.91-1.64,1.26-2.56.76Z"/>
    </g>
    <rect class="cls-1" x="75.24" y="52.44" width="25.55" height="50.81" transform="translate(47.51 -32.46) rotate(28.35)"/>
    <rect class="cls-14" x="65.52" y="89.62" width="25.55" height="12.48" transform="translate(54.9 -25.68) rotate(28.35)"/>
    <path class="cls-10" d="m105.59,79.28c-.34,2.5-2.64,4.25-5.14,3.92-2.5-.34-4.25-2.64-3.92-5.14.34-2.5,2.64-4.25,5.14-3.92,2.5.34,4.25,2.64,3.92,5.14Z"/>
    <path class="cls-5" d="m103.81,79.04c-.2,1.52-1.6,2.58-3.11,2.38s-2.58-1.6-2.38-3.11c.2-1.52,1.6-2.58,3.11-2.38,1.52.2,2.58,1.6,2.38,3.11Z"/>
    <line class="cls-7" x1="102.18" y1="57.22" x2="78.2" y2="102.44"/>
    <line class="cls-9" x1="96.52" y1="55.05" x2="107.69" y2="34.35"/>
    <line class="cls-9" x1="99.76" y1="57.29" x2="110.93" y2="36.6"/>
    <line class="cls-9" x1="103.01" y1="59.54" x2="114.17" y2="38.84"/>
    <path class="cls-11" d="m118.01,68.8c-.55,4.09-4.31,6.96-8.4,6.41-4.09-.55-6.96-4.31-6.41-8.4.55-4.09,4.31-6.96,8.4-6.41,4.09.55,6.96,4.31,6.41,8.4Z"/>
    <path class="cls-2" d="m115.62,68.48c-.37,2.77-2.92,4.71-5.69,4.34s-4.71-2.92-4.34-5.69c.37-2.77,2.92-4.71,5.69-4.34,2.77.37,4.71,2.92,4.34,5.69Z"/>
    <path class="cls-10" d="m113.05,68.09c-.17,1.27-1.34,2.16-2.61,1.99-1.27-.17-2.16-1.34-1.99-2.61.17-1.27,1.34-2.16,2.61-1.99,1.27.17,2.16,1.34,1.99,2.61Z"/>
    <path class="cls-11" d="m81.1,82.22c-.19,1.4-1.47,2.38-2.87,2.19-1.4-.19-2.38-1.47-2.19-2.87.19-1.4,1.47-2.38,2.87-2.19,1.4.19,2.38,1.47,2.19,2.87Z"/>
    <path class="cls-11" d="m85.05,74.66c-.19,1.4-1.47,2.38-2.87,2.19-1.4-.19-2.38-1.47-2.19-2.87s1.47-2.38,2.87-2.19c1.4.19,2.38,1.47,2.19,2.87Z"/>
    <line class="cls-6" x1="68.75" y1="107.39" x2="71.39" y2="102.42"/>
    <line class="cls-6" x1="71.45" y1="108.86" x2="74.09" y2="103.88"/>
    <line class="cls-6" x1="74.23" y1="110.34" x2="76.88" y2="105.36"/>
    <path class="cls-3" d="m97.22,131.24s-9.41-1.42-14.56-8.35"/>
    <path class="cls-14" d="m89.49,124.31h-31.61c-1.9,0-3.46-1.56-3.46-3.46h0c0-1.9,1.56-3.46,3.46-3.46h31.61c1.9,0,3.46,1.56,3.46,3.46h0c0,1.9-1.56,3.46-3.46,3.46Z"/>
    <rect class="cls-1" x="59.93" y="115.08" width="26.81" height="4.08"/>
    <g>
      <circle class="cls-11" cx="126.07" cy="88.53" r="9.68" transform="translate(17.32 197.64) rotate(-80.17)"/>
      <path class="cls-13" d="m126.16,78.86s-.06,0-.09,0c-5.34,0-9.68,4.33-9.68,9.68s4.33,9.68,9.68,9.68c.03,0,.06,0,.09,0v-19.35Z"/>
      <circle class="cls-1" cx="126.07" cy="88.18" r="3.29" transform="translate(-24.15 54.96) rotate(-22.5)"/>
      <circle class="cls-4" cx="126.16" cy="88.27" r="6.04"/>
    </g>
    <rect class="cls-11" x="84.03" y="151.08" width="27.4" height="1.37" rx=".69" ry=".69"/>
    <rect class="cls-11" x="118.62" y="151.08" width="27.4" height="1.37" rx=".69" ry=".69"/>
  </g>
</svg>