<?xml version="1.0" encoding="UTF-8"?>
<svg id="OBJECTS" xmlns="http://www.w3.org/2000/svg" viewBox="0 0 200.98 200.98">
  <defs>
    <style>
      .cls-1 {
        fill: #fff;
      }

      .cls-2, .cls-3 {
        stroke: #382d35;
      }

      .cls-2, .cls-3, .cls-4 {
        fill: none;
        stroke-width: .35px;
      }

      .cls-2, .cls-4 {
        stroke-linecap: round;
        stroke-linejoin: round;
      }

      .cls-5 {
        fill: #ffb600;
      }

      .cls-6 {
        fill: #746c72;
      }

      .cls-7 {
        fill: #3e777f;
      }

      .cls-8 {
        fill: #8dc3a6;
        isolation: isolate;
        opacity: .25;
      }

      .cls-9 {
        fill: #382d35;
      }

      .cls-3 {
        stroke-miterlimit: 10;
      }

      .cls-4 {
        stroke: #fff;
      }

      .cls-10 {
        fill: #175b64;
      }
    </style>
  </defs>
  <circle class="cls-8" cx="100.49" cy="100.49" r="100.49"/>
  <g>
    <g>
      <g>
        <path class="cls-10" d="m175.3,110.41l-7.31.88v17.18l7.31.88c2.92.35,2.66,4.67-.28,4.67H37.76c-7.81,0-14.15-6.33-14.15-14.15h0c0-7.81,6.33-14.15,14.15-14.15h137.25c2.94,0,3.2,4.32.28,4.67Z"/>
        <path class="cls-9" d="m50.32,134.03h8.24c-7.81,0-14.15-6.33-14.15-14.15h0c0-7.81,6.33-14.15,14.15-14.15h-8.24c-7.81,0-14.15,6.33-14.15,14.15h0c0,7.81,6.33,14.15,14.15,14.15Z"/>
        <path class="cls-9" d="m66.78,134.03h8.24c-7.81,0-14.15-6.33-14.15-14.15h0c0-7.81,6.33-14.15,14.15-14.15h-8.24c-7.81,0-14.15,6.33-14.15,14.15h0c0,7.81,6.33,14.15,14.15,14.15Z"/>
        <path class="cls-1" d="m172.89,110.57h-74.8c-5.14,0-9.31,4.17-9.31,9.31h0c0,5.14,4.17,9.31,9.31,9.31h74.8v-18.62Z"/>
        <path class="cls-4" d="m89.41,132.36c-2.92-1.84-5.13-4.79-6.07-8.12-.94-3.33-.61-7,.91-10.1"/>
        <line class="cls-2" x1="157.13" y1="124.92" x2="125.76" y2="124.92"/>
        <line class="cls-2" x1="135.77" y1="119.88" x2="104.52" y2="119.88"/>
        <line class="cls-2" x1="149.6" y1="115.27" x2="138.67" y2="115.27"/>
      </g>
      <g>
        <g>
          <path class="cls-6" d="m160.74,102.84l-4.64-.56v-10.91l4.64-.56c1.86-.22,1.69-2.97-.18-2.97H38.4c-4.96,0-8.99,4.02-8.99,8.99h0c0,4.96,4.02,8.99,8.99,8.99h122.16c1.87,0,2.03-2.74.18-2.97Z"/>
          <path class="cls-1" d="m85.94,90.91h73.27v11.83h-73.27c-3.26,0-5.91-2.65-5.91-5.91h0c0-3.26,2.65-5.91,5.91-5.91Z"/>
        </g>
        <path class="cls-4" d="m79.12,104.83c-1.82-1.37-3.13-3.4-3.64-5.62-.5-2.22-.2-4.62.86-6.64"/>
        <line class="cls-2" x1="97.08" y1="99.45" x2="140.71" y2="99.45"/>
        <line class="cls-2" x1="148.59" y1="95.65" x2="125.76" y2="95.65"/>
        <path class="cls-4" d="m52.74,103.83c-5.63-.12-11.25-.24-16.88-.35"/>
      </g>
    </g>
    <g>
      <g>
        <polygon class="cls-10" points="88.37 49.39 91.51 42.98 108.6 51.36 105.46 57.77 98.33 72.31 81.23 63.93 88.37 49.39"/>
        <g>
          <g>
            <path class="cls-10" d="m79.61,69.07c-.26.54-.04,1.19.5,1.45l13.69,6.71c.54.26,1.19.04,1.45-.5l1.42-2.9-15.64-7.67-1.42,2.9Z"/>
            <rect class="cls-5" x="86.69" y="58.43" width="4.54" height="22.7" rx="1.26" ry="1.26" transform="translate(-12.87 118.93) rotate(-63.88)"/>
          </g>
          <g>
            <path class="cls-10" d="m110.21,46.22c.26-.54.04-1.19-.5-1.45l-13.69-6.71c-.54-.26-1.19-.04-1.45.5l-1.42,2.9,15.64,7.67,1.42-2.9Z"/>
            <rect class="cls-5" x="98.59" y="34.15" width="4.54" height="22.7" rx="1.26" ry="1.26" transform="translate(15.6 116.03) rotate(-63.88)"/>
          </g>
        </g>
        <g>
          <g>
            <polygon class="cls-5" points="103.41 61.81 105.63 57.27 108.3 58.58 106.08 63.12 103.85 67.66 101.18 66.35 103.41 61.81"/>
            <path class="cls-5" d="m104.76,65.81l1.32-2.69,1.32-2.69,41.25,18.93c2.15.99,3.07,3.55,2.03,5.68-1.04,2.13-3.63,2.97-5.73,1.88l-40.18-21.11Z"/>
            <line class="cls-3" x1="113.36" y1="63.17" x2="148.64" y2="79.36"/>
            <polygon class="cls-5" points="107.77 64.01 109.62 60.23 112.72 61.75 110.87 65.53 109.02 69.31 105.91 67.79 107.77 64.01"/>
          </g>
          <line class="cls-3" x1="108.3" y1="58.58" x2="104.76" y2="65.81"/>
          <line class="cls-3" x1="112.72" y1="61.75" x2="110.38" y2="66.53"/>
          <line class="cls-3" x1="110.32" y1="47.61" x2="93.15" y2="39.19"/>
          <line class="cls-3" x1="98.67" y1="46.96" x2="91.67" y2="43.53"/>
          <line class="cls-3" x1="89.81" y1="46.45" x2="82.78" y2="60.77"/>
          <line class="cls-3" x1="97.86" y1="71.62" x2="82.96" y2="64.31"/>
          <line class="cls-3" x1="92.36" y1="73.98" x2="81.23" y2="68.53"/>
          <line class="cls-3" x1="107.74" y1="43.8" x2="96.02" y2="38.05"/>
        </g>
      </g>
      <g>
        <rect class="cls-7" x="85.49" y="57.43" width="2.82" height="48.36" transform="translate(168.51 -5.29) rotate(90)"/>
        <rect class="cls-10" x="57.02" y="83.02" width="59.75" height="4.69"/>
        <rect class="cls-10" x="59.74" y="77.35" width="54.31" height="2.85"/>
        <rect class="cls-10" x="57.02" y="83.02" width="59.75" height="4.69"/>
        <line class="cls-3" x1="58.68" y1="87.71" x2="103.16" y2="87.71"/>
        <line class="cls-3" x1="69.22" y1="83.02" x2="113.7" y2="83.02"/>
        <line class="cls-3" x1="89.99" y1="80.2" x2="107.96" y2="80.2"/>
        <line class="cls-3" x1="65.91" y1="77.35" x2="83.88" y2="77.35"/>
      </g>
    </g>
  </g>
</svg>