<?xml version="1.0" encoding="UTF-8"?>
<svg xmlns="http://www.w3.org/2000/svg" xmlns:xlink="http://www.w3.org/1999/xlink" viewBox="0 0 844.49 285.81">
  <defs>
    <style>
      .cls-1 {
        clip-path: url(#clippath-11);
      }

      .cls-2 {
        fill: #fff;
      }

      .cls-3 {
        opacity: .49;
      }

      .cls-4 {
        fill: #fac9d3;
      }

      .cls-5 {
        opacity: .32;
      }

      .cls-6 {
        clip-path: url(#clippath-2);
      }

      .cls-7 {
        clip-path: url(#clippath-13);
      }

      .cls-8 {
        isolation: isolate;
      }

      .cls-9 {
        clip-path: url(#clippath-15);
      }

      .cls-10 {
        clip-path: url(#clippath-6);
      }

      .cls-11 {
        fill: #fcfdf9;
      }

      .cls-12 {
        fill: #72a2ba;
      }

      .cls-13 {
        clip-path: url(#clippath-7);
      }

      .cls-14 {
        stroke: #fff;
      }

      .cls-14, .cls-15, .cls-16 {
        fill: none;
      }

      .cls-14, .cls-16 {
        stroke-linecap: round;
        stroke-miterlimit: 10;
        stroke-width: 13px;
      }

      .cls-17 {
        clip-path: url(#clippath-1);
      }

      .cls-18 {
        clip-path: url(#clippath-4);
      }

      .cls-19 {
        clip-path: url(#clippath-12);
      }

      .cls-20 {
        mix-blend-mode: multiply;
        opacity: .57;
      }

      .cls-21 {
        fill: #fad1e3;
      }

      .cls-22 {
        clip-path: url(#clippath-9);
      }

      .cls-23 {
        clip-path: url(#clippath);
      }

      .cls-24 {
        clip-path: url(#clippath-3);
      }

      .cls-25 {
        clip-path: url(#clippath-8);
      }

      .cls-26 {
        fill: #f05877;
      }

      .cls-27 {
        clip-path: url(#clippath-14);
      }

      .cls-28 {
        clip-path: url(#clippath-5);
      }

      .cls-16 {
        stroke: #72a2ba;
      }

      .cls-29 {
        clip-path: url(#clippath-10);
      }

      .cls-30 {
        mix-blend-mode: overlay;
        opacity: .5;
      }
    </style>
    <clipPath id="clippath">
      <rect class="cls-15" x="38.21" y="109.19" width="10.01" height="6.92"/>
    </clipPath>
    <clipPath id="clippath-1">
      <rect class="cls-15" x="56.17" y="92.37" width="10.01" height="6.91"/>
    </clipPath>
    <clipPath id="clippath-2">
      <rect class="cls-15" x="74.12" y="75.54" width="10.01" height="6.91"/>
    </clipPath>
    <clipPath id="clippath-3">
      <rect class="cls-15" x="92.07" y="58.72" width="10.01" height="6.92"/>
    </clipPath>
    <clipPath id="clippath-4">
      <rect class="cls-15" x="110.03" y="41.89" width="10.01" height="6.91"/>
    </clipPath>
    <clipPath id="clippath-5">
      <rect class="cls-15" x="19.71" y="89.45" width="10.01" height="6.91"/>
    </clipPath>
    <clipPath id="clippath-6">
      <rect class="cls-15" x="37.66" y="72.62" width="10.01" height="6.92"/>
    </clipPath>
    <clipPath id="clippath-7">
      <rect class="cls-15" x="55.61" y="55.8" width="10.01" height="6.91"/>
    </clipPath>
    <clipPath id="clippath-8">
      <rect class="cls-15" x="73.57" y="38.97" width="10.01" height="6.92"/>
    </clipPath>
    <clipPath id="clippath-9">
      <rect class="cls-15" x="91.52" y="22.14" width="10.01" height="6.91"/>
    </clipPath>
    <clipPath id="clippath-10">
      <rect class="cls-15" x="39.99" y="44.34" width="101.16" height="95.37"/>
    </clipPath>
    <clipPath id="clippath-11">
      <rect class="cls-15" x="0" y="1.49" width="101.52" height="95.76"/>
    </clipPath>
    <clipPath id="clippath-12">
      <rect class="cls-15" x="64.71" y="146.94" width="81.9" height="104.94"/>
    </clipPath>
    <clipPath id="clippath-13">
      <rect class="cls-15" x="2.85" y="172.74" width="92.94" height="113.07"/>
    </clipPath>
    <clipPath id="clippath-14">
      <rect class="cls-15" x="15.29" y="209.32" width="37.63" height="45.71"/>
    </clipPath>
    <clipPath id="clippath-15">
      <rect class="cls-15" x="116.65" y="171.85" width="23.18" height="35.25"/>
    </clipPath>
  </defs>
  <g class="cls-8">
    <g id="Layer_1" data-name="Layer 1">
      <circle class="cls-16" cx="759.62" cy="168.24" r="46.56"/>
      <line class="cls-16" x1="837.21" y1="90.65" x2="792.54" y2="135.32"/>
      <line class="cls-16" x1="805.48" y1="89.4" x2="837.99" y2="121.91"/>
      <circle class="cls-14" cx="699.01" cy="170.65" r="46.56"/>
      <line class="cls-14" x1="627.65" y1="99.29" x2="666.09" y2="137.73"/>
      <path class="cls-14" d="m661.9,92.86l-34.21-2.29c-4.79-.32-8.74,3.72-8.31,8.5l2.97,33.34"/>
      <g>
        <path class="cls-11" d="m101.7,2.11l40.05,42.73c2.52,2.69,2.39,6.92-.31,9.44l-90.1,84.44c-2.69,2.52-6.92,2.39-9.44-.31L1.85,95.69c-2.52-2.69-2.39-6.92.31-9.44L92.26,1.81c2.69-2.52,6.92-2.39,9.44.31"/>
        <path class="cls-11" d="m99.98,3.57l39.39,42.03c2.48,2.65,2.35,6.8-.3,9.29l-88.62,83.05c-2.65,2.48-6.81,2.35-9.29-.3L1.78,95.61c-2.48-2.65-2.35-6.81.3-9.29L90.7,3.27c2.65-2.48,6.8-2.35,9.29.3"/>
        <path class="cls-26" d="m39.82,110.66c2.21-2.06,5.67-1.94,7.73.27s1.94,5.67-.27,7.73c-2.21,2.06-5.67,1.94-7.73-.27-2.06-2.21-1.94-5.67.27-7.73"/>
        <g class="cls-5">
          <g class="cls-23">
            <path class="cls-21" d="m46.62,114.64c.84-.78,1.38-1.77,1.61-2.81-.19-.32-.42-.62-.68-.9-2.06-2.21-5.52-2.33-7.73-.27-.84.78-1.38,1.77-1.61,2.81.19.32.42.62.68.9,2.06,2.21,5.52,2.33,7.73.27"/>
          </g>
        </g>
        <path class="cls-21" d="m42.43,110.87c.71-.67,1.83-.63,2.5.09.66.71.63,1.83-.09,2.5-.71.66-1.83.63-2.5-.09-.67-.71-.63-1.83.09-2.5"/>
        <path class="cls-26" d="m57.78,93.84c2.21-2.06,5.67-1.94,7.73.27s1.94,5.67-.27,7.73c-2.21,2.06-5.67,1.94-7.73-.27-2.06-2.21-1.94-5.67.27-7.73"/>
        <g class="cls-5">
          <g class="cls-17">
            <path class="cls-21" d="m64.57,97.82c.84-.78,1.38-1.77,1.61-2.81-.19-.31-.42-.62-.68-.9-2.06-2.21-5.52-2.33-7.73-.27-.84.78-1.38,1.77-1.61,2.81.19.32.42.62.68.9,2.06,2.21,5.52,2.33,7.73.27"/>
          </g>
        </g>
        <path class="cls-21" d="m60.39,94.04c.71-.66,1.83-.63,2.5.09.66.71.63,1.83-.09,2.5-.71.66-1.83.63-2.5-.09-.67-.71-.63-1.83.09-2.5"/>
        <path class="cls-26" d="m75.73,77.01c2.21-2.06,5.67-1.94,7.73.27,2.06,2.21,1.94,5.67-.27,7.73-2.21,2.06-5.67,1.94-7.73-.27-2.06-2.21-1.94-5.67.27-7.73"/>
        <g class="cls-5">
          <g class="cls-6">
            <path class="cls-21" d="m82.53,80.99c.84-.78,1.38-1.77,1.61-2.81-.19-.32-.42-.62-.68-.9-2.06-2.21-5.52-2.33-7.73-.27-.84.78-1.38,1.77-1.61,2.81.19.32.42.62.68.9,2.06,2.21,5.52,2.33,7.73.27"/>
          </g>
        </g>
        <path class="cls-21" d="m78.34,77.22c.71-.67,1.83-.63,2.5.09.66.71.63,1.83-.09,2.5-.71.66-1.83.63-2.5-.09-.67-.71-.63-1.83.09-2.5"/>
        <path class="cls-26" d="m93.68,60.18c2.21-2.06,5.67-1.94,7.73.27s1.94,5.67-.27,7.73c-2.21,2.06-5.67,1.94-7.73-.27-2.06-2.21-1.94-5.67.27-7.73"/>
        <g class="cls-5">
          <g class="cls-24">
            <path class="cls-21" d="m100.48,64.16c.84-.78,1.38-1.77,1.61-2.81-.19-.31-.42-.61-.68-.9-2.06-2.21-5.52-2.33-7.73-.27-.84.78-1.38,1.77-1.61,2.81.19.32.42.62.68.9,2.06,2.21,5.52,2.33,7.73.27"/>
          </g>
        </g>
        <path class="cls-21" d="m96.29,60.39c.71-.67,1.83-.63,2.5.09.66.71.63,1.83-.09,2.5-.71.66-1.83.63-2.5-.09-.67-.71-.63-1.83.09-2.5"/>
        <path class="cls-26" d="m111.64,43.36c2.21-2.06,5.67-1.94,7.73.27s1.94,5.67-.27,7.73c-2.21,2.06-5.67,1.94-7.73-.27-2.06-2.21-1.94-5.67.27-7.73"/>
        <g class="cls-5">
          <g class="cls-18">
            <path class="cls-21" d="m118.43,47.34c.84-.78,1.38-1.77,1.61-2.81-.19-.32-.42-.62-.68-.9-2.06-2.21-5.52-2.33-7.73-.27-.84.78-1.38,1.77-1.61,2.81.19.32.42.62.68.9,2.06,2.21,5.52,2.33,7.73.27"/>
          </g>
        </g>
        <path class="cls-21" d="m114.25,43.57c.71-.67,1.83-.63,2.5.09.66.71.63,1.83-.09,2.5-.71.66-1.83.63-2.5-.09-.67-.71-.63-1.83.09-2.5"/>
        <path class="cls-26" d="m21.31,90.92c2.21-2.06,5.67-1.94,7.73.27s1.94,5.67-.27,7.73c-2.21,2.06-5.67,1.94-7.73-.27-2.06-2.21-1.94-5.67.27-7.73"/>
        <g class="cls-5">
          <g class="cls-28">
            <path class="cls-21" d="m28.11,94.9c.84-.78,1.38-1.77,1.61-2.81-.19-.31-.42-.62-.68-.9-2.06-2.21-5.52-2.33-7.73-.27-.84.78-1.38,1.77-1.61,2.81.19.32.42.62.68.9,2.06,2.21,5.52,2.33,7.73.27"/>
          </g>
        </g>
        <path class="cls-21" d="m23.92,91.12c.71-.67,1.83-.63,2.5.09.66.71.63,1.83-.09,2.5-.71.66-1.83.63-2.5-.09-.67-.71-.63-1.83.09-2.5"/>
        <path class="cls-26" d="m39.27,74.09c2.21-2.06,5.67-1.94,7.73.27s1.94,5.67-.27,7.73c-2.21,2.06-5.67,1.94-7.73-.27-2.06-2.21-1.94-5.67.27-7.73"/>
        <g class="cls-5">
          <g class="cls-10">
            <path class="cls-21" d="m46.06,78.07c.84-.78,1.38-1.77,1.61-2.81-.19-.31-.42-.61-.68-.9-2.06-2.21-5.52-2.33-7.73-.27-.84.78-1.38,1.77-1.61,2.81.19.32.42.62.68.9,2.06,2.21,5.52,2.33,7.73.27"/>
          </g>
        </g>
        <path class="cls-21" d="m41.88,74.3c.71-.66,1.83-.63,2.5.09.66.71.63,1.83-.09,2.5-.71.66-1.83.63-2.5-.09-.67-.71-.63-1.83.09-2.5"/>
        <path class="cls-26" d="m57.22,57.26c2.21-2.06,5.67-1.94,7.73.27s1.94,5.67-.27,7.73c-2.21,2.06-5.67,1.94-7.73-.27-2.06-2.21-1.94-5.67.27-7.73"/>
        <g class="cls-5">
          <g class="cls-13">
            <path class="cls-21" d="m64.02,61.24c.84-.78,1.38-1.77,1.61-2.81-.19-.31-.42-.61-.68-.9-2.06-2.21-5.52-2.33-7.73-.27-.84.78-1.38,1.77-1.61,2.81.19.32.42.62.68.9,2.06,2.21,5.52,2.33,7.73.27"/>
          </g>
        </g>
        <path class="cls-21" d="m59.83,57.47c.71-.67,1.83-.63,2.5.09.66.71.63,1.83-.09,2.5-.71.66-1.83.63-2.5-.09-.67-.71-.63-1.83.09-2.5"/>
        <path class="cls-26" d="m75.17,40.44c2.21-2.06,5.67-1.94,7.73.27,2.06,2.21,1.94,5.67-.27,7.73-2.21,2.06-5.67,1.94-7.73-.27-2.06-2.21-1.94-5.67.27-7.73"/>
        <g class="cls-5">
          <g class="cls-25">
            <path class="cls-21" d="m81.97,44.42c.84-.78,1.38-1.77,1.61-2.81-.19-.32-.42-.62-.68-.9-2.06-2.21-5.52-2.33-7.73-.27-.84.78-1.38,1.77-1.61,2.81.19.32.42.62.68.9,2.06,2.21,5.52,2.33,7.73.27"/>
          </g>
        </g>
        <path class="cls-21" d="m77.79,40.65c.71-.67,1.83-.63,2.5.09.66.71.63,1.83-.09,2.5-.71.66-1.83.63-2.5-.09-.67-.71-.63-1.83.09-2.5"/>
        <path class="cls-26" d="m93.13,23.61c2.21-2.06,5.67-1.94,7.73.27,2.06,2.21,1.94,5.67-.27,7.73-2.21,2.06-5.67,1.94-7.73-.27-2.06-2.21-1.94-5.67.27-7.73"/>
        <g class="cls-5">
          <g class="cls-22">
            <path class="cls-21" d="m99.93,27.59c.84-.78,1.38-1.77,1.61-2.81-.19-.31-.42-.61-.68-.9-2.06-2.21-5.52-2.33-7.73-.27-.84.78-1.38,1.77-1.61,2.81.19.32.42.62.68.9,2.06,2.21,5.52,2.33,7.73.27"/>
          </g>
        </g>
        <path class="cls-21" d="m95.74,23.82c.71-.66,1.83-.63,2.5.09.66.71.63,1.83-.09,2.5-.71.66-1.83.63-2.5-.09-.67-.71-.63-1.83.09-2.5"/>
        <g class="cls-20">
          <g class="cls-29">
            <path class="cls-4" d="m39.99,136.38l1.18,1.26c2.48,2.65,6.64,2.78,9.29.3l88.62-83.05c2.65-2.48,2.78-6.64.3-9.29l-1.18-1.26-98.21,92.04Z"/>
          </g>
        </g>
        <g class="cls-20">
          <g class="cls-1">
            <path class="cls-4" d="m1.78,95.61l1.54,1.64L101.52,5.21l-1.54-1.64c-2.48-2.65-6.64-2.78-9.29-.3L2.08,86.32c-2.65,2.48-2.78,6.64-.3,9.29"/>
          </g>
        </g>
      </g>
      <path class="cls-12" d="m102.2,155.69c6.61-11.37,21.19-15.23,32.56-8.62,11.37,6.61,15.23,21.18,8.62,32.56l-35.12,60.41c-6.61,11.37-21.19,15.23-32.56,8.62-11.37-6.61-15.23-21.19-8.62-32.56l35.12-60.41Z"/>
      <path class="cls-4" d="m75.7,248.65c11.37,6.61,25.95,2.75,32.56-8.62l17.56-30.2s-13.32-25.51-41.17-23.94l-17.56,30.2c-6.61,11.37-2.75,25.95,8.62,32.56"/>
      <g class="cls-30">
        <g class="cls-19">
          <path class="cls-11" d="m132.13,165.19l-35.12,60.41c-6.56,11.29-20.97,15.16-32.3,8.75,1.59,5.81,5.37,11.03,10.99,14.3,11.37,6.61,25.94,2.75,32.56-8.62l35.12-60.41c6.61-11.37,2.75-25.95-8.62-32.56-.08-.05-.17-.08-.26-.13,1.63,5.94.97,12.51-2.37,18.25"/>
        </g>
      </g>
      <path class="cls-11" d="m99.2,242.48c9.29,11.31,7.66,28.01-3.65,37.3-11.31,9.29-28.01,7.66-37.3-3.65l-49.38-60.08c-9.29-11.31-7.66-28.01,3.65-37.3,11.31-9.29,28.01-7.66,37.3,3.65l49.38,60.08Z"/>
      <path class="cls-12" d="m12.52,178.76c-11.31,9.29-12.94,25.99-3.65,37.3l24.69,30.04s31.78-4,40.95-33.66l-24.69-30.04c-9.29-11.31-25.99-12.94-37.3-3.65"/>
      <g class="cls-30">
        <g class="cls-7">
          <path class="cls-11" d="m77.67,270l-49.38-60.08c-9.22-11.22-7.67-27.75,3.41-37.09-6.68-.6-13.59,1.32-19.18,5.91-11.31,9.29-12.94,25.99-3.65,37.3l49.38,60.08c9.29,11.31,25.99,12.94,37.3,3.65.08-.07.16-.15.24-.22-6.83-.61-13.42-3.84-18.12-9.56"/>
        </g>
      </g>
      <g class="cls-3">
        <g class="cls-27">
          <path class="cls-2" d="m52,248.07c1.47,1.88,1.14,4.59-.74,6.05-1.88,1.47-4.59,1.14-6.05-.74l-29.01-37.09c-1.47-1.88-1.14-4.59.74-6.05,1.88-1.47,4.59-1.14,6.05.74l29.01,37.09Z"/>
        </g>
      </g>
      <g class="cls-3">
        <g class="cls-9">
          <path class="cls-2" d="m122.4,205.57c-.86,1.47-2.75,1.97-4.22,1.11-1.47-.86-1.97-2.75-1.11-4.22l17.01-29.08c.86-1.47,2.75-1.97,4.22-1.11,1.47.86,1.97,2.75,1.11,4.22l-17.01,29.08Z"/>
        </g>
      </g>
    </g>
  </g>
</svg>