<?xml version="1.0" encoding="UTF-8"?>
<svg id="OBJECTS" xmlns="http://www.w3.org/2000/svg" viewBox="0 0 200.98 200.98">
  <defs>
    <style>
      .cls-1 {
        fill: #fff;
      }

      .cls-2 {
        stroke-width: .21px;
      }

      .cls-2, .cls-3, .cls-4 {
        fill: none;
        stroke: #1f0a0a;
        stroke-miterlimit: 10;
      }

      .cls-5 {
        fill: #4c85f5;
      }

      .cls-6 {
        fill: #ff4336;
      }

      .cls-7 {
        fill: #8dc3a6;
        isolation: isolate;
        opacity: .25;
      }

      .cls-3 {
        stroke-width: .22px;
      }

      .cls-8 {
        fill: #a1b5ff;
        opacity: .2;
      }

      .cls-9 {
        fill: #e83d31;
        opacity: .5;
      }

      .cls-10 {
        fill: #3374f5;
      }

      .cls-4 {
        stroke-width: .19px;
      }
    </style>
  </defs>
  <circle class="cls-7" cx="100.49" cy="100.49" r="100.49"/>
  <g>
    <g>
      <path class="cls-1" d="m49.32,128.14c2.14,5.65,4.29,11.31,6.43,16.96.76,2,1.53,4.03,2.79,5.76,1.26,1.73,3.1,3.15,5.22,3.44,1.72.23,3.44-.29,5.06-.91,1.3-.5,2.6-1.09,3.57-2.09,1.3-1.34,1.84-3.27,1.83-5.14,0-1.86-.51-3.69-1.05-5.47-1.92-6.36-4.33-12.58-7.2-18.56-5.84.94-11.25,3.58-16.64,6.02Z"/>
      <g>
        <path class="cls-10" d="m67.41,132.6l3.82,9.06s4.98-2.07,3.33-5.81c-1.65-3.74-7.15-3.26-7.15-3.26Z"/>
        <path class="cls-5" d="m73.28,138.69c-.26.89-.47,1.6-.64,2.18,1.33-.92,2.97-2.63,1.91-5-1.65-3.74-7.15-3.26-7.15-3.26,0,0,7.1,1.84,5.87,6.08Z"/>
        <g>
          <path class="cls-2" d="m73.33,137.56c.04,1.67-.47,2.5-.47,2.5"/>
          <path class="cls-2" d="m69.17,133.28s3.69,1.28,4.08,3.38"/>
        </g>
      </g>
    </g>
    <g>
      <path class="cls-1" d="m149.73,120.98c3.46-18.38.4-37.61-6.36-55.06-4.94-12.74-12.21-25.14-23.54-32.78-.02.03-.03.06-.05.09-.05-.09-.09-.19-.14-.28-25.03,19.58-47.82,40.58-68.86,63.75,3.38,9.49,7.36,19.82,11.72,29.54,27.18-6.35,81.65-4.82,86.94-4.65h.18s.12-.61.12-.61Z"/>
      <g>
        <path class="cls-8" d="m149.73,120.98l-.12.62c-37.79-39.49-29.97-88.65-29.97-88.65.04.09.09.19.14.28.01-.03.03-.06.05-.08,9.76,6.57,16.51,16.69,21.35,27.51.78,1.74,1.51,3.5,2.19,5.27.63,1.62,1.22,3.24,1.78,4.89,5.49,16.12,7.72,33.49,4.58,50.17Z"/>
        <path class="cls-8" d="m134.81,48.84c-4.01-6.15-8.91-11.61-14.99-15.7-.02.03-.03.06-.05.09-.05-.09-.09-.19-.14-.28,0,0-1.89,11.92.69,28.73,1.96-5.45,6.11-12.49,14.47-12.84Z"/>
        <path class="cls-8" d="m149.73,120.98c1.12-5.94,1.55-11.98,1.4-18.01-24.29-16.01-22.98-48.44-21.44-60.97-2.9-3.36-6.17-6.37-9.87-8.86-.02.03-.03.06-.05.09-.05-.09-.09-.19-.14-.28,0,0-7.82,49.16,29.97,88.65l.12-.62Z"/>
        <path class="cls-8" d="m149.61,121.6l.12-.62c1.63-8.66,1.81-17.51.84-26.27-9.63,7.04-18.27-.85-23.14-7.26,4.6,11.28,11.61,23.09,22.18,34.15Z"/>
      </g>
      <g>
        <path class="cls-3" d="m142.33,112.72c1.6,2.02,3.32,4.03,5.15,6.03"/>
        <path class="cls-3" d="m119.18,38.7s-5.22,36.01,21,71.24"/>
      </g>
      <g>
        <path class="cls-2" d="m88.11,117.76c13.34-1.3,31.1-2.07,49.16-.05"/>
        <path class="cls-2" d="m65.46,120.96s6.43-1.33,16.64-2.55"/>
      </g>
    </g>
    <g>
      <path class="cls-6" d="m50.78,96.71c-4.54,2.92-8.95,6.05-13.2,9.37-1.71,1.34-3.53,2.93-3.82,5.09-.2,1.46.35,2.91.89,4.29,1.8,4.59,3.61,9.21,6.13,13.45.75,1.25,1.66,2.56,3.04,3,1.37.43,2.83-.09,4.17-.6,4.89-1.88,9.78-3.76,14.67-5.64-4.11-9.63-8.12-19.3-11.88-28.96Z"/>
      <path class="cls-9" d="m50.78,96.71c-2.41,1.55-4.78,3.16-7.11,4.82.73,2.93,3.05,14.96-7.31,18.23,1.29,3.14,2.68,6.23,4.41,9.15.75,1.25,1.66,2.56,3.04,3,1.37.43,2.83-.09,4.17-.6,4.89-1.88,9.78-3.76,14.67-5.64-4.11-9.63-8.12-19.3-11.88-28.96Z"/>
    </g>
    <g>
      <polyline class="cls-2" points="50.4 130.33 62.26 125.82 69.91 124.85"/>
      <path class="cls-2" d="m59.6,118.4c1.04,2.63,1.82,4.59,2.03,5.06"/>
      <path class="cls-2" d="m51.22,98.15s4.49,10.51,7.44,18.02"/>
    </g>
    <g>
      <path class="cls-8" d="m145.14,70.81c-14.07-1.08-14.44-11.82-14.44-11.82l10.47,1.66c.78,1.74,1.51,3.5,2.19,5.27.63,1.62,1.22,3.24,1.78,4.89Z"/>
      <path class="cls-4" d="m142.86,61.37s-1.8-.9-1.21-5.33"/>
    </g>
  </g>
</svg>