<?xml version="1.0" encoding="UTF-8"?>
<svg id="Object" xmlns="http://www.w3.org/2000/svg" viewBox="0 0 200.98 200.98">
  <defs>
    <style>
      .cls-1 {
        fill: #9cc1a5;
        isolation: isolate;
        opacity: .25;
      }

      .cls-2 {
        fill: #fff;
      }

      .cls-3 {
        fill: #304258;
      }

      .cls-4 {
        fill: #3d5673;
      }

      .cls-5 {
        fill: #e7a66b;
      }

      .cls-6 {
        fill: #a6b8c9;
      }

      .cls-7 {
        fill: #adb9c5;
      }
    </style>
  </defs>
  <circle class="cls-1" cx="100.49" cy="100.49" r="100.49"/>
  <g>
    <g>
      <path class="cls-7" d="m120.56,168.34s0,0,0,0c-.03,0-.07,0-.1,0h.1Z"/>
      <path class="cls-7" d="m145.62,78.09c.09-1.94-.48-5.62-1.07-7.84.57,2.96.88,6.01.88,9.14.1-.49.18-.95.19-1.3Z"/>
      <path class="cls-6" d="m151.97,104.89c-.09-1.11-1.04-3.19-1.54-4.19-1.16-2.35-4.42-5.65-6.66-8.81-1.33-1.87-2.31-3.7-2.28-5.25.02-1.4,2.57-3.35,3.15-4.62.27-.61.59-1.68.79-2.63,0-3.13-.31-6.18-.88-9.14-.82-4.25-2.2-8.3-4.06-12.07-7.83-15.9-24.19-26.84-43.11-26.84-26.54,0-48.05,21.51-48.05,48.05,0,13.18,6.68,23.79,14.28,33.44.76.96,1.53,1.92,2.3,2.86.18.22,1.12,1.66,1.23,1.9,1.15,2.45,1.38,6.69,1.63,9.38.17,1.84.23,5.57.58,7.87,3.24,21.51,27.95,33.5,51.12,33.5.03,0,.07,0,.1,0-.95-5.28-1.81-10.25-2.23-13.24-.44-3.2-1.06-10.82,1.46-12.84,1.71-1.37,6.63.13,8.81.28,1.95.13,5.75.94,7.7.9.66-.01,2.02.06,2.62-.2.63-.27,1.65-1.26,2.03-1.84.42-.64.8-2.14.98-2.88.33-1.32,1.05-3.34.85-5.37-.06-.67-.87-1.83-.98-2.49-.06-.37-.07-1.15.07-1.51.39-1.04,2.42-2.48,2.86-3.53.24-.57.26-1.24.08-1.84-.17-.55-1.54-1.92-1.5-2.49.05-.64,1.31-1.4,1.79-1.83.55-.5.98-1.59,1.13-2.03.21-.6.21-1.36.02-1.97-.3-.97-2.06-2.36-2.29-3.34-.06-.26-.05-.85.13-1.05.43-.48,1.88-.39,2.49-.59,1.22-.41,3.73-.88,4.72-2.1.73-.9.73-2.59.66-3.47Z"/>
    </g>
    <path class="cls-2" d="m97.31,38.44c-22.61,0-40.94,18.33-40.94,40.94,0,8.09,3.11,15.27,7.16,21.62.41.65,1.4,1.7,3.38.98l68.37-30.39c1.97-1.07,1.67-2.51,1.45-3.3-4.84-17.22-20.65-29.85-39.41-29.85Z"/>
    <g>
      <path class="cls-4" d="m90.18,73.3l2.96,6.67c-1.66,1.87-2.6,4.29-2.62,6.8l-6.67,2.96,3.5,7.89,6.67-2.96c1.87,1.66,4.29,2.6,6.8,2.62l2.96,6.67,7.89-3.5-2.96-6.67c1.66-1.87,2.6-4.3,2.63-6.8l6.67-2.96-3.5-7.89-6.67,2.96c-1.88-1.66-4.3-2.6-6.8-2.62l-2.96-6.67-7.89,3.5Zm15.15,11.62c1.08,2.44-.02,5.28-2.46,6.37-2.44,1.08-5.29-.02-6.37-2.46-1.08-2.44.02-5.29,2.45-6.37,2.44-1.08,5.29.02,6.37,2.46Z"/>
      <g>
        <path class="cls-3" d="m106.99,100.56c-7.54,3.34-16.4-.07-19.74-7.61l-3.66,1.62c4.24,9.56,15.46,13.89,25.02,9.65,9.56-4.24,13.89-15.47,9.65-25.02l-3.66,1.62c3.34,7.54-.07,16.4-7.61,19.74Z"/>
        <path class="cls-5" d="m93.23,69.55c-9.56,4.24-13.89,15.47-9.65,25.02h0l3.66-1.62h0c-3.34-7.54.07-16.4,7.61-19.74,7.54-3.35,16.39.07,19.74,7.61h0l3.66-1.62h0c-4.24-9.56-15.46-13.89-25.02-9.65Z"/>
        <path class="cls-4" d="m83.58,94.57c-4.24-9.56.09-20.79,9.65-25.02,9.56-4.24,20.78.09,25.02,9.65h0l16.59-7.36-1.96-4.41-7.88,2.28c-1.71-2.4-3.74-4.49-6.01-6.23l2.57-7.8-8.67-4.24-4.59,6.83c-2.78-.72-5.68-1.04-8.6-.93l-3.04-7.63-9.37,2.32.87,8.17c-2.68,1.28-5.09,2.91-7.18,4.83l-7.23-3.89-5.69,7.8,5.93,5.71c-1.2,2.63-2.01,5.43-2.41,8.31l-8.05,1.67.66,9.63,8.19.56c.38,1.38.87,2.74,1.47,4.09h0l9.71-4.31h0Z"/>
      </g>
    </g>
  </g>
</svg>