<?xml version="1.0" encoding="UTF-8"?>
<svg xmlns="http://www.w3.org/2000/svg" viewBox="0 0 200.98 200.98">
  <defs>
    <style>
      .cls-1 {
        fill: #ddd;
      }

      .cls-2 {
        fill: #d3d3d3;
      }

      .cls-2, .cls-3 {
        mix-blend-mode: multiply;
      }

      .cls-4, .cls-5 {
        isolation: isolate;
      }

      .cls-6 {
        fill: #8d8d8c;
      }

      .cls-7 {
        fill: #fff;
        stroke: #000;
        stroke-width: .25px;
      }

      .cls-7, .cls-8 {
        stroke-miterlimit: 10;
      }

      .cls-9 {
        fill: #2f343f;
      }

      .cls-5 {
        fill: #8dc3a6;
        opacity: .25;
      }

      .cls-10 {
        fill: #fcf59f;
      }

      .cls-11 {
        fill: #e7dabb;
      }

      .cls-12 {
        fill: #474f5e;
      }

      .cls-13 {
        fill: #3b414f;
      }

      .cls-3 {
        fill: #ddcca7;
        opacity: .46;
      }

      .cls-14 {
        fill: #acacac;
      }

      .cls-15 {
        fill: #d5c6a5;
      }

      .cls-16 {
        fill: #6e6e6e;
      }

      .cls-8 {
        fill: none;
        stroke: #fcf59f;
        stroke-width: .73px;
      }
    </style>
  </defs>
  <g class="cls-4">
    <g id="OBJECTS">
      <circle class="cls-5" cx="100.49" cy="100.49" r="100.49"/>
      <path class="cls-9" d="m147.62,99.34c-.42-5.73-1.71-10-7.83-10h-7.06c.8,1.69,1.13,3.86,1.31,6.3.19,2.57-.21,5.44-1.76,8.38-1.02,1.94-2.62,3.07-4.31,3.07h-53.27s0,.04,0,.04l-10.81.25c-.65.02-1.16.8-1.15,1.74.01.93.53,1.68,1.18,1.68h77.63c1.69,0,3.29-1.12,4.31-3.07,1.55-2.94,1.95-5.81,1.76-8.38Z"/>
      <path class="cls-13" d="m132.29,104.02c1.55-2.94,1.95-5.81,1.76-8.38-.18-2.44-.52-4.61-1.31-6.3h-68.6c-.65,0-1.18.76-1.18,1.71v.19c0,.94.53,1.71,1.18,1.71h.95c6.01.07,9.42,13.35,9.62,14.15h53.27c1.69,0,3.29-1.12,4.31-3.07Z"/>
      <path class="cls-13" d="m57.66,92.94h-.95c-.65,0-1.18-.76-1.18-1.71v-.19c0-.94.53-1.71,1.18-1.71h50.63c10.47,0,10.12,21.45.2,21.45h-51.04c-.64,0-1.16-.75-1.18-1.68-.01-.94.5-1.72,1.15-1.74l9.01-.25s-1.63-14.11-7.83-14.19Z"/>
      <path class="cls-11" d="m60.5,100.16h0c0-3.08-1.14-5.76-2.84-7.22h48.23c1.64,0,3.17,1.19,4.08,3.17h0c1.07,2.33,1.1,5.35.07,7.73l-.09.21c-.9,2.08-2.47,3.34-4.15,3.34h-48.14c1.7-1.46,2.84-4.15,2.84-7.22Z"/>
      <path class="cls-15" d="m71.9,96.08h20.24c.15,0,.28.18.28.4s-.12.4-.28.4h-20.24c-.15,0-.28-.18-.28-.4s.12-.4.28-.4Z"/>
      <path class="cls-15" d="m61.26,103.63h22.04c.15,0,.28.18.28.4s-.12.4-.28.4h-22.04c-.15,0-.28-.18-.28-.4s.12-.4.28-.4Z"/>
      <path class="cls-15" d="m73.27,105.79h20.24c.15,0,.28.15.28.34s-.12.34-.28.34h-20.24c-.15,0-.28-.15-.28-.34s.12-.34.28-.34Z"/>
      <path class="cls-15" d="m62.47,98.53h26.52c.19,0,.34.11.34.24s-.15.24-.34.24h-26.52c-.19,0-.34-.11-.34-.24s.15-.24.34-.24Z"/>
      <path class="cls-15" d="m82.51,100.94h24.72c.19,0,.34.11.34.24s-.15.24-.34.24h-24.72c-.19,0-.34-.11-.34-.24s.15-.24.34-.24Z"/>
      <path class="cls-3" d="m104.87,99.53c-.91-1.98-2.44-3.17-4.08-3.17h-40.91c-.5-1.42-1.27-2.61-2.21-3.42h48.23c1.64,0,3.17,1.19,4.08,3.17h0c1.07,2.33,1.1,5.35.07,7.73l-.09.21c-.9,2.08-2.47,3.34-4.15,3.34h-.92l.05-.12c1.02-2.37.99-5.4-.07-7.73Z"/>
      <path class="cls-13" d="m147.8,113.41h.95c.65,0,1.18-.53,1.18-1.18v-.13c0-.65-.53-1.18-1.18-1.18h-78.81c-6.12,0-7.41,2.94-7.83,6.89-.19,1.77.21,3.75,1.76,5.77,1.02,1.34,2.63,2.11,4.31,2.11h80.78c.64,0,1.16-.51,1.18-1.16h0c.01-.65-.5-1.18-1.15-1.2l-40.55-.17s33.17-9.72,39.37-9.77Z"/>
      <path class="cls-13" d="m155.23,113.41h.95c.65,0,1.18-.53,1.18-1.18v-.13c0-.65-.53-1.18-1.18-1.18h-80.37c-1.81,0-3.5.89-4.51,2.38-1.6,2.37-3.09,6.24,0,10.28,1.02,1.34,2.62,2.11,4.31,2.11h80.78c.64,0,1.16-.51,1.18-1.16h0c.01-.65-.5-1.18-1.15-1.2l-9.01-.17s1.63-9.72,7.83-9.77Z"/>
      <path class="cls-11" d="m152.39,118.39h0c0-2.12,1.14-3.97,2.84-4.97h-77.97c-1.64,0-3.17.82-4.08,2.19h0c-1.07,1.6-1.1,3.69-.07,5.32l.09.14c.9,1.43,2.47,2.3,4.15,2.3h77.88c-1.7-1.01-2.84-2.86-2.84-4.97Z"/>
      <path class="cls-15" d="m111.25,115.58h-20.24c-.15,0-.28.12-.28.28s.12.28.28.28h20.24c.15,0,.28-.12.28-.28s-.12-.28-.28-.28Z"/>
      <path class="cls-15" d="m151.63,120.78h-51.78c-.15,0-.28.12-.28.28s.12.28.28.28h51.78c.15,0,.28-.12.28-.28s-.12-.28-.28-.28Z"/>
      <path class="cls-15" d="m109.88,122.26h-20.24c-.15,0-.28.1-.28.23s.12.23.28.23h20.24c.15,0,.28-.1.28-.23s-.12-.23-.28-.23Z"/>
      <path class="cls-15" d="m150.42,117.26h-56.26c-.19,0-.34.08-.34.17s.15.17.34.17h56.26c.19,0,.34-.08.34-.17s-.15-.17-.34-.17Z"/>
      <path class="cls-15" d="m100.64,118.92h-24.72c-.19,0-.34.08-.34.17s.15.17.34.17h24.72c.19,0,.34-.08.34-.17s-.15-.17-.34-.17Z"/>
      <path class="cls-3" d="m78.28,117.96c.91-1.37,2.44-2.19,4.08-2.19h70.65c.5-.98,1.27-1.8,2.21-2.36h-77.97c-1.64,0-3.17.82-4.08,2.19h0c-1.07,1.6-1.1,3.69-.07,5.32l.09.14c.9,1.43,2.47,2.3,4.15,2.3h.92l-.05-.08c-1.02-1.63-.99-3.72.07-5.32Z"/>
      <path class="cls-12" d="m68.23,116.5c1.47-1.61,2.49-3.54,3.32-5.56h-1.61c-6.12,0-7.41,2.94-7.83,6.89-.07.61-.06,1.25.04,1.9,2.27-.25,4.5-1.51,6.07-3.23Z"/>
      <path class="cls-9" d="m134.24,130.5h1.83c1.25,0,2.26-1.01,2.26-2.26v-.25c0-1.25-1.01-2.26-2.26-2.26H58.57c-11.79,0-14.27,5.66-15.08,13.27-.36,3.41.41,7.22,3.38,11.11,1.97,2.58,5.05,4.07,8.3,4.07h81.29c1.24,0,2.24-.99,2.26-2.22h0c.02-1.25-.97-2.28-2.22-2.3l-17.35-.33s3.14-18.72,15.07-18.81Z"/>
      <path class="cls-12" d="m148.54,130.5h1.83c1.25,0,2.26-1.01,2.26-2.26v-.25c0-1.25-1.01-2.26-2.26-2.26h-80.5c-3.48,0-6.74,1.71-8.68,4.59-3.08,4.57-5.95,12.01,0,19.79,1.97,2.58,5.05,4.07,8.3,4.07h81.29c1.24,0,2.24-.99,2.26-2.22h0c.02-1.25-.97-2.28-2.22-2.3l-17.35-.33s3.14-18.72,15.07-18.81Z"/>
      <path class="cls-11" d="m143.07,140.07h0c0-4.08,2.2-7.64,5.47-9.58h-75.88c-3.16,0-6.11,1.58-7.86,4.21h0c-2.06,3.09-2.11,7.1-.14,10.25l.17.27c1.73,2.76,4.75,4.43,8,4.43h75.71c-3.27-1.94-5.47-5.5-5.47-9.58Z"/>
      <path class="cls-15" d="m124.59,134.67h-25.45c-.29,0-.53.24-.53.53s.24.53.53.53h25.45c.29,0,.53-.24.53-.53s-.24-.53-.53-.53Z"/>
      <path class="cls-15" d="m141.62,144.67h-38.97c-.29,0-.53.24-.53.53s.24.53.53.53h38.97c.29,0,.53-.24.53-.53s-.24-.53-.53-.53Z"/>
      <path class="cls-15" d="m121.96,147.54h-25.45c-.29,0-.53.2-.53.45s.24.45.53.45h25.45c.29,0,.53-.2.53-.45s-.24-.45-.53-.45Z"/>
      <path class="cls-15" d="m139.28,137.91h-34.07c-.36,0-.65.15-.65.32s.29.32.65.32h34.07c.36,0,.65-.15.65-.32s-.29-.32-.65-.32Z"/>
      <path class="cls-15" d="m104.16,141.1h-34.07c-.36,0-.65.15-.65.32s.29.32.65.32h34.07c.36,0,.65-.15.65-.32s-.29-.32-.65-.32Z"/>
      <path class="cls-3" d="m74.63,139.24c1.75-2.63,4.7-4.21,7.86-4.21h61.79c.96-1.89,2.45-3.46,4.26-4.54h-75.88c-3.16,0-6.11,1.58-7.86,4.21h0c-2.06,3.09-2.11,7.1-.14,10.25l.17.27c1.73,2.76,4.75,4.43,8,4.43h1.77l-.1-.16c-1.97-3.15-1.92-7.16.14-10.25Z"/>
      <path class="cls-12" d="m55.27,136.43c2.83-3.1,4.79-6.81,6.4-10.71h-3.1c-11.79,0-14.27,5.66-15.08,13.27-.13,1.18-.11,2.4.08,3.66,4.37-.47,8.67-2.9,11.69-6.21Z"/>
      <g>
        <circle class="cls-16" cx="100.14" cy="85.44" r="3.75" transform="translate(-31.08 95.83) rotate(-45)"/>
        <path class="cls-7" d="m118.54,47.35c0-10.46-8.15-18.94-18.2-18.94s-18.2,8.48-18.2,18.94c0,3.3.81,6.41,2.24,9.11,2.71,4.91,9,13.15,9,20.54,0,6.04,13.74,4.62,13.74,0s.52-7.75,7.86-18.38c2.41-3.11,3.57-7.04,3.57-11.26Z"/>
        <path class="cls-2" d="m83.62,39.84c-.96,2.3-1.49,4.84-1.49,7.52,0,3.3.81,6.41,2.24,9.11,2.71,4.91,9,13.15,9,20.54,0,6.04,13.74,4.62,13.74,0s.52-7.75,7.86-18.38c.93-1.2,1.68-2.53,2.24-3.95-13.21,11.77-32.93,2.07-33.59-14.83Z"/>
        <path class="cls-8" d="m95.92,77.08s-2.76-14.69-3.07-16.82c-.32-2.12-.41-3.21-1.04-2.8-.63.41-.54,2.58,2.49,2.44,3.03-.14,3.3-3.66,1.27-3.75-2.03-.09-2.4,4.29,2.22,4.07,4.61-.23,4.7-3.44,2.08-3.75-2.62-.32-2.44,4.07,1.99,4.02,4.43-.05,4.57-3.3,3.03-3.53s-2.26,3.3.81,3.48c3.07.18,3.57-2.03,2.94-3.12-.63-1.08-.77,1.76-1.27,4.88-.5,3.12-1.94,14.65-1.94,14.65"/>
        <g>
          <path class="cls-1" d="m107.72,75.84h-15.11c-.84,0-1.52.68-1.52,1.52s.68,1.52,1.52,1.52h15.11c.84,0,1.52-.68,1.52-1.52s-.68-1.52-1.52-1.52Z"/>
          <path class="cls-16" d="m106.91,75.84h-14.29c-.84,0-1.52.68-1.52,1.52s.68,1.52,1.52,1.52h14.29c.84,0,1.52-.68,1.52-1.52s-.68-1.52-1.52-1.52Z"/>
          <path class="cls-6" d="m106.91,75.84h-13.21c-.84,0-1.52.68-1.52,1.52s.68,1.52,1.52,1.52h13.21c.84,0,1.52-.68,1.52-1.52s-.68-1.52-1.52-1.52Z"/>
          <path class="cls-14" d="m106.39,76.03h-9.97c-.56,0-1.01.37-1.01.82s.45.82,1.01.82h9.97c.56,0,1.01-.37,1.01-.82s-.45-.82-1.01-.82Z"/>
        </g>
        <g>
          <path class="cls-1" d="m107.72,78.77h-15.11c-.84,0-1.52.68-1.52,1.52s.68,1.52,1.52,1.52h15.11c.84,0,1.52-.68,1.52-1.52s-.68-1.52-1.52-1.52Z"/>
          <path class="cls-16" d="m106.91,78.77h-14.29c-.84,0-1.52.68-1.52,1.52s.68,1.52,1.52,1.52h14.29c.84,0,1.52-.68,1.52-1.52s-.68-1.52-1.52-1.52Z"/>
          <path class="cls-6" d="m106.91,78.77h-13.21c-.84,0-1.52.68-1.52,1.52s.68,1.52,1.52,1.52h13.21c.84,0,1.52-.68,1.52-1.52s-.68-1.52-1.52-1.52Z"/>
          <path class="cls-14" d="m106.39,78.96h-9.97c-.56,0-1.01.37-1.01.82s.45.82,1.01.82h9.97c.56,0,1.01-.37,1.01-.82s-.45-.82-1.01-.82Z"/>
        </g>
        <g>
          <path class="cls-1" d="m107.72,81.7h-15.11c-.84,0-1.52.68-1.52,1.52s.68,1.52,1.52,1.52h15.11c.84,0,1.52-.68,1.52-1.52s-.68-1.52-1.52-1.52Z"/>
          <path class="cls-16" d="m106.91,81.7h-14.29c-.84,0-1.52.68-1.52,1.52s.68,1.52,1.52,1.52h14.29c.84,0,1.52-.68,1.52-1.52s-.68-1.52-1.52-1.52Z"/>
          <path class="cls-6" d="m106.91,81.7h-13.21c-.84,0-1.52.68-1.52,1.52s.68,1.52,1.52,1.52h13.21c.84,0,1.52-.68,1.52-1.52s-.68-1.52-1.52-1.52Z"/>
          <path class="cls-14" d="m106.39,81.89h-9.97c-.56,0-1.01.37-1.01.82s.45.82,1.01.82h9.97c.56,0,1.01-.37,1.01-.82s-.45-.82-1.01-.82Z"/>
        </g>
        <g>
          <path class="cls-1" d="m105.62,84.67h-10.92c-.61,0-1.1.49-1.1,1.1s.49,1.1,1.1,1.1h10.92c.61,0,1.1-.49,1.1-1.1s-.49-1.1-1.1-1.1Z"/>
          <path class="cls-16" d="m105.04,84.67h-10.33c-.61,0-1.1.49-1.1,1.1s.49,1.1,1.1,1.1h10.33c.61,0,1.1-.49,1.1-1.1s-.49-1.1-1.1-1.1Z"/>
          <path class="cls-6" d="m105.04,84.67h-9.54c-.61,0-1.1.49-1.1,1.1s.49,1.1,1.1,1.1h9.54c.61,0,1.1-.49,1.1-1.1s-.49-1.1-1.1-1.1Z"/>
          <path class="cls-14" d="m104.66,84.81h-7.21c-.4,0-.73.27-.73.59s.33.59.73.59h7.21c.4,0,.73-.27.73-.59s-.33-.59-.73-.59Z"/>
        </g>
        <polygon class="cls-16" points="92.78 78.57 106.81 78.75 92.78 78.93 92.78 78.57 92.78 78.57"/>
        <polygon class="cls-16" points="92.78 81.53 106.81 81.71 92.78 81.89 92.78 81.53 92.78 81.53"/>
        <polygon class="cls-16" points="92.56 84.35 106.81 84.67 92.56 84.72 92.56 84.35 92.56 84.35"/>
        <path class="cls-10" d="m116.56,49.42c-1.14.37-3.08-2.39-4.32-6.19-1.24-3.79-1.33-7.17-.18-7.54,1.14-.37,3.08,2.39,4.32,6.19,1.24,3.79,1.33,7.17.18,7.54Z"/>
        <circle class="cls-10" cx="116.16" cy="52.47" r="1.32"/>
        <path class="cls-10" d="m85.69,42.82c.41-.2,1.58,1.31,2.62,3.38,1.04,2.07,1.56,3.92,1.16,4.12-.41.2-1.58-1.31-2.62-3.38-1.04-2.07-1.56-3.92-1.16-4.12Z"/>
      </g>
    </g>
  </g>
</svg>