<?xml version="1.0" encoding="UTF-8"?>
<svg xmlns="http://www.w3.org/2000/svg" xmlns:xlink="http://www.w3.org/1999/xlink" viewBox="0 0 200.98 200.98">
  <defs>
    <style>
      .cls-1 {
        fill: url(#linear-gradient-2);
      }

      .cls-1, .cls-2 {
        mix-blend-mode: multiply;
        opacity: .5;
      }

      .cls-2 {
        fill: url(#linear-gradient);
      }

      .cls-3, .cls-4 {
        isolation: isolate;
      }

      .cls-5 {
        fill: #48546b;
      }

      .cls-4 {
        fill: #8dc3a6;
        opacity: .25;
      }

      .cls-6 {
        fill: #3b414f;
      }
    </style>
    <linearGradient id="linear-gradient" x1="90.17" y1="120.52" x2="90.74" y2="139.19" gradientUnits="userSpaceOnUse">
      <stop offset="0" stop-color="#1da2fb"/>
      <stop offset="1" stop-color="#0069f1"/>
    </linearGradient>
    <linearGradient id="linear-gradient-2" x1="106.7" y1="69.97" x2="89.28" y2="95.78" gradientUnits="userSpaceOnUse">
      <stop offset="0" stop-color="#ff7d7b"/>
      <stop offset="1" stop-color="#e84f57"/>
    </linearGradient>
  </defs>
  <g class="cls-3">
    <g id="Layer_1" data-name="Layer 1">
      <g id="OBJECTS">
        <circle class="cls-4" cx="100.49" cy="100.49" r="100.49"/>
      </g>
      <g>
        <path class="cls-6" d="m126.28,83.17l11.92-16.49,2.38,14.81,8.92-1.43-3.39-21.12-1.43-8.92-8.92,1.43-21.12,3.39,1.43,8.92,14.81-2.38-11.96,16.53c-13.97-7.26-31.51-3.39-41.01,9.74-10.45,14.45-7.2,34.62,7.24,45.07,14.44,10.44,34.62,7.2,45.07-7.24,9.59-13.27,7.63-31.37-3.95-42.33Zm-35.83,42.26c-10.4-7.52-12.74-22.06-5.22-32.47,7.52-10.4,22.06-12.74,32.46-5.21,10.4,7.52,12.74,22.06,5.22,32.46-7.52,10.4-22.06,12.74-32.46,5.22Z"/>
        <path class="cls-2" d="m96.97,128.73h0c-.49.76-1.78,2.44-4.27,4.07l.97,4.35c-2.97-1.01-5.84-2.47-8.51-4.4-.18-.13-.35-.26-.53-.4h0l-.77-4.01s.13-3.33,1.29-4.11c.39-.26,1.29-.78,2.35-1.34.9.91,1.88,1.76,2.96,2.53,2.04,1.48,4.25,2.58,6.53,3.3Z"/>
        <path class="cls-5" d="m107.14,93.43c-5.02-17.1-22.95-26.9-40.06-21.89-17.11,5.02-26.9,22.95-21.89,40.06,4.59,15.63,19.96,25.16,35.63,22.85l3.58,12.2-9.15,2.68,2.54,8.66,9.15-2.68,2.29,7.81,8.66-2.54-2.29-7.81,9.86-2.89-2.54-8.66-9.86,2.89-3.58-12.2c14.43-6.52,22.23-22.84,17.65-38.48Zm-53.28,15.63c-3.61-12.32,3.45-25.24,15.77-28.85,12.32-3.61,25.24,3.44,28.85,15.76,3.61,12.32-3.44,25.24-15.76,28.86-12.32,3.61-25.24-3.45-28.86-15.77Z"/>
        <path class="cls-1" d="m104.06,86.27c-5.59-1.17-10.12,1.26-10.12,1.26-1.35-1.61-2.92-3.02-4.64-4.2,0,0,4.6-3.19,6.47-3.37.69-.07,1.95-.14,3.28-.21,1.92,1.92,3.6,4.11,5,6.52Z"/>
        <path class="cls-5" d="m108.67,74.64c-11.01-1.59-22.48,2.6-29.82,11.8l6.22,6.75c.05-.08.11-.15.16-.22,5.59-7.72,15.05-11,23.81-9.08l-.36-9.23Z"/>
      </g>
    </g>
  </g>
</svg>