<?xml version="1.0" encoding="UTF-8"?>
<svg id="Layer_1" data-name="Layer 1" xmlns="http://www.w3.org/2000/svg" viewBox="0 0 356.99 324.08">
  <defs>
    <style>
      .cls-1 {
        fill: #dda05d;
      }
    </style>
  </defs>
  <path class="cls-1" d="m257.37,196.04c-7.28.35-14.56.81-21.84,1.03-53.66,1.6-96.86,39.63-104.73,92.65-1.33,8.97-1.26,18.15-1.78,27.24-.13,2.34-.02,4.7-.02,7.05-.4.02-.79.05-1.19.07-.09-1.85-.1-3.71-.28-5.55-1.2-12.89-1.12-26.06-3.9-38.6-9.84-44.4-47.62-77.38-92.9-82.1-8.8-.92-17.68-1.04-26.52-1.53-1.42-.08-2.84-.15-4.22-1.03,7.03-.34,14.06-.76,21.09-1.02,52.03-1.92,93.33-36.41,103.57-87.3,2.15-10.67,1.99-21.81,2.82-32.74.18-2.3.03-4.63.03-6.94.38,0,.75,0,1.13,0,.35,7.24.81,14.48,1.04,21.72.65,20.97,6.44,40.37,18.42,57.59,20.79,29.91,49.59,45.73,86.01,47.58,6.98.35,13.96.6,20.94.92.79.04,1.58.2,2.37.31-.02.22-.03.44-.05.66Z"/>
  <path class="cls-1" d="m356.94,148.04c-7.43.75-14.95.96-22.26,2.35-27.99,5.33-47.37,27.8-49.15,56.38-.28,4.46-.71,8.92-1.91,13.45-.38-4.31-.85-8.62-1.12-12.94-1.27-19.59-9.52-35.39-25.47-46.98-9.54-6.93-20.4-10.24-32.09-11.04-4.42-.3-8.84-.74-13.29-1.93,4.48-.39,8.96-.83,13.44-1.15,27.3-1.89,49.27-19.7,55.45-45.63,1.69-7.1,1.85-14.56,2.71-21.86.14-1.15.26-2.3,1.13-3.42.54,5.88.92,11.78,1.66,17.63,3.85,30.1,26.98,51.56,57.29,53.31,4.56.26,9.1.72,13.65,1.08-.02.25-.03.5-.05.74Z"/>
  <path class="cls-1" d="m172.86,33.94c21.04-2.27,35.04-12.16,39.23-33.94,4.25,21.69,18.18,31.78,39.63,33.84-23.92,2.57-37.1,15.54-39.59,39.64-2.59-23.86-15.42-36.94-39.27-39.54Z"/>
</svg>