<?xml version="1.0" encoding="UTF-8"?>
<svg id="Layer_1" data-name="Layer 1" xmlns="http://www.w3.org/2000/svg" viewBox="0 0 34.43 40">
  <defs>
    <style>
      .cls-1 {
        fill: #33464f;
      }
    </style>
  </defs>
  <path id="Path_502" data-name="Path 502" class="cls-1" d="m6.9,34.39V1.48c0-.82.66-1.48,1.48-1.48h.06c.81.04,1.44.71,1.43,1.52v32.83c.16,0,.31.02.46.04.12.01.24.02.36.04.28.03.55.07.82.12,1.17.18,2.3.58,3.32,1.19,1.33.74,2.18,2.12,2.24,3.64v.05c0,.32-.26.57-.57.57H.57c-.32,0-.57-.26-.57-.57.03-1.54.88-2.95,2.24-3.69.93-.55,1.95-.92,3.01-1.12.27-.05.54-.1.82-.14l.16-.02.23-.03c.14-.02.29-.03.43-.05Zm26.95-19.04s-.07,0-.11,0c-1.39-.25-2.81-.37-4.22-.37-3.08.03-6.13.5-9.07,1.41l4.56-2.91s.08-.06.11-.09h0c.27-.22.45-.53.52-.87.01-.07.34-1.66.52-3.49,3.49.3,6.59,2.36,8.21,5.47.15.29.03.65-.26.79-.08.04-.17.06-.26.06h0Zm-10.91-2.2l-4.17,2.66v-2.89c.54-.06,1.09-.09,1.64-.09.85-.02,1.7.08,2.52.32h0Zm-4.68-1.58l-.19.02c-.22.03-.46.06-.7.1-2,.34-3.96.84-5.87,1.51V3.87c2.14-1.06,4.48-1.64,6.87-1.67,2.17-.13,4.29.61,5.9,2.08.52.56.64,1.86.59,3.25,0,.23-.02.46-.04.7h0c-.02.23-.04.47-.06.7-.08.76-.18,1.48-.27,2.06-.12.76-.23,1.26-.23,1.26h0c-.09-.07-.2-.12-.3-.17-1.13-.47-2.35-.69-3.57-.63-.49,0-1.04.02-1.64.08h-.04c-.14.01-.3.03-.46.05h0Z"/>
</svg>